%TF.GenerationSoftware,Altium Limited,Altium Designer,22.5.1 (42)*%
G04 Layer_Color=65535*
%FSLAX26Y26*%
%MOIN*%
%TF.SameCoordinates,B04901F9-BF46-49F9-850C-5E78856F6392*%
%TF.FilePolarity,Positive*%
%TF.FileFunction,Legend,Top*%
%TF.Part,Single*%
G01*
G75*
%TA.AperFunction,NonConductor*%
%ADD30C,0.011024*%
%ADD31C,0.005000*%
%ADD32C,0.007874*%
%ADD33C,0.010000*%
D30*
X2824961Y1500000D02*
G03*
X2824961Y1500000I-5512J0D01*
G01*
X2480512Y1819449D02*
G03*
X2480512Y1819449I-5512J0D01*
G01*
D31*
X2980866Y1425197D02*
Y1464567D01*
Y1535433D02*
Y1574803D01*
X2834803Y1425197D02*
Y1464567D01*
Y1535433D02*
Y1574803D01*
X2400197Y1834803D02*
X2439567D01*
X2510433D02*
X2549803D01*
X2400197Y1980866D02*
X2439567D01*
X2510433D02*
X2549803D01*
D32*
X1521937Y1445431D02*
Y1500549D01*
X1624299Y1445431D02*
Y1500549D01*
X1050000Y1430000D02*
X1250000D01*
X1050000Y1330000D02*
Y1430000D01*
Y1330000D02*
X1250000D01*
Y1430000D01*
Y1570000D02*
Y1670000D01*
X1050000Y1570000D02*
X1250000D01*
X1050000D02*
Y1670000D01*
X1250000D01*
D33*
X2895000Y1759990D02*
X2875006D01*
X2885003D01*
Y1710006D01*
X2875006Y1700010D01*
X2865010D01*
X2855013Y1710006D01*
X2914994Y1700010D02*
X2934987D01*
X2924990D01*
Y1759990D01*
X2914994Y1749994D01*
X2210003Y1939990D02*
X2190010D01*
X2200006D01*
Y1890006D01*
X2190010Y1880010D01*
X2180013D01*
X2170016Y1890006D01*
X2269984Y1880010D02*
X2229997D01*
X2269984Y1919997D01*
Y1929994D01*
X2259987Y1939990D01*
X2239994D01*
X2229997Y1929994D01*
X2356000Y1748981D02*
X2395987D01*
Y1738984D01*
X2356000Y1698997D01*
Y1689000D01*
X2395987D01*
X2415981D02*
X2435974D01*
X2425977D01*
Y1748981D01*
X2415981Y1738984D01*
X1435016Y1175010D02*
Y1234990D01*
X1465006D01*
X1475003Y1224994D01*
Y1205000D01*
X1465006Y1195003D01*
X1435016D01*
X1455010D02*
X1475003Y1175010D01*
X1534984D02*
X1494997D01*
X1534984Y1214997D01*
Y1224994D01*
X1524987Y1234990D01*
X1504994D01*
X1494997Y1224994D01*
X1660006Y1225003D02*
X1650010Y1215006D01*
Y1195013D01*
X1660006Y1185016D01*
X1699994D01*
X1709990Y1195013D01*
Y1215006D01*
X1699994Y1225003D01*
X1709990Y1274987D02*
X1650010D01*
X1680000Y1244997D01*
Y1284984D01*
X1430016Y1334990D02*
Y1275010D01*
X1470003D01*
X1489997Y1324994D02*
X1499994Y1334990D01*
X1519987D01*
X1529984Y1324994D01*
Y1314997D01*
X1519987Y1305000D01*
X1509990D01*
X1519987D01*
X1529984Y1295003D01*
Y1285006D01*
X1519987Y1275010D01*
X1499994D01*
X1489997Y1285006D01*
X1370003Y1424994D02*
X1360006Y1434990D01*
X1340013D01*
X1330016Y1424994D01*
Y1385006D01*
X1340013Y1375010D01*
X1360006D01*
X1370003Y1385006D01*
X1389997Y1424994D02*
X1399994Y1434990D01*
X1419987D01*
X1429984Y1424994D01*
Y1414997D01*
X1419987Y1405000D01*
X1429984Y1395003D01*
Y1385006D01*
X1419987Y1375010D01*
X1399994D01*
X1389997Y1385006D01*
Y1395003D01*
X1399994Y1405000D01*
X1389997Y1414997D01*
Y1424994D01*
X1399994Y1405000D02*
X1419987D01*
X1350013Y1525010D02*
Y1584990D01*
X1380003D01*
X1390000Y1574994D01*
Y1555000D01*
X1380003Y1545003D01*
X1350013D01*
X1370006D02*
X1390000Y1525010D01*
X1409994D02*
X1429987D01*
X1419990D01*
Y1584990D01*
X1409994Y1574994D01*
X1564994Y1580000D02*
X1525006D01*
X1515010Y1570003D01*
Y1550010D01*
X1525006Y1540013D01*
X1564994D01*
X1574990Y1550010D01*
Y1570003D01*
X1554997Y1560006D02*
X1574990Y1580000D01*
Y1570003D02*
X1564994Y1580000D01*
X1574990Y1599994D02*
Y1619987D01*
Y1609990D01*
X1515010D01*
X1525006Y1599994D01*
X1525010Y1645013D02*
X1584990D01*
Y1685000D01*
Y1704994D02*
Y1724987D01*
Y1714990D01*
X1525010D01*
X1535006Y1704994D01*
X2040016Y1619990D02*
Y1560010D01*
X2080003D01*
X2129987D02*
Y1619990D01*
X2099997Y1590000D01*
X2139984D01*
X1815006Y1340003D02*
X1805010Y1330006D01*
Y1310013D01*
X1815006Y1300016D01*
X1854994D01*
X1864990Y1310013D01*
Y1330006D01*
X1854994Y1340003D01*
X1805010Y1399984D02*
Y1359997D01*
X1835000D01*
X1825003Y1379990D01*
Y1389987D01*
X1835000Y1399984D01*
X1854994D01*
X1864990Y1389987D01*
Y1369994D01*
X1854994Y1359997D01*
X2165006Y1345003D02*
X2155010Y1335006D01*
Y1315013D01*
X2165006Y1305016D01*
X2204994D01*
X2214990Y1315013D01*
Y1335006D01*
X2204994Y1345003D01*
X2155010Y1364997D02*
Y1404984D01*
X2165006D01*
X2204994Y1364997D01*
X2214990D01*
X1960006Y1345003D02*
X1950010Y1335006D01*
Y1315013D01*
X1960006Y1305016D01*
X1999994D01*
X2009990Y1315013D01*
Y1335006D01*
X1999994Y1345003D01*
X1950010Y1404984D02*
X1960006Y1384990D01*
X1980000Y1364997D01*
X1999994D01*
X2009990Y1374994D01*
Y1394987D01*
X1999994Y1404984D01*
X1989997D01*
X1980000Y1394987D01*
Y1364997D01*
X1740010Y1545016D02*
X1799990D01*
Y1585003D01*
Y1644984D02*
Y1604997D01*
X1760003Y1644984D01*
X1750006D01*
X1740010Y1634987D01*
Y1614994D01*
X1750006Y1604997D01*
X1670006Y1585003D02*
X1660010Y1575006D01*
Y1555013D01*
X1670006Y1545016D01*
X1709994D01*
X1719990Y1555013D01*
Y1575006D01*
X1709994Y1585003D01*
X1719990Y1644984D02*
Y1604997D01*
X1680003Y1644984D01*
X1670006D01*
X1660010Y1634987D01*
Y1614994D01*
X1670006Y1604997D01*
X1877559Y1594994D02*
X1867562Y1604990D01*
X1847569D01*
X1837572Y1594994D01*
Y1555007D01*
X1847569Y1545010D01*
X1867562D01*
X1877559Y1555007D01*
X1897553Y1545010D02*
X1917546D01*
X1907550D01*
Y1604990D01*
X1897553Y1594994D01*
X1835003Y1719994D02*
X1825006Y1729990D01*
X1805013D01*
X1795016Y1719994D01*
Y1680006D01*
X1805013Y1670010D01*
X1825006D01*
X1835003Y1680006D01*
X1854997D02*
X1864994Y1670010D01*
X1884987D01*
X1894984Y1680006D01*
Y1719994D01*
X1884987Y1729990D01*
X1864994D01*
X1854997Y1719994D01*
Y1709997D01*
X1864994Y1700000D01*
X1894984D01*
X1905000Y1080000D02*
Y1139981D01*
X1944987Y1080000D01*
Y1139981D01*
X1994971Y1080000D02*
X1974977D01*
X1964981Y1089997D01*
Y1109990D01*
X1974977Y1119987D01*
X1994971D01*
X2004968Y1109990D01*
Y1099994D01*
X1964981D01*
X2024961Y1119987D02*
Y1089997D01*
X2034958Y1080000D01*
X2064948D01*
Y1119987D01*
X2084942D02*
Y1080000D01*
Y1099994D01*
X2094939Y1109990D01*
X2104935Y1119987D01*
X2114932D01*
X2154919Y1080000D02*
X2174913D01*
X2184910Y1089997D01*
Y1109990D01*
X2174913Y1119987D01*
X2154919D01*
X2144922Y1109990D01*
Y1089997D01*
X2154919Y1080000D01*
X2204903Y1139981D02*
X2224896D01*
X2214900D01*
Y1080000D01*
X2204903D01*
X2224896D01*
X2254887Y1139981D02*
Y1080000D01*
X2294874D01*
X2344858Y1139981D02*
X2324864D01*
X2314867Y1129984D01*
Y1089997D01*
X2324864Y1080000D01*
X2344858D01*
X2354854Y1089997D01*
Y1129984D01*
X2344858Y1139981D01*
X2434829D02*
Y1099994D01*
X2454822Y1080000D01*
X2474816Y1099994D01*
Y1139981D01*
X2524800Y1080000D02*
X2504806D01*
X2494809Y1089997D01*
Y1109990D01*
X2504806Y1119987D01*
X2524800D01*
X2534796Y1109990D01*
Y1099994D01*
X2494809D01*
X2554790Y1119987D02*
Y1080000D01*
Y1099994D01*
X2564787Y1109990D01*
X2574783Y1119987D01*
X2584780D01*
X2614770Y1080000D02*
Y1089997D01*
X2624767D01*
Y1080000D01*
X2614770D01*
X2704741Y1129984D02*
X2694744Y1139981D01*
X2674751D01*
X2664754Y1129984D01*
Y1089997D01*
X2674751Y1080000D01*
X2694744D01*
X2704741Y1089997D01*
X1109987Y1514984D02*
X1099990Y1524981D01*
X1079997D01*
X1070000Y1514984D01*
Y1474997D01*
X1079997Y1465000D01*
X1099990D01*
X1109987Y1474997D01*
Y1494990D01*
X1089994D01*
X1129981Y1465000D02*
Y1524981D01*
X1169968Y1465000D01*
Y1524981D01*
X1189961D02*
Y1465000D01*
X1219951D01*
X1229948Y1474997D01*
Y1514984D01*
X1219951Y1524981D01*
X1189961D01*
X1075000Y1764981D02*
Y1724994D01*
X1094994Y1705000D01*
X1114987Y1724994D01*
Y1764981D01*
X1174968Y1754984D02*
X1164971Y1764981D01*
X1144977D01*
X1134981Y1754984D01*
Y1714997D01*
X1144977Y1705000D01*
X1164971D01*
X1174968Y1714997D01*
X1234948Y1754984D02*
X1224951Y1764981D01*
X1204958D01*
X1194961Y1754984D01*
Y1714997D01*
X1204958Y1705000D01*
X1224951D01*
X1234948Y1714997D01*
%TF.MD5,e18a62c968be7e851ff27640c5425c15*%
M02*
