%TF.GenerationSoftware,Altium Limited,Altium Designer,22.5.1 (42)*%
G04 Layer_Color=32768*
%FSLAX26Y26*%
%MOIN*%
%TF.SameCoordinates,B04901F9-BF46-49F9-850C-5E78856F6392*%
%TF.FilePolarity,Positive*%
%TF.FileFunction,Other,Mechanical_15*%
%TF.Part,Single*%
G01*
G75*
%TA.AperFunction,NonConductor*%
%ADD41C,0.003937*%
%ADD42C,0.001968*%
D41*
X1571299Y1227559D02*
X1608701D01*
X1590000Y1208858D02*
Y1246260D01*
X1616000Y1176559D02*
Y1278559D01*
X1564000Y1176559D02*
Y1278559D01*
X1616000D01*
X1564000Y1176559D02*
X1616000D01*
X1661299Y1352441D02*
X1698701D01*
X1680000Y1333740D02*
Y1371142D01*
X1706000Y1301441D02*
Y1403441D01*
X1654000Y1301441D02*
Y1403441D01*
X1706000D01*
X1654000Y1301441D02*
X1706000D01*
X1571299Y1352441D02*
X1608701D01*
X1590000Y1333740D02*
Y1371142D01*
X1616000Y1301441D02*
Y1403441D01*
X1564000Y1301441D02*
Y1403441D01*
X1616000D01*
X1564000Y1301441D02*
X1616000D01*
X1456299Y1410000D02*
X1493701D01*
X1475000Y1391299D02*
Y1428701D01*
X1501000Y1359000D02*
Y1461000D01*
X1449000Y1359000D02*
Y1461000D01*
X1501000D01*
X1449000Y1359000D02*
X1501000D01*
X1456299Y1550000D02*
X1493701D01*
X1475000Y1531299D02*
Y1568701D01*
X1501000Y1499000D02*
Y1601000D01*
X1449000Y1499000D02*
Y1601000D01*
X1501000D01*
X1449000Y1499000D02*
X1501000D01*
X1601299Y1592441D02*
X1638701D01*
X1620000Y1573740D02*
Y1611142D01*
X1646000Y1541441D02*
Y1643441D01*
X1594000Y1541441D02*
Y1643441D01*
X1646000D01*
X1594000Y1541441D02*
X1646000D01*
X2085000Y1486299D02*
Y1523701D01*
X2066299Y1505000D02*
X2103701D01*
X2034000Y1479000D02*
X2136000D01*
X2034000Y1531000D02*
X2136000D01*
Y1479000D02*
Y1531000D01*
X2034000Y1479000D02*
Y1531000D01*
X1741299Y1352559D02*
X1778701D01*
X1760000Y1333858D02*
Y1371260D01*
X1786000Y1301559D02*
Y1403559D01*
X1734000Y1301559D02*
Y1403559D01*
X1786000D01*
X1734000Y1301559D02*
X1786000D01*
X2166299Y1475000D02*
X2203701D01*
X2185000Y1456299D02*
Y1493701D01*
X2211000Y1424000D02*
Y1526000D01*
X2159000Y1424000D02*
Y1526000D01*
X2211000D01*
X2159000Y1424000D02*
X2211000D01*
X1961299Y1475000D02*
X1998701D01*
X1980000Y1456299D02*
Y1493701D01*
X2006000Y1424000D02*
Y1526000D01*
X1954000Y1424000D02*
Y1526000D01*
X2006000D01*
X1954000Y1424000D02*
X2006000D01*
X1741299Y1475000D02*
X1778701D01*
X1760000Y1456299D02*
Y1493701D01*
X1786000Y1424000D02*
Y1526000D01*
X1734000Y1424000D02*
Y1526000D01*
X1786000D01*
X1734000Y1424000D02*
X1786000D01*
X1661299Y1475000D02*
X1698701D01*
X1680000Y1456299D02*
Y1493701D01*
X1706000Y1424000D02*
Y1526000D01*
X1654000Y1424000D02*
Y1526000D01*
X1706000D01*
X1654000Y1424000D02*
X1706000D01*
X1877559Y1486299D02*
Y1523701D01*
X1858858Y1505000D02*
X1896260D01*
X1826559Y1531000D02*
X1928559D01*
X1826559Y1479000D02*
X1928559D01*
X1826559D02*
Y1531000D01*
X1928559Y1479000D02*
Y1531000D01*
X1710000Y1676299D02*
Y1713701D01*
X1691299Y1695000D02*
X1728701D01*
X1659000Y1721000D02*
X1761000D01*
X1659000Y1669000D02*
X1761000D01*
X1659000D02*
Y1721000D01*
X1761000Y1669000D02*
Y1721000D01*
D42*
X2809606Y1352362D02*
Y1647638D01*
X2994646D01*
Y1634842D02*
Y1647638D01*
Y1634842D02*
X3369449D01*
Y1365158D02*
Y1634842D01*
X2994646Y1365158D02*
X3369449D01*
X2994646Y1352362D02*
Y1365158D01*
X2809606Y1352362D02*
X2994646D01*
X2622638Y1809606D02*
Y1994646D01*
X2609843D02*
X2622638D01*
X2609843D02*
Y2369449D01*
X2340157D02*
X2609843D01*
X2340157Y1994646D02*
Y2369449D01*
X2327362Y1994646D02*
X2340157D01*
X2327362Y1809606D02*
Y1994646D01*
Y1809606D02*
X2622638D01*
%TF.MD5,31c3cda17d5f0383992e64ce6e12f68b*%
M02*
