%TF.GenerationSoftware,Altium Limited,Altium Designer,22.5.1 (42)*%
G04 Layer_Physical_Order=1*
G04 Layer_Color=255*
%FSLAX26Y26*%
%MOIN*%
%TF.SameCoordinates,B04901F9-BF46-49F9-850C-5E78856F6392*%
%TF.FilePolarity,Positive*%
%TF.FileFunction,Copper,L1,Top,Signal*%
%TF.Part,Single*%
G01*
G75*
%TA.AperFunction,ConnectorPad*%
%ADD10R,0.141732X0.050000*%
%ADD11R,0.165354X0.053150*%
%TA.AperFunction,SMDPad,CuDef*%
%ADD12R,0.053150X0.165354*%
%ADD13R,0.050000X0.141732*%
%ADD14R,0.030000X0.060000*%
%ADD15R,0.035433X0.031496*%
%ADD16R,0.023622X0.031496*%
%ADD17R,0.031496X0.035433*%
%TA.AperFunction,Conductor*%
%ADD18C,0.033000*%
%ADD19C,0.050000*%
%ADD20C,0.020000*%
%TA.AperFunction,ComponentPad*%
%ADD21C,0.059055*%
%ADD22R,0.059055X0.059055*%
%TA.AperFunction,WasherPad*%
%ADD23C,0.120000*%
%TA.AperFunction,ViaPad*%
%ADD24C,0.020000*%
G36*
X2989805Y1647795D02*
X2907126D01*
Y1611220D01*
Y1574646D01*
X2989805D01*
Y1534783D01*
X2986866Y1531000D01*
X2984805Y1531000D01*
X2833134D01*
Y1522941D01*
X2496000D01*
Y1539000D01*
X2454000D01*
Y1502216D01*
X2453559Y1500000D01*
X2454000Y1497784D01*
Y1467000D01*
X2496000D01*
Y1477059D01*
X2833134D01*
Y1469000D01*
X2984805D01*
X2986866Y1469000D01*
X2989805Y1465217D01*
Y1425354D01*
X2907126D01*
Y1388780D01*
Y1352205D01*
X2989805D01*
Y1010195D01*
X1010195D01*
Y1989805D01*
X2327205D01*
Y1907126D01*
X2363780D01*
X2400354D01*
Y1989805D01*
X2440217D01*
X2444000Y1986866D01*
X2444000Y1984804D01*
Y1833134D01*
X2452059D01*
Y1671147D01*
X2450000Y1667000D01*
X2447059Y1667000D01*
X2430000D01*
Y1627000D01*
Y1587000D01*
X2450000D01*
Y1588586D01*
X2454000Y1591000D01*
X2455000Y1591000D01*
X2496000D01*
Y1650930D01*
X2496195Y1651221D01*
X2497941Y1660000D01*
Y1833134D01*
X2506000D01*
Y1984804D01*
X2506000Y1986866D01*
X2509783Y1989805D01*
X2549646D01*
Y1907126D01*
X2586220D01*
Y1902126D01*
D01*
Y1907126D01*
X2622795D01*
Y1989805D01*
X2989805D01*
Y1647795D01*
D02*
G37*
%LPC*%
G36*
X2906500Y1966000D02*
X2893500D01*
X2880749Y1963464D01*
X2868737Y1958488D01*
X2857927Y1951265D01*
X2848735Y1942072D01*
X2841512Y1931263D01*
X2836536Y1919252D01*
X2834000Y1906500D01*
Y1893500D01*
X2836536Y1880748D01*
X2841512Y1868737D01*
X2848735Y1857928D01*
X2857927Y1848735D01*
X2868737Y1841512D01*
X2880749Y1836536D01*
X2893500Y1834000D01*
X2906500D01*
X2919251Y1836536D01*
X2931263Y1841512D01*
X2942073Y1848735D01*
X2951265Y1857928D01*
X2958488Y1868737D01*
X2963464Y1880748D01*
X2966000Y1893500D01*
Y1906500D01*
X2963464Y1919252D01*
X2958488Y1931263D01*
X2951265Y1942072D01*
X2942073Y1951265D01*
X2931263Y1958488D01*
X2919251Y1963464D01*
X2906500Y1966000D01*
D02*
G37*
G36*
X1106500D02*
X1093500D01*
X1080748Y1963464D01*
X1068737Y1958488D01*
X1057928Y1951265D01*
X1048735Y1942072D01*
X1041512Y1931263D01*
X1036536Y1919252D01*
X1034000Y1906500D01*
Y1893500D01*
X1036536Y1880748D01*
X1041512Y1868737D01*
X1048735Y1857928D01*
X1057928Y1848735D01*
X1068737Y1841512D01*
X1080748Y1836536D01*
X1093500Y1834000D01*
X1106500D01*
X1119252Y1836536D01*
X1131263Y1841512D01*
X1142072Y1848735D01*
X1151265Y1857928D01*
X1158488Y1868737D01*
X1163464Y1880748D01*
X1166000Y1893500D01*
Y1906500D01*
X1163464Y1919252D01*
X1158488Y1931263D01*
X1151265Y1942072D01*
X1142072Y1951265D01*
X1131263Y1958488D01*
X1119252Y1963464D01*
X1106500Y1966000D01*
D02*
G37*
G36*
X2622795Y1897126D02*
X2591220D01*
Y1809449D01*
X2622795D01*
Y1897126D01*
D02*
G37*
G36*
X2581220D02*
X2549646D01*
Y1809449D01*
X2581220D01*
Y1897126D01*
D02*
G37*
G36*
X2400354D02*
X2368780D01*
Y1809449D01*
X2400354D01*
Y1897126D01*
D02*
G37*
G36*
X2358780D02*
X2327205D01*
Y1809449D01*
X2358780D01*
Y1897126D01*
D02*
G37*
G36*
X1460000Y1726267D02*
X1459999Y1726267D01*
X1275001D01*
X1275000Y1726267D01*
X1270954Y1725735D01*
X1266907Y1725202D01*
X1263784Y1723908D01*
X1259366Y1722078D01*
X1252890Y1717109D01*
X1252890Y1717109D01*
X1189839Y1654058D01*
X1186287Y1653106D01*
X1183102Y1651267D01*
X1135527D01*
Y1655527D01*
X1064473D01*
Y1584473D01*
X1135527D01*
Y1588733D01*
X1183102D01*
X1186287Y1586894D01*
X1195323Y1584473D01*
X1204677D01*
X1213713Y1586894D01*
X1221814Y1591571D01*
X1228429Y1598186D01*
X1233106Y1606287D01*
X1234058Y1609839D01*
X1287951Y1663732D01*
X1443732D01*
Y1610000D01*
X1444798Y1601907D01*
X1447921Y1594366D01*
X1451283Y1589985D01*
Y1555811D01*
X1498716D01*
Y1589985D01*
X1502078Y1594366D01*
X1505202Y1601907D01*
X1506267Y1610000D01*
Y1663732D01*
X1595830D01*
X1599002Y1659867D01*
X1598276Y1656217D01*
Y1641748D01*
X1596284D01*
Y1598252D01*
X1614004D01*
X1620000Y1597059D01*
X1620465D01*
X1626461Y1598252D01*
X1643716D01*
Y1618535D01*
X1644157Y1620752D01*
Y1646714D01*
X1661176Y1663732D01*
X1681976D01*
X1690069Y1664798D01*
X1697610Y1667921D01*
X1701991Y1671283D01*
X1704189D01*
Y1672598D01*
X1706999Y1675199D01*
X1711811Y1673443D01*
Y1667283D01*
X1732559D01*
Y1695000D01*
Y1722716D01*
X1711811D01*
Y1716556D01*
X1706999Y1714800D01*
X1704189Y1717402D01*
Y1718716D01*
X1701991D01*
X1697610Y1722078D01*
X1690069Y1725202D01*
X1681976Y1726267D01*
X1460001D01*
X1460000Y1726267D01*
D02*
G37*
G36*
X1763307Y1722716D02*
X1742559D01*
Y1700000D01*
X1763307D01*
Y1722716D01*
D02*
G37*
G36*
Y1690000D02*
X1742559D01*
Y1667283D01*
X1763307D01*
Y1690000D01*
D02*
G37*
G36*
X2370000Y1667000D02*
X2350000D01*
Y1632000D01*
X2370000D01*
Y1667000D01*
D02*
G37*
G36*
X2897126Y1647795D02*
X2809449D01*
Y1616220D01*
X2897126D01*
Y1647795D01*
D02*
G37*
G36*
X2420000Y1667000D02*
X2380000D01*
Y1627000D01*
Y1587000D01*
X2420000D01*
Y1627000D01*
Y1667000D01*
D02*
G37*
G36*
X2370000Y1622000D02*
X2350000D01*
Y1587000D01*
X2370000D01*
Y1622000D01*
D02*
G37*
G36*
X2897126Y1606220D02*
X2809449D01*
Y1574646D01*
X2897126D01*
Y1606220D01*
D02*
G37*
G36*
X2079189Y1528717D02*
X2035693D01*
Y1527941D01*
X1992906D01*
X1990000Y1527363D01*
X1987094Y1527941D01*
X1926866D01*
Y1528716D01*
X1883370D01*
Y1510996D01*
X1882177Y1505000D01*
X1883370Y1499004D01*
Y1481284D01*
X1926866D01*
Y1482059D01*
X1956283D01*
Y1480811D01*
X2003716D01*
Y1482059D01*
X2035693D01*
Y1481284D01*
X2079189D01*
Y1499004D01*
X2080382Y1505000D01*
X2079189Y1510997D01*
Y1528717D01*
D02*
G37*
G36*
X2396000Y1539000D02*
X2354000D01*
Y1525720D01*
X2189024D01*
X2188314Y1526195D01*
X2179535Y1527941D01*
X2134307D01*
Y1528717D01*
X2090811D01*
Y1510997D01*
X2089618Y1505000D01*
X2090811Y1499004D01*
Y1481284D01*
X2134307D01*
Y1482059D01*
X2161283D01*
Y1480811D01*
X2172755D01*
X2175756Y1478805D01*
X2178855Y1478189D01*
X2178363Y1473189D01*
X2157283D01*
Y1452441D01*
X2185000D01*
X2212716D01*
Y1473189D01*
X2191172D01*
X2190680Y1478189D01*
X2193779Y1478805D01*
X2195325Y1479839D01*
X2354000D01*
Y1467000D01*
X2396000D01*
Y1539000D01*
D02*
G37*
G36*
X1620000Y1587823D02*
X1619535D01*
X1613539Y1586630D01*
X1596284D01*
Y1566347D01*
X1595843Y1564130D01*
Y1534063D01*
X1588013Y1526234D01*
X1580898D01*
Y1518329D01*
X1577514Y1513265D01*
X1575768Y1504486D01*
X1576273Y1501945D01*
X1571665Y1499482D01*
X1565338Y1505809D01*
Y1526234D01*
X1529716D01*
Y1482738D01*
X1542267D01*
X1557144Y1467861D01*
X1555231Y1463242D01*
X1553524D01*
X1547527Y1464435D01*
X1545400D01*
X1539403Y1463242D01*
X1529716D01*
Y1461252D01*
X1497941D01*
Y1500693D01*
X1498716D01*
Y1544189D01*
X1480996D01*
X1475000Y1545382D01*
X1469003Y1544189D01*
X1451283D01*
Y1500693D01*
X1452059D01*
Y1459307D01*
X1451283D01*
Y1415811D01*
X1469003D01*
X1475000Y1414618D01*
X1478780Y1415370D01*
X1542216D01*
X1550996Y1417117D01*
X1554931Y1419746D01*
X1564086D01*
X1565338Y1419746D01*
Y1419746D01*
X1569087D01*
Y1419746D01*
X1586806D01*
X1592803Y1418553D01*
X1593268D01*
X1599264Y1419746D01*
X1612059D01*
Y1402941D01*
X1590000D01*
X1584004Y1401748D01*
X1566284D01*
Y1358252D01*
X1584004D01*
X1590000Y1357059D01*
X1680000D01*
X1685996Y1358252D01*
X1703716D01*
Y1401748D01*
X1685996D01*
X1680000Y1402941D01*
X1657941D01*
Y1424500D01*
X1680000D01*
X1685996Y1425693D01*
X1703716D01*
Y1469189D01*
X1685996D01*
X1680000Y1470382D01*
X1599391D01*
X1596622Y1474526D01*
X1593705Y1477443D01*
X1596168Y1482051D01*
X1598709Y1481545D01*
X1606875D01*
X1612783Y1480370D01*
X1676220D01*
X1680000Y1479618D01*
X1848024D01*
X1856395Y1481284D01*
X1871748D01*
Y1498539D01*
X1872941Y1504535D01*
Y1505000D01*
X1871748Y1510996D01*
Y1528716D01*
X1828252D01*
Y1525500D01*
X1683028D01*
X1679248Y1526252D01*
X1641724D01*
Y1543134D01*
X1643716D01*
Y1586630D01*
X1625996D01*
X1620000Y1587823D01*
D02*
G37*
G36*
X2007716Y1473189D02*
X1985000D01*
Y1452441D01*
X2007716D01*
Y1473189D01*
D02*
G37*
G36*
X1975000D02*
X1952283D01*
Y1452441D01*
X1975000D01*
Y1473189D01*
D02*
G37*
G36*
X2212716Y1442441D02*
X2190000D01*
Y1421693D01*
X2212716D01*
Y1442441D01*
D02*
G37*
G36*
X2180000D02*
X2157283D01*
Y1421693D01*
X2180000D01*
Y1442441D01*
D02*
G37*
G36*
X2007716D02*
X1985000D01*
Y1421693D01*
X2007716D01*
Y1442441D01*
D02*
G37*
G36*
X1975000D02*
X1952283D01*
Y1421693D01*
X1975000D01*
Y1442441D01*
D02*
G37*
G36*
X2897126Y1425354D02*
X2809449D01*
Y1393780D01*
X2897126D01*
Y1425354D01*
D02*
G37*
G36*
X1502716Y1408189D02*
X1480000D01*
Y1387441D01*
X1502716D01*
Y1408189D01*
D02*
G37*
G36*
X1470000D02*
X1447283D01*
Y1387441D01*
X1470000D01*
Y1408189D01*
D02*
G37*
G36*
X1205204Y1419527D02*
X1205000D01*
Y1385000D01*
X1239527D01*
Y1385204D01*
X1236834Y1395257D01*
X1231630Y1404271D01*
X1224271Y1411630D01*
X1215257Y1416834D01*
X1205204Y1419527D01*
D02*
G37*
G36*
X1195000D02*
X1194796D01*
X1184743Y1416834D01*
X1175729Y1411630D01*
X1168370Y1404271D01*
X1163166Y1395257D01*
X1160473Y1385204D01*
Y1385000D01*
X1195000D01*
Y1419527D01*
D02*
G37*
G36*
X1139527D02*
X1105000D01*
Y1385000D01*
X1139527D01*
Y1419527D01*
D02*
G37*
G36*
X1095000D02*
X1060473D01*
Y1385000D01*
X1095000D01*
Y1419527D01*
D02*
G37*
G36*
X1760000Y1470382D02*
X1754004Y1469189D01*
X1736283D01*
Y1425693D01*
X1737059D01*
Y1401866D01*
X1736284D01*
Y1358370D01*
X1754004D01*
X1760000Y1357177D01*
X1765996Y1358370D01*
X1783716D01*
Y1401866D01*
X1782941D01*
Y1425693D01*
X1783716D01*
Y1469189D01*
X1765996D01*
X1760000Y1470382D01*
D02*
G37*
G36*
X1502716Y1377441D02*
X1480000D01*
Y1356693D01*
X1502716D01*
Y1377441D01*
D02*
G37*
G36*
X1470000D02*
X1447283D01*
Y1356693D01*
X1470000D01*
Y1377441D01*
D02*
G37*
G36*
X2897126Y1383780D02*
X2809449D01*
Y1352205D01*
X2897126D01*
Y1383780D01*
D02*
G37*
G36*
X1239527Y1375000D02*
X1205000D01*
Y1340473D01*
X1205204D01*
X1215257Y1343166D01*
X1224271Y1348370D01*
X1231630Y1355729D01*
X1236834Y1364743D01*
X1239527Y1374796D01*
Y1375000D01*
D02*
G37*
G36*
X1195000D02*
X1160473D01*
Y1374796D01*
X1163166Y1364743D01*
X1168370Y1355729D01*
X1175729Y1348370D01*
X1184743Y1343166D01*
X1194796Y1340473D01*
X1195000D01*
Y1375000D01*
D02*
G37*
G36*
X1139527D02*
X1105000D01*
Y1340473D01*
X1139527D01*
Y1375000D01*
D02*
G37*
G36*
X1095000D02*
X1060473D01*
Y1340473D01*
X1095000D01*
Y1375000D01*
D02*
G37*
G36*
X1787716Y1350748D02*
X1765000D01*
Y1330000D01*
X1787716D01*
Y1350748D01*
D02*
G37*
G36*
X1755000D02*
X1732284D01*
Y1330000D01*
X1755000D01*
Y1350748D01*
D02*
G37*
G36*
X1707716Y1350630D02*
X1685000D01*
Y1329882D01*
X1707716D01*
Y1350630D01*
D02*
G37*
G36*
X1675000D02*
X1652284D01*
Y1329882D01*
X1675000D01*
Y1350630D01*
D02*
G37*
G36*
X1787716Y1320000D02*
X1765000D01*
Y1299252D01*
X1787716D01*
Y1320000D01*
D02*
G37*
G36*
X1755000D02*
X1732284D01*
Y1299252D01*
X1755000D01*
Y1320000D01*
D02*
G37*
G36*
X1707716Y1319882D02*
X1685000D01*
Y1299134D01*
X1707716D01*
Y1319882D01*
D02*
G37*
G36*
X1675000D02*
X1652284D01*
Y1299134D01*
X1675000D01*
Y1319882D01*
D02*
G37*
G36*
X1590000Y1347823D02*
X1584004Y1346630D01*
X1566284D01*
Y1303134D01*
X1567059D01*
Y1276866D01*
X1566284D01*
Y1233370D01*
X1584004D01*
X1590000Y1232177D01*
X1595996Y1233370D01*
X1613716D01*
Y1276866D01*
X1612941D01*
Y1303134D01*
X1613716D01*
Y1346630D01*
X1595996D01*
X1590000Y1347823D01*
D02*
G37*
G36*
X1617716Y1225748D02*
X1595000D01*
Y1205000D01*
X1617716D01*
Y1225748D01*
D02*
G37*
G36*
X1585000D02*
X1562284D01*
Y1205000D01*
X1585000D01*
Y1225748D01*
D02*
G37*
G36*
X1617716Y1195000D02*
X1595000D01*
Y1174252D01*
X1617716D01*
Y1195000D01*
D02*
G37*
G36*
X1585000D02*
X1562284D01*
Y1174252D01*
X1585000D01*
Y1195000D01*
D02*
G37*
G36*
X2906500Y1166000D02*
X2893500D01*
X2880749Y1163464D01*
X2868737Y1158488D01*
X2857927Y1151265D01*
X2848735Y1142072D01*
X2841512Y1131263D01*
X2836536Y1119252D01*
X2834000Y1106500D01*
Y1093500D01*
X2836536Y1080748D01*
X2841512Y1068737D01*
X2848735Y1057928D01*
X2857927Y1048735D01*
X2868737Y1041512D01*
X2880749Y1036536D01*
X2893500Y1034000D01*
X2906500D01*
X2919251Y1036536D01*
X2931263Y1041512D01*
X2942073Y1048735D01*
X2951265Y1057928D01*
X2958488Y1068737D01*
X2963464Y1080748D01*
X2966000Y1093500D01*
Y1106500D01*
X2963464Y1119252D01*
X2958488Y1131263D01*
X2951265Y1142072D01*
X2942073Y1151265D01*
X2931263Y1158488D01*
X2919251Y1163464D01*
X2906500Y1166000D01*
D02*
G37*
G36*
X1106500D02*
X1093500D01*
X1080748Y1163464D01*
X1068737Y1158488D01*
X1057928Y1151265D01*
X1048735Y1142072D01*
X1041512Y1131263D01*
X1036536Y1119252D01*
X1034000Y1106500D01*
Y1093500D01*
X1036536Y1080748D01*
X1041512Y1068737D01*
X1048735Y1057928D01*
X1057928Y1048735D01*
X1068737Y1041512D01*
X1080748Y1036536D01*
X1093500Y1034000D01*
X1106500D01*
X1119252Y1036536D01*
X1131263Y1041512D01*
X1142072Y1048735D01*
X1151265Y1057928D01*
X1158488Y1068737D01*
X1163464Y1080748D01*
X1166000Y1093500D01*
Y1106500D01*
X1163464Y1119252D01*
X1158488Y1131263D01*
X1151265Y1142072D01*
X1142072Y1151265D01*
X1131263Y1158488D01*
X1119252Y1163464D01*
X1106500Y1166000D01*
D02*
G37*
%LPD*%
D10*
X2910000Y1500000D02*
D03*
D11*
X2902126Y1388780D02*
D03*
Y1611220D02*
D03*
D12*
X2363780Y1902126D02*
D03*
X2586220D02*
D03*
D13*
X2475000Y1910000D02*
D03*
D14*
X2375000Y1627000D02*
D03*
X2425000D02*
D03*
X2475000D02*
D03*
Y1503000D02*
D03*
X2375000D02*
D03*
D15*
X1590000Y1255118D02*
D03*
Y1200000D02*
D03*
X1680000Y1380000D02*
D03*
Y1324882D02*
D03*
X1590000Y1380000D02*
D03*
Y1324882D02*
D03*
X1475000Y1437559D02*
D03*
Y1382441D02*
D03*
Y1577559D02*
D03*
Y1522441D02*
D03*
X1592803Y1441494D02*
D03*
X1620000Y1620000D02*
D03*
Y1564882D02*
D03*
X1760000Y1380118D02*
D03*
Y1325000D02*
D03*
X2185000Y1502559D02*
D03*
Y1447441D02*
D03*
X1980000Y1502559D02*
D03*
Y1447441D02*
D03*
X1760000Y1502559D02*
D03*
Y1447441D02*
D03*
X1680000Y1502559D02*
D03*
Y1447441D02*
D03*
D16*
X1547527Y1504486D02*
D03*
X1598709D02*
D03*
X1547527Y1441494D02*
D03*
D17*
X2112559Y1505000D02*
D03*
X2057441D02*
D03*
X1850000Y1505000D02*
D03*
X1905118D02*
D03*
X1682441Y1695000D02*
D03*
X1737559D02*
D03*
D18*
X2184535Y1500000D02*
X2185000D01*
X2179535Y1505000D02*
X2184535Y1500000D01*
X2185220Y1502780D02*
X2360000D01*
X2475000Y1660000D02*
Y1908000D01*
X1681976Y1695000D02*
X1682441Y1694535D01*
X2476500Y1500000D02*
X2910000D01*
X2185000Y1502559D02*
X2185220Y1502780D01*
X1760000Y1502559D02*
X1848024D01*
X1680000D02*
X1760000D01*
X1848024D02*
X1850000Y1504535D01*
Y1505000D01*
X1905118D02*
X1987094D01*
X1992906Y1505000D02*
X2057441D01*
X2112559D02*
X2179535D01*
X1590000Y1255118D02*
Y1324882D01*
Y1380000D02*
X1635000D01*
X1680000D01*
X1635000D02*
Y1447441D01*
X1475000Y1437559D02*
X1475752Y1438311D01*
X1542216D01*
X1545400Y1441494D01*
X1592803D02*
X1593268D01*
X1545400D02*
X1547527D01*
X1475000Y1437559D02*
Y1522441D01*
X1593268Y1441494D02*
X1599215Y1447441D01*
X1635000D02*
X1680000D01*
X1599215D02*
X1635000D01*
X1679248Y1503311D02*
X1680000Y1502559D01*
X1612783Y1503311D02*
X1679248D01*
X1611608Y1504486D02*
X1612783Y1503311D01*
X1598709Y1504486D02*
X1611608D01*
X1598709D02*
X1618783Y1524561D01*
Y1564130D01*
X1619535Y1564882D01*
X1620000D01*
Y1620000D02*
X1620465D01*
X1621217Y1620752D01*
Y1656217D01*
X1658783Y1693783D01*
X1760000Y1447441D02*
X1760000Y1447441D01*
Y1380118D02*
Y1447441D01*
D19*
X1460000Y1695000D02*
X1681976D01*
X1275000D02*
X1460000D01*
X1475000Y1680000D01*
Y1610000D02*
Y1680000D01*
X1200000Y1620000D02*
X1275000Y1695000D01*
X1100000Y1620000D02*
X1200000D01*
D20*
X1590834Y1441494D02*
X1592803D01*
X1585086Y1447242D02*
X1590834Y1441494D01*
X1585086Y1447242D02*
Y1462990D01*
X1547527Y1500549D02*
X1585086Y1462990D01*
X1547527Y1500549D02*
Y1504486D01*
D21*
X1200000Y1380000D02*
D03*
Y1620000D02*
D03*
D22*
X1100000Y1380000D02*
D03*
Y1620000D02*
D03*
D23*
Y1900000D02*
D03*
Y1100000D02*
D03*
X2900000D02*
D03*
Y1900000D02*
D03*
D24*
X2511605Y1690334D02*
D03*
Y1810334D02*
D03*
Y1770334D02*
D03*
Y1650334D02*
D03*
Y1730334D02*
D03*
X2519171Y1849612D02*
D03*
Y1889612D02*
D03*
X2510392Y1610353D02*
D03*
X2437175Y1738802D02*
D03*
Y1698802D02*
D03*
Y1778802D02*
D03*
Y1818802D02*
D03*
X2300000Y1860000D02*
D03*
Y1910000D02*
D03*
Y1960000D02*
D03*
X2645000Y1855000D02*
D03*
Y1910000D02*
D03*
Y1965000D02*
D03*
X2320000Y1585000D02*
D03*
Y1625000D02*
D03*
Y1665000D02*
D03*
X2360000Y1695000D02*
D03*
X2400000D02*
D03*
X2428388Y1977825D02*
D03*
Y1937825D02*
D03*
Y1897825D02*
D03*
Y1857825D02*
D03*
X2410000Y1565000D02*
D03*
X2455000D02*
D03*
X2519171Y1929612D02*
D03*
Y1969612D02*
D03*
X2425000Y1520000D02*
D03*
X2435000Y1450000D02*
D03*
X2489583Y1452608D02*
D03*
X2528266Y1462785D02*
D03*
X2568266D02*
D03*
X2608266D02*
D03*
X2648266D02*
D03*
X2688266D02*
D03*
X2728266D02*
D03*
X2768266D02*
D03*
X2808266D02*
D03*
X2847422Y1454608D02*
D03*
X2887422D02*
D03*
X2927422D02*
D03*
X2967422D02*
D03*
X2974190Y1545392D02*
D03*
X2934190D02*
D03*
X2894190D02*
D03*
X2854190D02*
D03*
X2815034Y1537215D02*
D03*
X2775034D02*
D03*
X2735034D02*
D03*
X2695034D02*
D03*
X2655034D02*
D03*
X2615034D02*
D03*
X2575034D02*
D03*
X2535034D02*
D03*
X2497804Y1551840D02*
D03*
X2324407Y1539995D02*
D03*
X2284407D02*
D03*
X2244407D02*
D03*
X2204407D02*
D03*
X2164469Y1542215D02*
D03*
X2124479Y1543108D02*
D03*
X2138945Y1467785D02*
D03*
X2218668Y1465564D02*
D03*
X2258668D02*
D03*
X2298668D02*
D03*
X2338668D02*
D03*
X2376512Y1452608D02*
D03*
X2425000Y1490000D02*
D03*
X2370000Y1565000D02*
D03*
X2011312Y1542215D02*
D03*
X1971312Y1542215D02*
D03*
X1931312D02*
D03*
X1891322Y1543108D02*
D03*
X1877408Y1471222D02*
D03*
X1917173Y1466892D02*
D03*
X2037133Y1467785D02*
D03*
X2085000Y1460000D02*
D03*
X2080993Y1541556D02*
D03*
X1517502Y1528973D02*
D03*
X1515325Y1489033D02*
D03*
X1567142Y1539074D02*
D03*
X1581568Y1561061D02*
D03*
X1843933Y1465344D02*
D03*
X1856668Y1543108D02*
D03*
X1816807Y1539774D02*
D03*
X1776807D02*
D03*
X1736807D02*
D03*
X1696807D02*
D03*
X1657551Y1583431D02*
D03*
X1721892Y1462042D02*
D03*
X1722785Y1422052D02*
D03*
X1721892Y1382062D02*
D03*
X1798108Y1457931D02*
D03*
X1551892Y1334779D02*
D03*
X1552785Y1294789D02*
D03*
X1551892Y1254799D02*
D03*
X1628108Y1255392D02*
D03*
X1627215Y1295382D02*
D03*
X1628108Y1335372D02*
D03*
X1640000Y1155000D02*
D03*
X1590000D02*
D03*
X1540000Y1160000D02*
D03*
X1640000Y1205000D02*
D03*
X1540000D02*
D03*
X1690000Y1225000D02*
D03*
X1670000Y1265000D02*
D03*
X1725000D02*
D03*
X1465000Y1340000D02*
D03*
X1535000Y1380000D02*
D03*
X1755000Y1225000D02*
D03*
X1785000Y1265000D02*
D03*
X1820000Y1325000D02*
D03*
X1990000Y1395000D02*
D03*
X2185000D02*
D03*
X2050000Y1420000D02*
D03*
X2125000Y1415000D02*
D03*
X1790000Y1715000D02*
D03*
Y1675000D02*
D03*
X1845000D02*
D03*
Y1715000D02*
D03*
X1935000Y1440000D02*
D03*
X2770000Y1355000D02*
D03*
Y1415000D02*
D03*
X2775000Y1600000D02*
D03*
Y1640000D02*
D03*
X2840000Y1680000D02*
D03*
X2900000D02*
D03*
X2960000D02*
D03*
X2835000Y1325000D02*
D03*
X2895000D02*
D03*
X2960000D02*
D03*
X2310000Y1430000D02*
D03*
%TF.MD5,340de8265e7426857338c06eef569008*%
M02*
