%TF.GenerationSoftware,Altium Limited,Altium Designer,22.5.1 (42)*%
G04 Layer_Color=0*
%FSLAX26Y26*%
%MOIN*%
%TF.SameCoordinates,B04901F9-BF46-49F9-850C-5E78856F6392*%
%TF.FilePolarity,Positive*%
%TF.FileFunction,Plated,1,2,PTH,Drill*%
%TF.Part,Single*%
G01*
G75*
%TA.AperFunction,ComponentDrill*%
%ADD48C,0.035433*%
%TA.AperFunction,ViaDrill,NotFilled*%
%ADD49C,0.010000*%
D48*
X1200000Y1380000D02*
D03*
X1100000D02*
D03*
Y1620000D02*
D03*
X1200000D02*
D03*
D49*
X2511605Y1690334D02*
D03*
Y1810334D02*
D03*
Y1770334D02*
D03*
Y1650334D02*
D03*
Y1730334D02*
D03*
X2519171Y1849612D02*
D03*
Y1889612D02*
D03*
X2510392Y1610353D02*
D03*
X2437175Y1738802D02*
D03*
Y1698802D02*
D03*
Y1778802D02*
D03*
Y1818802D02*
D03*
X2300000Y1860000D02*
D03*
Y1910000D02*
D03*
Y1960000D02*
D03*
X2645000Y1855000D02*
D03*
Y1910000D02*
D03*
Y1965000D02*
D03*
X2320000Y1585000D02*
D03*
Y1625000D02*
D03*
Y1665000D02*
D03*
X2360000Y1695000D02*
D03*
X2400000D02*
D03*
X2428388Y1977825D02*
D03*
Y1937825D02*
D03*
Y1897825D02*
D03*
Y1857825D02*
D03*
X2410000Y1565000D02*
D03*
X2455000D02*
D03*
X2519171Y1929612D02*
D03*
Y1969612D02*
D03*
X2425000Y1520000D02*
D03*
X2435000Y1450000D02*
D03*
X2489583Y1452608D02*
D03*
X2528266Y1462785D02*
D03*
X2568266D02*
D03*
X2608266D02*
D03*
X2648266D02*
D03*
X2688266D02*
D03*
X2728266D02*
D03*
X2768266D02*
D03*
X2808266D02*
D03*
X2847422Y1454608D02*
D03*
X2887422D02*
D03*
X2927422D02*
D03*
X2967422D02*
D03*
X2974190Y1545392D02*
D03*
X2934190D02*
D03*
X2894190D02*
D03*
X2854190D02*
D03*
X2815034Y1537215D02*
D03*
X2775034D02*
D03*
X2735034D02*
D03*
X2695034D02*
D03*
X2655034D02*
D03*
X2615034D02*
D03*
X2575034D02*
D03*
X2535034D02*
D03*
X2497804Y1551840D02*
D03*
X2324407Y1539995D02*
D03*
X2284407D02*
D03*
X2244407D02*
D03*
X2204407D02*
D03*
X2164469Y1542215D02*
D03*
X2124479Y1543108D02*
D03*
X2138945Y1467785D02*
D03*
X2218668Y1465564D02*
D03*
X2258668D02*
D03*
X2298668D02*
D03*
X2338668D02*
D03*
X2376512Y1452608D02*
D03*
X2425000Y1490000D02*
D03*
X2370000Y1565000D02*
D03*
X2011312Y1542215D02*
D03*
X1971312Y1542215D02*
D03*
X1931312D02*
D03*
X1891322Y1543108D02*
D03*
X1877408Y1471222D02*
D03*
X1917173Y1466892D02*
D03*
X2037133Y1467785D02*
D03*
X2085000Y1460000D02*
D03*
X2080993Y1541556D02*
D03*
X1517502Y1528973D02*
D03*
X1515325Y1489033D02*
D03*
X1567142Y1539074D02*
D03*
X1581568Y1561061D02*
D03*
X1843933Y1465344D02*
D03*
X1856668Y1543108D02*
D03*
X1816807Y1539774D02*
D03*
X1776807D02*
D03*
X1736807D02*
D03*
X1696807D02*
D03*
X1657551Y1583431D02*
D03*
X1721892Y1462042D02*
D03*
X1722785Y1422052D02*
D03*
X1721892Y1382062D02*
D03*
X1798108Y1457931D02*
D03*
X1551892Y1334779D02*
D03*
X1552785Y1294789D02*
D03*
X1551892Y1254799D02*
D03*
X1628108Y1255392D02*
D03*
X1627215Y1295382D02*
D03*
X1628108Y1335372D02*
D03*
X1640000Y1155000D02*
D03*
X1590000D02*
D03*
X1540000Y1160000D02*
D03*
X1640000Y1205000D02*
D03*
X1540000D02*
D03*
X1690000Y1225000D02*
D03*
X1670000Y1265000D02*
D03*
X1725000D02*
D03*
X1465000Y1340000D02*
D03*
X1535000Y1380000D02*
D03*
X1755000Y1225000D02*
D03*
X1785000Y1265000D02*
D03*
X1820000Y1325000D02*
D03*
X1990000Y1395000D02*
D03*
X2185000D02*
D03*
X2050000Y1420000D02*
D03*
X2125000Y1415000D02*
D03*
X1790000Y1715000D02*
D03*
Y1675000D02*
D03*
X1845000D02*
D03*
Y1715000D02*
D03*
X1935000Y1440000D02*
D03*
X2770000Y1355000D02*
D03*
Y1415000D02*
D03*
X2775000Y1600000D02*
D03*
Y1640000D02*
D03*
X2840000Y1680000D02*
D03*
X2900000D02*
D03*
X2960000D02*
D03*
X2835000Y1325000D02*
D03*
X2895000D02*
D03*
X2960000D02*
D03*
X2310000Y1430000D02*
D03*
%TF.MD5,d41ec9074964e48b150d2917a4e05630*%
M02*
