%TF.GenerationSoftware,Altium Limited,Altium Designer,22.5.1 (42)*%
G04 Layer_Physical_Order=2*
G04 Layer_Color=16711680*
%FSLAX26Y26*%
%MOIN*%
%TF.SameCoordinates,B04901F9-BF46-49F9-850C-5E78856F6392*%
%TF.FilePolarity,Positive*%
%TF.FileFunction,Copper,L2,Bot,Signal*%
%TF.Part,Single*%
G01*
G75*
%TA.AperFunction,ConnectorPad*%
%ADD11R,0.165354X0.053150*%
%TA.AperFunction,SMDPad,CuDef*%
%ADD12R,0.053150X0.165354*%
%TA.AperFunction,ComponentPad*%
%ADD21C,0.059055*%
%ADD22R,0.059055X0.059055*%
%TA.AperFunction,WasherPad*%
%ADD23C,0.120000*%
%TA.AperFunction,ViaPad*%
%ADD24C,0.020000*%
G36*
X2989805Y1647795D02*
X2907126D01*
Y1611220D01*
Y1574646D01*
X2989805D01*
Y1425354D01*
X2907126D01*
Y1388780D01*
Y1352205D01*
X2989805D01*
Y1010195D01*
X1010195D01*
Y1989805D01*
X2327205D01*
Y1907126D01*
X2363780D01*
X2400354D01*
Y1989805D01*
X2549646D01*
Y1907126D01*
X2586220D01*
X2622795D01*
Y1989805D01*
X2989805D01*
Y1647795D01*
D02*
G37*
%LPC*%
G36*
X2906500Y1966000D02*
X2893500D01*
X2880749Y1963464D01*
X2868737Y1958488D01*
X2857927Y1951265D01*
X2848735Y1942072D01*
X2841512Y1931263D01*
X2836536Y1919252D01*
X2834000Y1906500D01*
Y1893500D01*
X2836536Y1880748D01*
X2841512Y1868737D01*
X2848735Y1857928D01*
X2857927Y1848735D01*
X2868737Y1841512D01*
X2880749Y1836536D01*
X2893500Y1834000D01*
X2906500D01*
X2919251Y1836536D01*
X2931263Y1841512D01*
X2942073Y1848735D01*
X2951265Y1857928D01*
X2958488Y1868737D01*
X2963464Y1880748D01*
X2966000Y1893500D01*
Y1906500D01*
X2963464Y1919252D01*
X2958488Y1931263D01*
X2951265Y1942072D01*
X2942073Y1951265D01*
X2931263Y1958488D01*
X2919251Y1963464D01*
X2906500Y1966000D01*
D02*
G37*
G36*
X1106500D02*
X1093500D01*
X1080748Y1963464D01*
X1068737Y1958488D01*
X1057928Y1951265D01*
X1048735Y1942072D01*
X1041512Y1931263D01*
X1036536Y1919252D01*
X1034000Y1906500D01*
Y1893500D01*
X1036536Y1880748D01*
X1041512Y1868737D01*
X1048735Y1857928D01*
X1057928Y1848735D01*
X1068737Y1841512D01*
X1080748Y1836536D01*
X1093500Y1834000D01*
X1106500D01*
X1119252Y1836536D01*
X1131263Y1841512D01*
X1142072Y1848735D01*
X1151265Y1857928D01*
X1158488Y1868737D01*
X1163464Y1880748D01*
X1166000Y1893500D01*
Y1906500D01*
X1163464Y1919252D01*
X1158488Y1931263D01*
X1151265Y1942072D01*
X1142072Y1951265D01*
X1131263Y1958488D01*
X1119252Y1963464D01*
X1106500Y1966000D01*
D02*
G37*
G36*
X2622795Y1897126D02*
X2591220D01*
Y1809449D01*
X2622795D01*
Y1897126D01*
D02*
G37*
G36*
X2581220D02*
X2549646D01*
Y1809449D01*
X2581220D01*
Y1897126D01*
D02*
G37*
G36*
X2400354D02*
X2368780D01*
Y1809449D01*
X2400354D01*
Y1897126D01*
D02*
G37*
G36*
X2358780D02*
X2327205D01*
Y1809449D01*
X2358780D01*
Y1897126D01*
D02*
G37*
G36*
X2897126Y1647795D02*
X2809449D01*
Y1616220D01*
X2897126D01*
Y1647795D01*
D02*
G37*
G36*
X1204677Y1655527D02*
X1195323D01*
X1186287Y1653106D01*
X1178186Y1648429D01*
X1171571Y1641814D01*
X1166894Y1633713D01*
X1164473Y1624677D01*
Y1615323D01*
X1166894Y1606287D01*
X1171571Y1598186D01*
X1178186Y1591571D01*
X1186287Y1586894D01*
X1195323Y1584473D01*
X1204677D01*
X1213713Y1586894D01*
X1221814Y1591571D01*
X1228429Y1598186D01*
X1233106Y1606287D01*
X1235527Y1615323D01*
Y1624677D01*
X1233106Y1633713D01*
X1228429Y1641814D01*
X1221814Y1648429D01*
X1213713Y1653106D01*
X1204677Y1655527D01*
D02*
G37*
G36*
X1135527D02*
X1064473D01*
Y1584473D01*
X1135527D01*
Y1655527D01*
D02*
G37*
G36*
X2897126Y1606220D02*
X2809449D01*
Y1574646D01*
X2897126D01*
Y1606220D01*
D02*
G37*
G36*
Y1425354D02*
X2809449D01*
Y1393780D01*
X2897126D01*
Y1425354D01*
D02*
G37*
G36*
X1205204Y1419527D02*
X1205000D01*
Y1385000D01*
X1239527D01*
Y1385204D01*
X1236834Y1395257D01*
X1231630Y1404271D01*
X1224271Y1411630D01*
X1215257Y1416834D01*
X1205204Y1419527D01*
D02*
G37*
G36*
X1195000D02*
X1194796D01*
X1184743Y1416834D01*
X1175729Y1411630D01*
X1168370Y1404271D01*
X1163166Y1395257D01*
X1160473Y1385204D01*
Y1385000D01*
X1195000D01*
Y1419527D01*
D02*
G37*
G36*
X1139527D02*
X1105000D01*
Y1385000D01*
X1139527D01*
Y1419527D01*
D02*
G37*
G36*
X1095000D02*
X1060473D01*
Y1385000D01*
X1095000D01*
Y1419527D01*
D02*
G37*
G36*
X2897126Y1383780D02*
X2809449D01*
Y1352205D01*
X2897126D01*
Y1383780D01*
D02*
G37*
G36*
X1239527Y1375000D02*
X1205000D01*
Y1340473D01*
X1205204D01*
X1215257Y1343166D01*
X1224271Y1348370D01*
X1231630Y1355729D01*
X1236834Y1364743D01*
X1239527Y1374796D01*
Y1375000D01*
D02*
G37*
G36*
X1195000D02*
X1160473D01*
Y1374796D01*
X1163166Y1364743D01*
X1168370Y1355729D01*
X1175729Y1348370D01*
X1184743Y1343166D01*
X1194796Y1340473D01*
X1195000D01*
Y1375000D01*
D02*
G37*
G36*
X1139527D02*
X1105000D01*
Y1340473D01*
X1139527D01*
Y1375000D01*
D02*
G37*
G36*
X1095000D02*
X1060473D01*
Y1340473D01*
X1095000D01*
Y1375000D01*
D02*
G37*
G36*
X2906500Y1166000D02*
X2893500D01*
X2880749Y1163464D01*
X2868737Y1158488D01*
X2857927Y1151265D01*
X2848735Y1142072D01*
X2841512Y1131263D01*
X2836536Y1119252D01*
X2834000Y1106500D01*
Y1093500D01*
X2836536Y1080748D01*
X2841512Y1068737D01*
X2848735Y1057928D01*
X2857927Y1048735D01*
X2868737Y1041512D01*
X2880749Y1036536D01*
X2893500Y1034000D01*
X2906500D01*
X2919251Y1036536D01*
X2931263Y1041512D01*
X2942073Y1048735D01*
X2951265Y1057928D01*
X2958488Y1068737D01*
X2963464Y1080748D01*
X2966000Y1093500D01*
Y1106500D01*
X2963464Y1119252D01*
X2958488Y1131263D01*
X2951265Y1142072D01*
X2942073Y1151265D01*
X2931263Y1158488D01*
X2919251Y1163464D01*
X2906500Y1166000D01*
D02*
G37*
G36*
X1106500D02*
X1093500D01*
X1080748Y1163464D01*
X1068737Y1158488D01*
X1057928Y1151265D01*
X1048735Y1142072D01*
X1041512Y1131263D01*
X1036536Y1119252D01*
X1034000Y1106500D01*
Y1093500D01*
X1036536Y1080748D01*
X1041512Y1068737D01*
X1048735Y1057928D01*
X1057928Y1048735D01*
X1068737Y1041512D01*
X1080748Y1036536D01*
X1093500Y1034000D01*
X1106500D01*
X1119252Y1036536D01*
X1131263Y1041512D01*
X1142072Y1048735D01*
X1151265Y1057928D01*
X1158488Y1068737D01*
X1163464Y1080748D01*
X1166000Y1093500D01*
Y1106500D01*
X1163464Y1119252D01*
X1158488Y1131263D01*
X1151265Y1142072D01*
X1142072Y1151265D01*
X1131263Y1158488D01*
X1119252Y1163464D01*
X1106500Y1166000D01*
D02*
G37*
%LPD*%
D11*
X2902126Y1388780D02*
D03*
Y1611220D02*
D03*
D12*
X2363780Y1902126D02*
D03*
X2586220D02*
D03*
D21*
X1200000Y1380000D02*
D03*
Y1620000D02*
D03*
D22*
X1100000Y1380000D02*
D03*
Y1620000D02*
D03*
D23*
Y1900000D02*
D03*
Y1100000D02*
D03*
X2900000D02*
D03*
Y1900000D02*
D03*
D24*
X2511605Y1690334D02*
D03*
Y1810334D02*
D03*
Y1770334D02*
D03*
Y1650334D02*
D03*
Y1730334D02*
D03*
X2519171Y1849612D02*
D03*
Y1889612D02*
D03*
X2510392Y1610353D02*
D03*
X2437175Y1738802D02*
D03*
Y1698802D02*
D03*
Y1778802D02*
D03*
Y1818802D02*
D03*
X2300000Y1860000D02*
D03*
Y1910000D02*
D03*
Y1960000D02*
D03*
X2645000Y1855000D02*
D03*
Y1910000D02*
D03*
Y1965000D02*
D03*
X2320000Y1585000D02*
D03*
Y1625000D02*
D03*
Y1665000D02*
D03*
X2360000Y1695000D02*
D03*
X2400000D02*
D03*
X2428388Y1977825D02*
D03*
Y1937825D02*
D03*
Y1897825D02*
D03*
Y1857825D02*
D03*
X2410000Y1565000D02*
D03*
X2455000D02*
D03*
X2519171Y1929612D02*
D03*
Y1969612D02*
D03*
X2425000Y1520000D02*
D03*
X2435000Y1450000D02*
D03*
X2489583Y1452608D02*
D03*
X2528266Y1462785D02*
D03*
X2568266D02*
D03*
X2608266D02*
D03*
X2648266D02*
D03*
X2688266D02*
D03*
X2728266D02*
D03*
X2768266D02*
D03*
X2808266D02*
D03*
X2847422Y1454608D02*
D03*
X2887422D02*
D03*
X2927422D02*
D03*
X2967422D02*
D03*
X2974190Y1545392D02*
D03*
X2934190D02*
D03*
X2894190D02*
D03*
X2854190D02*
D03*
X2815034Y1537215D02*
D03*
X2775034D02*
D03*
X2735034D02*
D03*
X2695034D02*
D03*
X2655034D02*
D03*
X2615034D02*
D03*
X2575034D02*
D03*
X2535034D02*
D03*
X2497804Y1551840D02*
D03*
X2324407Y1539995D02*
D03*
X2284407D02*
D03*
X2244407D02*
D03*
X2204407D02*
D03*
X2164469Y1542215D02*
D03*
X2124479Y1543108D02*
D03*
X2138945Y1467785D02*
D03*
X2218668Y1465564D02*
D03*
X2258668D02*
D03*
X2298668D02*
D03*
X2338668D02*
D03*
X2376512Y1452608D02*
D03*
X2425000Y1490000D02*
D03*
X2370000Y1565000D02*
D03*
X2011312Y1542215D02*
D03*
X1971312Y1542215D02*
D03*
X1931312D02*
D03*
X1891322Y1543108D02*
D03*
X1877408Y1471222D02*
D03*
X1917173Y1466892D02*
D03*
X2037133Y1467785D02*
D03*
X2085000Y1460000D02*
D03*
X2080993Y1541556D02*
D03*
X1517502Y1528973D02*
D03*
X1515325Y1489033D02*
D03*
X1567142Y1539074D02*
D03*
X1581568Y1561061D02*
D03*
X1843933Y1465344D02*
D03*
X1856668Y1543108D02*
D03*
X1816807Y1539774D02*
D03*
X1776807D02*
D03*
X1736807D02*
D03*
X1696807D02*
D03*
X1657551Y1583431D02*
D03*
X1721892Y1462042D02*
D03*
X1722785Y1422052D02*
D03*
X1721892Y1382062D02*
D03*
X1798108Y1457931D02*
D03*
X1551892Y1334779D02*
D03*
X1552785Y1294789D02*
D03*
X1551892Y1254799D02*
D03*
X1628108Y1255392D02*
D03*
X1627215Y1295382D02*
D03*
X1628108Y1335372D02*
D03*
X1640000Y1155000D02*
D03*
X1590000D02*
D03*
X1540000Y1160000D02*
D03*
X1640000Y1205000D02*
D03*
X1540000D02*
D03*
X1690000Y1225000D02*
D03*
X1670000Y1265000D02*
D03*
X1725000D02*
D03*
X1465000Y1340000D02*
D03*
X1535000Y1380000D02*
D03*
X1755000Y1225000D02*
D03*
X1785000Y1265000D02*
D03*
X1820000Y1325000D02*
D03*
X1990000Y1395000D02*
D03*
X2185000D02*
D03*
X2050000Y1420000D02*
D03*
X2125000Y1415000D02*
D03*
X1790000Y1715000D02*
D03*
Y1675000D02*
D03*
X1845000D02*
D03*
Y1715000D02*
D03*
X1935000Y1440000D02*
D03*
X2770000Y1355000D02*
D03*
Y1415000D02*
D03*
X2775000Y1600000D02*
D03*
Y1640000D02*
D03*
X2840000Y1680000D02*
D03*
X2900000D02*
D03*
X2960000D02*
D03*
X2835000Y1325000D02*
D03*
X2895000D02*
D03*
X2960000D02*
D03*
X2310000Y1430000D02*
D03*
%TF.MD5,bcb8f0f0d19537efd74ae6f9880af053*%
M02*
