%TF.GenerationSoftware,Altium Limited,Altium Designer,22.5.1 (42)*%
G04 Layer_Color=8421504*
%FSLAX26Y26*%
%MOIN*%
%TF.SameCoordinates,B04901F9-BF46-49F9-850C-5E78856F6392*%
%TF.FilePolarity,Positive*%
%TF.FileFunction,Paste,Top*%
%TF.Part,Single*%
G01*
G75*
%TA.AperFunction,ConnectorPad*%
%ADD10R,0.141732X0.050000*%
%ADD11R,0.165354X0.053150*%
%TA.AperFunction,SMDPad,CuDef*%
%ADD12R,0.053150X0.165354*%
%ADD13R,0.050000X0.141732*%
%ADD14R,0.030000X0.060000*%
%ADD15R,0.035433X0.031496*%
%ADD16R,0.023622X0.031496*%
%ADD17R,0.031496X0.035433*%
D10*
X2910000Y1500000D02*
D03*
D11*
X2902126Y1388780D02*
D03*
Y1611220D02*
D03*
D12*
X2363780Y1902126D02*
D03*
X2586220D02*
D03*
D13*
X2475000Y1910000D02*
D03*
D14*
X2375000Y1627000D02*
D03*
X2425000D02*
D03*
X2475000D02*
D03*
Y1503000D02*
D03*
X2375000D02*
D03*
D15*
X1590000Y1255118D02*
D03*
Y1200000D02*
D03*
X1680000Y1380000D02*
D03*
Y1324882D02*
D03*
X1590000Y1380000D02*
D03*
Y1324882D02*
D03*
X1475000Y1437559D02*
D03*
Y1382441D02*
D03*
Y1577559D02*
D03*
Y1522441D02*
D03*
X1592803Y1441494D02*
D03*
X1620000Y1620000D02*
D03*
Y1564882D02*
D03*
X1760000Y1380118D02*
D03*
Y1325000D02*
D03*
X2185000Y1502559D02*
D03*
Y1447441D02*
D03*
X1980000Y1502559D02*
D03*
Y1447441D02*
D03*
X1760000Y1502559D02*
D03*
Y1447441D02*
D03*
X1680000Y1502559D02*
D03*
Y1447441D02*
D03*
D16*
X1547527Y1504486D02*
D03*
X1598709D02*
D03*
X1547527Y1441494D02*
D03*
D17*
X2112559Y1505000D02*
D03*
X2057441D02*
D03*
X1850000Y1505000D02*
D03*
X1905118D02*
D03*
X1682441Y1695000D02*
D03*
X1737559D02*
D03*
%TF.MD5,171f76607fbcc1c3efc0ae606e283e7d*%
M02*
