%TF.GenerationSoftware,Altium Limited,Altium Designer,22.9.1 (49)*%
G04 Layer_Color=16711935*
%FSLAX45Y45*%
%MOMM*%
%TF.SameCoordinates,19B3199C-24C9-4E42-A554-521A99F5088D*%
%TF.FilePolarity,Positive*%
%TF.FileFunction,Other,Mechanical_13*%
%TF.Part,Single*%
G01*
G75*
%TA.AperFunction,NonConductor*%
%ADD28C,0.20000*%
%ADD29C,0.12700*%
%ADD36C,0.10000*%
D28*
X4226100Y4918000D02*
G03*
X4226100Y4918000I-10000J0D01*
G01*
X27010199Y5100400D02*
G03*
X27010199Y5100400I-10000J0D01*
G01*
X27011700Y3480400D02*
G03*
X27011700Y3480400I-10000J0D01*
G01*
X20392300Y5394700D02*
G03*
X20392300Y5394700I-10000J0D01*
G01*
X4226100Y46918170D02*
G03*
X4226100Y46918170I-10000J0D01*
G01*
X20392300Y47394870D02*
G03*
X20392300Y47394870I-10000J0D01*
G01*
X27011700Y45480569D02*
G03*
X27011700Y45480569I-10000J0D01*
G01*
X27010199Y47100571D02*
G03*
X27010199Y47100571I-10000J0D01*
G01*
X4226100Y21718068D02*
G03*
X4226100Y21718068I-10000J0D01*
G01*
X20392300Y22194768D02*
G03*
X20392300Y22194768I-10000J0D01*
G01*
X27011700Y20280469D02*
G03*
X27011700Y20280469I-10000J0D01*
G01*
X27010199Y21900468D02*
G03*
X27010199Y21900468I-10000J0D01*
G01*
X4226100Y38518137D02*
G03*
X4226100Y38518137I-10000J0D01*
G01*
X20392300Y38994836D02*
G03*
X20392300Y38994836I-10000J0D01*
G01*
X27011700Y37080536D02*
G03*
X27011700Y37080536I-10000J0D01*
G01*
X27010199Y38700537D02*
G03*
X27010199Y38700537I-10000J0D01*
G01*
Y30300500D02*
G03*
X27010199Y30300500I-10000J0D01*
G01*
X27011700Y28680502D02*
G03*
X27011700Y28680502I-10000J0D01*
G01*
X20392300Y30594803D02*
G03*
X20392300Y30594803I-10000J0D01*
G01*
X4226100Y30118103D02*
G03*
X4226100Y30118103I-10000J0D01*
G01*
X27011700Y11880434D02*
G03*
X27011700Y11880434I-10000J0D01*
G01*
X27010199Y13500433D02*
G03*
X27010199Y13500433I-10000J0D01*
G01*
X20392300Y13794734D02*
G03*
X20392300Y13794734I-10000J0D01*
G01*
X4226100Y13318034D02*
G03*
X4226100Y13318034I-10000J0D01*
G01*
D29*
X4055100Y4878000D02*
Y5168000D01*
X3895100Y4878000D02*
Y5168000D01*
Y4878000D02*
X4055100D01*
X3895100Y5168000D02*
X4055100D01*
X26835199Y4952900D02*
X27035199D01*
Y4827900D02*
Y4952900D01*
X26835199Y4827900D02*
X27035199D01*
X26835199D02*
Y4952900D01*
X26836700Y3332900D02*
X27036700D01*
Y3207900D02*
Y3332900D01*
X26836700Y3207900D02*
X27036700D01*
X26836700D02*
Y3332900D01*
X20543300Y5144700D02*
Y5434700D01*
X20703300Y5144700D02*
Y5434700D01*
X20543300D02*
X20703300D01*
X20543300Y5144700D02*
X20703300D01*
X4055100Y46878171D02*
Y47168170D01*
X3895100Y46878171D02*
Y47168170D01*
Y46878171D02*
X4055100D01*
X3895100Y47168170D02*
X4055100D01*
X20543300Y47144870D02*
Y47434869D01*
X20703300Y47144870D02*
Y47434869D01*
X20543300D02*
X20703300D01*
X20543300Y47144870D02*
X20703300D01*
X26836700Y45333069D02*
X27036700D01*
Y45208069D02*
Y45333069D01*
X26836700Y45208069D02*
X27036700D01*
X26836700D02*
Y45333069D01*
X26835199Y46953070D02*
X27035199D01*
Y46828070D02*
Y46953070D01*
X26835199Y46828070D02*
X27035199D01*
X26835199D02*
Y46953070D01*
X4055100Y21678069D02*
Y21968068D01*
X3895100Y21678069D02*
Y21968068D01*
Y21678069D02*
X4055100D01*
X3895100Y21968068D02*
X4055100D01*
X20543300Y21944768D02*
Y22234769D01*
X20703300Y21944768D02*
Y22234769D01*
X20543300D02*
X20703300D01*
X20543300Y21944768D02*
X20703300D01*
X26836700Y20132968D02*
X27036700D01*
Y20007968D02*
Y20132968D01*
X26836700Y20007968D02*
X27036700D01*
X26836700D02*
Y20132968D01*
X26835199Y21752968D02*
X27035199D01*
Y21627968D02*
Y21752968D01*
X26835199Y21627968D02*
X27035199D01*
X26835199D02*
Y21752968D01*
X4055100Y38478137D02*
Y38768137D01*
X3895100Y38478137D02*
Y38768137D01*
Y38478137D02*
X4055100D01*
X3895100Y38768137D02*
X4055100D01*
X20543300Y38744836D02*
Y39034836D01*
X20703300Y38744836D02*
Y39034836D01*
X20543300D02*
X20703300D01*
X20543300Y38744836D02*
X20703300D01*
X26836700Y36933035D02*
X27036700D01*
Y36808035D02*
Y36933035D01*
X26836700Y36808035D02*
X27036700D01*
X26836700D02*
Y36933035D01*
X26835199Y38553036D02*
X27035199D01*
Y38428036D02*
Y38553036D01*
X26835199Y38428036D02*
X27035199D01*
X26835199D02*
Y38553036D01*
Y30028003D02*
Y30153003D01*
Y30028003D02*
X27035199D01*
Y30153003D01*
X26835199D02*
X27035199D01*
X26836700Y28408002D02*
Y28533002D01*
Y28408002D02*
X27036700D01*
Y28533002D01*
X26836700D02*
X27036700D01*
X20543300Y30344803D02*
X20703300D01*
X20543300Y30634802D02*
X20703300D01*
Y30344803D02*
Y30634802D01*
X20543300Y30344803D02*
Y30634802D01*
X3895100Y30368103D02*
X4055100D01*
X3895100Y30078101D02*
X4055100D01*
X3895100D02*
Y30368103D01*
X4055100Y30078101D02*
Y30368103D01*
X26836700Y11607934D02*
Y11732934D01*
Y11607934D02*
X27036700D01*
Y11732934D01*
X26836700D02*
X27036700D01*
X26835199Y13227934D02*
Y13352934D01*
Y13227934D02*
X27035199D01*
Y13352934D01*
X26835199D02*
X27035199D01*
X20543300Y13544734D02*
X20703300D01*
X20543300Y13834734D02*
X20703300D01*
Y13544734D02*
Y13834734D01*
X20543300Y13544734D02*
Y13834734D01*
X3895100Y13568034D02*
X4055100D01*
X3895100Y13278033D02*
X4055100D01*
X3895100D02*
Y13568034D01*
X4055100Y13278033D02*
Y13568034D01*
D36*
X23534500Y48212500D02*
Y48307501D01*
X23709500Y48212500D02*
Y48307501D01*
X23534500D02*
X23709500D01*
X23534500Y48212500D02*
X23709500D01*
X23510800Y48441501D02*
X23730800D01*
X23510800Y48586499D02*
X23730800D01*
Y48441501D02*
Y48586499D01*
X23510800Y48441501D02*
Y48586499D01*
X27316299Y3064000D02*
Y3159000D01*
X27141299Y3064000D02*
Y3159000D01*
Y3064000D02*
X27316299D01*
X27141299Y3159000D02*
X27316299D01*
Y4715000D02*
Y4810000D01*
X27141299Y4715000D02*
Y4810000D01*
Y4715000D02*
X27316299D01*
X27141299Y4810000D02*
X27316299D01*
Y11471400D02*
Y11566400D01*
X27141299Y11471400D02*
Y11566400D01*
Y11471400D02*
X27316299D01*
X27141299Y11566400D02*
X27316299D01*
Y13109700D02*
Y13204700D01*
X27141299Y13109700D02*
Y13204700D01*
Y13109700D02*
X27316299D01*
X27141299Y13204700D02*
X27316299D01*
X27303601Y21517101D02*
Y21612100D01*
X27128601Y21517101D02*
Y21612100D01*
Y21517101D02*
X27303601D01*
X27128601Y21612100D02*
X27303601D01*
Y38306500D02*
Y38401501D01*
X27128601Y38306500D02*
Y38401501D01*
Y38306500D02*
X27303601D01*
X27128601Y38401501D02*
X27303601D01*
X27316299Y36680899D02*
Y36775900D01*
X27141299Y36680899D02*
Y36775900D01*
Y36680899D02*
X27316299D01*
X27141299Y36775900D02*
X27316299D01*
Y45062900D02*
Y45157901D01*
X27141299Y45062900D02*
Y45157901D01*
Y45062900D02*
X27316299D01*
X27141299Y45157901D02*
X27316299D01*
X27303601Y46713901D02*
Y46808899D01*
X27128601Y46713901D02*
Y46808899D01*
Y46713901D02*
X27303601D01*
X27128601Y46808899D02*
X27303601D01*
X27316299Y19866100D02*
Y19961099D01*
X27141299Y19866100D02*
Y19961099D01*
Y19866100D02*
X27316299D01*
X27141299Y19961099D02*
X27316299D01*
Y28273499D02*
Y28368500D01*
X27141299Y28273499D02*
Y28368500D01*
Y28273499D02*
X27316299D01*
X27141299Y28368500D02*
X27316299D01*
Y29911801D02*
Y30006799D01*
X27141299Y29911801D02*
Y30006799D01*
Y29911801D02*
X27316299D01*
X27141299Y30006799D02*
X27316299D01*
X10216300Y48479599D02*
X10436300D01*
X10216300Y48624600D02*
X10436300D01*
Y48479599D02*
Y48624600D01*
X10216300Y48479599D02*
Y48624600D01*
X10237600Y48263300D02*
X10412600D01*
X10237600Y48358301D02*
X10412600D01*
Y48263300D02*
Y48358301D01*
X10237600Y48263300D02*
Y48358301D01*
X12517100Y48250601D02*
X12692100D01*
X12517100Y48345599D02*
X12692100D01*
Y48250601D02*
Y48345599D01*
X12517100Y48250601D02*
Y48345599D01*
X12501100Y48466901D02*
X12721100D01*
X12501100Y48611899D02*
X12721100D01*
Y48466901D02*
Y48611899D01*
X12501100Y48466901D02*
Y48611899D01*
X26842700Y4003700D02*
X27017700D01*
X26842700Y3908700D02*
X27017700D01*
X26842700D02*
Y4003700D01*
X27017700Y3908700D02*
Y4003700D01*
X26639499Y36505536D02*
Y36600537D01*
X26814499Y36505536D02*
Y36600537D01*
X26639499D02*
X26814499D01*
X26639499Y36505536D02*
X26814499D01*
X4294000Y47172269D02*
X4469000D01*
X4294000Y47077271D02*
X4469000D01*
X4294000D02*
Y47172269D01*
X4469000Y47077271D02*
Y47172269D01*
X20118201Y47134271D02*
X20293201D01*
X20118201Y47229269D02*
X20293201D01*
Y47134271D02*
Y47229269D01*
X20118201Y47134271D02*
Y47229269D01*
X4294000Y38772235D02*
X4469000D01*
X4294000Y38677237D02*
X4469000D01*
X4294000D02*
Y38772235D01*
X4469000Y38677237D02*
Y38772235D01*
X20118201Y38734235D02*
X20293201D01*
X20118201Y38829236D02*
X20293201D01*
Y38734235D02*
Y38829236D01*
X20118201Y38734235D02*
Y38829236D01*
X4294000Y30372202D02*
X4469000D01*
X4294000Y30277203D02*
X4469000D01*
X4294000D02*
Y30372202D01*
X4469000Y30277203D02*
Y30372202D01*
X20118201Y30334201D02*
X20293201D01*
X20118201Y30429202D02*
X20293201D01*
Y30334201D02*
Y30429202D01*
X20118201Y30334201D02*
Y30429202D01*
X4294000Y21972168D02*
X4469000D01*
X4294000Y21877168D02*
X4469000D01*
X4294000D02*
Y21972168D01*
X4469000Y21877168D02*
Y21972168D01*
X20118201Y21934167D02*
X20293201D01*
X20118201Y22029169D02*
X20293201D01*
Y21934167D02*
Y22029169D01*
X20118201Y21934167D02*
Y22029169D01*
X4294000Y13572134D02*
X4469000D01*
X4294000Y13477135D02*
X4469000D01*
X4294000D02*
Y13572134D01*
X4469000Y13477135D02*
Y13572134D01*
X20118201Y13534134D02*
X20293201D01*
X20118201Y13629134D02*
X20293201D01*
Y13534134D02*
Y13629134D01*
X20118201Y13534134D02*
Y13629134D01*
X4416300Y4757700D02*
Y4932700D01*
X4321300Y4757700D02*
Y4932700D01*
X4416300D01*
X4321300Y4757700D02*
X4416300D01*
X3900300Y4753000D02*
X4075300D01*
X3900300Y4658000D02*
X4075300D01*
X3900300D02*
Y4753000D01*
X4075300Y4658000D02*
Y4753000D01*
X3381500Y4929000D02*
Y5104000D01*
X3476500Y4929000D02*
Y5104000D01*
X3381500Y4929000D02*
X3476500D01*
X3381500Y5104000D02*
X3476500D01*
X4294000Y5172100D02*
X4469000D01*
X4294000Y5077100D02*
X4469000D01*
X4294000D02*
Y5172100D01*
X4469000Y5077100D02*
Y5172100D01*
X20118201Y5134100D02*
X20293201D01*
X20118201Y5229100D02*
X20293201D01*
Y5134100D02*
Y5229100D01*
X20118201Y5134100D02*
Y5229100D01*
X26952701Y5214900D02*
Y5389900D01*
X27047702Y5214900D02*
Y5389900D01*
X26952701Y5214900D02*
X27047702D01*
X26952701Y5389900D02*
X27047702D01*
X26952701Y3589300D02*
Y3764300D01*
X27047702Y3589300D02*
Y3764300D01*
X26952701Y3589300D02*
X27047702D01*
X26952701Y3764300D02*
X27047702D01*
X26842700Y5616600D02*
X27017700D01*
X26842700Y5521600D02*
X27017700D01*
X26842700D02*
Y5616600D01*
X27017700Y5521600D02*
Y5616600D01*
X26639499Y4556400D02*
X26814499D01*
X26639499Y4651400D02*
X26814499D01*
Y4556400D02*
Y4651400D01*
X26639499Y4556400D02*
Y4651400D01*
X26931900Y4556400D02*
X27106900D01*
X26931900Y4651400D02*
X27106900D01*
Y4556400D02*
Y4651400D01*
X26931900Y4556400D02*
Y4651400D01*
X26639499Y2905400D02*
X26814499D01*
X26639499Y3000400D02*
X26814499D01*
Y2905400D02*
Y3000400D01*
X26639499Y2905400D02*
Y3000400D01*
X26950800Y2905400D02*
X27125800D01*
X26950800Y3000400D02*
X27125800D01*
Y2905400D02*
Y3000400D01*
X26950800Y2905400D02*
Y3000400D01*
X20537300Y5521600D02*
X20712300D01*
X20537300Y5616600D02*
X20712300D01*
Y5521600D02*
Y5616600D01*
X20537300Y5521600D02*
Y5616600D01*
X20209000Y5380000D02*
Y5555000D01*
X20304001Y5380000D02*
Y5555000D01*
X20209000Y5380000D02*
X20304001D01*
X20209000Y5555000D02*
X20304001D01*
X20956400Y5800600D02*
X21131400D01*
X20956400Y5705600D02*
X21131400D01*
X20956400D02*
Y5800600D01*
X21131400Y5705600D02*
Y5800600D01*
X3381500Y46929169D02*
Y47104169D01*
X3476500Y46929169D02*
Y47104169D01*
X3381500Y46929169D02*
X3476500D01*
X3381500Y47104169D02*
X3476500D01*
X4416300Y46757870D02*
Y46932870D01*
X4321300Y46757870D02*
Y46932870D01*
X4416300D01*
X4321300Y46757870D02*
X4416300D01*
X20956400Y47800769D02*
X21131400D01*
X20956400Y47705771D02*
X21131400D01*
X20956400D02*
Y47800769D01*
X21131400Y47705771D02*
Y47800769D01*
X20209000Y47380170D02*
Y47555170D01*
X20304001Y47380170D02*
Y47555170D01*
X20209000Y47380170D02*
X20304001D01*
X20209000Y47555170D02*
X20304001D01*
X3900300Y46753171D02*
X4075300D01*
X3900300Y46658170D02*
X4075300D01*
X3900300D02*
Y46753171D01*
X4075300Y46658170D02*
Y46753171D01*
X20537300Y47521771D02*
X20712300D01*
X20537300Y47616769D02*
X20712300D01*
Y47521771D02*
Y47616769D01*
X20537300Y47521771D02*
Y47616769D01*
X26950800Y44905569D02*
X27125800D01*
X26950800Y45000571D02*
X27125800D01*
Y44905569D02*
Y45000571D01*
X26950800Y44905569D02*
Y45000571D01*
X26639499Y44905569D02*
X26814499D01*
X26639499Y45000571D02*
X26814499D01*
Y44905569D02*
Y45000571D01*
X26639499Y44905569D02*
Y45000571D01*
X26931900Y46556570D02*
X27106900D01*
X26931900Y46651569D02*
X27106900D01*
Y46556570D02*
Y46651569D01*
X26931900Y46556570D02*
Y46651569D01*
X26639499Y46556570D02*
X26814499D01*
X26639499Y46651569D02*
X26814499D01*
Y46556570D02*
Y46651569D01*
X26639499Y46556570D02*
Y46651569D01*
X26842700Y46003870D02*
X27017700D01*
X26842700Y45908871D02*
X27017700D01*
X26842700D02*
Y46003870D01*
X27017700Y45908871D02*
Y46003870D01*
X26842700Y47616769D02*
X27017700D01*
X26842700Y47521771D02*
X27017700D01*
X26842700D02*
Y47616769D01*
X27017700Y47521771D02*
Y47616769D01*
X26952701Y45589471D02*
Y45764471D01*
X27047702Y45589471D02*
Y45764471D01*
X26952701Y45589471D02*
X27047702D01*
X26952701Y45764471D02*
X27047702D01*
X26952701Y47215070D02*
Y47390070D01*
X27047702Y47215070D02*
Y47390070D01*
X26952701Y47215070D02*
X27047702D01*
X26952701Y47390070D02*
X27047702D01*
X3381500Y21729068D02*
Y21904068D01*
X3476500Y21729068D02*
Y21904068D01*
X3381500Y21729068D02*
X3476500D01*
X3381500Y21904068D02*
X3476500D01*
X4416300Y21557768D02*
Y21732768D01*
X4321300Y21557768D02*
Y21732768D01*
X4416300D01*
X4321300Y21557768D02*
X4416300D01*
X20956400Y22600668D02*
X21131400D01*
X20956400Y22505669D02*
X21131400D01*
X20956400D02*
Y22600668D01*
X21131400Y22505669D02*
Y22600668D01*
X20209000Y22180067D02*
Y22355067D01*
X20304001Y22180067D02*
Y22355067D01*
X20209000Y22180067D02*
X20304001D01*
X20209000Y22355067D02*
X20304001D01*
X3900300Y21553069D02*
X4075300D01*
X3900300Y21458067D02*
X4075300D01*
X3900300D02*
Y21553069D01*
X4075300Y21458067D02*
Y21553069D01*
X20537300Y22321667D02*
X20712300D01*
X20537300Y22416669D02*
X20712300D01*
Y22321667D02*
Y22416669D01*
X20537300Y22321667D02*
Y22416669D01*
X26950800Y19705469D02*
X27125800D01*
X26950800Y19800468D02*
X27125800D01*
Y19705469D02*
Y19800468D01*
X26950800Y19705469D02*
Y19800468D01*
X26639499Y19705469D02*
X26814499D01*
X26639499Y19800468D02*
X26814499D01*
Y19705469D02*
Y19800468D01*
X26639499Y19705469D02*
Y19800468D01*
X26931900Y21356468D02*
X27106900D01*
X26931900Y21451468D02*
X27106900D01*
Y21356468D02*
Y21451468D01*
X26931900Y21356468D02*
Y21451468D01*
X26639499Y21356468D02*
X26814499D01*
X26639499Y21451468D02*
X26814499D01*
Y21356468D02*
Y21451468D01*
X26639499Y21356468D02*
Y21451468D01*
X26842700Y20803767D02*
X27017700D01*
X26842700Y20708768D02*
X27017700D01*
X26842700D02*
Y20803767D01*
X27017700Y20708768D02*
Y20803767D01*
X26842700Y22416669D02*
X27017700D01*
X26842700Y22321667D02*
X27017700D01*
X26842700D02*
Y22416669D01*
X27017700Y22321667D02*
Y22416669D01*
X26952701Y20389368D02*
Y20564368D01*
X27047702Y20389368D02*
Y20564368D01*
X26952701Y20389368D02*
X27047702D01*
X26952701Y20564368D02*
X27047702D01*
X26952701Y22014967D02*
Y22189967D01*
X27047702Y22014967D02*
Y22189967D01*
X26952701Y22014967D02*
X27047702D01*
X26952701Y22189967D02*
X27047702D01*
X3381500Y38529135D02*
Y38704135D01*
X3476500Y38529135D02*
Y38704135D01*
X3381500Y38529135D02*
X3476500D01*
X3381500Y38704135D02*
X3476500D01*
X4416300Y38357837D02*
Y38532837D01*
X4321300Y38357837D02*
Y38532837D01*
X4416300D01*
X4321300Y38357837D02*
X4416300D01*
X20956400Y39400735D02*
X21131400D01*
X20956400Y39305737D02*
X21131400D01*
X20956400D02*
Y39400735D01*
X21131400Y39305737D02*
Y39400735D01*
X20209000Y38980136D02*
Y39155136D01*
X20304001Y38980136D02*
Y39155136D01*
X20209000Y38980136D02*
X20304001D01*
X20209000Y39155136D02*
X20304001D01*
X3900300Y38353137D02*
X4075300D01*
X3900300Y38258136D02*
X4075300D01*
X3900300D02*
Y38353137D01*
X4075300Y38258136D02*
Y38353137D01*
X20537300Y39121735D02*
X20712300D01*
X20537300Y39216736D02*
X20712300D01*
Y39121735D02*
Y39216736D01*
X20537300Y39121735D02*
Y39216736D01*
X26950800Y36505536D02*
X27125800D01*
X26950800Y36600537D02*
X27125800D01*
Y36505536D02*
Y36600537D01*
X26950800Y36505536D02*
Y36600537D01*
X26931900Y38156537D02*
X27106900D01*
X26931900Y38251535D02*
X27106900D01*
Y38156537D02*
Y38251535D01*
X26931900Y38156537D02*
Y38251535D01*
X26639499Y38156537D02*
X26814499D01*
X26639499Y38251535D02*
X26814499D01*
Y38156537D02*
Y38251535D01*
X26639499Y38156537D02*
Y38251535D01*
X26842700Y37603836D02*
X27017700D01*
X26842700Y37508835D02*
X27017700D01*
X26842700D02*
Y37603836D01*
X27017700Y37508835D02*
Y37603836D01*
X26842700Y39216736D02*
X27017700D01*
X26842700Y39121735D02*
X27017700D01*
X26842700D02*
Y39216736D01*
X27017700Y39121735D02*
Y39216736D01*
X26952701Y37189435D02*
Y37364435D01*
X27047702Y37189435D02*
Y37364435D01*
X26952701Y37189435D02*
X27047702D01*
X26952701Y37364435D02*
X27047702D01*
X26952701Y38815036D02*
Y38990036D01*
X27047702Y38815036D02*
Y38990036D01*
X26952701Y38815036D02*
X27047702D01*
X26952701Y38990036D02*
X27047702D01*
X26952701Y30590002D02*
X27047702D01*
X26952701Y30415002D02*
X27047702D01*
Y30590002D01*
X26952701Y30415002D02*
Y30590002D01*
Y28964401D02*
X27047702D01*
X26952701Y28789401D02*
X27047702D01*
Y28964401D01*
X26952701Y28789401D02*
Y28964401D01*
X27017700Y30721701D02*
Y30816702D01*
X26842700Y30721701D02*
Y30816702D01*
Y30721701D02*
X27017700D01*
X26842700Y30816702D02*
X27017700D01*
Y29108801D02*
Y29203802D01*
X26842700Y29108801D02*
Y29203802D01*
Y29108801D02*
X27017700D01*
X26842700Y29203802D02*
X27017700D01*
X26639499Y29756503D02*
Y29851501D01*
X26814499Y29756503D02*
Y29851501D01*
X26639499D02*
X26814499D01*
X26639499Y29756503D02*
X26814499D01*
X26931900D02*
Y29851501D01*
X27106900Y29756503D02*
Y29851501D01*
X26931900D02*
X27106900D01*
X26931900Y29756503D02*
X27106900D01*
X26639499Y28105502D02*
Y28200500D01*
X26814499Y28105502D02*
Y28200500D01*
X26639499D02*
X26814499D01*
X26639499Y28105502D02*
X26814499D01*
X26950800Y28105502D02*
Y28200500D01*
X27125800Y28105502D02*
Y28200500D01*
X26950800D02*
X27125800D01*
X26950800Y28105502D02*
X27125800D01*
X20537300Y30721701D02*
Y30816702D01*
X20712300Y30721701D02*
Y30816702D01*
X20537300D02*
X20712300D01*
X20537300Y30721701D02*
X20712300D01*
X4075300Y29858102D02*
Y29953101D01*
X3900300Y29858102D02*
Y29953101D01*
Y29858102D02*
X4075300D01*
X3900300Y29953101D02*
X4075300D01*
X20209000Y30755103D02*
X20304001D01*
X20209000Y30580103D02*
X20304001D01*
Y30755103D01*
X20209000Y30580103D02*
Y30755103D01*
X21131400Y30905701D02*
Y31000702D01*
X20956400Y30905701D02*
Y31000702D01*
Y30905701D02*
X21131400D01*
X20956400Y31000702D02*
X21131400D01*
X4321300Y29957803D02*
X4416300D01*
X4321300Y30132803D02*
X4416300D01*
X4321300Y29957803D02*
Y30132803D01*
X4416300Y29957803D02*
Y30132803D01*
X3381500Y30304102D02*
X3476500D01*
X3381500Y30129102D02*
X3476500D01*
Y30304102D01*
X3381500Y30129102D02*
Y30304102D01*
X27017700Y12308734D02*
Y12403734D01*
X26842700Y12308734D02*
Y12403734D01*
Y12308734D02*
X27017700D01*
X26842700Y12403734D02*
X27017700D01*
Y13921634D02*
Y14016634D01*
X26842700Y13921634D02*
Y14016634D01*
Y13921634D02*
X27017700D01*
X26842700Y14016634D02*
X27017700D01*
X20537300Y13921634D02*
Y14016634D01*
X20712300Y13921634D02*
Y14016634D01*
X20537300D02*
X20712300D01*
X20537300Y13921634D02*
X20712300D01*
X20209000Y13955034D02*
X20304001D01*
X20209000Y13780034D02*
X20304001D01*
Y13955034D01*
X20209000Y13780034D02*
Y13955034D01*
X21131400Y14105634D02*
Y14200633D01*
X20956400Y14105634D02*
Y14200633D01*
Y14105634D02*
X21131400D01*
X20956400Y14200633D02*
X21131400D01*
X26639499Y12956435D02*
Y13051434D01*
X26814499Y12956435D02*
Y13051434D01*
X26639499D02*
X26814499D01*
X26639499Y12956435D02*
X26814499D01*
X26931900D02*
Y13051434D01*
X27106900Y12956435D02*
Y13051434D01*
X26931900D02*
X27106900D01*
X26931900Y12956435D02*
X27106900D01*
X26952701Y13789934D02*
X27047702D01*
X26952701Y13614934D02*
X27047702D01*
Y13789934D01*
X26952701Y13614934D02*
Y13789934D01*
Y12164334D02*
X27047702D01*
X26952701Y11989334D02*
X27047702D01*
Y12164334D01*
X26952701Y11989334D02*
Y12164334D01*
X26950800Y11305434D02*
Y11400434D01*
X27125800Y11305434D02*
Y11400434D01*
X26950800D02*
X27125800D01*
X26950800Y11305434D02*
X27125800D01*
X26639499Y11305434D02*
Y11400434D01*
X26814499Y11305434D02*
Y11400434D01*
X26639499D02*
X26814499D01*
X26639499Y11305434D02*
X26814499D01*
X4075300Y13058034D02*
Y13153033D01*
X3900300Y13058034D02*
Y13153033D01*
Y13058034D02*
X4075300D01*
X3900300Y13153033D02*
X4075300D01*
X3381500Y13504034D02*
X3476500D01*
X3381500Y13329034D02*
X3476500D01*
Y13504034D01*
X3381500Y13329034D02*
Y13504034D01*
X4321300Y13157735D02*
X4416300D01*
X4321300Y13332735D02*
X4416300D01*
X4321300Y13157735D02*
Y13332735D01*
X4416300Y13157735D02*
Y13332735D01*
X31078299Y25606500D02*
Y25701501D01*
X31253299Y25606500D02*
Y25701501D01*
X31078299D02*
X31253299D01*
X31078299Y25606500D02*
X31253299D01*
X31065601Y25098500D02*
Y25193500D01*
X31240601Y25098500D02*
Y25193500D01*
X31065601D02*
X31240601D01*
X31065601Y25098500D02*
X31240601D01*
X31065601Y24590500D02*
Y24685500D01*
X31240601Y24590500D02*
Y24685500D01*
X31065601D02*
X31240601D01*
X31065601Y24590500D02*
X31240601D01*
X31072101Y24082500D02*
Y24177499D01*
X31247101Y24082500D02*
Y24177499D01*
X31072101D02*
X31247101D01*
X31072101Y24082500D02*
X31247101D01*
%TF.MD5,180cdb298ae3830787036f7c44400cb1*%
M02*
