%TF.GenerationSoftware,Altium Limited,Altium Designer,22.9.1 (49)*%
G04 Layer_Color=16711935*
%FSLAX45Y45*%
%MOMM*%
%TF.SameCoordinates,19B3199C-24C9-4E42-A554-521A99F5088D*%
%TF.FilePolarity,Negative*%
%TF.FileFunction,Soldermask,Bot*%
%TF.Part,Single*%
G01*
G75*
%TA.AperFunction,ComponentPad*%
%ADD24R,1.70320X1.70320*%
%ADD25C,1.70320*%
%TA.AperFunction,WasherPad*%
%ADD26C,3.25120*%
%TA.AperFunction,ComponentPad*%
%ADD27R,1.70320X1.70320*%
D24*
X23114000Y48882300D02*
D03*
X24130000D02*
D03*
X9867900D02*
D03*
X10883900D02*
D03*
X13169901D02*
D03*
X12153900D02*
D03*
X21602699Y6083300D02*
D03*
X26314401Y5511800D02*
D03*
Y3898900D02*
D03*
X20688300Y6083300D02*
D03*
X21602699Y48083469D02*
D03*
Y14483334D02*
D03*
Y22883368D02*
D03*
Y31283401D02*
D03*
Y39683435D02*
D03*
X26314401Y45899069D02*
D03*
Y47511969D02*
D03*
Y20698969D02*
D03*
Y22311868D02*
D03*
Y37499036D02*
D03*
Y39111935D02*
D03*
Y30711902D02*
D03*
Y29099002D02*
D03*
X20688300Y31283401D02*
D03*
X26314401Y13911835D02*
D03*
Y12298934D02*
D03*
X29210001Y27939999D02*
D03*
X20688300Y14483334D02*
D03*
X30734000Y22098000D02*
D03*
X20688300Y22883368D02*
D03*
Y39683435D02*
D03*
Y48083469D02*
D03*
D25*
X23114000Y49136301D02*
D03*
X24130000D02*
D03*
X9867900D02*
D03*
X10883900D02*
D03*
X13169901D02*
D03*
X12153900D02*
D03*
X3048000Y12730734D02*
D03*
Y4330700D02*
D03*
X21602699Y6337300D02*
D03*
X26314401Y5003800D02*
D03*
Y5257800D02*
D03*
Y3390900D02*
D03*
Y3644900D02*
D03*
X20688300Y6337300D02*
D03*
X3048000Y4940300D02*
D03*
Y46330869D02*
D03*
X21602699Y48337469D02*
D03*
Y14737334D02*
D03*
Y23137367D02*
D03*
Y31537402D02*
D03*
Y39937436D02*
D03*
X3048000Y21130768D02*
D03*
Y29530801D02*
D03*
Y37930835D02*
D03*
X26314401Y45391071D02*
D03*
Y45645071D02*
D03*
Y47003970D02*
D03*
Y47257971D02*
D03*
Y20190968D02*
D03*
Y20444968D02*
D03*
Y21803868D02*
D03*
Y22057867D02*
D03*
Y36991037D02*
D03*
Y37245035D02*
D03*
Y38603937D02*
D03*
Y38857935D02*
D03*
Y30457901D02*
D03*
Y30203903D02*
D03*
Y28845001D02*
D03*
Y28591003D02*
D03*
X20688300Y31537402D02*
D03*
X3048000Y30140402D02*
D03*
X26314401Y13657834D02*
D03*
Y13403835D02*
D03*
Y12044934D02*
D03*
Y11790934D02*
D03*
X29210001Y22098000D02*
D03*
Y22352000D02*
D03*
Y22606000D02*
D03*
Y22860001D02*
D03*
Y23114000D02*
D03*
Y23367999D02*
D03*
Y23622000D02*
D03*
Y23875999D02*
D03*
Y24130000D02*
D03*
Y24384000D02*
D03*
Y24638000D02*
D03*
Y24892000D02*
D03*
Y25146001D02*
D03*
Y25400000D02*
D03*
Y25654001D02*
D03*
Y25907999D02*
D03*
Y26162000D02*
D03*
Y26416000D02*
D03*
Y26670001D02*
D03*
Y26923999D02*
D03*
Y27178000D02*
D03*
Y27432001D02*
D03*
Y27685999D02*
D03*
X3048000Y13340334D02*
D03*
X20688300Y14737334D02*
D03*
X30734000Y27939999D02*
D03*
Y27685999D02*
D03*
Y27432001D02*
D03*
Y27178000D02*
D03*
Y26923999D02*
D03*
Y26670001D02*
D03*
Y26416000D02*
D03*
Y26162000D02*
D03*
Y25907999D02*
D03*
Y25654001D02*
D03*
Y25400000D02*
D03*
Y25146001D02*
D03*
Y24892000D02*
D03*
Y24638000D02*
D03*
Y24384000D02*
D03*
Y24130000D02*
D03*
Y23875999D02*
D03*
Y23622000D02*
D03*
Y23367999D02*
D03*
Y23114000D02*
D03*
Y22860001D02*
D03*
Y22606000D02*
D03*
Y22352000D02*
D03*
X20688300Y23137367D02*
D03*
Y39937436D02*
D03*
Y48337469D02*
D03*
X3048000Y21740369D02*
D03*
Y38540436D02*
D03*
Y46940469D02*
D03*
D26*
X32766000Y18288000D02*
D03*
X2794000Y33782001D02*
D03*
X17780000Y2794000D02*
D03*
Y49276001D02*
D03*
X32766000Y33782001D02*
D03*
X2794000Y18288000D02*
D03*
X32766000Y2794000D02*
D03*
Y49276001D02*
D03*
X2794000D02*
D03*
Y2794000D02*
D03*
D27*
Y12730734D02*
D03*
Y4330700D02*
D03*
Y4940300D02*
D03*
Y46330869D02*
D03*
Y21130768D02*
D03*
Y29530801D02*
D03*
Y37930835D02*
D03*
Y30140402D02*
D03*
Y13340334D02*
D03*
Y21740369D02*
D03*
Y38540436D02*
D03*
Y46940469D02*
D03*
%TF.MD5,5f9794bf76a29f48e00bd75449d7dcf7*%
M02*
