%TF.GenerationSoftware,Altium Limited,Altium Designer,22.9.1 (49)*%
G04 Layer_Color=0*
%FSLAX45Y45*%
%MOMM*%
%TF.SameCoordinates,19B3199C-24C9-4E42-A554-521A99F5088D*%
%TF.FilePolarity,Positive*%
%TF.FileFunction,Plated,1,2,PTH,Drill*%
%TF.Part,Single*%
G01*
G75*
%TA.AperFunction,ComponentDrill*%
%ADD49C,0.90000*%
%ADD50C,0.90000*%
%TA.AperFunction,ViaDrill,NotFilled*%
%ADD51C,0.25400*%
D49*
X23114000Y48882300D02*
D03*
Y49136301D02*
D03*
X24130000Y48882300D02*
D03*
Y49136301D02*
D03*
X9867900D02*
D03*
Y48882300D02*
D03*
X10883900Y49136301D02*
D03*
Y48882300D02*
D03*
X13169901Y49136301D02*
D03*
Y48882300D02*
D03*
X12153900Y49136301D02*
D03*
Y48882300D02*
D03*
X21602699Y6083300D02*
D03*
Y6337300D02*
D03*
X26314401Y5003800D02*
D03*
Y5257800D02*
D03*
Y5511800D02*
D03*
Y3390900D02*
D03*
Y3644900D02*
D03*
Y3898900D02*
D03*
X20688300Y6337300D02*
D03*
Y6083300D02*
D03*
X21602699Y48083469D02*
D03*
Y48337469D02*
D03*
Y14483334D02*
D03*
Y14737334D02*
D03*
Y22883368D02*
D03*
Y23137367D02*
D03*
Y31283401D02*
D03*
Y31537402D02*
D03*
Y39683435D02*
D03*
Y39937436D02*
D03*
X26314401Y45391071D02*
D03*
Y45645071D02*
D03*
Y45899069D02*
D03*
Y47003970D02*
D03*
Y47257971D02*
D03*
Y47511969D02*
D03*
Y20190968D02*
D03*
Y20444968D02*
D03*
Y20698969D02*
D03*
Y21803868D02*
D03*
Y22057867D02*
D03*
Y22311868D02*
D03*
Y36991037D02*
D03*
Y37245035D02*
D03*
Y37499036D02*
D03*
Y38603937D02*
D03*
Y38857935D02*
D03*
Y39111935D02*
D03*
Y30711902D02*
D03*
Y30457901D02*
D03*
Y30203903D02*
D03*
Y29099002D02*
D03*
Y28845001D02*
D03*
Y28591003D02*
D03*
X20688300Y31283401D02*
D03*
Y31537402D02*
D03*
X26314401Y13911835D02*
D03*
Y13657834D02*
D03*
Y13403835D02*
D03*
Y12298934D02*
D03*
Y12044934D02*
D03*
Y11790934D02*
D03*
X29210001Y27939999D02*
D03*
Y22098000D02*
D03*
Y22352000D02*
D03*
Y22606000D02*
D03*
Y22860001D02*
D03*
Y23114000D02*
D03*
Y23367999D02*
D03*
Y23622000D02*
D03*
Y23875999D02*
D03*
Y24130000D02*
D03*
Y24384000D02*
D03*
Y24638000D02*
D03*
Y24892000D02*
D03*
Y25146001D02*
D03*
Y25400000D02*
D03*
Y25654001D02*
D03*
Y25907999D02*
D03*
Y26162000D02*
D03*
Y26416000D02*
D03*
Y26670001D02*
D03*
Y26923999D02*
D03*
Y27178000D02*
D03*
Y27432001D02*
D03*
Y27685999D02*
D03*
X20688300Y14483334D02*
D03*
Y14737334D02*
D03*
X30734000Y22098000D02*
D03*
Y27939999D02*
D03*
Y27685999D02*
D03*
Y27432001D02*
D03*
Y27178000D02*
D03*
Y26923999D02*
D03*
Y26670001D02*
D03*
Y26416000D02*
D03*
Y26162000D02*
D03*
Y25907999D02*
D03*
Y25654001D02*
D03*
Y25400000D02*
D03*
Y25146001D02*
D03*
Y24892000D02*
D03*
Y24638000D02*
D03*
Y24384000D02*
D03*
Y24130000D02*
D03*
Y23875999D02*
D03*
Y23622000D02*
D03*
Y23367999D02*
D03*
Y23114000D02*
D03*
Y22860001D02*
D03*
Y22606000D02*
D03*
Y22352000D02*
D03*
X20688300Y22883368D02*
D03*
Y23137367D02*
D03*
Y39683435D02*
D03*
Y39937436D02*
D03*
Y48083469D02*
D03*
Y48337469D02*
D03*
D50*
X2794000Y12730734D02*
D03*
X3048000D02*
D03*
X2794000Y4330700D02*
D03*
X3048000D02*
D03*
Y4940300D02*
D03*
X2794000D02*
D03*
Y46330869D02*
D03*
X3048000D02*
D03*
X2794000Y21130768D02*
D03*
X3048000D02*
D03*
X2794000Y29530801D02*
D03*
X3048000D02*
D03*
X2794000Y37930835D02*
D03*
X3048000D02*
D03*
X2794000Y30140402D02*
D03*
X3048000D02*
D03*
X2794000Y13340334D02*
D03*
X3048000D02*
D03*
X2794000Y21740369D02*
D03*
X3048000D02*
D03*
X2794000Y38540436D02*
D03*
X3048000D02*
D03*
X2794000Y46940469D02*
D03*
X3048000D02*
D03*
D51*
X26715762Y38496710D02*
D03*
X26516071Y38523184D02*
D03*
X26517599Y38201599D02*
D03*
X26614160Y38496710D02*
D03*
X26443930Y38594727D02*
D03*
X26657300Y38328601D02*
D03*
X26294885Y38732617D02*
D03*
X20624800Y5295900D02*
D03*
X20358099D02*
D03*
X20624800Y13690601D02*
D03*
X20358099D02*
D03*
X20624800Y22085300D02*
D03*
X20363467Y22094040D02*
D03*
X20370799Y47294800D02*
D03*
X20624800D02*
D03*
X20370799Y38887399D02*
D03*
X20624800D02*
D03*
X20637500Y30492700D02*
D03*
X20358099D02*
D03*
X3556000Y5080000D02*
D03*
X3429000Y5194300D02*
D03*
X3302000Y5080000D02*
D03*
X4229100Y5016500D02*
D03*
X3975100D02*
D03*
X4368800Y4660900D02*
D03*
X4495800Y4775200D02*
D03*
X4238774Y4770083D02*
D03*
X4368800Y13055600D02*
D03*
X4495800Y13169901D02*
D03*
X4254500D02*
D03*
X4229100Y13423900D02*
D03*
X3987800D02*
D03*
X3556000Y13487399D02*
D03*
X3314700D02*
D03*
X3424704Y13602122D02*
D03*
X3975100Y21818600D02*
D03*
X4229100D02*
D03*
X4368800Y21463000D02*
D03*
X4483100Y21577299D02*
D03*
X4241800D02*
D03*
X3556000Y21882100D02*
D03*
X3302000D02*
D03*
X3429000Y22009100D02*
D03*
X3556000Y30289499D02*
D03*
X3302000D02*
D03*
X3429000Y30403799D02*
D03*
X3975100Y30226001D02*
D03*
X4254500D02*
D03*
X4368800Y29857700D02*
D03*
X4495800Y29972000D02*
D03*
X4241800D02*
D03*
X3962400Y38620700D02*
D03*
X4254500D02*
D03*
X3556000Y38684201D02*
D03*
X3429000Y38811200D02*
D03*
X3302000Y38684201D02*
D03*
X4368800Y38252399D02*
D03*
X4495800Y38379401D02*
D03*
X4241800D02*
D03*
X3962400Y47028101D02*
D03*
X4254500D02*
D03*
X3581400Y47078900D02*
D03*
X3276600D02*
D03*
X3429000Y47231299D02*
D03*
X4368800Y46647101D02*
D03*
X4229100Y46774100D02*
D03*
X4508500D02*
D03*
X20129500Y47485300D02*
D03*
Y47612299D02*
D03*
X21107401Y47625000D02*
D03*
X21247099Y47751999D02*
D03*
X21107401Y47891699D02*
D03*
X20129500Y39077899D02*
D03*
Y39166800D02*
D03*
X21120100Y39230301D02*
D03*
X21247099Y39357300D02*
D03*
X21120100Y39484299D02*
D03*
X20129500Y30670499D02*
D03*
Y30772101D02*
D03*
X21107401Y30810199D02*
D03*
X21247099Y30949899D02*
D03*
X21107401Y31089600D02*
D03*
X20104100Y22225000D02*
D03*
Y22339301D02*
D03*
X21120100Y22415500D02*
D03*
X21247099Y22555200D02*
D03*
X21120100Y22694901D02*
D03*
X20104100Y13817599D02*
D03*
Y13944600D02*
D03*
X21247099Y14147800D02*
D03*
X21107401Y14020799D02*
D03*
X21111328Y14284859D02*
D03*
X21247099Y5753100D02*
D03*
X21107401Y5626100D02*
D03*
Y5880100D02*
D03*
X20116800Y5486400D02*
D03*
Y5588000D02*
D03*
X26657300Y3073400D02*
D03*
X26530301Y2959100D02*
D03*
X27304999Y2984500D02*
D03*
X27419299Y3111500D02*
D03*
X27292300Y3238500D02*
D03*
X26530301Y4610100D02*
D03*
X26657300Y4737100D02*
D03*
X27292300Y4622800D02*
D03*
X27432001Y4762500D02*
D03*
X27292300Y4889500D02*
D03*
X26530301Y11353800D02*
D03*
X26657300Y11480800D02*
D03*
X27292300Y11404600D02*
D03*
X27419299Y11518900D02*
D03*
X27292300Y11633200D02*
D03*
X26530301Y13004800D02*
D03*
X26657300Y13131799D02*
D03*
X27292300Y13030200D02*
D03*
X27432001Y13157201D02*
D03*
X27292300Y13284200D02*
D03*
X26657300Y19888200D02*
D03*
X26530301Y19761200D02*
D03*
X27292300Y19786600D02*
D03*
X27419299Y19913600D02*
D03*
X27292300Y20040601D02*
D03*
X26657300Y21539200D02*
D03*
X26517599Y21412199D02*
D03*
X27292300Y21424899D02*
D03*
X27432001Y21564600D02*
D03*
X27279599Y21704300D02*
D03*
X26530301Y28155899D02*
D03*
X26657300Y28282901D02*
D03*
X27241501Y28194000D02*
D03*
Y28448001D02*
D03*
X26530301Y29806900D02*
D03*
X26657300Y29933899D02*
D03*
X27304999Y29819601D02*
D03*
X27444699Y29959299D02*
D03*
X27292300Y30086301D02*
D03*
X26517599Y36550601D02*
D03*
X26657300Y36690302D02*
D03*
X27292300Y36601401D02*
D03*
X27432001Y36728400D02*
D03*
X27292300Y36855399D02*
D03*
X27279599Y38214301D02*
D03*
X27419299Y38354001D02*
D03*
X27279599Y38481000D02*
D03*
X26504901Y44945300D02*
D03*
X26657300Y45085001D02*
D03*
X27292300Y44970700D02*
D03*
Y45262799D02*
D03*
X27470099Y45110400D02*
D03*
X26492200Y46596301D02*
D03*
X26670001Y46735999D02*
D03*
X27292300Y46621701D02*
D03*
X27279599Y46888400D02*
D03*
X27419299Y46761401D02*
D03*
X26188907Y3663111D02*
D03*
X26215787Y3565131D02*
D03*
X26305865Y3518134D02*
D03*
X26450354Y3375265D02*
D03*
X26522195Y3303423D02*
D03*
X26618475Y3270974D02*
D03*
X26720074D02*
D03*
X26821628Y3267855D02*
D03*
X26923221Y3268823D02*
D03*
X26919003Y3466795D02*
D03*
X26817508Y3462193D02*
D03*
X26715930Y3460026D02*
D03*
X26615790Y3477189D02*
D03*
X26543948Y3549031D02*
D03*
X26472107Y3620873D02*
D03*
X26423151Y3709901D02*
D03*
X26774194Y4023783D02*
D03*
X26677234Y3993426D02*
D03*
X26575635D02*
D03*
X26474033D02*
D03*
X26377695Y4025695D02*
D03*
X26276096D02*
D03*
X26187881Y3975288D02*
D03*
X26187604Y3873688D02*
D03*
X26218365Y3776857D02*
D03*
X26319855Y3772105D02*
D03*
X26420786Y3783773D02*
D03*
X26520273Y3804374D02*
D03*
X26621872D02*
D03*
X26723474D02*
D03*
X26825024Y3807525D02*
D03*
X26911060Y3861565D02*
D03*
X26920020Y4049052D02*
D03*
X26190878Y5286787D02*
D03*
X26209039Y5186824D02*
D03*
X26294885Y5132480D02*
D03*
X26443930Y4994590D02*
D03*
X26516071Y4923049D02*
D03*
X26614160Y4896574D02*
D03*
X26715762D02*
D03*
X26817139Y4889851D02*
D03*
X26918692Y4886799D02*
D03*
X26920490Y5084800D02*
D03*
X26818893Y5085626D02*
D03*
X26717294D02*
D03*
X26615790Y5090089D02*
D03*
X26543948Y5161931D02*
D03*
X26472107Y5233773D02*
D03*
X26423151Y5322801D02*
D03*
X26774194Y5636683D02*
D03*
X26677234Y5606326D02*
D03*
X26575635D02*
D03*
X26474033D02*
D03*
X26377695Y5638595D02*
D03*
X26276096D02*
D03*
X26187881Y5588188D02*
D03*
X26187604Y5486588D02*
D03*
X26218365Y5389757D02*
D03*
X26319855Y5385005D02*
D03*
X26420786Y5396673D02*
D03*
X26520273Y5417274D02*
D03*
X26621872D02*
D03*
X26723474D02*
D03*
X26825024Y5420425D02*
D03*
X26188907Y12063145D02*
D03*
X26215787Y11965165D02*
D03*
X26305865Y11918168D02*
D03*
X26450354Y11775299D02*
D03*
X26522195Y11703457D02*
D03*
X26618475Y11671008D02*
D03*
X26720074D02*
D03*
X26821628Y11667889D02*
D03*
X26923221Y11668857D02*
D03*
X26919003Y11866829D02*
D03*
X26817508Y11862227D02*
D03*
X26715930Y11860060D02*
D03*
X26615790Y11877223D02*
D03*
X26543948Y11949065D02*
D03*
X26472107Y12020907D02*
D03*
X26423151Y12109935D02*
D03*
X26774194Y12423817D02*
D03*
X26677234Y12393460D02*
D03*
X26575635D02*
D03*
X26474033D02*
D03*
X26377695Y12425729D02*
D03*
X26276096D02*
D03*
X26187881Y12375322D02*
D03*
X26187604Y12273722D02*
D03*
X26218365Y12176891D02*
D03*
X26319855Y12172139D02*
D03*
X26420786Y12183807D02*
D03*
X26520273Y12204408D02*
D03*
X26621872D02*
D03*
X26723474D02*
D03*
X26825024Y12207559D02*
D03*
X26911060Y12261599D02*
D03*
X26920020Y12449086D02*
D03*
X26190878Y13686821D02*
D03*
X26209039Y13586858D02*
D03*
X26294885Y13532513D02*
D03*
X26443930Y13394624D02*
D03*
X26516071Y13323083D02*
D03*
X26614160Y13296608D02*
D03*
X26715762D02*
D03*
X26817139Y13289885D02*
D03*
X26918692Y13286833D02*
D03*
X26920490Y13484834D02*
D03*
X26818893Y13485660D02*
D03*
X26717294D02*
D03*
X26615790Y13490123D02*
D03*
X26543948Y13561964D02*
D03*
X26472107Y13633807D02*
D03*
X26423151Y13722835D02*
D03*
X26774194Y14036717D02*
D03*
X26677234Y14006360D02*
D03*
X26575635D02*
D03*
X26474033D02*
D03*
X26377695Y14038629D02*
D03*
X26276096D02*
D03*
X26187881Y13988222D02*
D03*
X26187604Y13886623D02*
D03*
X26218365Y13789790D02*
D03*
X26319855Y13785039D02*
D03*
X26420786Y13796707D02*
D03*
X26520273Y13817308D02*
D03*
X26621872D02*
D03*
X26723474D02*
D03*
X26825024Y13820459D02*
D03*
X26188907Y20463179D02*
D03*
X26215787Y20365199D02*
D03*
X26305865Y20318202D02*
D03*
X26450354Y20175333D02*
D03*
X26522195Y20103491D02*
D03*
X26618475Y20071042D02*
D03*
X26720074D02*
D03*
X26821628Y20067923D02*
D03*
X26923221Y20068890D02*
D03*
X26919003Y20266862D02*
D03*
X26817508Y20262260D02*
D03*
X26715930Y20260094D02*
D03*
X26615790Y20277257D02*
D03*
X26543948Y20349100D02*
D03*
X26472107Y20420941D02*
D03*
X26423151Y20509969D02*
D03*
X26774194Y20823851D02*
D03*
X26677234Y20793494D02*
D03*
X26575635D02*
D03*
X26474033D02*
D03*
X26377695Y20825763D02*
D03*
X26276096D02*
D03*
X26187881Y20775356D02*
D03*
X26187604Y20673756D02*
D03*
X26218365Y20576926D02*
D03*
X26319855Y20572173D02*
D03*
X26420786Y20583841D02*
D03*
X26520273Y20604442D02*
D03*
X26621872D02*
D03*
X26723474D02*
D03*
X26825024Y20607593D02*
D03*
X26911060Y20661633D02*
D03*
X26920020Y20849120D02*
D03*
X26190878Y22086855D02*
D03*
X26209039Y21986893D02*
D03*
X26294885Y21932549D02*
D03*
X26443930Y21794658D02*
D03*
X26516071Y21723117D02*
D03*
X26614160Y21696642D02*
D03*
X26715762D02*
D03*
X26817139Y21689919D02*
D03*
X26918692Y21686867D02*
D03*
X26920490Y21884868D02*
D03*
X26818893Y21885693D02*
D03*
X26717294D02*
D03*
X26615790Y21890157D02*
D03*
X26543948Y21962000D02*
D03*
X26472107Y22033841D02*
D03*
X26423151Y22122868D02*
D03*
X26774194Y22436751D02*
D03*
X26677234Y22406393D02*
D03*
X26575635D02*
D03*
X26474033D02*
D03*
X26377695Y22438663D02*
D03*
X26276096D02*
D03*
X26187881Y22388255D02*
D03*
X26187604Y22286656D02*
D03*
X26218365Y22189825D02*
D03*
X26319855Y22185072D02*
D03*
X26420786Y22196741D02*
D03*
X26520273Y22217342D02*
D03*
X26621872D02*
D03*
X26723474D02*
D03*
X26825024Y22220493D02*
D03*
X26911060Y22274533D02*
D03*
X26188907Y28863214D02*
D03*
X26215787Y28765234D02*
D03*
X26305865Y28718237D02*
D03*
X26450354Y28575366D02*
D03*
X26522195Y28503525D02*
D03*
X26618475Y28471075D02*
D03*
X26720074D02*
D03*
X26821628Y28467957D02*
D03*
X26923221Y28468924D02*
D03*
X26919003Y28666898D02*
D03*
X26817508Y28662296D02*
D03*
X26715930Y28660129D02*
D03*
X26615790Y28677292D02*
D03*
X26543948Y28749133D02*
D03*
X26472107Y28820975D02*
D03*
X26423151Y28910004D02*
D03*
X26774194Y29223886D02*
D03*
X26677234Y29193527D02*
D03*
X26575635D02*
D03*
X26474033D02*
D03*
X26377695Y29225797D02*
D03*
X26276096D02*
D03*
X26187881Y29175391D02*
D03*
X26187604Y29073792D02*
D03*
X26218365Y28976959D02*
D03*
X26319855Y28972208D02*
D03*
X26420786Y28983875D02*
D03*
X26520273Y29004477D02*
D03*
X26621872D02*
D03*
X26723474D02*
D03*
X26825024Y29007626D02*
D03*
X26920020Y29249155D02*
D03*
X26190878Y30486890D02*
D03*
X26209039Y30386926D02*
D03*
X26294885Y30332581D02*
D03*
X26443930Y30194693D02*
D03*
X26516071Y30123151D02*
D03*
X26614160Y30096677D02*
D03*
X26715762D02*
D03*
X26817139Y30089954D02*
D03*
X26918692Y30086902D02*
D03*
X26920490Y30284903D02*
D03*
X26818893Y30285727D02*
D03*
X26717294D02*
D03*
X26615790Y30290192D02*
D03*
X26543948Y30362033D02*
D03*
X26472107Y30433875D02*
D03*
X26423151Y30522903D02*
D03*
X26774194Y30836786D02*
D03*
X26677234Y30806427D02*
D03*
X26575635D02*
D03*
X26474033D02*
D03*
X26377695Y30838696D02*
D03*
X26276096D02*
D03*
X26187881Y30788290D02*
D03*
X26187604Y30686691D02*
D03*
X26218365Y30589859D02*
D03*
X26319855Y30585107D02*
D03*
X26420786Y30596774D02*
D03*
X26520273Y30617377D02*
D03*
X26621872D02*
D03*
X26723474D02*
D03*
X26825024Y30620526D02*
D03*
X26920020Y30862054D02*
D03*
X26188907Y37263248D02*
D03*
X26215787Y37165268D02*
D03*
X26305865Y37118271D02*
D03*
X26450354Y36975400D02*
D03*
X26522195Y36903558D02*
D03*
X26618475Y36871109D02*
D03*
X26720074D02*
D03*
X26821628Y36867990D02*
D03*
X26923221Y36868958D02*
D03*
X26919003Y37066931D02*
D03*
X26817508Y37062329D02*
D03*
X26715930Y37060162D02*
D03*
X26615790Y37077325D02*
D03*
X26543948Y37149167D02*
D03*
X26472107Y37221008D02*
D03*
X26423151Y37310037D02*
D03*
X26774194Y37623920D02*
D03*
X26677234Y37593561D02*
D03*
X26575635D02*
D03*
X26474033D02*
D03*
X26377695Y37625830D02*
D03*
X26276096D02*
D03*
X26187881Y37575424D02*
D03*
X26187604Y37473825D02*
D03*
X26218365Y37376993D02*
D03*
X26319855Y37372241D02*
D03*
X26420786Y37383908D02*
D03*
X26520273Y37404510D02*
D03*
X26621872D02*
D03*
X26723474D02*
D03*
X26825024Y37407660D02*
D03*
X26911060Y37461700D02*
D03*
X26920020Y37649188D02*
D03*
X26190878Y38886923D02*
D03*
X26209039Y38786960D02*
D03*
X26817139Y38489987D02*
D03*
X26918692Y38486935D02*
D03*
X26920490Y38684937D02*
D03*
X26818893Y38685760D02*
D03*
X26717294D02*
D03*
X26615790Y38690225D02*
D03*
X26543948Y38762067D02*
D03*
X26472107Y38833908D02*
D03*
X26423151Y38922937D02*
D03*
X26774194Y39236819D02*
D03*
X26677234Y39206461D02*
D03*
X26575635D02*
D03*
X26474033D02*
D03*
X26377695Y39238730D02*
D03*
X26276096D02*
D03*
X26187881Y39188324D02*
D03*
X26187604Y39086725D02*
D03*
X26218365Y38989893D02*
D03*
X26319855Y38985141D02*
D03*
X26420786Y38996808D02*
D03*
X26520273Y39017410D02*
D03*
X26621872D02*
D03*
X26723474D02*
D03*
X26825024Y39020560D02*
D03*
X26920020Y39262088D02*
D03*
X26188907Y45663281D02*
D03*
X26215787Y45565302D02*
D03*
X26305865Y45518304D02*
D03*
X26450354Y45375436D02*
D03*
X26522195Y45303592D02*
D03*
X26618475Y45271143D02*
D03*
X26720074D02*
D03*
X26821628Y45268024D02*
D03*
X26923221Y45268994D02*
D03*
X26919003Y45466965D02*
D03*
X26817508Y45462363D02*
D03*
X26715930Y45460196D02*
D03*
X26615790Y45477359D02*
D03*
X26543948Y45549200D02*
D03*
X26472107Y45621042D02*
D03*
X26423151Y45710071D02*
D03*
X26774194Y46023953D02*
D03*
X26677234Y45993597D02*
D03*
X26575635D02*
D03*
X26474033D02*
D03*
X26377695Y46025864D02*
D03*
X26276096D02*
D03*
X26187881Y45975458D02*
D03*
X26187604Y45873859D02*
D03*
X26218365Y45777026D02*
D03*
X26319855Y45772275D02*
D03*
X26420786Y45783942D02*
D03*
X26520273Y45804544D02*
D03*
X26621872D02*
D03*
X26723474D02*
D03*
X26825024Y45807693D02*
D03*
X26920020Y46049222D02*
D03*
X26190878Y47286957D02*
D03*
X26209039Y47186993D02*
D03*
X26294885Y47132651D02*
D03*
X26443930Y46994760D02*
D03*
X26516071Y46923218D02*
D03*
X26614160Y46896744D02*
D03*
X26715762D02*
D03*
X26817139Y46890021D02*
D03*
X26918692Y46886969D02*
D03*
X26920490Y47084970D02*
D03*
X26818893Y47085797D02*
D03*
X26717294D02*
D03*
X26615790Y47090259D02*
D03*
X26543948Y47162100D02*
D03*
X26472107Y47233942D02*
D03*
X26423151Y47322971D02*
D03*
X26774194Y47636853D02*
D03*
X26677234Y47606497D02*
D03*
X26575635D02*
D03*
X26474033D02*
D03*
X26377695Y47638766D02*
D03*
X26276096D02*
D03*
X26187881Y47588358D02*
D03*
X26187604Y47486758D02*
D03*
X26218365Y47389926D02*
D03*
X26319855Y47385175D02*
D03*
X26420786Y47396844D02*
D03*
X26520273Y47417444D02*
D03*
X26621872D02*
D03*
X26723474D02*
D03*
X26825024Y47420596D02*
D03*
X26924643Y47651608D02*
D03*
X26905673Y47450195D02*
D03*
X26903406Y47348621D02*
D03*
X27079697Y47294525D02*
D03*
X27096997Y47394641D02*
D03*
X27159494Y47474744D02*
D03*
X27261096D02*
D03*
X27362695D02*
D03*
X27464294D02*
D03*
X27565894D02*
D03*
X27667496D02*
D03*
X27769095D02*
D03*
X27870694D02*
D03*
X27972250Y47471768D02*
D03*
X28044092Y47399927D02*
D03*
X28115936Y47328085D02*
D03*
X28187778Y47256241D02*
D03*
X28259619Y47184399D02*
D03*
X28331461Y47112558D02*
D03*
X28403302Y47040717D02*
D03*
X28475146Y46968875D02*
D03*
X28546988Y46897031D02*
D03*
X28618829Y46825189D02*
D03*
X28690671Y46753348D02*
D03*
X28762512Y46681506D02*
D03*
X28834357Y46609662D02*
D03*
X28906198Y46537820D02*
D03*
X28978040Y46465979D02*
D03*
X29049881Y46394138D02*
D03*
X29121725Y46322296D02*
D03*
X29193567Y46250452D02*
D03*
X29265408Y46178610D02*
D03*
X29337250Y46106769D02*
D03*
X29409091Y46034927D02*
D03*
X29480933Y45963086D02*
D03*
X29534573Y45876797D02*
D03*
Y45775198D02*
D03*
Y45673599D02*
D03*
Y45572000D02*
D03*
Y45470398D02*
D03*
Y45368799D02*
D03*
Y45267200D02*
D03*
Y45165598D02*
D03*
Y45063998D02*
D03*
Y44962399D02*
D03*
Y44860800D02*
D03*
Y44759198D02*
D03*
Y44657599D02*
D03*
Y44556000D02*
D03*
Y44454398D02*
D03*
Y44352798D02*
D03*
Y44251199D02*
D03*
Y44149600D02*
D03*
Y44047998D02*
D03*
Y43946399D02*
D03*
Y43844800D02*
D03*
Y43743198D02*
D03*
Y43641599D02*
D03*
Y43539999D02*
D03*
Y43438400D02*
D03*
Y43336798D02*
D03*
Y43235199D02*
D03*
Y43133600D02*
D03*
Y43031998D02*
D03*
Y42930399D02*
D03*
Y42828799D02*
D03*
Y42727200D02*
D03*
Y42625598D02*
D03*
Y42523999D02*
D03*
Y42422400D02*
D03*
Y42320798D02*
D03*
Y42219199D02*
D03*
Y42117599D02*
D03*
Y42016000D02*
D03*
Y41914398D02*
D03*
Y41812799D02*
D03*
Y41711200D02*
D03*
Y41609598D02*
D03*
Y41507999D02*
D03*
Y41406400D02*
D03*
Y41304800D02*
D03*
Y41203198D02*
D03*
Y41101599D02*
D03*
Y41000000D02*
D03*
Y40898398D02*
D03*
Y40796799D02*
D03*
Y40695200D02*
D03*
Y40593600D02*
D03*
Y40491998D02*
D03*
Y40390399D02*
D03*
Y40288800D02*
D03*
Y40187198D02*
D03*
Y40085599D02*
D03*
Y39984000D02*
D03*
Y39882401D02*
D03*
Y39780798D02*
D03*
Y39679199D02*
D03*
Y39577600D02*
D03*
Y39475998D02*
D03*
Y39374399D02*
D03*
Y39272800D02*
D03*
Y39171198D02*
D03*
Y39069598D02*
D03*
Y38967999D02*
D03*
Y38866400D02*
D03*
Y38764798D02*
D03*
Y38663199D02*
D03*
Y38561600D02*
D03*
Y38459998D02*
D03*
Y38358398D02*
D03*
Y38256799D02*
D03*
Y38155200D02*
D03*
Y38053598D02*
D03*
Y37951999D02*
D03*
Y37850400D02*
D03*
Y37748798D02*
D03*
Y37647198D02*
D03*
Y37545599D02*
D03*
Y37444000D02*
D03*
Y37342398D02*
D03*
Y37240799D02*
D03*
Y37139200D02*
D03*
Y37037598D02*
D03*
Y36935999D02*
D03*
Y36834399D02*
D03*
Y36732800D02*
D03*
Y36631198D02*
D03*
Y36529599D02*
D03*
Y36428000D02*
D03*
Y36326398D02*
D03*
Y36224799D02*
D03*
Y36123199D02*
D03*
Y36021600D02*
D03*
Y35919998D02*
D03*
Y35818399D02*
D03*
Y35716800D02*
D03*
Y35615198D02*
D03*
Y35513599D02*
D03*
Y35412000D02*
D03*
Y35310400D02*
D03*
Y35208798D02*
D03*
Y35107199D02*
D03*
Y35005600D02*
D03*
Y34903998D02*
D03*
Y34802399D02*
D03*
Y34700800D02*
D03*
Y34599200D02*
D03*
Y34497598D02*
D03*
Y34395999D02*
D03*
Y34294400D02*
D03*
Y34192798D02*
D03*
Y34091199D02*
D03*
Y33989600D02*
D03*
Y33888000D02*
D03*
Y33786398D02*
D03*
Y33684799D02*
D03*
Y33583200D02*
D03*
Y33481598D02*
D03*
Y33379999D02*
D03*
Y33278400D02*
D03*
Y33176797D02*
D03*
Y33075198D02*
D03*
Y32973599D02*
D03*
Y32872000D02*
D03*
Y32770398D02*
D03*
Y32668799D02*
D03*
Y32567200D02*
D03*
Y32465598D02*
D03*
Y32363998D02*
D03*
Y32262399D02*
D03*
Y32160800D02*
D03*
Y32059198D02*
D03*
Y31957599D02*
D03*
Y31856000D02*
D03*
Y31754398D02*
D03*
Y31652798D02*
D03*
Y31551199D02*
D03*
Y31449600D02*
D03*
Y31347998D02*
D03*
Y31246399D02*
D03*
Y31144800D02*
D03*
Y31043198D02*
D03*
Y30941599D02*
D03*
Y30839999D02*
D03*
Y30738400D02*
D03*
Y30636798D02*
D03*
Y30535199D02*
D03*
Y30433600D02*
D03*
Y30331998D02*
D03*
Y30230399D02*
D03*
Y30128799D02*
D03*
Y30027200D02*
D03*
Y29925598D02*
D03*
Y29823999D02*
D03*
Y29722400D02*
D03*
Y29620798D02*
D03*
Y29519199D02*
D03*
Y29417599D02*
D03*
Y29316000D02*
D03*
Y29214398D02*
D03*
Y29112799D02*
D03*
Y29011200D02*
D03*
Y28909598D02*
D03*
Y28807999D02*
D03*
Y28706400D02*
D03*
Y28604800D02*
D03*
Y28503198D02*
D03*
Y28401599D02*
D03*
Y28300000D02*
D03*
Y28198398D02*
D03*
Y28096799D02*
D03*
Y27995200D02*
D03*
X29525613Y27893994D02*
D03*
X29453772Y27822153D02*
D03*
X29361090Y27780527D02*
D03*
X29261743Y27801810D02*
D03*
X29160147Y27802591D02*
D03*
X29090436Y27728680D02*
D03*
X29097330Y27627316D02*
D03*
X29176685Y27563867D02*
D03*
X29277246Y27578357D02*
D03*
X29377997Y27591473D02*
D03*
X29479474Y27596432D02*
D03*
X29558844Y27659863D02*
D03*
X29630685Y27731705D02*
D03*
X29701819Y27804245D02*
D03*
X29723627Y27903479D02*
D03*
Y28005078D02*
D03*
Y28106677D02*
D03*
Y28208279D02*
D03*
Y28309879D02*
D03*
Y28411478D02*
D03*
Y28513077D02*
D03*
Y28614679D02*
D03*
Y28716278D02*
D03*
Y28817877D02*
D03*
Y28919479D02*
D03*
Y29021078D02*
D03*
Y29122678D02*
D03*
Y29224277D02*
D03*
Y29325879D02*
D03*
Y29427478D02*
D03*
Y29529077D02*
D03*
Y29630679D02*
D03*
Y29732278D02*
D03*
Y29833878D02*
D03*
Y29935477D02*
D03*
Y30037079D02*
D03*
Y30138678D02*
D03*
Y30240277D02*
D03*
Y30341879D02*
D03*
Y30443478D02*
D03*
Y30545078D02*
D03*
Y30646677D02*
D03*
Y30748279D02*
D03*
Y30849878D02*
D03*
Y30951477D02*
D03*
Y31053079D02*
D03*
Y31154678D02*
D03*
Y31256277D02*
D03*
Y31357877D02*
D03*
Y31459479D02*
D03*
Y31561078D02*
D03*
Y31662677D02*
D03*
Y31764279D02*
D03*
Y31865878D02*
D03*
Y31967477D02*
D03*
Y32069077D02*
D03*
Y32170679D02*
D03*
Y32272278D02*
D03*
Y32373877D02*
D03*
Y32475479D02*
D03*
Y32577078D02*
D03*
Y32678677D02*
D03*
Y32780276D02*
D03*
Y32881879D02*
D03*
Y32983478D02*
D03*
Y33085077D02*
D03*
Y33186679D02*
D03*
Y33288278D02*
D03*
Y33389877D02*
D03*
Y33491479D02*
D03*
Y33593079D02*
D03*
Y33694678D02*
D03*
Y33796277D02*
D03*
Y33897879D02*
D03*
Y33999478D02*
D03*
Y34101077D02*
D03*
Y34202679D02*
D03*
Y34304279D02*
D03*
Y34405878D02*
D03*
Y34507477D02*
D03*
Y34609079D02*
D03*
Y34710678D02*
D03*
Y34812277D02*
D03*
Y34913879D02*
D03*
Y35015479D02*
D03*
Y35117078D02*
D03*
Y35218677D02*
D03*
Y35320279D02*
D03*
Y35421878D02*
D03*
Y35523477D02*
D03*
Y35625079D02*
D03*
Y35726678D02*
D03*
Y35828278D02*
D03*
Y35929877D02*
D03*
Y36031479D02*
D03*
Y36133078D02*
D03*
Y36234677D02*
D03*
Y36336279D02*
D03*
Y36437878D02*
D03*
Y36539478D02*
D03*
Y36641077D02*
D03*
Y36742679D02*
D03*
Y36844278D02*
D03*
Y36945877D02*
D03*
Y37047479D02*
D03*
Y37149078D02*
D03*
Y37250677D02*
D03*
Y37352277D02*
D03*
Y37453879D02*
D03*
Y37555478D02*
D03*
Y37657077D02*
D03*
Y37758679D02*
D03*
Y37860278D02*
D03*
Y37961877D02*
D03*
Y38063477D02*
D03*
Y38165079D02*
D03*
Y38266678D02*
D03*
Y38368277D02*
D03*
Y38469879D02*
D03*
Y38571478D02*
D03*
Y38673077D02*
D03*
Y38774677D02*
D03*
Y38876279D02*
D03*
Y38977878D02*
D03*
Y39079477D02*
D03*
Y39181079D02*
D03*
Y39282678D02*
D03*
Y39384277D02*
D03*
Y39485880D02*
D03*
Y39587479D02*
D03*
Y39689078D02*
D03*
Y39790677D02*
D03*
Y39892279D02*
D03*
Y39993878D02*
D03*
Y40095477D02*
D03*
Y40197079D02*
D03*
Y40298679D02*
D03*
Y40400278D02*
D03*
Y40501877D02*
D03*
Y40603479D02*
D03*
Y40705078D02*
D03*
Y40806677D02*
D03*
Y40908279D02*
D03*
Y41009879D02*
D03*
Y41111478D02*
D03*
Y41213077D02*
D03*
Y41314679D02*
D03*
Y41416278D02*
D03*
Y41517877D02*
D03*
Y41619479D02*
D03*
Y41721078D02*
D03*
Y41822678D02*
D03*
Y41924277D02*
D03*
Y42025879D02*
D03*
Y42127478D02*
D03*
Y42229077D02*
D03*
Y42330679D02*
D03*
Y42432278D02*
D03*
Y42533878D02*
D03*
Y42635477D02*
D03*
Y42737079D02*
D03*
Y42838678D02*
D03*
Y42940277D02*
D03*
Y43041879D02*
D03*
Y43143478D02*
D03*
Y43245078D02*
D03*
Y43346677D02*
D03*
Y43448279D02*
D03*
Y43549878D02*
D03*
Y43651477D02*
D03*
Y43753079D02*
D03*
Y43854678D02*
D03*
Y43956277D02*
D03*
Y44057877D02*
D03*
Y44159479D02*
D03*
Y44261078D02*
D03*
Y44362677D02*
D03*
Y44464279D02*
D03*
Y44565878D02*
D03*
Y44667477D02*
D03*
Y44769077D02*
D03*
Y44870679D02*
D03*
Y44972278D02*
D03*
Y45073877D02*
D03*
Y45175479D02*
D03*
Y45277078D02*
D03*
Y45378677D02*
D03*
Y45480276D02*
D03*
Y45581879D02*
D03*
Y45683478D02*
D03*
Y45785077D02*
D03*
Y45886679D02*
D03*
X29714087Y45987830D02*
D03*
X29647134Y46064246D02*
D03*
X29575290Y46136090D02*
D03*
X29503448Y46207932D02*
D03*
X29431607Y46279773D02*
D03*
X29359766Y46351614D02*
D03*
X29287924Y46423459D02*
D03*
X29216080Y46495300D02*
D03*
X29144238Y46567142D02*
D03*
X29072397Y46638983D02*
D03*
X29000555Y46710825D02*
D03*
X28928714Y46782669D02*
D03*
X28856870Y46854510D02*
D03*
X28785028Y46926352D02*
D03*
X28713187Y46998193D02*
D03*
X28641345Y47070035D02*
D03*
X28569501Y47141879D02*
D03*
X28497662Y47213721D02*
D03*
X28425818Y47285562D02*
D03*
X28353976Y47357404D02*
D03*
X28282135Y47429245D02*
D03*
X28210291Y47501089D02*
D03*
X28138449Y47572931D02*
D03*
X28065610Y47643762D02*
D03*
X27966006Y47663797D02*
D03*
X27864407D02*
D03*
X27762805D02*
D03*
X27661206D02*
D03*
X27559607D02*
D03*
X27458005D02*
D03*
X27356406D02*
D03*
X27254807D02*
D03*
X27153207D02*
D03*
X27051605D02*
D03*
X26905673Y45830069D02*
D03*
X26903406Y45728494D02*
D03*
X27096997Y45764795D02*
D03*
X27127066Y45861844D02*
D03*
X27228665D02*
D03*
X27330264D02*
D03*
X27431866D02*
D03*
X27533466D02*
D03*
X27634720Y45853497D02*
D03*
X27706564Y45781656D02*
D03*
X27778406Y45709814D02*
D03*
X27850247Y45637970D02*
D03*
X27922089Y45566129D02*
D03*
X27993933Y45494287D02*
D03*
X28065775Y45422446D02*
D03*
X28137616Y45350604D02*
D03*
X28209457Y45278760D02*
D03*
X28281299Y45206918D02*
D03*
X28353143Y45135077D02*
D03*
X28424985Y45063235D02*
D03*
X28496826Y44991394D02*
D03*
X28568668Y44919550D02*
D03*
X28640509Y44847708D02*
D03*
X28683673Y44755734D02*
D03*
Y44654135D02*
D03*
Y44552533D02*
D03*
Y44450934D02*
D03*
Y44349335D02*
D03*
Y44247733D02*
D03*
Y44146133D02*
D03*
Y44044534D02*
D03*
Y43942935D02*
D03*
Y43841333D02*
D03*
Y43739734D02*
D03*
Y43638135D02*
D03*
Y43536533D02*
D03*
Y43434933D02*
D03*
Y43333334D02*
D03*
Y43231735D02*
D03*
Y43130133D02*
D03*
Y43028534D02*
D03*
Y42926935D02*
D03*
Y42825333D02*
D03*
Y42723734D02*
D03*
Y42622134D02*
D03*
Y42520535D02*
D03*
Y42418933D02*
D03*
Y42317334D02*
D03*
Y42215735D02*
D03*
Y42114133D02*
D03*
Y42012534D02*
D03*
Y41910934D02*
D03*
Y41809335D02*
D03*
Y41707733D02*
D03*
Y41606134D02*
D03*
Y41504535D02*
D03*
Y41402933D02*
D03*
Y41301334D02*
D03*
Y41199734D02*
D03*
Y41098135D02*
D03*
Y40996533D02*
D03*
Y40894934D02*
D03*
Y40793335D02*
D03*
Y40691733D02*
D03*
Y40590134D02*
D03*
Y40488535D02*
D03*
Y40386935D02*
D03*
Y40285333D02*
D03*
Y40183734D02*
D03*
Y40082135D02*
D03*
Y39980533D02*
D03*
Y39878934D02*
D03*
Y39777335D02*
D03*
Y39675735D02*
D03*
Y39574133D02*
D03*
Y39472534D02*
D03*
Y39370935D02*
D03*
Y39269333D02*
D03*
Y39167734D02*
D03*
Y39066135D02*
D03*
Y38964536D02*
D03*
Y38862933D02*
D03*
Y38761334D02*
D03*
Y38659735D02*
D03*
Y38558133D02*
D03*
Y38456534D02*
D03*
Y38354935D02*
D03*
Y38253333D02*
D03*
Y38151733D02*
D03*
Y38050134D02*
D03*
Y37948535D02*
D03*
Y37846933D02*
D03*
Y37745334D02*
D03*
Y37643735D02*
D03*
Y37542133D02*
D03*
Y37440533D02*
D03*
Y37338934D02*
D03*
Y37237335D02*
D03*
Y37135733D02*
D03*
Y37034134D02*
D03*
Y36932535D02*
D03*
Y36830933D02*
D03*
Y36729333D02*
D03*
Y36627734D02*
D03*
Y36526135D02*
D03*
Y36424533D02*
D03*
Y36322934D02*
D03*
Y36221335D02*
D03*
Y36119733D02*
D03*
Y36018134D02*
D03*
Y35916534D02*
D03*
Y35814935D02*
D03*
Y35713333D02*
D03*
Y35611734D02*
D03*
Y35510135D02*
D03*
Y35408533D02*
D03*
Y35306934D02*
D03*
Y35205334D02*
D03*
Y35103735D02*
D03*
Y35002133D02*
D03*
Y34900534D02*
D03*
Y34798935D02*
D03*
Y34697333D02*
D03*
Y34595734D02*
D03*
Y34494135D02*
D03*
Y34392535D02*
D03*
Y34290933D02*
D03*
Y34189334D02*
D03*
Y34087735D02*
D03*
Y33986133D02*
D03*
Y33884534D02*
D03*
Y33782935D02*
D03*
Y33681335D02*
D03*
Y33579733D02*
D03*
Y33478134D02*
D03*
Y33376535D02*
D03*
Y33274933D02*
D03*
Y33173334D02*
D03*
Y33071735D02*
D03*
Y32970135D02*
D03*
Y32868533D02*
D03*
Y32766934D02*
D03*
Y32665335D02*
D03*
Y32563733D02*
D03*
Y32462134D02*
D03*
Y32360535D02*
D03*
Y32258932D02*
D03*
Y32157333D02*
D03*
Y32055734D02*
D03*
Y31954135D02*
D03*
Y31852533D02*
D03*
Y31750934D02*
D03*
Y31649335D02*
D03*
Y31547733D02*
D03*
Y31446133D02*
D03*
Y31344534D02*
D03*
Y31242935D02*
D03*
Y31141333D02*
D03*
Y31039734D02*
D03*
Y30938135D02*
D03*
Y30836533D02*
D03*
Y30734933D02*
D03*
Y30633334D02*
D03*
Y30531735D02*
D03*
Y30430133D02*
D03*
Y30328534D02*
D03*
Y30226935D02*
D03*
Y30125333D02*
D03*
Y30023734D02*
D03*
Y29922134D02*
D03*
Y29820535D02*
D03*
Y29718933D02*
D03*
Y29617334D02*
D03*
Y29515735D02*
D03*
Y29414133D02*
D03*
Y29312534D02*
D03*
Y29210934D02*
D03*
Y29109335D02*
D03*
Y29007733D02*
D03*
Y28906134D02*
D03*
Y28804535D02*
D03*
Y28702933D02*
D03*
Y28601334D02*
D03*
Y28499734D02*
D03*
Y28398135D02*
D03*
Y28296533D02*
D03*
Y28194934D02*
D03*
Y28093335D02*
D03*
Y27991733D02*
D03*
Y27890134D02*
D03*
Y27788535D02*
D03*
Y27686935D02*
D03*
Y27585333D02*
D03*
Y27483734D02*
D03*
Y27382135D02*
D03*
X28706009Y27283020D02*
D03*
X28777142Y27210477D02*
D03*
X28848984Y27138635D02*
D03*
X28934940Y27084467D02*
D03*
X29036536Y27083475D02*
D03*
X29137665Y27073682D02*
D03*
X29237323Y27053912D02*
D03*
X29319247Y27114005D02*
D03*
X29331424Y27214871D02*
D03*
X29265558Y27292227D02*
D03*
X29164038Y27296204D02*
D03*
X29065234Y27272525D02*
D03*
X28965125Y27289856D02*
D03*
X28893283Y27361700D02*
D03*
X28872726Y27461197D02*
D03*
Y27562799D02*
D03*
Y27664398D02*
D03*
Y27765997D02*
D03*
Y27867599D02*
D03*
Y27969199D02*
D03*
Y28070798D02*
D03*
Y28172397D02*
D03*
Y28273999D02*
D03*
Y28375598D02*
D03*
Y28477197D02*
D03*
Y28578799D02*
D03*
Y28680399D02*
D03*
Y28781998D02*
D03*
Y28883597D02*
D03*
Y28985199D02*
D03*
Y29086798D02*
D03*
Y29188397D02*
D03*
Y29289999D02*
D03*
Y29391599D02*
D03*
Y29493198D02*
D03*
Y29594797D02*
D03*
Y29696399D02*
D03*
Y29797998D02*
D03*
Y29899597D02*
D03*
Y30001199D02*
D03*
Y30102798D02*
D03*
Y30204398D02*
D03*
Y30305997D02*
D03*
Y30407599D02*
D03*
Y30509198D02*
D03*
Y30610797D02*
D03*
Y30712399D02*
D03*
Y30813998D02*
D03*
Y30915598D02*
D03*
Y31017197D02*
D03*
Y31118799D02*
D03*
Y31220398D02*
D03*
Y31321997D02*
D03*
Y31423599D02*
D03*
Y31525198D02*
D03*
Y31626797D02*
D03*
Y31728397D02*
D03*
Y31829999D02*
D03*
Y31931598D02*
D03*
Y32033197D02*
D03*
Y32134799D02*
D03*
Y32236398D02*
D03*
Y32337997D02*
D03*
Y32439597D02*
D03*
Y32541199D02*
D03*
Y32642798D02*
D03*
Y32744397D02*
D03*
Y32845999D02*
D03*
Y32947598D02*
D03*
Y33049197D02*
D03*
Y33150797D02*
D03*
Y33252399D02*
D03*
Y33353998D02*
D03*
Y33455597D02*
D03*
Y33557199D02*
D03*
Y33658798D02*
D03*
Y33760397D02*
D03*
Y33862000D02*
D03*
Y33963599D02*
D03*
Y34065198D02*
D03*
Y34166797D02*
D03*
Y34268399D02*
D03*
Y34369998D02*
D03*
Y34471597D02*
D03*
Y34573199D02*
D03*
Y34674799D02*
D03*
Y34776398D02*
D03*
Y34877997D02*
D03*
Y34979599D02*
D03*
Y35081198D02*
D03*
Y35182797D02*
D03*
Y35284399D02*
D03*
Y35385999D02*
D03*
Y35487598D02*
D03*
Y35589197D02*
D03*
Y35690799D02*
D03*
Y35792398D02*
D03*
Y35893997D02*
D03*
Y35995599D02*
D03*
Y36097198D02*
D03*
Y36198798D02*
D03*
Y36300397D02*
D03*
Y36401999D02*
D03*
Y36503598D02*
D03*
Y36605197D02*
D03*
Y36706799D02*
D03*
Y36808398D02*
D03*
Y36909998D02*
D03*
Y37011597D02*
D03*
Y37113199D02*
D03*
Y37214798D02*
D03*
Y37316397D02*
D03*
Y37417999D02*
D03*
Y37519598D02*
D03*
Y37621198D02*
D03*
Y37722797D02*
D03*
Y37824399D02*
D03*
Y37925998D02*
D03*
Y38027597D02*
D03*
Y38129199D02*
D03*
Y38230798D02*
D03*
Y38332397D02*
D03*
Y38433997D02*
D03*
Y38535599D02*
D03*
Y38637198D02*
D03*
Y38738797D02*
D03*
Y38840399D02*
D03*
Y38941998D02*
D03*
Y39043597D02*
D03*
Y39145197D02*
D03*
Y39246799D02*
D03*
Y39348398D02*
D03*
Y39449997D02*
D03*
Y39551599D02*
D03*
Y39653198D02*
D03*
Y39754797D02*
D03*
Y39856396D02*
D03*
Y39957999D02*
D03*
Y40059598D02*
D03*
Y40161197D02*
D03*
Y40262799D02*
D03*
Y40364398D02*
D03*
Y40465997D02*
D03*
Y40567599D02*
D03*
Y40669199D02*
D03*
Y40770798D02*
D03*
Y40872397D02*
D03*
Y40973999D02*
D03*
Y41075598D02*
D03*
Y41177197D02*
D03*
Y41278799D02*
D03*
Y41380399D02*
D03*
Y41481998D02*
D03*
Y41583597D02*
D03*
Y41685199D02*
D03*
Y41786798D02*
D03*
Y41888397D02*
D03*
Y41989999D02*
D03*
Y42091599D02*
D03*
Y42193198D02*
D03*
Y42294797D02*
D03*
Y42396399D02*
D03*
Y42497998D02*
D03*
Y42599597D02*
D03*
Y42701199D02*
D03*
Y42802798D02*
D03*
Y42904398D02*
D03*
Y43005997D02*
D03*
Y43107599D02*
D03*
Y43209198D02*
D03*
Y43310797D02*
D03*
Y43412399D02*
D03*
Y43513998D02*
D03*
Y43615598D02*
D03*
Y43717197D02*
D03*
Y43818799D02*
D03*
Y43920398D02*
D03*
Y44021997D02*
D03*
Y44123599D02*
D03*
Y44225198D02*
D03*
Y44326797D02*
D03*
Y44428397D02*
D03*
Y44529999D02*
D03*
Y44631598D02*
D03*
Y44733197D02*
D03*
Y44834799D02*
D03*
X28829050Y44926532D02*
D03*
X28757208Y44998373D02*
D03*
X28685367Y45070215D02*
D03*
X28613525Y45142056D02*
D03*
X28541681Y45213898D02*
D03*
X28469839Y45285742D02*
D03*
X28397998Y45357584D02*
D03*
X28326154Y45429425D02*
D03*
X28254315Y45501266D02*
D03*
X28182471Y45573108D02*
D03*
X28110629Y45644952D02*
D03*
X28038788Y45716794D02*
D03*
X27966946Y45788635D02*
D03*
X27895102Y45860477D02*
D03*
X27823260Y45932318D02*
D03*
X27751419Y46004160D02*
D03*
X27661206Y46050897D02*
D03*
X27559607D02*
D03*
X27458005D02*
D03*
X27356406D02*
D03*
X27254807D02*
D03*
X27153207D02*
D03*
X27051605D02*
D03*
X26905673Y39042273D02*
D03*
X26903406Y38940698D02*
D03*
X27084534Y38899966D02*
D03*
X27096997Y39000800D02*
D03*
X27166708Y39074710D02*
D03*
X27268307D02*
D03*
X27369794Y39069925D02*
D03*
X27441638Y38998083D02*
D03*
X27513480Y38926239D02*
D03*
X27585321Y38854398D02*
D03*
X27657162Y38782556D02*
D03*
X27729004Y38710715D02*
D03*
X27800848Y38638873D02*
D03*
X27872690Y38567029D02*
D03*
X27944531Y38495187D02*
D03*
X28016373Y38423346D02*
D03*
X28088214Y38351505D02*
D03*
X28160056Y38279663D02*
D03*
X28231900Y38207819D02*
D03*
X28303741Y38135977D02*
D03*
X28353473Y38047382D02*
D03*
Y37945782D02*
D03*
Y37844183D02*
D03*
Y37742581D02*
D03*
Y37640982D02*
D03*
Y37539383D02*
D03*
Y37437781D02*
D03*
Y37336182D02*
D03*
Y37234583D02*
D03*
Y37132983D02*
D03*
Y37031381D02*
D03*
Y36929782D02*
D03*
Y36828183D02*
D03*
Y36726581D02*
D03*
Y36624982D02*
D03*
Y36523383D02*
D03*
Y36421783D02*
D03*
Y36320181D02*
D03*
Y36218582D02*
D03*
Y36116983D02*
D03*
Y36015381D02*
D03*
Y35913782D02*
D03*
Y35812183D02*
D03*
Y35710583D02*
D03*
Y35608981D02*
D03*
Y35507382D02*
D03*
Y35405783D02*
D03*
Y35304181D02*
D03*
Y35202582D02*
D03*
Y35100983D02*
D03*
Y34999380D02*
D03*
Y34897781D02*
D03*
Y34796182D02*
D03*
Y34694583D02*
D03*
Y34592981D02*
D03*
Y34491382D02*
D03*
Y34389783D02*
D03*
Y34288181D02*
D03*
Y34186581D02*
D03*
Y34084982D02*
D03*
Y33983383D02*
D03*
Y33881781D02*
D03*
Y33780182D02*
D03*
Y33678583D02*
D03*
Y33576981D02*
D03*
Y33475381D02*
D03*
Y33373782D02*
D03*
Y33272183D02*
D03*
Y33170581D02*
D03*
Y33068982D02*
D03*
Y32967383D02*
D03*
Y32865781D02*
D03*
Y32764182D02*
D03*
Y32662582D02*
D03*
Y32560983D02*
D03*
Y32459381D02*
D03*
Y32357782D02*
D03*
Y32256183D02*
D03*
Y32154581D02*
D03*
Y32052982D02*
D03*
Y31951382D02*
D03*
Y31849783D02*
D03*
Y31748181D02*
D03*
Y31646582D02*
D03*
Y31544983D02*
D03*
Y31443381D02*
D03*
Y31341782D02*
D03*
Y31240182D02*
D03*
Y31138583D02*
D03*
Y31036981D02*
D03*
Y30935382D02*
D03*
Y30833783D02*
D03*
Y30732181D02*
D03*
Y30630582D02*
D03*
Y30528983D02*
D03*
Y30427383D02*
D03*
Y30325781D02*
D03*
Y30224182D02*
D03*
Y30122583D02*
D03*
Y30020981D02*
D03*
Y29919382D02*
D03*
Y29817783D02*
D03*
Y29716183D02*
D03*
Y29614581D02*
D03*
Y29512982D02*
D03*
Y29411383D02*
D03*
Y29309781D02*
D03*
Y29208182D02*
D03*
Y29106583D02*
D03*
Y29004984D02*
D03*
Y28903381D02*
D03*
Y28801782D02*
D03*
Y28700183D02*
D03*
Y28598581D02*
D03*
Y28496982D02*
D03*
Y28395383D02*
D03*
Y28293781D02*
D03*
Y28192181D02*
D03*
Y28090582D02*
D03*
Y27988983D02*
D03*
Y27887381D02*
D03*
Y27785782D02*
D03*
Y27684183D02*
D03*
Y27582581D02*
D03*
Y27480981D02*
D03*
Y27379382D02*
D03*
Y27277783D02*
D03*
Y27176181D02*
D03*
Y27074582D02*
D03*
Y26972983D02*
D03*
X28363107Y26871838D02*
D03*
X28430133Y26795486D02*
D03*
X28501974Y26723642D02*
D03*
X28573819Y26651801D02*
D03*
X28650299Y26584918D02*
D03*
X28751459Y26575473D02*
D03*
X28853058D02*
D03*
X28954657D02*
D03*
X29056259D02*
D03*
X29155814Y26555203D02*
D03*
X29257376Y26552383D02*
D03*
X29328552Y26624881D02*
D03*
X29323892Y26726376D02*
D03*
X29245990Y26791599D02*
D03*
X29145193Y26778848D02*
D03*
X29044608Y26764526D02*
D03*
X28943008D02*
D03*
X28841409D02*
D03*
X28739810D02*
D03*
X28662515Y26830466D02*
D03*
X28590671Y26902307D02*
D03*
X28542526Y26991776D02*
D03*
Y27093375D02*
D03*
Y27194977D02*
D03*
Y27296576D02*
D03*
Y27398175D02*
D03*
Y27499777D02*
D03*
Y27601376D02*
D03*
Y27702975D02*
D03*
Y27804575D02*
D03*
Y27906177D02*
D03*
Y28007776D02*
D03*
Y28109375D02*
D03*
Y28210977D02*
D03*
Y28312576D02*
D03*
Y28414175D02*
D03*
Y28515775D02*
D03*
Y28617377D02*
D03*
Y28718976D02*
D03*
Y28820575D02*
D03*
Y28922177D02*
D03*
Y29023776D02*
D03*
Y29125375D02*
D03*
Y29226974D02*
D03*
Y29328577D02*
D03*
Y29430176D02*
D03*
Y29531775D02*
D03*
Y29633377D02*
D03*
Y29734976D02*
D03*
Y29836575D02*
D03*
Y29938177D02*
D03*
Y30039777D02*
D03*
Y30141376D02*
D03*
Y30242975D02*
D03*
Y30344577D02*
D03*
Y30446176D02*
D03*
Y30547775D02*
D03*
Y30649377D02*
D03*
Y30750977D02*
D03*
Y30852576D02*
D03*
Y30954175D02*
D03*
Y31055777D02*
D03*
Y31157376D02*
D03*
Y31258975D02*
D03*
Y31360577D02*
D03*
Y31462177D02*
D03*
Y31563776D02*
D03*
Y31665375D02*
D03*
Y31766977D02*
D03*
Y31868576D02*
D03*
Y31970175D02*
D03*
Y32071777D02*
D03*
Y32173376D02*
D03*
Y32274976D02*
D03*
Y32376575D02*
D03*
Y32478177D02*
D03*
Y32579776D02*
D03*
Y32681375D02*
D03*
Y32782977D02*
D03*
Y32884576D02*
D03*
Y32986176D02*
D03*
Y33087775D02*
D03*
Y33189377D02*
D03*
Y33290976D02*
D03*
Y33392575D02*
D03*
Y33494177D02*
D03*
Y33595776D02*
D03*
Y33697375D02*
D03*
Y33798975D02*
D03*
Y33900577D02*
D03*
Y34002176D02*
D03*
Y34103775D02*
D03*
Y34205377D02*
D03*
Y34306976D02*
D03*
Y34408575D02*
D03*
Y34510175D02*
D03*
Y34611777D02*
D03*
Y34713376D02*
D03*
Y34814975D02*
D03*
Y34916577D02*
D03*
Y35018176D02*
D03*
Y35119775D02*
D03*
Y35221375D02*
D03*
Y35322977D02*
D03*
Y35424576D02*
D03*
Y35526175D02*
D03*
Y35627777D02*
D03*
Y35729376D02*
D03*
Y35830975D02*
D03*
Y35932578D02*
D03*
Y36034177D02*
D03*
Y36135776D02*
D03*
Y36237375D02*
D03*
Y36338977D02*
D03*
Y36440576D02*
D03*
Y36542175D02*
D03*
Y36643777D02*
D03*
Y36745377D02*
D03*
Y36846976D02*
D03*
Y36948575D02*
D03*
Y37050177D02*
D03*
Y37151776D02*
D03*
Y37253375D02*
D03*
Y37354977D02*
D03*
Y37456577D02*
D03*
Y37558176D02*
D03*
Y37659775D02*
D03*
Y37761377D02*
D03*
Y37862976D02*
D03*
Y37964575D02*
D03*
Y38066177D02*
D03*
X28531915Y38167221D02*
D03*
X28464154Y38242926D02*
D03*
X28392313Y38314767D02*
D03*
X28320471Y38386609D02*
D03*
X28248630Y38458450D02*
D03*
X28176788Y38530295D02*
D03*
X28104944Y38602136D02*
D03*
X28033102Y38673978D02*
D03*
X27961261Y38745819D02*
D03*
X27889420Y38817661D02*
D03*
X27817578Y38889505D02*
D03*
X27745734Y38961346D02*
D03*
X27673892Y39033188D02*
D03*
X27602051Y39105029D02*
D03*
X27530209Y39176871D02*
D03*
X27456598Y39246899D02*
D03*
X27356406Y39263763D02*
D03*
X27254807D02*
D03*
X27153207D02*
D03*
X27051605D02*
D03*
X26905365Y37396790D02*
D03*
X26905740Y37295193D02*
D03*
X27093457Y37289145D02*
D03*
X27096246Y37390704D02*
D03*
X27168817Y37461810D02*
D03*
X27270419D02*
D03*
X27372018D02*
D03*
X27473618D02*
D03*
X27575217D02*
D03*
X27676819D02*
D03*
X27762503Y37407214D02*
D03*
X27834344Y37335373D02*
D03*
X27906189Y37263531D02*
D03*
X27978030Y37191690D02*
D03*
X28023273Y37100720D02*
D03*
Y36999118D02*
D03*
Y36897519D02*
D03*
Y36795920D02*
D03*
Y36694318D02*
D03*
Y36592719D02*
D03*
Y36491119D02*
D03*
Y36389520D02*
D03*
Y36287918D02*
D03*
Y36186319D02*
D03*
Y36084720D02*
D03*
Y35983118D02*
D03*
Y35881519D02*
D03*
Y35779919D02*
D03*
Y35678320D02*
D03*
Y35576718D02*
D03*
Y35475119D02*
D03*
Y35373520D02*
D03*
Y35271918D02*
D03*
Y35170319D02*
D03*
Y35068719D02*
D03*
Y34967120D02*
D03*
Y34865518D02*
D03*
Y34763919D02*
D03*
Y34662320D02*
D03*
Y34560718D02*
D03*
Y34459119D02*
D03*
Y34357520D02*
D03*
Y34255920D02*
D03*
Y34154318D02*
D03*
Y34052719D02*
D03*
Y33951120D02*
D03*
Y33849518D02*
D03*
Y33747919D02*
D03*
Y33646320D02*
D03*
Y33544720D02*
D03*
Y33443118D02*
D03*
Y33341519D02*
D03*
Y33239920D02*
D03*
Y33138318D02*
D03*
Y33036719D02*
D03*
Y32935120D02*
D03*
Y32833521D02*
D03*
Y32731918D02*
D03*
Y32630319D02*
D03*
Y32528720D02*
D03*
Y32427118D02*
D03*
Y32325519D02*
D03*
Y32223920D02*
D03*
Y32122318D02*
D03*
Y32020718D02*
D03*
Y31919119D02*
D03*
Y31817520D02*
D03*
Y31715918D02*
D03*
Y31614319D02*
D03*
Y31512720D02*
D03*
Y31411118D02*
D03*
Y31309518D02*
D03*
Y31207919D02*
D03*
Y31106320D02*
D03*
Y31004718D02*
D03*
Y30903119D02*
D03*
Y30801520D02*
D03*
Y30699918D02*
D03*
Y30598318D02*
D03*
Y30496719D02*
D03*
Y30395120D02*
D03*
Y30293518D02*
D03*
Y30191919D02*
D03*
Y30090320D02*
D03*
Y29988718D02*
D03*
Y29887119D02*
D03*
Y29785519D02*
D03*
Y29683920D02*
D03*
Y29582318D02*
D03*
Y29480719D02*
D03*
Y29379120D02*
D03*
Y29277518D02*
D03*
Y29175919D02*
D03*
Y29074319D02*
D03*
Y28972720D02*
D03*
Y28871118D02*
D03*
Y28769519D02*
D03*
Y28667920D02*
D03*
Y28566318D02*
D03*
Y28464719D02*
D03*
Y28363120D02*
D03*
Y28261520D02*
D03*
Y28159918D02*
D03*
Y28058319D02*
D03*
Y27956720D02*
D03*
Y27855118D02*
D03*
Y27753519D02*
D03*
Y27651920D02*
D03*
Y27550320D02*
D03*
Y27448718D02*
D03*
Y27347119D02*
D03*
Y27245520D02*
D03*
Y27143918D02*
D03*
Y27042319D02*
D03*
Y26940720D02*
D03*
Y26839120D02*
D03*
Y26737518D02*
D03*
X28026501Y26635971D02*
D03*
X28087042Y26554376D02*
D03*
X28158884Y26482535D02*
D03*
X28230725Y26410693D02*
D03*
X28302567Y26338852D02*
D03*
X28374411Y26267010D02*
D03*
X28446252Y26195166D02*
D03*
X28518094Y26123325D02*
D03*
X28603613Y26068469D02*
D03*
X28705209Y26067474D02*
D03*
X28806808D02*
D03*
X28908408D02*
D03*
X29010007D02*
D03*
X29111609D02*
D03*
X29207983Y26035312D02*
D03*
X29301730Y26074478D02*
D03*
X29336862Y26169809D02*
D03*
X29290372Y26260150D02*
D03*
X29192548Y26287592D02*
D03*
X29095813Y26256525D02*
D03*
X28994214D02*
D03*
X28892612D02*
D03*
X28791013D02*
D03*
X28689413D02*
D03*
X28601437Y26307346D02*
D03*
X28529593Y26379187D02*
D03*
X28457751Y26451028D02*
D03*
X28385910Y26522870D02*
D03*
X28314066Y26594714D02*
D03*
X28242224Y26666556D02*
D03*
X28212326Y26763657D02*
D03*
Y26865256D02*
D03*
Y26966855D02*
D03*
Y27068457D02*
D03*
Y27170056D02*
D03*
Y27271655D02*
D03*
Y27373257D02*
D03*
Y27474857D02*
D03*
Y27576456D02*
D03*
Y27678055D02*
D03*
Y27779657D02*
D03*
Y27881256D02*
D03*
Y27982855D02*
D03*
Y28084457D02*
D03*
Y28186057D02*
D03*
Y28287656D02*
D03*
Y28389255D02*
D03*
Y28490857D02*
D03*
Y28592456D02*
D03*
Y28694055D02*
D03*
Y28795657D02*
D03*
Y28897256D02*
D03*
Y28998856D02*
D03*
Y29100455D02*
D03*
Y29202057D02*
D03*
Y29303656D02*
D03*
Y29405255D02*
D03*
Y29506857D02*
D03*
Y29608456D02*
D03*
Y29710056D02*
D03*
Y29811655D02*
D03*
Y29913257D02*
D03*
Y30014856D02*
D03*
Y30116455D02*
D03*
Y30218057D02*
D03*
Y30319656D02*
D03*
Y30421255D02*
D03*
Y30522855D02*
D03*
Y30624457D02*
D03*
Y30726056D02*
D03*
Y30827655D02*
D03*
Y30929257D02*
D03*
Y31030856D02*
D03*
Y31132455D02*
D03*
Y31234055D02*
D03*
Y31335657D02*
D03*
Y31437256D02*
D03*
Y31538855D02*
D03*
Y31640457D02*
D03*
Y31742056D02*
D03*
Y31843655D02*
D03*
Y31945255D02*
D03*
Y32046857D02*
D03*
Y32148456D02*
D03*
Y32250055D02*
D03*
Y32351657D02*
D03*
Y32453256D02*
D03*
Y32554855D02*
D03*
Y32656458D02*
D03*
Y32758057D02*
D03*
Y32859656D02*
D03*
Y32961255D02*
D03*
Y33062857D02*
D03*
Y33164456D02*
D03*
Y33266055D02*
D03*
Y33367657D02*
D03*
Y33469257D02*
D03*
Y33570856D02*
D03*
Y33672455D02*
D03*
Y33774057D02*
D03*
Y33875656D02*
D03*
Y33977255D02*
D03*
Y34078857D02*
D03*
Y34180457D02*
D03*
Y34282056D02*
D03*
Y34383655D02*
D03*
Y34485257D02*
D03*
Y34586856D02*
D03*
Y34688455D02*
D03*
Y34790057D02*
D03*
Y34891656D02*
D03*
Y34993256D02*
D03*
Y35094855D02*
D03*
Y35196457D02*
D03*
Y35298056D02*
D03*
Y35399655D02*
D03*
Y35501257D02*
D03*
Y35602856D02*
D03*
Y35704456D02*
D03*
Y35806055D02*
D03*
Y35907657D02*
D03*
Y36009256D02*
D03*
Y36110855D02*
D03*
Y36212457D02*
D03*
Y36314056D02*
D03*
Y36415656D02*
D03*
Y36517255D02*
D03*
Y36618857D02*
D03*
Y36720456D02*
D03*
Y36822055D02*
D03*
Y36923657D02*
D03*
Y37025256D02*
D03*
Y37126855D02*
D03*
X28201523Y37227881D02*
D03*
X28133624Y37303458D02*
D03*
X28061780Y37375299D02*
D03*
X27989938Y37447141D02*
D03*
X27918097Y37518985D02*
D03*
X27846255Y37590826D02*
D03*
X27762784Y37648749D02*
D03*
X27661206Y37650861D02*
D03*
X27559607D02*
D03*
X27458005D02*
D03*
X27356406D02*
D03*
X27254807D02*
D03*
X27153207D02*
D03*
X27051605D02*
D03*
X26905673Y30638977D02*
D03*
X26903406Y30537402D02*
D03*
X27086020Y30502155D02*
D03*
X27096997Y30603162D02*
D03*
X27169165Y30674677D02*
D03*
X27270764D02*
D03*
X27372366D02*
D03*
X27473965D02*
D03*
X27561545Y30623175D02*
D03*
X27633386Y30551334D02*
D03*
X27680374Y30461249D02*
D03*
Y30359650D02*
D03*
Y30258051D02*
D03*
Y30156451D02*
D03*
Y30054849D02*
D03*
Y29953250D02*
D03*
Y29851651D02*
D03*
Y29750049D02*
D03*
Y29648450D02*
D03*
Y29546851D02*
D03*
Y29445251D02*
D03*
Y29343649D02*
D03*
Y29242050D02*
D03*
Y29140451D02*
D03*
Y29038849D02*
D03*
Y28937250D02*
D03*
Y28835651D02*
D03*
Y28734052D02*
D03*
Y28632449D02*
D03*
Y28530850D02*
D03*
Y28429251D02*
D03*
Y28327649D02*
D03*
Y28226050D02*
D03*
Y28124451D02*
D03*
Y28022849D02*
D03*
Y27921249D02*
D03*
Y27819650D02*
D03*
Y27718051D02*
D03*
Y27616449D02*
D03*
Y27514850D02*
D03*
Y27413251D02*
D03*
Y27311649D02*
D03*
Y27210049D02*
D03*
Y27108450D02*
D03*
Y27006851D02*
D03*
Y26905249D02*
D03*
Y26803650D02*
D03*
Y26702051D02*
D03*
Y26600449D02*
D03*
Y26498849D02*
D03*
Y26397250D02*
D03*
Y26295651D02*
D03*
Y26194049D02*
D03*
Y26092450D02*
D03*
Y25990851D02*
D03*
X27725565Y25899854D02*
D03*
X27797406Y25828012D02*
D03*
X27869250Y25756171D02*
D03*
X27941092Y25684329D02*
D03*
X28012933Y25612485D02*
D03*
X28100195Y25560449D02*
D03*
X28201791Y25559474D02*
D03*
X28303391D02*
D03*
X28404990D02*
D03*
X28506592D02*
D03*
X28608191D02*
D03*
X28709790D02*
D03*
X28811392D02*
D03*
X28912991D02*
D03*
X29014590D02*
D03*
X29116190D02*
D03*
X29212555Y25527277D02*
D03*
X29304971Y25569485D02*
D03*
X29336292Y25666138D02*
D03*
X29286816Y25754877D02*
D03*
X29188123Y25779010D02*
D03*
X29091205Y25748526D02*
D03*
X28989606D02*
D03*
X28888004D02*
D03*
X28786404D02*
D03*
X28684805D02*
D03*
X28583206D02*
D03*
X28481604D02*
D03*
X28380005D02*
D03*
X28278406D02*
D03*
X28176804D02*
D03*
X28090555Y25802225D02*
D03*
X28018713Y25874066D02*
D03*
X27946872Y25945908D02*
D03*
X27875031Y26017752D02*
D03*
X27869427Y26119196D02*
D03*
Y26220798D02*
D03*
Y26322397D02*
D03*
Y26423996D02*
D03*
Y26525598D02*
D03*
Y26627197D02*
D03*
Y26728796D02*
D03*
Y26830396D02*
D03*
Y26931998D02*
D03*
Y27033597D02*
D03*
Y27135196D02*
D03*
Y27236798D02*
D03*
Y27338397D02*
D03*
Y27439996D02*
D03*
Y27541599D02*
D03*
Y27643198D02*
D03*
Y27744797D02*
D03*
Y27846396D02*
D03*
Y27947998D02*
D03*
Y28049597D02*
D03*
Y28151196D02*
D03*
Y28252798D02*
D03*
Y28354398D02*
D03*
Y28455997D02*
D03*
Y28557596D02*
D03*
Y28659198D02*
D03*
Y28760797D02*
D03*
Y28862396D02*
D03*
Y28963998D02*
D03*
Y29065598D02*
D03*
Y29167197D02*
D03*
Y29268796D02*
D03*
Y29370398D02*
D03*
Y29471997D02*
D03*
Y29573596D02*
D03*
Y29675198D02*
D03*
Y29776797D02*
D03*
Y29878397D02*
D03*
Y29979996D02*
D03*
Y30081598D02*
D03*
Y30183197D02*
D03*
Y30284796D02*
D03*
Y30386398D02*
D03*
Y30487997D02*
D03*
X27857285Y30588867D02*
D03*
X27788467Y30663614D02*
D03*
X27716626Y30735455D02*
D03*
X27644781Y30807297D02*
D03*
X27559601Y30862674D02*
D03*
X27458005Y30863727D02*
D03*
X27356406D02*
D03*
X27254807D02*
D03*
X27153207D02*
D03*
X27051605D02*
D03*
X26905673Y29032288D02*
D03*
X26903406Y28930713D02*
D03*
X27096997Y28962631D02*
D03*
X27119202Y29061777D02*
D03*
X27220801D02*
D03*
X27308069Y29009750D02*
D03*
X27346466Y28915686D02*
D03*
Y28814084D02*
D03*
Y28712485D02*
D03*
Y28610886D02*
D03*
Y28509286D02*
D03*
Y28407684D02*
D03*
Y28204486D02*
D03*
Y28102884D02*
D03*
Y28001285D02*
D03*
Y27899686D02*
D03*
Y27798083D02*
D03*
Y27696484D02*
D03*
Y27594885D02*
D03*
Y27493286D02*
D03*
Y27391684D02*
D03*
Y27290085D02*
D03*
Y27188486D02*
D03*
Y27086884D02*
D03*
Y26985284D02*
D03*
Y26883685D02*
D03*
Y26782086D02*
D03*
Y26680484D02*
D03*
Y26578885D02*
D03*
Y26477286D02*
D03*
Y26375684D02*
D03*
Y26274084D02*
D03*
Y26172485D02*
D03*
Y26070886D02*
D03*
Y25969284D02*
D03*
Y25867685D02*
D03*
Y25766086D02*
D03*
X27357141Y25665048D02*
D03*
X27424948Y25589384D02*
D03*
X27496790Y25517543D02*
D03*
X27568634Y25445702D02*
D03*
X27640475Y25373859D02*
D03*
X27712317Y25302016D02*
D03*
X27784158Y25230174D02*
D03*
X27856000Y25158331D02*
D03*
X27927844Y25086490D02*
D03*
X28023218Y25051474D02*
D03*
X28124817D02*
D03*
X28226419D02*
D03*
X28328018D02*
D03*
X28429617D02*
D03*
X28531219D02*
D03*
X28632819D02*
D03*
X28734418D02*
D03*
X28836017D02*
D03*
X28937619D02*
D03*
X29039218D02*
D03*
X29140143Y25039781D02*
D03*
X29240338Y25022935D02*
D03*
X29320963Y25084760D02*
D03*
X29330719Y25185890D02*
D03*
X29262738Y25261397D02*
D03*
X29161151Y25263008D02*
D03*
X29062070Y25240526D02*
D03*
X28960471D02*
D03*
X28858871D02*
D03*
X28757272D02*
D03*
X28655670D02*
D03*
X28554071D02*
D03*
X28452472D02*
D03*
X28350870D02*
D03*
X28249271D02*
D03*
X28147672D02*
D03*
X28046072D02*
D03*
X27971820Y25309875D02*
D03*
X27899976Y25381718D02*
D03*
X27828134Y25453558D02*
D03*
X27756293Y25525401D02*
D03*
X27684451Y25597244D02*
D03*
X27612610Y25669086D02*
D03*
X27540768Y25740927D02*
D03*
X27535519Y25842392D02*
D03*
Y25943991D02*
D03*
Y26045593D02*
D03*
Y26147192D02*
D03*
Y26248792D02*
D03*
Y26350391D02*
D03*
Y26451993D02*
D03*
Y26553592D02*
D03*
Y26655191D02*
D03*
Y26756793D02*
D03*
Y26858392D02*
D03*
Y26959991D02*
D03*
Y27061591D02*
D03*
Y27163193D02*
D03*
Y27264792D02*
D03*
Y27366391D02*
D03*
Y27467993D02*
D03*
Y27569592D02*
D03*
Y27671191D02*
D03*
Y27772791D02*
D03*
Y27874393D02*
D03*
Y27975992D02*
D03*
Y28077591D02*
D03*
Y28179193D02*
D03*
Y28280792D02*
D03*
Y28382391D02*
D03*
Y28483990D02*
D03*
Y28585593D02*
D03*
Y28687192D02*
D03*
Y28788791D02*
D03*
Y28890393D02*
D03*
Y28991992D02*
D03*
X27498553Y29086627D02*
D03*
X27426709Y29158469D02*
D03*
X27354163Y29229602D02*
D03*
X27254807Y29250827D02*
D03*
X27153207D02*
D03*
X27051605D02*
D03*
X29104144Y24732526D02*
D03*
X29002542D02*
D03*
X28900943D02*
D03*
X28799344D02*
D03*
X28697742D02*
D03*
X28596143D02*
D03*
X28494543D02*
D03*
X28392944D02*
D03*
X28291342D02*
D03*
X28189743D02*
D03*
X28088144D02*
D03*
X27992783Y24697466D02*
D03*
X27920941Y24625623D02*
D03*
X27849100Y24553780D02*
D03*
X27777258Y24481940D02*
D03*
X27705417Y24410097D02*
D03*
X27633575Y24338254D02*
D03*
X27561731Y24266412D02*
D03*
X27489890Y24194569D02*
D03*
X27418048Y24122728D02*
D03*
X27346207Y24050887D02*
D03*
X27274365Y23979044D02*
D03*
X27202521Y23907202D02*
D03*
X27130679Y23835361D02*
D03*
X27058838Y23763518D02*
D03*
X26986996Y23691676D02*
D03*
X26918103Y23617000D02*
D03*
X26905673Y23516164D02*
D03*
Y23414563D02*
D03*
Y23312962D02*
D03*
Y23211363D02*
D03*
Y23109763D02*
D03*
Y23008163D02*
D03*
Y22906563D02*
D03*
Y22804964D02*
D03*
Y22703363D02*
D03*
Y22601762D02*
D03*
Y22500163D02*
D03*
X26903406Y22195387D02*
D03*
X26898599Y22098000D02*
D03*
X27096997Y22147258D02*
D03*
X27094727Y22248833D02*
D03*
Y22350433D02*
D03*
Y22452032D02*
D03*
Y22553633D02*
D03*
Y22655232D02*
D03*
Y22756833D02*
D03*
Y22858434D02*
D03*
Y22960033D02*
D03*
Y23061633D02*
D03*
Y23163232D02*
D03*
Y23264833D02*
D03*
Y23366434D02*
D03*
Y23468033D02*
D03*
X27127039Y23564357D02*
D03*
X27198880Y23636200D02*
D03*
X27270721Y23708041D02*
D03*
X27342563Y23779884D02*
D03*
X27414407Y23851726D02*
D03*
X27486249Y23923569D02*
D03*
X27558090Y23995410D02*
D03*
X27629932Y24067252D02*
D03*
X27701776Y24139095D02*
D03*
X27773618Y24210936D02*
D03*
X27845459Y24282777D02*
D03*
X27917300Y24354620D02*
D03*
X27989142Y24426462D02*
D03*
X28060986Y24498305D02*
D03*
X28151993Y24543474D02*
D03*
X28253592D02*
D03*
X28355191D02*
D03*
X28456793D02*
D03*
X28558392D02*
D03*
X28659991D02*
D03*
X28761591D02*
D03*
X28863193D02*
D03*
X28964792D02*
D03*
X29066391D02*
D03*
X29165088Y24519360D02*
D03*
X29266574Y24524191D02*
D03*
X29331641Y24602222D02*
D03*
X29318750Y24703001D02*
D03*
X29236340Y24762421D02*
D03*
X29114819Y23716525D02*
D03*
X29013220D02*
D03*
X28911618D02*
D03*
X28810019D02*
D03*
X28708420D02*
D03*
X28606818D02*
D03*
X28505255Y23713773D02*
D03*
X28422855Y23654337D02*
D03*
X28351013Y23582494D02*
D03*
X28279172Y23510652D02*
D03*
X28207330Y23438811D02*
D03*
X28135489Y23366968D02*
D03*
X28063647Y23295126D02*
D03*
X28001709Y23214587D02*
D03*
X27997873Y23113060D02*
D03*
Y23011459D02*
D03*
Y22909860D02*
D03*
Y22808260D02*
D03*
Y22706660D02*
D03*
Y22605060D02*
D03*
Y22503461D02*
D03*
Y22401860D02*
D03*
Y22300259D02*
D03*
Y22198660D02*
D03*
Y22097060D02*
D03*
Y21995461D02*
D03*
Y21893860D02*
D03*
Y21792261D02*
D03*
Y21690660D02*
D03*
Y21589059D02*
D03*
X27954706Y21497087D02*
D03*
X27882864Y21425244D02*
D03*
X27811023Y21353403D02*
D03*
X27739178Y21281560D02*
D03*
X27667337Y21209718D02*
D03*
X27595496Y21137875D02*
D03*
X27523654Y21066034D02*
D03*
X27451810Y20994193D02*
D03*
X27379968Y20922350D02*
D03*
X27307843Y20850793D02*
D03*
X27206241D02*
D03*
X27104642D02*
D03*
X27003067Y20853062D02*
D03*
X26905673Y20608284D02*
D03*
X26903436Y20506708D02*
D03*
X27088071Y20479590D02*
D03*
X27096997Y20580798D02*
D03*
X27158401Y20661742D02*
D03*
X27260001D02*
D03*
X27361588Y20663515D02*
D03*
X27445612Y20720631D02*
D03*
X27517453Y20792473D02*
D03*
X27589297Y20864314D02*
D03*
X27661139Y20936157D02*
D03*
X27732980Y21007999D02*
D03*
X27804822Y21079842D02*
D03*
X27876663Y21151683D02*
D03*
X27948505Y21223524D02*
D03*
X28020349Y21295367D02*
D03*
X28092191Y21367209D02*
D03*
X28163324Y21439752D02*
D03*
X28186926Y21538573D02*
D03*
Y21640173D02*
D03*
Y21741772D02*
D03*
Y21843373D02*
D03*
Y21944974D02*
D03*
Y22046573D02*
D03*
Y22148174D02*
D03*
Y22249773D02*
D03*
Y22351373D02*
D03*
Y22452972D02*
D03*
Y22554573D02*
D03*
Y22656174D02*
D03*
Y22757773D02*
D03*
Y22859373D02*
D03*
Y22960973D02*
D03*
Y23062573D02*
D03*
X28199298Y23163417D02*
D03*
X28271140Y23235258D02*
D03*
X28342981Y23307101D02*
D03*
X28414825Y23378943D02*
D03*
X28486664Y23450784D02*
D03*
X28558508Y23522627D02*
D03*
X28659991Y23527473D02*
D03*
X28761591D02*
D03*
X28863193D02*
D03*
X28964792D02*
D03*
X29066391D02*
D03*
X29165088Y23503360D02*
D03*
X29266574Y23508192D02*
D03*
X29331641Y23586221D02*
D03*
X29318750Y23687001D02*
D03*
X29236340Y23746420D02*
D03*
X30591989Y27780527D02*
D03*
X30490387D02*
D03*
X30388788D02*
D03*
X30287189D02*
D03*
X30185699Y27775803D02*
D03*
X30106180Y27712561D02*
D03*
X30034338Y27640720D02*
D03*
X29962497Y27568878D02*
D03*
X29890656Y27497037D02*
D03*
X29818814Y27425195D02*
D03*
X29746970Y27353351D02*
D03*
X29675128Y27281509D02*
D03*
X29603287Y27209668D02*
D03*
X29539716Y27130414D02*
D03*
X29534573Y27028943D02*
D03*
Y26927344D02*
D03*
Y26825745D02*
D03*
Y26724146D02*
D03*
Y26622543D02*
D03*
Y26520944D02*
D03*
Y26419345D02*
D03*
Y26317743D02*
D03*
Y26216144D02*
D03*
Y26114545D02*
D03*
Y26012943D02*
D03*
Y25911343D02*
D03*
Y25809744D02*
D03*
Y25708145D02*
D03*
Y25606543D02*
D03*
Y25504944D02*
D03*
Y25403345D02*
D03*
Y25301744D02*
D03*
Y25200143D02*
D03*
Y25098544D02*
D03*
Y24996944D02*
D03*
Y24895345D02*
D03*
Y24793744D02*
D03*
Y24692143D02*
D03*
Y24590544D02*
D03*
Y24488943D02*
D03*
Y24387344D02*
D03*
Y24285744D02*
D03*
Y24184145D02*
D03*
Y24082544D02*
D03*
Y23980943D02*
D03*
Y23879344D02*
D03*
Y23777744D02*
D03*
Y23676144D02*
D03*
Y23574544D02*
D03*
Y23472945D02*
D03*
Y23371344D02*
D03*
Y23269743D02*
D03*
Y23168144D02*
D03*
Y23066544D02*
D03*
Y22964944D02*
D03*
Y22863344D02*
D03*
Y22761745D02*
D03*
Y22660144D02*
D03*
Y22558543D02*
D03*
Y22456944D02*
D03*
Y22355344D02*
D03*
Y22253745D02*
D03*
Y22152144D02*
D03*
Y22050545D02*
D03*
Y21948944D02*
D03*
Y21847343D02*
D03*
Y21745744D02*
D03*
Y21644144D02*
D03*
Y21542545D02*
D03*
Y21440944D02*
D03*
Y21339343D02*
D03*
Y21237744D02*
D03*
Y21136143D02*
D03*
Y21034544D02*
D03*
Y20932944D02*
D03*
Y20831345D02*
D03*
Y20729744D02*
D03*
Y20628143D02*
D03*
Y20526544D02*
D03*
Y20424944D02*
D03*
Y20323344D02*
D03*
Y20221744D02*
D03*
Y20120145D02*
D03*
Y20018544D02*
D03*
Y19916943D02*
D03*
Y19815344D02*
D03*
Y19713744D02*
D03*
Y19612144D02*
D03*
Y19510544D02*
D03*
Y19408945D02*
D03*
Y19307344D02*
D03*
Y19205743D02*
D03*
Y19104144D02*
D03*
Y19002544D02*
D03*
Y18900945D02*
D03*
Y18799344D02*
D03*
Y18697745D02*
D03*
Y18596144D02*
D03*
Y18494543D02*
D03*
Y18392944D02*
D03*
Y18291344D02*
D03*
Y18189745D02*
D03*
Y18088144D02*
D03*
Y17986543D02*
D03*
Y17884944D02*
D03*
Y17783344D02*
D03*
Y17681744D02*
D03*
Y17580144D02*
D03*
Y17478545D02*
D03*
Y17376944D02*
D03*
Y17275343D02*
D03*
Y17173744D02*
D03*
Y17072144D02*
D03*
Y16970544D02*
D03*
Y16868944D02*
D03*
Y16767345D02*
D03*
Y16665744D02*
D03*
X29477734Y16581531D02*
D03*
X29405893Y16509688D02*
D03*
X29334052Y16437846D02*
D03*
X29262210Y16366003D02*
D03*
X29190366Y16294162D02*
D03*
X29118524Y16222321D02*
D03*
X29046683Y16150478D02*
D03*
X28974841Y16078636D02*
D03*
X28903000Y16006793D02*
D03*
X28831158Y15934950D02*
D03*
X28759314Y15863109D02*
D03*
X28687473Y15791267D02*
D03*
X28615631Y15719424D02*
D03*
X28543790Y15647583D02*
D03*
X28471948Y15575742D02*
D03*
X28400104Y15503899D02*
D03*
X28328262Y15432057D02*
D03*
X28256421Y15360216D02*
D03*
X28184579Y15288373D02*
D03*
X28112735Y15216531D02*
D03*
X28040894Y15144688D02*
D03*
X27969052Y15072847D02*
D03*
X27897211Y15001006D02*
D03*
X27825369Y14929163D02*
D03*
X27753525Y14857321D02*
D03*
X27681683Y14785480D02*
D03*
X27609842Y14713637D02*
D03*
X27538000Y14641795D02*
D03*
X27466159Y14569952D02*
D03*
X27394315Y14498109D02*
D03*
X27322473Y14426268D02*
D03*
X27250632Y14354427D02*
D03*
X27178790Y14282584D02*
D03*
X27106949Y14210742D02*
D03*
X27035107Y14138901D02*
D03*
X26963263Y14067058D02*
D03*
X26905673Y13880824D02*
D03*
X26903406Y13779250D02*
D03*
X27096997Y13764845D02*
D03*
X27094727Y13866418D02*
D03*
X27126492Y13962926D02*
D03*
X27198334Y14034769D02*
D03*
X27270178Y14106610D02*
D03*
X27342017Y14178452D02*
D03*
X27413861Y14250294D02*
D03*
X27485703Y14322136D02*
D03*
X27557544Y14393977D02*
D03*
X27629388Y14465820D02*
D03*
X27701230Y14537662D02*
D03*
X27773071Y14609505D02*
D03*
X27844913Y14681346D02*
D03*
X27916754Y14753188D02*
D03*
X27988596Y14825031D02*
D03*
X28060440Y14896872D02*
D03*
X28132281Y14968713D02*
D03*
X28204123Y15040556D02*
D03*
X28275964Y15112399D02*
D03*
X28347806Y15184241D02*
D03*
X28419650Y15256084D02*
D03*
X28491492Y15327925D02*
D03*
X28563333Y15399767D02*
D03*
X28635175Y15471609D02*
D03*
X28707019Y15543451D02*
D03*
X28778860Y15615292D02*
D03*
X28850702Y15687135D02*
D03*
X28922543Y15758977D02*
D03*
X28994385Y15830820D02*
D03*
X29066229Y15902661D02*
D03*
X29138071Y15974503D02*
D03*
X29209912Y16046346D02*
D03*
X29281754Y16118187D02*
D03*
X29353595Y16190028D02*
D03*
X29425439Y16261871D02*
D03*
X29497281Y16333713D02*
D03*
X29569122Y16405556D02*
D03*
X29640964Y16477397D02*
D03*
X29710129Y16551819D02*
D03*
X29723627Y16652519D02*
D03*
Y16754118D02*
D03*
Y16855719D02*
D03*
Y16957320D02*
D03*
Y17058919D02*
D03*
Y17160519D02*
D03*
Y17262119D02*
D03*
Y17363719D02*
D03*
Y17465318D02*
D03*
Y17566919D02*
D03*
Y17668520D02*
D03*
Y17770119D02*
D03*
Y17871719D02*
D03*
Y17973318D02*
D03*
Y18074919D02*
D03*
Y18176518D02*
D03*
Y18278119D02*
D03*
Y18379720D02*
D03*
Y18481319D02*
D03*
Y18582919D02*
D03*
Y18684518D02*
D03*
Y18786119D02*
D03*
Y18887720D02*
D03*
Y18989319D02*
D03*
Y19090919D02*
D03*
Y19192519D02*
D03*
Y19294119D02*
D03*
Y19395718D02*
D03*
Y19497319D02*
D03*
Y19598920D02*
D03*
Y19700519D02*
D03*
Y19802119D02*
D03*
Y19903719D02*
D03*
Y20005319D02*
D03*
Y20106918D02*
D03*
Y20208519D02*
D03*
Y20310120D02*
D03*
Y20411719D02*
D03*
Y20513319D02*
D03*
Y20614919D02*
D03*
Y20716519D02*
D03*
Y20818118D02*
D03*
Y20919719D02*
D03*
Y21021320D02*
D03*
Y21122919D02*
D03*
Y21224519D02*
D03*
Y21326118D02*
D03*
Y21427719D02*
D03*
Y21529318D02*
D03*
Y21630919D02*
D03*
Y21732520D02*
D03*
Y21834119D02*
D03*
Y21935719D02*
D03*
Y22037318D02*
D03*
Y22138919D02*
D03*
Y22240520D02*
D03*
Y22342119D02*
D03*
Y22443719D02*
D03*
Y22545319D02*
D03*
Y22646919D02*
D03*
Y22748518D02*
D03*
Y22850119D02*
D03*
Y22951720D02*
D03*
Y23053319D02*
D03*
Y23154919D02*
D03*
Y23256519D02*
D03*
Y23358119D02*
D03*
Y23459718D02*
D03*
Y23561319D02*
D03*
Y23662920D02*
D03*
Y23764519D02*
D03*
Y23866119D02*
D03*
Y23967719D02*
D03*
Y24069319D02*
D03*
Y24170918D02*
D03*
Y24272519D02*
D03*
Y24374120D02*
D03*
Y24475719D02*
D03*
Y24577319D02*
D03*
Y24678918D02*
D03*
Y24780519D02*
D03*
Y24882120D02*
D03*
Y24983719D02*
D03*
Y25085320D02*
D03*
Y25186919D02*
D03*
Y25288519D02*
D03*
Y25390118D02*
D03*
Y25491719D02*
D03*
Y25593320D02*
D03*
Y25694919D02*
D03*
Y25796518D02*
D03*
Y25898120D02*
D03*
Y25999719D02*
D03*
Y26101318D02*
D03*
Y26202917D02*
D03*
Y26304520D02*
D03*
Y26406119D02*
D03*
Y26507718D02*
D03*
Y26609320D02*
D03*
Y26710919D02*
D03*
Y26812518D02*
D03*
Y26914120D02*
D03*
Y27015720D02*
D03*
X29768066Y27107086D02*
D03*
X29839908Y27178928D02*
D03*
X29911749Y27250769D02*
D03*
X29983591Y27322610D02*
D03*
X30055435Y27394452D02*
D03*
X30127277Y27466296D02*
D03*
X30199118Y27538138D02*
D03*
X30285593Y27591473D02*
D03*
X30387192D02*
D03*
X30488791D02*
D03*
X30590393D02*
D03*
X30689090Y27567361D02*
D03*
X30790573Y27572192D02*
D03*
X30855643Y27650223D02*
D03*
X30842752Y27751001D02*
D03*
X30760339Y27810422D02*
D03*
X30615964Y27272525D02*
D03*
X30514362D02*
D03*
X30412762D02*
D03*
X30317264Y27237845D02*
D03*
X30245422Y27166003D02*
D03*
X30173581Y27094162D02*
D03*
X30101740Y27022321D02*
D03*
X30029898Y26950479D02*
D03*
X29958054Y26878635D02*
D03*
X29889355Y26803784D02*
D03*
X29877475Y26702881D02*
D03*
Y26601282D02*
D03*
Y26499680D02*
D03*
Y26398080D02*
D03*
Y26296481D02*
D03*
Y26194882D02*
D03*
Y26093280D02*
D03*
Y25991681D02*
D03*
Y25890082D02*
D03*
Y25788480D02*
D03*
Y25686880D02*
D03*
Y25585281D02*
D03*
Y25483681D02*
D03*
Y25382082D02*
D03*
Y25280481D02*
D03*
Y25178880D02*
D03*
Y25077281D02*
D03*
Y24975681D02*
D03*
Y24874081D02*
D03*
Y24772481D02*
D03*
Y24670882D02*
D03*
Y24569281D02*
D03*
Y24467680D02*
D03*
Y24366081D02*
D03*
Y24264481D02*
D03*
Y24162881D02*
D03*
Y24061281D02*
D03*
Y23959682D02*
D03*
Y23858081D02*
D03*
Y23756480D02*
D03*
Y23654881D02*
D03*
Y23553281D02*
D03*
Y23451682D02*
D03*
Y23350081D02*
D03*
Y23248482D02*
D03*
Y23146881D02*
D03*
Y23045280D02*
D03*
Y22943681D02*
D03*
Y22842081D02*
D03*
Y22740482D02*
D03*
Y22638881D02*
D03*
Y22537280D02*
D03*
Y22435681D02*
D03*
Y22334081D02*
D03*
Y22232481D02*
D03*
Y22130881D02*
D03*
Y22029282D02*
D03*
Y21927681D02*
D03*
Y21826080D02*
D03*
Y21724481D02*
D03*
Y21622881D02*
D03*
Y21521281D02*
D03*
Y21419681D02*
D03*
Y21318082D02*
D03*
Y21216481D02*
D03*
Y21114880D02*
D03*
Y21013281D02*
D03*
Y20911681D02*
D03*
Y20810081D02*
D03*
Y20708481D02*
D03*
Y20606882D02*
D03*
Y20505281D02*
D03*
Y20403680D02*
D03*
Y20302081D02*
D03*
Y20200481D02*
D03*
Y20098882D02*
D03*
Y19997281D02*
D03*
Y19895682D02*
D03*
Y19794081D02*
D03*
Y19692480D02*
D03*
Y19590881D02*
D03*
Y19489281D02*
D03*
Y19387682D02*
D03*
Y19286081D02*
D03*
Y19184480D02*
D03*
Y19082881D02*
D03*
Y18981281D02*
D03*
Y18879681D02*
D03*
Y18778081D02*
D03*
Y18676482D02*
D03*
Y18574881D02*
D03*
Y18473280D02*
D03*
Y18371681D02*
D03*
Y18270081D02*
D03*
Y18168481D02*
D03*
Y18066881D02*
D03*
Y17965282D02*
D03*
Y17863681D02*
D03*
Y17762080D02*
D03*
Y17660481D02*
D03*
Y17558881D02*
D03*
Y17457281D02*
D03*
Y17355681D02*
D03*
Y17254082D02*
D03*
Y17152481D02*
D03*
Y17050880D02*
D03*
Y16949281D02*
D03*
Y16847681D02*
D03*
Y16746082D02*
D03*
Y16644481D02*
D03*
Y16542880D02*
D03*
Y16441281D02*
D03*
Y16339680D02*
D03*
Y16238081D02*
D03*
Y16136481D02*
D03*
Y16034882D02*
D03*
Y15933281D02*
D03*
Y15831680D02*
D03*
Y15730081D02*
D03*
Y15628481D02*
D03*
Y15526881D02*
D03*
Y15425281D02*
D03*
Y15323682D02*
D03*
Y15222081D02*
D03*
Y15120480D02*
D03*
Y15018881D02*
D03*
Y14917281D02*
D03*
Y14815681D02*
D03*
X29815833Y14734915D02*
D03*
X29743991Y14663074D02*
D03*
X29672150Y14591231D02*
D03*
X29600308Y14519389D02*
D03*
X29528467Y14447546D02*
D03*
X29456625Y14375705D02*
D03*
X29384781Y14303864D02*
D03*
X29312939Y14232021D02*
D03*
X29241098Y14160179D02*
D03*
X29169257Y14088338D02*
D03*
X29097415Y14016495D02*
D03*
X29025571Y13944652D02*
D03*
X28953729Y13872810D02*
D03*
X28881888Y13800967D02*
D03*
X28810046Y13729126D02*
D03*
X28738205Y13657285D02*
D03*
X28666364Y13585442D02*
D03*
X28594519Y13513600D02*
D03*
X28522678Y13441759D02*
D03*
X28450836Y13369916D02*
D03*
X28378995Y13298074D02*
D03*
X28307150Y13226231D02*
D03*
X28235309Y13154390D02*
D03*
X28163467Y13082549D02*
D03*
X28091626Y13010706D02*
D03*
X28019781Y12938864D02*
D03*
X27947940Y12867023D02*
D03*
X27876099Y12795180D02*
D03*
X27804257Y12723338D02*
D03*
X27732416Y12651496D02*
D03*
X27660574Y12579654D02*
D03*
X27588730Y12507812D02*
D03*
X27504660Y12450760D02*
D03*
X27403061D02*
D03*
X27301462D02*
D03*
X27199860D02*
D03*
X27098260D02*
D03*
X26996686Y12453029D02*
D03*
X26905673Y12199195D02*
D03*
X26905243Y12097596D02*
D03*
X27092706Y12086492D02*
D03*
X27096762Y12188011D02*
D03*
X27166699Y12261708D02*
D03*
X27268301D02*
D03*
X27369901D02*
D03*
X27471500D02*
D03*
X27573099Y12262158D02*
D03*
X27661142Y12312862D02*
D03*
X27732986Y12384704D02*
D03*
X27804828Y12456546D02*
D03*
X27876669Y12528388D02*
D03*
X27948511Y12600230D02*
D03*
X28020352Y12672072D02*
D03*
X28092194Y12743914D02*
D03*
X28164038Y12815756D02*
D03*
X28235880Y12887599D02*
D03*
X28307721Y12959441D02*
D03*
X28379562Y13031284D02*
D03*
X28451404Y13103125D02*
D03*
X28523248Y13174966D02*
D03*
X28595090Y13246809D02*
D03*
X28666931Y13318651D02*
D03*
X28738773Y13390492D02*
D03*
X28810614Y13462335D02*
D03*
X28882458Y13534177D02*
D03*
X28954300Y13606020D02*
D03*
X29026141Y13677861D02*
D03*
X29097983Y13749702D02*
D03*
X29169827Y13821545D02*
D03*
X29241669Y13893387D02*
D03*
X29313510Y13965228D02*
D03*
X29385352Y14037071D02*
D03*
X29457193Y14108913D02*
D03*
X29529037Y14180756D02*
D03*
X29600879Y14252597D02*
D03*
X29672720Y14324438D02*
D03*
X29744562Y14396281D02*
D03*
X29816403Y14468124D02*
D03*
X29888245Y14539966D02*
D03*
X29960089Y14611807D02*
D03*
X30031931Y14683650D02*
D03*
X30066525Y14779178D02*
D03*
Y14880779D02*
D03*
Y14982378D02*
D03*
Y15083978D02*
D03*
Y15185577D02*
D03*
Y15287178D02*
D03*
Y15388779D02*
D03*
Y15490378D02*
D03*
Y15591978D02*
D03*
Y15693578D02*
D03*
Y15795178D02*
D03*
Y15896777D02*
D03*
Y15998378D02*
D03*
Y16099979D02*
D03*
Y16201578D02*
D03*
Y16303178D02*
D03*
Y16404778D02*
D03*
Y16506378D02*
D03*
Y16607977D02*
D03*
Y16709578D02*
D03*
Y16811179D02*
D03*
Y16912778D02*
D03*
Y17014378D02*
D03*
Y17115977D02*
D03*
Y17217578D02*
D03*
Y17319177D02*
D03*
Y17420778D02*
D03*
Y17522379D02*
D03*
Y17623978D02*
D03*
Y17725578D02*
D03*
Y17827177D02*
D03*
Y17928778D02*
D03*
Y18030379D02*
D03*
Y18131978D02*
D03*
Y18233578D02*
D03*
Y18335178D02*
D03*
Y18436778D02*
D03*
Y18538377D02*
D03*
Y18639978D02*
D03*
Y18741579D02*
D03*
Y18843178D02*
D03*
Y18944778D02*
D03*
Y19046378D02*
D03*
Y19147978D02*
D03*
Y19249577D02*
D03*
Y19351178D02*
D03*
Y19452779D02*
D03*
Y19554378D02*
D03*
Y19655978D02*
D03*
Y19757578D02*
D03*
Y19859178D02*
D03*
Y19960777D02*
D03*
Y20062378D02*
D03*
Y20163979D02*
D03*
Y20265578D02*
D03*
Y20367178D02*
D03*
Y20468777D02*
D03*
Y20570378D02*
D03*
Y20671979D02*
D03*
Y20773578D02*
D03*
Y20875179D02*
D03*
Y20976778D02*
D03*
Y21078378D02*
D03*
Y21179977D02*
D03*
Y21281578D02*
D03*
Y21383179D02*
D03*
Y21484778D02*
D03*
Y21586378D02*
D03*
Y21687978D02*
D03*
Y21789578D02*
D03*
Y21891177D02*
D03*
Y21992778D02*
D03*
Y22094379D02*
D03*
Y22195978D02*
D03*
Y22297578D02*
D03*
Y22399178D02*
D03*
Y22500778D02*
D03*
Y22602377D02*
D03*
Y22703978D02*
D03*
Y22805579D02*
D03*
Y22907178D02*
D03*
Y23008778D02*
D03*
Y23110378D02*
D03*
Y23211978D02*
D03*
Y23313577D02*
D03*
Y23415178D02*
D03*
Y23516779D02*
D03*
Y23618378D02*
D03*
Y23719978D02*
D03*
Y23821577D02*
D03*
Y23923178D02*
D03*
Y24024779D02*
D03*
Y24126378D02*
D03*
Y24227979D02*
D03*
Y24329578D02*
D03*
Y24431178D02*
D03*
Y24532777D02*
D03*
Y24634378D02*
D03*
Y24735979D02*
D03*
Y24837578D02*
D03*
Y24939178D02*
D03*
Y25040778D02*
D03*
Y25142378D02*
D03*
Y25243977D02*
D03*
Y25345578D02*
D03*
Y25447179D02*
D03*
Y25548778D02*
D03*
Y25650378D02*
D03*
Y25751978D02*
D03*
Y25853577D02*
D03*
Y25955179D02*
D03*
Y26056778D02*
D03*
Y26158377D02*
D03*
Y26259979D02*
D03*
Y26361578D02*
D03*
Y26463177D02*
D03*
Y26564777D02*
D03*
Y26666379D02*
D03*
X30106546Y26759766D02*
D03*
X30178387Y26831607D02*
D03*
X30250229Y26903448D02*
D03*
X30322070Y26975290D02*
D03*
X30393912Y27047134D02*
D03*
X30488791Y27083475D02*
D03*
X30590393D02*
D03*
X30689090Y27059360D02*
D03*
X30790573Y27064191D02*
D03*
X30855643Y27142221D02*
D03*
X30842752Y27243002D02*
D03*
X30760339Y27302420D02*
D03*
X30655286Y26769421D02*
D03*
X30553802Y26764526D02*
D03*
X30452316Y26759769D02*
D03*
X30372821Y26696500D02*
D03*
X30300977Y26624658D02*
D03*
X30237762Y26545120D02*
D03*
X30233075Y26443628D02*
D03*
Y26342029D02*
D03*
Y26240427D02*
D03*
Y26138828D02*
D03*
Y26037228D02*
D03*
Y25935629D02*
D03*
Y25834027D02*
D03*
Y25732428D02*
D03*
Y25630829D02*
D03*
Y25529228D02*
D03*
Y25427628D02*
D03*
Y25326028D02*
D03*
Y25224428D02*
D03*
Y25122829D02*
D03*
Y25021228D02*
D03*
Y24919627D02*
D03*
Y24818028D02*
D03*
Y24716428D02*
D03*
Y24614828D02*
D03*
Y24513228D02*
D03*
Y24411629D02*
D03*
Y24310028D02*
D03*
Y24208427D02*
D03*
Y24106828D02*
D03*
Y24005228D02*
D03*
Y23903629D02*
D03*
Y23802028D02*
D03*
Y23700427D02*
D03*
Y23598828D02*
D03*
Y23497227D02*
D03*
Y23395628D02*
D03*
Y23294028D02*
D03*
Y23192429D02*
D03*
Y23090828D02*
D03*
Y22989227D02*
D03*
Y22887628D02*
D03*
Y22786028D02*
D03*
Y22684428D02*
D03*
Y22582828D02*
D03*
Y22481229D02*
D03*
Y22379628D02*
D03*
Y22278027D02*
D03*
Y22176428D02*
D03*
Y22074828D02*
D03*
Y21973228D02*
D03*
Y21871628D02*
D03*
Y21770029D02*
D03*
Y21668428D02*
D03*
Y21566827D02*
D03*
Y21465228D02*
D03*
Y21363628D02*
D03*
Y21262029D02*
D03*
Y21160428D02*
D03*
Y21058829D02*
D03*
Y20957228D02*
D03*
Y20855627D02*
D03*
Y20754028D02*
D03*
Y20652428D02*
D03*
Y20550829D02*
D03*
Y20449228D02*
D03*
Y20347627D02*
D03*
Y20246028D02*
D03*
Y20144427D02*
D03*
Y20042828D02*
D03*
Y19941228D02*
D03*
Y19839629D02*
D03*
Y19738028D02*
D03*
Y19636427D02*
D03*
Y19534828D02*
D03*
Y19433228D02*
D03*
Y19331628D02*
D03*
Y19230028D02*
D03*
Y19128429D02*
D03*
Y19026828D02*
D03*
Y18925227D02*
D03*
Y18823628D02*
D03*
Y18722028D02*
D03*
Y18620428D02*
D03*
Y18518828D02*
D03*
Y18417229D02*
D03*
Y18315628D02*
D03*
Y18214027D02*
D03*
Y18112428D02*
D03*
Y18010828D02*
D03*
Y17909229D02*
D03*
Y17807628D02*
D03*
Y17706029D02*
D03*
Y17604428D02*
D03*
Y17502827D02*
D03*
Y17401228D02*
D03*
Y17299628D02*
D03*
Y17198029D02*
D03*
Y17096428D02*
D03*
Y16994827D02*
D03*
Y16893228D02*
D03*
Y16791628D02*
D03*
Y16690028D02*
D03*
Y16588428D02*
D03*
Y16486829D02*
D03*
Y16385228D02*
D03*
Y16283627D02*
D03*
Y16182028D02*
D03*
Y16080428D02*
D03*
Y15978828D02*
D03*
Y15877228D02*
D03*
Y15775629D02*
D03*
Y15674028D02*
D03*
Y15572427D02*
D03*
Y15470828D02*
D03*
Y15369228D02*
D03*
Y15267628D02*
D03*
Y15166028D02*
D03*
Y15064429D02*
D03*
Y14962828D02*
D03*
Y14861227D02*
D03*
Y14759628D02*
D03*
Y14658028D02*
D03*
Y14556429D02*
D03*
Y14454828D02*
D03*
Y14353229D02*
D03*
Y14251628D02*
D03*
Y14150027D02*
D03*
Y14048428D02*
D03*
Y13946828D02*
D03*
Y13845229D02*
D03*
Y13743628D02*
D03*
Y13642027D02*
D03*
Y13540428D02*
D03*
Y13438828D02*
D03*
Y13337228D02*
D03*
Y13235628D02*
D03*
Y13134029D02*
D03*
Y13032428D02*
D03*
Y12930827D02*
D03*
Y12829228D02*
D03*
Y12727628D02*
D03*
Y12626028D02*
D03*
Y12524428D02*
D03*
Y12422828D02*
D03*
Y12321228D02*
D03*
Y12219628D02*
D03*
Y12118028D02*
D03*
Y12016428D02*
D03*
Y11914828D02*
D03*
Y11813228D02*
D03*
Y11711628D02*
D03*
Y11610028D02*
D03*
Y11508428D02*
D03*
Y11406828D02*
D03*
Y11305228D02*
D03*
Y11203628D02*
D03*
Y11102028D02*
D03*
Y11000428D02*
D03*
Y10898828D02*
D03*
Y10797228D02*
D03*
Y10695628D02*
D03*
Y10594028D02*
D03*
Y10492428D02*
D03*
Y10390828D02*
D03*
Y10289228D02*
D03*
Y10187628D02*
D03*
Y10086028D02*
D03*
Y9984428D02*
D03*
Y9882828D02*
D03*
Y9781228D02*
D03*
Y9679628D02*
D03*
Y9578028D02*
D03*
Y9476428D02*
D03*
Y9374828D02*
D03*
Y9273228D02*
D03*
Y9171628D02*
D03*
Y9070028D02*
D03*
Y8968428D02*
D03*
X30178787Y8882548D02*
D03*
X30106946Y8810706D02*
D03*
X30035104Y8738863D02*
D03*
X29963260Y8667022D02*
D03*
X29891418Y8595179D02*
D03*
X29819577Y8523337D02*
D03*
X29747736Y8451495D02*
D03*
X29675894Y8379653D02*
D03*
X29604050Y8307811D02*
D03*
X29532208Y8235969D02*
D03*
X29460367Y8164127D02*
D03*
X29388525Y8092285D02*
D03*
X29316681Y8020443D02*
D03*
X29244839Y7948601D02*
D03*
X29172998Y7876759D02*
D03*
X29101157Y7804917D02*
D03*
X29029315Y7733075D02*
D03*
X28957471Y7661233D02*
D03*
X28885629Y7589391D02*
D03*
X28813788Y7517549D02*
D03*
X28741946Y7445706D02*
D03*
X28670105Y7373865D02*
D03*
X28598260Y7302022D02*
D03*
X28526419Y7230180D02*
D03*
X28454578Y7158338D02*
D03*
X28382736Y7086496D02*
D03*
X28310895Y7014654D02*
D03*
X28239050Y6942812D02*
D03*
X28167209Y6870970D02*
D03*
X28095367Y6799128D02*
D03*
X28023526Y6727286D02*
D03*
X27951682Y6655444D02*
D03*
X27879840Y6583602D02*
D03*
X27807999Y6511760D02*
D03*
X27736157Y6439918D02*
D03*
X27664316Y6368076D02*
D03*
X27592474Y6296234D02*
D03*
X27520630Y6224392D02*
D03*
X27448788Y6152550D02*
D03*
X27376947Y6080708D02*
D03*
X27305106Y6008866D02*
D03*
X27233264Y5937023D02*
D03*
X27161420Y5865182D02*
D03*
X27089578Y5793339D02*
D03*
X27017737Y5721497D02*
D03*
X26937064Y5659737D02*
D03*
X26905673Y5461507D02*
D03*
X26903406Y5359933D02*
D03*
X27096997Y5384201D02*
D03*
X27094727Y5485775D02*
D03*
X27140222Y5576620D02*
D03*
X27212064Y5648462D02*
D03*
X27283905Y5720304D02*
D03*
X27355746Y5792146D02*
D03*
X27427588Y5863988D02*
D03*
X27499432Y5935830D02*
D03*
X27571274Y6007673D02*
D03*
X27643115Y6079514D02*
D03*
X27714957Y6151357D02*
D03*
X27786798Y6223199D02*
D03*
X27858643Y6295041D02*
D03*
X27930484Y6366883D02*
D03*
X28002325Y6438725D02*
D03*
X28074167Y6510567D02*
D03*
X28146008Y6582409D02*
D03*
X28217853Y6654251D02*
D03*
X28289694Y6726093D02*
D03*
X28361536Y6797935D02*
D03*
X28433377Y6869777D02*
D03*
X28505219Y6941619D02*
D03*
X28577063Y7013461D02*
D03*
X28648904Y7085303D02*
D03*
X28720746Y7157145D02*
D03*
X28792587Y7228987D02*
D03*
X28864429Y7300829D02*
D03*
X28936273Y7372671D02*
D03*
X29008115Y7444513D02*
D03*
X29079956Y7516356D02*
D03*
X29151797Y7588197D02*
D03*
X29223639Y7660040D02*
D03*
X29295483Y7731882D02*
D03*
X29367325Y7803724D02*
D03*
X29439166Y7875566D02*
D03*
X29511008Y7947408D02*
D03*
X29582852Y8019250D02*
D03*
X29654694Y8091092D02*
D03*
X29726535Y8162934D02*
D03*
X29798376Y8234776D02*
D03*
X29870218Y8306618D02*
D03*
X29942062Y8378460D02*
D03*
X30013904Y8450302D02*
D03*
X30085745Y8522144D02*
D03*
X30157587Y8593986D02*
D03*
X30229428Y8665828D02*
D03*
X30301270Y8737670D02*
D03*
X30373114Y8809512D02*
D03*
X30422125Y8898508D02*
D03*
Y9000108D02*
D03*
Y9101708D02*
D03*
Y9203308D02*
D03*
Y9304908D02*
D03*
Y9406508D02*
D03*
Y9508108D02*
D03*
Y9609708D02*
D03*
Y9711308D02*
D03*
Y9812908D02*
D03*
Y9914508D02*
D03*
Y10016108D02*
D03*
Y10117708D02*
D03*
Y10219308D02*
D03*
Y10320908D02*
D03*
Y10422508D02*
D03*
Y10524108D02*
D03*
Y10625708D02*
D03*
Y10727308D02*
D03*
Y10828908D02*
D03*
Y10930508D02*
D03*
Y11032108D02*
D03*
Y11133708D02*
D03*
Y11235308D02*
D03*
Y11336908D02*
D03*
Y11438508D02*
D03*
Y11540108D02*
D03*
Y11641708D02*
D03*
Y11743308D02*
D03*
Y11844908D02*
D03*
Y11946508D02*
D03*
Y12048108D02*
D03*
Y12149708D02*
D03*
Y12251308D02*
D03*
Y12352908D02*
D03*
Y12454508D02*
D03*
Y12556108D02*
D03*
Y12657708D02*
D03*
Y12759308D02*
D03*
Y12860909D02*
D03*
Y12962508D02*
D03*
Y13064108D02*
D03*
Y13165707D02*
D03*
Y13267308D02*
D03*
Y13368909D02*
D03*
Y13470508D02*
D03*
Y13572108D02*
D03*
Y13673708D02*
D03*
Y13775308D02*
D03*
Y13876907D02*
D03*
Y13978508D02*
D03*
Y14080109D02*
D03*
Y14181708D02*
D03*
Y14283308D02*
D03*
Y14384908D02*
D03*
Y14486508D02*
D03*
Y14588107D02*
D03*
Y14689708D02*
D03*
Y14791309D02*
D03*
Y14892908D02*
D03*
Y14994508D02*
D03*
Y15096107D02*
D03*
Y15197708D02*
D03*
Y15299307D02*
D03*
Y15400908D02*
D03*
Y15502509D02*
D03*
Y15604108D02*
D03*
Y15705708D02*
D03*
Y15807307D02*
D03*
Y15908908D02*
D03*
Y16010509D02*
D03*
Y16112108D02*
D03*
Y16213708D02*
D03*
Y16315308D02*
D03*
Y16416908D02*
D03*
Y16518507D02*
D03*
Y16620108D02*
D03*
Y16721709D02*
D03*
Y16823308D02*
D03*
Y16924908D02*
D03*
Y17026508D02*
D03*
Y17128108D02*
D03*
Y17229707D02*
D03*
Y17331308D02*
D03*
Y17432909D02*
D03*
Y17534508D02*
D03*
Y17636108D02*
D03*
Y17737708D02*
D03*
Y17839308D02*
D03*
Y17940907D02*
D03*
Y18042508D02*
D03*
Y18144109D02*
D03*
Y18245708D02*
D03*
Y18347308D02*
D03*
Y18448907D02*
D03*
Y18550508D02*
D03*
Y18652107D02*
D03*
Y18753708D02*
D03*
Y18855309D02*
D03*
Y18956908D02*
D03*
Y19058508D02*
D03*
Y19160107D02*
D03*
Y19261708D02*
D03*
Y19363309D02*
D03*
Y19464908D02*
D03*
Y19566508D02*
D03*
Y19668108D02*
D03*
Y19769708D02*
D03*
Y19871307D02*
D03*
Y19972908D02*
D03*
Y20074509D02*
D03*
Y20176108D02*
D03*
Y20277708D02*
D03*
Y20379308D02*
D03*
Y20480908D02*
D03*
Y20582507D02*
D03*
Y20684108D02*
D03*
Y20785709D02*
D03*
Y20887308D02*
D03*
Y20988908D02*
D03*
Y21090508D02*
D03*
Y21192108D02*
D03*
Y21293707D02*
D03*
Y21395308D02*
D03*
Y21496909D02*
D03*
Y21598508D02*
D03*
Y21700108D02*
D03*
Y21801707D02*
D03*
Y21903308D02*
D03*
Y22004909D02*
D03*
Y22106508D02*
D03*
Y22208109D02*
D03*
Y22309708D02*
D03*
Y22411308D02*
D03*
Y22512907D02*
D03*
Y22614508D02*
D03*
Y22716109D02*
D03*
Y22817708D02*
D03*
Y22919308D02*
D03*
Y23020908D02*
D03*
Y23122508D02*
D03*
Y23224107D02*
D03*
Y23325708D02*
D03*
Y23427309D02*
D03*
Y23528908D02*
D03*
Y23630508D02*
D03*
Y23732108D02*
D03*
Y23833708D02*
D03*
Y23935307D02*
D03*
Y24036908D02*
D03*
Y24138509D02*
D03*
Y24240108D02*
D03*
Y24341708D02*
D03*
Y24443307D02*
D03*
Y24544908D02*
D03*
Y24646507D02*
D03*
Y24748108D02*
D03*
Y24849709D02*
D03*
Y24951308D02*
D03*
Y25052908D02*
D03*
Y25154507D02*
D03*
Y25256108D02*
D03*
Y25357709D02*
D03*
Y25459308D02*
D03*
Y25560909D02*
D03*
Y25662509D02*
D03*
Y25764108D02*
D03*
Y25865707D02*
D03*
Y25967307D02*
D03*
Y26068909D02*
D03*
Y26170508D02*
D03*
Y26272107D02*
D03*
Y26373709D02*
D03*
Y26475308D02*
D03*
X30492383Y26548703D02*
D03*
X30590393Y26575473D02*
D03*
X30689090Y26551361D02*
D03*
X30790573Y26556192D02*
D03*
X30855643Y26634222D02*
D03*
X30842752Y26735001D02*
D03*
X30760339Y26794421D02*
D03*
X30614319Y26204398D02*
D03*
X30621506Y26103052D02*
D03*
X30701016Y26039801D02*
D03*
X30801547Y26054504D02*
D03*
X30902316Y26067474D02*
D03*
X31003915D02*
D03*
X31105515D02*
D03*
X31207114D02*
D03*
X31308716D02*
D03*
X31399951Y26022769D02*
D03*
X31471793Y25950928D02*
D03*
X31543634Y25879083D02*
D03*
X31615479Y25807242D02*
D03*
X31687320Y25735400D02*
D03*
X31693573Y25633994D02*
D03*
Y25532393D02*
D03*
Y25430794D02*
D03*
Y25329193D02*
D03*
Y25227592D02*
D03*
Y25125993D02*
D03*
Y25024393D02*
D03*
Y24922794D02*
D03*
Y24821193D02*
D03*
Y24719592D02*
D03*
Y24617993D02*
D03*
Y24516393D02*
D03*
Y24414793D02*
D03*
Y24313193D02*
D03*
Y24211594D02*
D03*
Y24109993D02*
D03*
Y24008392D02*
D03*
Y23906793D02*
D03*
Y23805193D02*
D03*
Y23703593D02*
D03*
Y23601993D02*
D03*
Y23500394D02*
D03*
Y23398793D02*
D03*
Y23297192D02*
D03*
Y23195593D02*
D03*
Y23093993D02*
D03*
Y22992393D02*
D03*
Y22890793D02*
D03*
Y22789194D02*
D03*
Y22687593D02*
D03*
Y22585992D02*
D03*
Y22484393D02*
D03*
Y22382793D02*
D03*
Y22281194D02*
D03*
Y22179593D02*
D03*
Y22077992D02*
D03*
Y21976393D02*
D03*
Y21874792D02*
D03*
Y21773193D02*
D03*
Y21671593D02*
D03*
Y21569994D02*
D03*
Y21468393D02*
D03*
Y21366792D02*
D03*
Y21265193D02*
D03*
Y21163593D02*
D03*
Y21061993D02*
D03*
Y20960393D02*
D03*
Y20858794D02*
D03*
Y20757193D02*
D03*
Y20655592D02*
D03*
Y20553993D02*
D03*
Y20452393D02*
D03*
Y20350793D02*
D03*
Y20249193D02*
D03*
Y20147594D02*
D03*
Y20045993D02*
D03*
Y19944392D02*
D03*
Y19842793D02*
D03*
Y19741193D02*
D03*
Y19639594D02*
D03*
Y19537993D02*
D03*
Y19436394D02*
D03*
Y19334793D02*
D03*
Y19233192D02*
D03*
Y19131593D02*
D03*
Y19029993D02*
D03*
Y18928394D02*
D03*
Y18826793D02*
D03*
Y18725192D02*
D03*
Y18623593D02*
D03*
Y18521992D02*
D03*
Y18420393D02*
D03*
Y18318793D02*
D03*
Y18217194D02*
D03*
Y18115593D02*
D03*
Y18013992D02*
D03*
Y17912393D02*
D03*
Y17810793D02*
D03*
Y17709193D02*
D03*
Y17607593D02*
D03*
Y17505994D02*
D03*
Y17404393D02*
D03*
Y17302792D02*
D03*
Y17201193D02*
D03*
Y17099593D02*
D03*
Y16997993D02*
D03*
Y16896393D02*
D03*
Y16794794D02*
D03*
Y16693193D02*
D03*
Y16591592D02*
D03*
Y16489993D02*
D03*
Y16388393D02*
D03*
Y16286794D02*
D03*
Y16185193D02*
D03*
Y16083594D02*
D03*
Y15981993D02*
D03*
Y15880392D02*
D03*
Y15778793D02*
D03*
Y15677193D02*
D03*
Y15575594D02*
D03*
Y15473993D02*
D03*
Y15372392D02*
D03*
Y15270793D02*
D03*
Y15169193D02*
D03*
Y15067593D02*
D03*
Y14965993D02*
D03*
Y14864394D02*
D03*
Y14762793D02*
D03*
Y14661192D02*
D03*
Y14559593D02*
D03*
Y14457993D02*
D03*
Y14356393D02*
D03*
Y14254793D02*
D03*
Y14153194D02*
D03*
Y14051593D02*
D03*
Y13949992D02*
D03*
Y13848393D02*
D03*
Y13746793D02*
D03*
Y13645193D02*
D03*
Y13543593D02*
D03*
Y13441994D02*
D03*
Y13340393D02*
D03*
Y13238792D02*
D03*
Y13137193D02*
D03*
Y13035593D02*
D03*
Y12933994D02*
D03*
Y12832393D02*
D03*
Y12730793D02*
D03*
Y12629193D02*
D03*
Y12527593D02*
D03*
Y12425993D02*
D03*
Y12324393D02*
D03*
Y12222793D02*
D03*
Y12121193D02*
D03*
Y12019593D02*
D03*
Y11917993D02*
D03*
Y11816393D02*
D03*
Y11714793D02*
D03*
Y11613193D02*
D03*
Y11511593D02*
D03*
Y11409993D02*
D03*
Y11308393D02*
D03*
Y11206793D02*
D03*
Y11105193D02*
D03*
Y11003593D02*
D03*
Y10901993D02*
D03*
Y10800393D02*
D03*
Y10698793D02*
D03*
Y10597193D02*
D03*
Y10495593D02*
D03*
Y10393993D02*
D03*
Y10292393D02*
D03*
Y10190793D02*
D03*
Y10089193D02*
D03*
Y9987593D02*
D03*
Y9885993D02*
D03*
Y9784393D02*
D03*
Y9682793D02*
D03*
Y9581193D02*
D03*
Y9479593D02*
D03*
Y9377993D02*
D03*
Y9276393D02*
D03*
Y9174793D02*
D03*
Y9073193D02*
D03*
Y8971593D02*
D03*
Y8869993D02*
D03*
Y8768393D02*
D03*
Y8666793D02*
D03*
Y8565193D02*
D03*
Y8463593D02*
D03*
Y8361993D02*
D03*
X31664163Y8264743D02*
D03*
X31592319Y8192901D02*
D03*
X31520477Y8121059D02*
D03*
X31448636Y8049217D02*
D03*
X31376794Y7977375D02*
D03*
X31304953Y7905533D02*
D03*
X31233109Y7833691D02*
D03*
X31161267Y7761849D02*
D03*
X31089426Y7690007D02*
D03*
X31017584Y7618165D02*
D03*
X30945743Y7546322D02*
D03*
X30873901Y7474481D02*
D03*
X30802057Y7402638D02*
D03*
X30730215Y7330796D02*
D03*
X30658374Y7258954D02*
D03*
X30586533Y7187112D02*
D03*
X30514691Y7115270D02*
D03*
X30442847Y7043428D02*
D03*
X30371005Y6971586D02*
D03*
X30299164Y6899744D02*
D03*
X30227322Y6827902D02*
D03*
X30155478Y6756060D02*
D03*
X30083636Y6684218D02*
D03*
X30011795Y6612376D02*
D03*
X29939954Y6540534D02*
D03*
X29868112Y6468692D02*
D03*
X29796268Y6396850D02*
D03*
X29724426Y6325008D02*
D03*
X29652585Y6253166D02*
D03*
X29580743Y6181324D02*
D03*
X29508902Y6109482D02*
D03*
X29437057Y6037639D02*
D03*
X29365216Y5965798D02*
D03*
X29293375Y5893955D02*
D03*
X29221533Y5822113D02*
D03*
X29149692Y5750271D02*
D03*
X29077850Y5678429D02*
D03*
X29006006Y5606587D02*
D03*
X28934164Y5534745D02*
D03*
X28862323Y5462903D02*
D03*
X28790479Y5391061D02*
D03*
X28718637Y5319219D02*
D03*
X28646796Y5247377D02*
D03*
X28574954Y5175535D02*
D03*
X28503113Y5103693D02*
D03*
X28431271Y5031851D02*
D03*
X28359427Y4960009D02*
D03*
X28287585Y4888167D02*
D03*
X28215744Y4816325D02*
D03*
X28143903Y4744483D02*
D03*
X28072061Y4672641D02*
D03*
X28000217Y4600799D02*
D03*
X27928375Y4528956D02*
D03*
X27856534Y4457115D02*
D03*
X27784692Y4385272D02*
D03*
X27712851Y4313430D02*
D03*
X27641010Y4241588D02*
D03*
X27569165Y4169746D02*
D03*
X27497324Y4097904D02*
D03*
X27407339Y4050726D02*
D03*
X27305740D02*
D03*
X27204141D02*
D03*
X27102542D02*
D03*
X27000967Y4052995D02*
D03*
X26905673Y3805051D02*
D03*
X26904068Y3703463D02*
D03*
X27089816Y3682135D02*
D03*
X27096997Y3783481D02*
D03*
X27161868Y3861674D02*
D03*
X27263470D02*
D03*
X27365070D02*
D03*
X27466669D02*
D03*
X27562421Y3895642D02*
D03*
X27634265Y3967484D02*
D03*
X27706107Y4039326D02*
D03*
X27777948Y4111168D02*
D03*
X27849792Y4183010D02*
D03*
X27921631Y4254852D02*
D03*
X27993475Y4326694D02*
D03*
X28065317Y4398536D02*
D03*
X28137158Y4470378D02*
D03*
X28209000Y4542220D02*
D03*
X28280844Y4614062D02*
D03*
X28352686Y4685904D02*
D03*
X28424527Y4757746D02*
D03*
X28496368Y4829588D02*
D03*
X28568210Y4901430D02*
D03*
X28640054Y4973272D02*
D03*
X28711896Y5045114D02*
D03*
X28783737Y5116956D02*
D03*
X28855579Y5188799D02*
D03*
X28927420Y5260640D02*
D03*
X28999261Y5332483D02*
D03*
X29071106Y5404325D02*
D03*
X29142947Y5476167D02*
D03*
X29214789Y5548009D02*
D03*
X29286633Y5619851D02*
D03*
X29358475Y5691693D02*
D03*
X29430316Y5763535D02*
D03*
X29502158Y5835377D02*
D03*
X29573999Y5907219D02*
D03*
X29645844Y5979061D02*
D03*
X29717685Y6050903D02*
D03*
X29789526Y6122745D02*
D03*
X29861368Y6194587D02*
D03*
X29933209Y6266429D02*
D03*
X30005051Y6338271D02*
D03*
X30076895Y6410113D02*
D03*
X30148737Y6481955D02*
D03*
X30220578Y6553797D02*
D03*
X30292419Y6625640D02*
D03*
X30364261Y6697481D02*
D03*
X30436105Y6769324D02*
D03*
X30507947Y6841166D02*
D03*
X30579788Y6913008D02*
D03*
X30651630Y6984850D02*
D03*
X30723471Y7056692D02*
D03*
X30795316Y7128534D02*
D03*
X30867157Y7200376D02*
D03*
X30938998Y7272218D02*
D03*
X31010840Y7344060D02*
D03*
X31082684Y7415902D02*
D03*
X31154526Y7487744D02*
D03*
X31226367Y7559586D02*
D03*
X31298209Y7631428D02*
D03*
X31370050Y7703270D02*
D03*
X31441891Y7775112D02*
D03*
X31513736Y7846954D02*
D03*
X31585577Y7918796D02*
D03*
X31657419Y7990638D02*
D03*
X31729260Y8062480D02*
D03*
X31801102Y8134323D02*
D03*
X31870035Y8208961D02*
D03*
X31882626Y8309778D02*
D03*
Y8411378D02*
D03*
Y8512978D02*
D03*
Y8614578D02*
D03*
Y8716178D02*
D03*
Y8817778D02*
D03*
Y8919378D02*
D03*
Y9020978D02*
D03*
Y9122578D02*
D03*
Y9224178D02*
D03*
Y9325778D02*
D03*
Y9427378D02*
D03*
Y9528978D02*
D03*
Y9630578D02*
D03*
Y9732178D02*
D03*
Y9833778D02*
D03*
Y9935378D02*
D03*
Y10036978D02*
D03*
Y10138578D02*
D03*
Y10240178D02*
D03*
Y10341778D02*
D03*
Y10443378D02*
D03*
Y10544978D02*
D03*
Y10646578D02*
D03*
Y10748178D02*
D03*
Y10849778D02*
D03*
Y10951378D02*
D03*
Y11052978D02*
D03*
Y11154578D02*
D03*
Y11256178D02*
D03*
Y11357778D02*
D03*
Y11459378D02*
D03*
Y11560978D02*
D03*
Y11662578D02*
D03*
Y11764178D02*
D03*
Y11865778D02*
D03*
Y11967378D02*
D03*
Y12068978D02*
D03*
Y12170578D02*
D03*
Y12272178D02*
D03*
Y12373778D02*
D03*
Y12475378D02*
D03*
Y12576978D02*
D03*
Y12678578D02*
D03*
Y12780178D02*
D03*
Y12881778D02*
D03*
Y12983379D02*
D03*
Y13084978D02*
D03*
Y13186578D02*
D03*
Y13288177D02*
D03*
Y13389778D02*
D03*
Y13491377D02*
D03*
Y13592978D02*
D03*
Y13694579D02*
D03*
Y13796178D02*
D03*
Y13897778D02*
D03*
Y13999377D02*
D03*
Y14100978D02*
D03*
Y14202579D02*
D03*
Y14304178D02*
D03*
Y14405779D02*
D03*
Y14507378D02*
D03*
Y14608978D02*
D03*
Y14710577D02*
D03*
Y14812178D02*
D03*
Y14913779D02*
D03*
Y15015378D02*
D03*
Y15116978D02*
D03*
Y15218578D02*
D03*
Y15320178D02*
D03*
Y15421777D02*
D03*
Y15523378D02*
D03*
Y15624979D02*
D03*
Y15726578D02*
D03*
Y15828178D02*
D03*
Y15929778D02*
D03*
Y16031378D02*
D03*
Y16132977D02*
D03*
Y16234578D02*
D03*
Y16336179D02*
D03*
Y16437778D02*
D03*
Y16539378D02*
D03*
Y16640977D02*
D03*
Y16742578D02*
D03*
Y16844177D02*
D03*
Y16945778D02*
D03*
Y17047379D02*
D03*
Y17148978D02*
D03*
Y17250578D02*
D03*
Y17352177D02*
D03*
Y17453778D02*
D03*
Y17555379D02*
D03*
Y17656978D02*
D03*
Y17758578D02*
D03*
Y17860178D02*
D03*
Y17961778D02*
D03*
Y18063377D02*
D03*
Y18164978D02*
D03*
Y18266579D02*
D03*
Y18368178D02*
D03*
Y18469778D02*
D03*
Y18571378D02*
D03*
Y18672978D02*
D03*
Y18774577D02*
D03*
Y18876178D02*
D03*
Y18977779D02*
D03*
Y19079378D02*
D03*
Y19180978D02*
D03*
Y19282578D02*
D03*
Y19384178D02*
D03*
Y19485777D02*
D03*
Y19587378D02*
D03*
Y19688979D02*
D03*
Y19790578D02*
D03*
Y19892178D02*
D03*
Y19993777D02*
D03*
Y20095378D02*
D03*
Y20196979D02*
D03*
Y20298578D02*
D03*
Y20400179D02*
D03*
Y20501778D02*
D03*
Y20603378D02*
D03*
Y20704977D02*
D03*
Y20806578D02*
D03*
Y20908179D02*
D03*
Y21009778D02*
D03*
Y21111378D02*
D03*
Y21212978D02*
D03*
Y21314578D02*
D03*
Y21416177D02*
D03*
Y21517778D02*
D03*
Y21619379D02*
D03*
Y21720978D02*
D03*
Y21822578D02*
D03*
Y21924178D02*
D03*
Y22025778D02*
D03*
Y22127377D02*
D03*
Y22228978D02*
D03*
Y22330579D02*
D03*
Y22432178D02*
D03*
Y22533778D02*
D03*
Y22635378D02*
D03*
Y22736978D02*
D03*
Y22838577D02*
D03*
Y22940178D02*
D03*
Y23041779D02*
D03*
Y23143378D02*
D03*
Y23244978D02*
D03*
Y23346577D02*
D03*
Y23448178D02*
D03*
Y23549779D02*
D03*
Y23651378D02*
D03*
Y23752979D02*
D03*
Y23854578D02*
D03*
Y23956178D02*
D03*
Y24057777D02*
D03*
Y24159378D02*
D03*
Y24260979D02*
D03*
Y24362578D02*
D03*
Y24464178D02*
D03*
Y24565778D02*
D03*
Y24667378D02*
D03*
Y24768977D02*
D03*
Y24870578D02*
D03*
Y24972179D02*
D03*
Y25073778D02*
D03*
Y25175378D02*
D03*
Y25276978D02*
D03*
Y25378578D02*
D03*
Y25480177D02*
D03*
Y25581778D02*
D03*
Y25683377D02*
D03*
X31880328Y25784952D02*
D03*
X31821964Y25868115D02*
D03*
X31750122Y25939957D02*
D03*
X31678281Y26011801D02*
D03*
X31606439Y26083643D02*
D03*
X31534598Y26155484D02*
D03*
X31462756Y26227325D02*
D03*
X31365442Y26256525D02*
D03*
X31263840D02*
D03*
X31162241D02*
D03*
X31060641D02*
D03*
X30959042D02*
D03*
X30857440D02*
D03*
X30760339Y26286420D02*
D03*
%TF.MD5,e0e3ee92ab3b1384c98bad9dbb646abf*%
M02*
