%TF.GenerationSoftware,Altium Limited,Altium Designer,22.9.1 (49)*%
G04 Layer_Color=32768*
%FSLAX45Y45*%
%MOMM*%
%TF.SameCoordinates,19B3199C-24C9-4E42-A554-521A99F5088D*%
%TF.FilePolarity,Positive*%
%TF.FileFunction,Other,Mechanical_15*%
%TF.Part,Single*%
G01*
G75*
%TA.AperFunction,NonConductor*%
%ADD36C,0.10000*%
%ADD37C,0.05000*%
D36*
X23492461Y48193961D02*
Y48326041D01*
X23751540Y48193961D02*
Y48326041D01*
X23492461D02*
X23751540D01*
X23492461Y48193961D02*
X23751540D01*
X23574500Y48260001D02*
X23669501D01*
X23622000Y48212500D02*
Y48307501D01*
X23620799Y48464001D02*
Y48564001D01*
X23570799Y48514001D02*
X23670799D01*
X23480800Y48434000D02*
X23760800D01*
X23480800Y48594000D02*
X23760800D01*
Y48434000D02*
Y48594000D01*
X23480800Y48434000D02*
Y48594000D01*
X27358340Y3045460D02*
Y3177540D01*
X27099261Y3045460D02*
Y3177540D01*
Y3045460D02*
X27358340D01*
X27099261Y3177540D02*
X27358340D01*
X27181299Y3111500D02*
X27276300D01*
X27228799Y3064000D02*
Y3159000D01*
X27358340Y4696460D02*
Y4828540D01*
X27099261Y4696460D02*
Y4828540D01*
Y4696460D02*
X27358340D01*
X27099261Y4828540D02*
X27358340D01*
X27181299Y4762500D02*
X27276300D01*
X27228799Y4715000D02*
Y4810000D01*
X27358340Y11452860D02*
Y11584940D01*
X27099261Y11452860D02*
Y11584940D01*
Y11452860D02*
X27358340D01*
X27099261Y11584940D02*
X27358340D01*
X27181299Y11518900D02*
X27276300D01*
X27228799Y11471400D02*
Y11566400D01*
X27358340Y13091161D02*
Y13223241D01*
X27099261Y13091161D02*
Y13223241D01*
Y13091161D02*
X27358340D01*
X27099261Y13223241D02*
X27358340D01*
X27181299Y13157201D02*
X27276300D01*
X27228799Y13109700D02*
Y13204700D01*
X27345639Y21498560D02*
Y21630640D01*
X27086560Y21498560D02*
Y21630640D01*
Y21498560D02*
X27345639D01*
X27086560Y21630640D02*
X27345639D01*
X27168600Y21564600D02*
X27263599D01*
X27216101Y21517101D02*
Y21612100D01*
X27345639Y38287961D02*
Y38420041D01*
X27086560Y38287961D02*
Y38420041D01*
Y38287961D02*
X27345639D01*
X27086560Y38420041D02*
X27345639D01*
X27168600Y38354001D02*
X27263599D01*
X27216101Y38306500D02*
Y38401501D01*
X27358340Y36662360D02*
Y36794440D01*
X27099261Y36662360D02*
Y36794440D01*
Y36662360D02*
X27358340D01*
X27099261Y36794440D02*
X27358340D01*
X27181299Y36728400D02*
X27276300D01*
X27228799Y36680899D02*
Y36775900D01*
X27358340Y45044360D02*
Y45176440D01*
X27099261Y45044360D02*
Y45176440D01*
Y45044360D02*
X27358340D01*
X27099261Y45176440D02*
X27358340D01*
X27181299Y45110400D02*
X27276300D01*
X27228799Y45062900D02*
Y45157901D01*
X27345639Y46695361D02*
Y46827441D01*
X27086560Y46695361D02*
Y46827441D01*
Y46695361D02*
X27345639D01*
X27086560Y46827441D02*
X27345639D01*
X27168600Y46761401D02*
X27263599D01*
X27216101Y46713901D02*
Y46808899D01*
X27358340Y19847560D02*
Y19979640D01*
X27099261Y19847560D02*
Y19979640D01*
Y19847560D02*
X27358340D01*
X27099261Y19979640D02*
X27358340D01*
X27181299Y19913600D02*
X27276300D01*
X27228799Y19866100D02*
Y19961099D01*
X27358340Y28254959D02*
Y28387039D01*
X27099261Y28254959D02*
Y28387039D01*
Y28254959D02*
X27358340D01*
X27099261Y28387039D02*
X27358340D01*
X27181299Y28320999D02*
X27276300D01*
X27228799Y28273499D02*
Y28368500D01*
X27358340Y29893259D02*
Y30025339D01*
X27099261Y29893259D02*
Y30025339D01*
Y29893259D02*
X27358340D01*
X27099261Y30025339D02*
X27358340D01*
X27181299Y29959299D02*
X27276300D01*
X27228799Y29911801D02*
Y30006799D01*
X10326300Y48502100D02*
Y48602100D01*
X10276300Y48552100D02*
X10376300D01*
X10186300Y48472101D02*
X10466300D01*
X10186300Y48632101D02*
X10466300D01*
Y48472101D02*
Y48632101D01*
X10186300Y48472101D02*
Y48632101D01*
X10325100Y48263300D02*
Y48358301D01*
X10277600Y48310800D02*
X10372600D01*
X10195560Y48244760D02*
X10454640D01*
X10195560Y48376840D02*
X10454640D01*
Y48244760D02*
Y48376840D01*
X10195560Y48244760D02*
Y48376840D01*
X12604600Y48250601D02*
Y48345599D01*
X12557100Y48298099D02*
X12652100D01*
X12475060Y48232059D02*
X12734140D01*
X12475060Y48364139D02*
X12734140D01*
Y48232059D02*
Y48364139D01*
X12475060Y48232059D02*
Y48364139D01*
X12611100Y48489401D02*
Y48589401D01*
X12561100Y48539401D02*
X12661100D01*
X12471100Y48459399D02*
X12751100D01*
X12471100Y48619400D02*
X12751100D01*
Y48459399D02*
Y48619400D01*
X12471100Y48459399D02*
Y48619400D01*
X26930200Y3908700D02*
Y4003700D01*
X26882700Y3956200D02*
X26977701D01*
X26800659Y4022240D02*
X27059741D01*
X26800659Y3890160D02*
X27059741D01*
X26800659D02*
Y4022240D01*
X27059741Y3890160D02*
Y4022240D01*
X26597461Y36486996D02*
Y36619077D01*
X26856540Y36486996D02*
Y36619077D01*
X26597461D02*
X26856540D01*
X26597461Y36486996D02*
X26856540D01*
X26679501Y36553036D02*
X26774500D01*
X26726999Y36505536D02*
Y36600537D01*
X4381500Y47077271D02*
Y47172269D01*
X4334000Y47124771D02*
X4429000D01*
X4251960Y47190811D02*
X4511040D01*
X4251960Y47058731D02*
X4511040D01*
X4251960D02*
Y47190811D01*
X4511040Y47058731D02*
Y47190811D01*
X20205701Y47134271D02*
Y47229269D01*
X20158200Y47181769D02*
X20253200D01*
X20076160Y47115729D02*
X20335240D01*
X20076160Y47247809D02*
X20335240D01*
Y47115729D02*
Y47247809D01*
X20076160Y47115729D02*
Y47247809D01*
X4381500Y38677237D02*
Y38772235D01*
X4334000Y38724734D02*
X4429000D01*
X4251960Y38790775D02*
X4511040D01*
X4251960Y38658698D02*
X4511040D01*
X4251960D02*
Y38790775D01*
X4511040Y38658698D02*
Y38790775D01*
X20205701Y38734235D02*
Y38829236D01*
X20158200Y38781735D02*
X20253200D01*
X20076160Y38715695D02*
X20335240D01*
X20076160Y38847775D02*
X20335240D01*
Y38715695D02*
Y38847775D01*
X20076160Y38715695D02*
Y38847775D01*
X4381500Y30277203D02*
Y30372202D01*
X4334000Y30324701D02*
X4429000D01*
X4251960Y30390741D02*
X4511040D01*
X4251960Y30258661D02*
X4511040D01*
X4251960D02*
Y30390741D01*
X4511040Y30258661D02*
Y30390741D01*
X20205701Y30334201D02*
Y30429202D01*
X20158200Y30381702D02*
X20253200D01*
X20076160Y30315662D02*
X20335240D01*
X20076160Y30447742D02*
X20335240D01*
Y30315662D02*
Y30447742D01*
X20076160Y30315662D02*
Y30447742D01*
X4381500Y21877168D02*
Y21972168D01*
X4334000Y21924667D02*
X4429000D01*
X4251960Y21990707D02*
X4511040D01*
X4251960Y21858627D02*
X4511040D01*
X4251960D02*
Y21990707D01*
X4511040Y21858627D02*
Y21990707D01*
X20205701Y21934167D02*
Y22029169D01*
X20158200Y21981668D02*
X20253200D01*
X20076160Y21915628D02*
X20335240D01*
X20076160Y22047708D02*
X20335240D01*
Y21915628D02*
Y22047708D01*
X20076160Y21915628D02*
Y22047708D01*
X4381500Y13477135D02*
Y13572134D01*
X4334000Y13524634D02*
X4429000D01*
X4251960Y13590674D02*
X4511040D01*
X4251960Y13458594D02*
X4511040D01*
X4251960D02*
Y13590674D01*
X4511040Y13458594D02*
Y13590674D01*
X20205701Y13534134D02*
Y13629134D01*
X20158200Y13581635D02*
X20253200D01*
X20076160Y13515594D02*
X20335240D01*
X20076160Y13647675D02*
X20335240D01*
Y13515594D02*
Y13647675D01*
X20076160Y13515594D02*
Y13647675D01*
X4321300Y4845200D02*
X4416300D01*
X4368800Y4797700D02*
Y4892700D01*
X4434840Y4715660D02*
Y4974740D01*
X4302760Y4715660D02*
Y4974740D01*
X4434840D01*
X4302760Y4715660D02*
X4434840D01*
X3987800Y4658000D02*
Y4753000D01*
X3940300Y4705500D02*
X4035300D01*
X3858260Y4771540D02*
X4117340D01*
X3858260Y4639460D02*
X4117340D01*
X3858260D02*
Y4771540D01*
X4117340Y4639460D02*
Y4771540D01*
X3381500Y5016500D02*
X3476500D01*
X3429000Y4969000D02*
Y5064000D01*
X3362960Y4886960D02*
Y5146040D01*
X3495040Y4886960D02*
Y5146040D01*
X3362960Y4886960D02*
X3495040D01*
X3362960Y5146040D02*
X3495040D01*
X4381500Y5077100D02*
Y5172100D01*
X4334000Y5124600D02*
X4429000D01*
X4251960Y5190640D02*
X4511040D01*
X4251960Y5058560D02*
X4511040D01*
X4251960D02*
Y5190640D01*
X4511040Y5058560D02*
Y5190640D01*
X20205701Y5134100D02*
Y5229100D01*
X20158200Y5181600D02*
X20253200D01*
X20076160Y5115560D02*
X20335240D01*
X20076160Y5247640D02*
X20335240D01*
Y5115560D02*
Y5247640D01*
X20076160Y5115560D02*
Y5247640D01*
X26952701Y5302400D02*
X27047702D01*
X27000201Y5254900D02*
Y5349900D01*
X26934161Y5172860D02*
Y5431940D01*
X27066241Y5172860D02*
Y5431940D01*
X26934161Y5172860D02*
X27066241D01*
X26934161Y5431940D02*
X27066241D01*
X26952701Y3676800D02*
X27047702D01*
X27000201Y3629300D02*
Y3724300D01*
X26934161Y3547260D02*
Y3806340D01*
X27066241Y3547260D02*
Y3806340D01*
X26934161Y3547260D02*
X27066241D01*
X26934161Y3806340D02*
X27066241D01*
X26930200Y5521600D02*
Y5616600D01*
X26882700Y5569100D02*
X26977701D01*
X26800659Y5635140D02*
X27059741D01*
X26800659Y5503060D02*
X27059741D01*
X26800659D02*
Y5635140D01*
X27059741Y5503060D02*
Y5635140D01*
X26726999Y4556400D02*
Y4651400D01*
X26679501Y4603900D02*
X26774500D01*
X26597461Y4537860D02*
X26856540D01*
X26597461Y4669940D02*
X26856540D01*
Y4537860D02*
Y4669940D01*
X26597461Y4537860D02*
Y4669940D01*
X27019400Y4556400D02*
Y4651400D01*
X26971899Y4603900D02*
X27066901D01*
X26889859Y4537860D02*
X27148941D01*
X26889859Y4669940D02*
X27148941D01*
Y4537860D02*
Y4669940D01*
X26889859Y4537860D02*
Y4669940D01*
X26726999Y2905400D02*
Y3000400D01*
X26679501Y2952900D02*
X26774500D01*
X26597461Y2886860D02*
X26856540D01*
X26597461Y3018940D02*
X26856540D01*
Y2886860D02*
Y3018940D01*
X26597461Y2886860D02*
Y3018940D01*
X27038300Y2905400D02*
Y3000400D01*
X26990799Y2952900D02*
X27085800D01*
X26908759Y2886860D02*
X27167841D01*
X26908759Y3018940D02*
X27167841D01*
Y2886860D02*
Y3018940D01*
X26908759Y2886860D02*
Y3018940D01*
X20624802Y5521600D02*
Y5616600D01*
X20577299Y5569100D02*
X20672301D01*
X20495261Y5503060D02*
X20754340D01*
X20495261Y5635140D02*
X20754340D01*
Y5503060D02*
Y5635140D01*
X20495261Y5503060D02*
Y5635140D01*
X20209000Y5467500D02*
X20304001D01*
X20256500Y5420000D02*
Y5515000D01*
X20190460Y5337960D02*
Y5597040D01*
X20322540Y5337960D02*
Y5597040D01*
X20190460Y5337960D02*
X20322540D01*
X20190460Y5597040D02*
X20322540D01*
X21043900Y5705600D02*
Y5800600D01*
X20996400Y5753100D02*
X21091400D01*
X20914360Y5819140D02*
X21173441D01*
X20914360Y5687060D02*
X21173441D01*
X20914360D02*
Y5819140D01*
X21173441Y5687060D02*
Y5819140D01*
X3381500Y47016669D02*
X3476500D01*
X3429000Y46969171D02*
Y47064169D01*
X3362960Y46887131D02*
Y47146210D01*
X3495040Y46887131D02*
Y47146210D01*
X3362960Y46887131D02*
X3495040D01*
X3362960Y47146210D02*
X3495040D01*
X4321300Y46845370D02*
X4416300D01*
X4368800Y46797870D02*
Y46892871D01*
X4434840Y46715829D02*
Y46974911D01*
X4302760Y46715829D02*
Y46974911D01*
X4434840D01*
X4302760Y46715829D02*
X4434840D01*
X21043900Y47705771D02*
Y47800769D01*
X20996400Y47753271D02*
X21091400D01*
X20914360Y47819312D02*
X21173441D01*
X20914360Y47687231D02*
X21173441D01*
X20914360D02*
Y47819312D01*
X21173441Y47687231D02*
Y47819312D01*
X20209000Y47467670D02*
X20304001D01*
X20256500Y47420169D02*
Y47515170D01*
X20190460Y47338129D02*
Y47597211D01*
X20322540Y47338129D02*
Y47597211D01*
X20190460Y47338129D02*
X20322540D01*
X20190460Y47597211D02*
X20322540D01*
X3987800Y46658170D02*
Y46753171D01*
X3940300Y46705670D02*
X4035300D01*
X3858260Y46771710D02*
X4117340D01*
X3858260Y46639630D02*
X4117340D01*
X3858260D02*
Y46771710D01*
X4117340Y46639630D02*
Y46771710D01*
X20624802Y47521771D02*
Y47616769D01*
X20577299Y47569269D02*
X20672301D01*
X20495261Y47503229D02*
X20754340D01*
X20495261Y47635309D02*
X20754340D01*
Y47503229D02*
Y47635309D01*
X20495261Y47503229D02*
Y47635309D01*
X27038300Y44905569D02*
Y45000571D01*
X26990799Y44953070D02*
X27085800D01*
X26908759Y44887030D02*
X27167841D01*
X26908759Y45019110D02*
X27167841D01*
Y44887030D02*
Y45019110D01*
X26908759Y44887030D02*
Y45019110D01*
X26726999Y44905569D02*
Y45000571D01*
X26679501Y44953070D02*
X26774500D01*
X26597461Y44887030D02*
X26856540D01*
X26597461Y45019110D02*
X26856540D01*
Y44887030D02*
Y45019110D01*
X26597461Y44887030D02*
Y45019110D01*
X27019400Y46556570D02*
Y46651569D01*
X26971899Y46604071D02*
X27066901D01*
X26889859Y46538031D02*
X27148941D01*
X26889859Y46670111D02*
X27148941D01*
Y46538031D02*
Y46670111D01*
X26889859Y46538031D02*
Y46670111D01*
X26726999Y46556570D02*
Y46651569D01*
X26679501Y46604071D02*
X26774500D01*
X26597461Y46538031D02*
X26856540D01*
X26597461Y46670111D02*
X26856540D01*
Y46538031D02*
Y46670111D01*
X26597461Y46538031D02*
Y46670111D01*
X26930200Y45908871D02*
Y46003870D01*
X26882700Y45956369D02*
X26977701D01*
X26800659Y46022409D02*
X27059741D01*
X26800659Y45890329D02*
X27059741D01*
X26800659D02*
Y46022409D01*
X27059741Y45890329D02*
Y46022409D01*
X26930200Y47521771D02*
Y47616769D01*
X26882700Y47569269D02*
X26977701D01*
X26800659Y47635309D02*
X27059741D01*
X26800659Y47503229D02*
X27059741D01*
X26800659D02*
Y47635309D01*
X27059741Y47503229D02*
Y47635309D01*
X26952701Y45676971D02*
X27047702D01*
X27000201Y45629471D02*
Y45724469D01*
X26934161Y45547430D02*
Y45806509D01*
X27066241Y45547430D02*
Y45806509D01*
X26934161Y45547430D02*
X27066241D01*
X26934161Y45806509D02*
X27066241D01*
X26952701Y47302570D02*
X27047702D01*
X27000201Y47255069D02*
Y47350070D01*
X26934161Y47173029D02*
Y47432111D01*
X27066241Y47173029D02*
Y47432111D01*
X26934161Y47173029D02*
X27066241D01*
X26934161Y47432111D02*
X27066241D01*
X3381500Y21816568D02*
X3476500D01*
X3429000Y21769067D02*
Y21864069D01*
X3362960Y21687029D02*
Y21946107D01*
X3495040Y21687029D02*
Y21946107D01*
X3362960Y21687029D02*
X3495040D01*
X3362960Y21946107D02*
X3495040D01*
X4321300Y21645268D02*
X4416300D01*
X4368800Y21597768D02*
Y21692767D01*
X4434840Y21515729D02*
Y21774808D01*
X4302760Y21515729D02*
Y21774808D01*
X4434840D01*
X4302760Y21515729D02*
X4434840D01*
X21043900Y22505669D02*
Y22600668D01*
X20996400Y22553168D02*
X21091400D01*
X20914360Y22619208D02*
X21173441D01*
X20914360Y22487128D02*
X21173441D01*
X20914360D02*
Y22619208D01*
X21173441Y22487128D02*
Y22619208D01*
X20209000Y22267567D02*
X20304001D01*
X20256500Y22220068D02*
Y22315068D01*
X20190460Y22138028D02*
Y22397108D01*
X20322540Y22138028D02*
Y22397108D01*
X20190460Y22138028D02*
X20322540D01*
X20190460Y22397108D02*
X20322540D01*
X3987800Y21458067D02*
Y21553069D01*
X3940300Y21505568D02*
X4035300D01*
X3858260Y21571608D02*
X4117340D01*
X3858260Y21439528D02*
X4117340D01*
X3858260D02*
Y21571608D01*
X4117340Y21439528D02*
Y21571608D01*
X20624802Y22321667D02*
Y22416669D01*
X20577299Y22369168D02*
X20672301D01*
X20495261Y22303128D02*
X20754340D01*
X20495261Y22435208D02*
X20754340D01*
Y22303128D02*
Y22435208D01*
X20495261Y22303128D02*
Y22435208D01*
X27038300Y19705469D02*
Y19800468D01*
X26990799Y19752968D02*
X27085800D01*
X26908759Y19686928D02*
X27167841D01*
X26908759Y19819008D02*
X27167841D01*
Y19686928D02*
Y19819008D01*
X26908759Y19686928D02*
Y19819008D01*
X26726999Y19705469D02*
Y19800468D01*
X26679501Y19752968D02*
X26774500D01*
X26597461Y19686928D02*
X26856540D01*
X26597461Y19819008D02*
X26856540D01*
Y19686928D02*
Y19819008D01*
X26597461Y19686928D02*
Y19819008D01*
X27019400Y21356468D02*
Y21451468D01*
X26971899Y21403967D02*
X27066901D01*
X26889859Y21337927D02*
X27148941D01*
X26889859Y21470007D02*
X27148941D01*
Y21337927D02*
Y21470007D01*
X26889859Y21337927D02*
Y21470007D01*
X26726999Y21356468D02*
Y21451468D01*
X26679501Y21403967D02*
X26774500D01*
X26597461Y21337927D02*
X26856540D01*
X26597461Y21470007D02*
X26856540D01*
Y21337927D02*
Y21470007D01*
X26597461Y21337927D02*
Y21470007D01*
X26930200Y20708768D02*
Y20803767D01*
X26882700Y20756268D02*
X26977701D01*
X26800659Y20822308D02*
X27059741D01*
X26800659Y20690228D02*
X27059741D01*
X26800659D02*
Y20822308D01*
X27059741Y20690228D02*
Y20822308D01*
X26930200Y22321667D02*
Y22416669D01*
X26882700Y22369168D02*
X26977701D01*
X26800659Y22435208D02*
X27059741D01*
X26800659Y22303128D02*
X27059741D01*
X26800659D02*
Y22435208D01*
X27059741Y22303128D02*
Y22435208D01*
X26952701Y20476868D02*
X27047702D01*
X27000201Y20429369D02*
Y20524368D01*
X26934161Y20347328D02*
Y20606409D01*
X27066241Y20347328D02*
Y20606409D01*
X26934161Y20347328D02*
X27066241D01*
X26934161Y20606409D02*
X27066241D01*
X26952701Y22102467D02*
X27047702D01*
X27000201Y22054968D02*
Y22149968D01*
X26934161Y21972928D02*
Y22232008D01*
X27066241Y21972928D02*
Y22232008D01*
X26934161Y21972928D02*
X27066241D01*
X26934161Y22232008D02*
X27066241D01*
X3381500Y38616635D02*
X3476500D01*
X3429000Y38569135D02*
Y38664136D01*
X3362960Y38487097D02*
Y38746176D01*
X3495040Y38487097D02*
Y38746176D01*
X3362960Y38487097D02*
X3495040D01*
X3362960Y38746176D02*
X3495040D01*
X4321300Y38445337D02*
X4416300D01*
X4368800Y38397836D02*
Y38492838D01*
X4434840Y38315796D02*
Y38574875D01*
X4302760Y38315796D02*
Y38574875D01*
X4434840D01*
X4302760Y38315796D02*
X4434840D01*
X21043900Y39305737D02*
Y39400735D01*
X20996400Y39353235D02*
X21091400D01*
X20914360Y39419275D02*
X21173441D01*
X20914360Y39287195D02*
X21173441D01*
X20914360D02*
Y39419275D01*
X21173441Y39287195D02*
Y39419275D01*
X20209000Y39067636D02*
X20304001D01*
X20256500Y39020135D02*
Y39115137D01*
X20190460Y38938095D02*
Y39197177D01*
X20322540Y38938095D02*
Y39197177D01*
X20190460Y38938095D02*
X20322540D01*
X20190460Y39197177D02*
X20322540D01*
X3987800Y38258136D02*
Y38353137D01*
X3940300Y38305637D02*
X4035300D01*
X3858260Y38371677D02*
X4117340D01*
X3858260Y38239597D02*
X4117340D01*
X3858260D02*
Y38371677D01*
X4117340Y38239597D02*
Y38371677D01*
X20624802Y39121735D02*
Y39216736D01*
X20577299Y39169235D02*
X20672301D01*
X20495261Y39103195D02*
X20754340D01*
X20495261Y39235275D02*
X20754340D01*
Y39103195D02*
Y39235275D01*
X20495261Y39103195D02*
Y39235275D01*
X27038300Y36505536D02*
Y36600537D01*
X26990799Y36553036D02*
X27085800D01*
X26908759Y36486996D02*
X27167841D01*
X26908759Y36619077D02*
X27167841D01*
Y36486996D02*
Y36619077D01*
X26908759Y36486996D02*
Y36619077D01*
X27019400Y38156537D02*
Y38251535D01*
X26971899Y38204037D02*
X27066901D01*
X26889859Y38137997D02*
X27148941D01*
X26889859Y38270078D02*
X27148941D01*
Y38137997D02*
Y38270078D01*
X26889859Y38137997D02*
Y38270078D01*
X26726999Y38156537D02*
Y38251535D01*
X26679501Y38204037D02*
X26774500D01*
X26597461Y38137997D02*
X26856540D01*
X26597461Y38270078D02*
X26856540D01*
Y38137997D02*
Y38270078D01*
X26597461Y38137997D02*
Y38270078D01*
X26930200Y37508835D02*
Y37603836D01*
X26882700Y37556335D02*
X26977701D01*
X26800659Y37622375D02*
X27059741D01*
X26800659Y37490295D02*
X27059741D01*
X26800659D02*
Y37622375D01*
X27059741Y37490295D02*
Y37622375D01*
X26930200Y39121735D02*
Y39216736D01*
X26882700Y39169235D02*
X26977701D01*
X26800659Y39235275D02*
X27059741D01*
X26800659Y39103195D02*
X27059741D01*
X26800659D02*
Y39235275D01*
X27059741Y39103195D02*
Y39235275D01*
X26952701Y37276935D02*
X27047702D01*
X27000201Y37229437D02*
Y37324435D01*
X26934161Y37147397D02*
Y37406476D01*
X27066241Y37147397D02*
Y37406476D01*
X26934161Y37147397D02*
X27066241D01*
X26934161Y37406476D02*
X27066241D01*
X26952701Y38902536D02*
X27047702D01*
X27000201Y38855035D02*
Y38950037D01*
X26934161Y38772995D02*
Y39032077D01*
X27066241Y38772995D02*
Y39032077D01*
X26934161Y38772995D02*
X27066241D01*
X26934161Y39032077D02*
X27066241D01*
X26934161Y30632043D02*
X27066241D01*
X26934161Y30372961D02*
X27066241D01*
Y30632043D01*
X26934161Y30372961D02*
Y30632043D01*
X27000201Y30455002D02*
Y30550003D01*
X26952701Y30502502D02*
X27047702D01*
X26934161Y29006442D02*
X27066241D01*
X26934161Y28747363D02*
X27066241D01*
Y29006442D01*
X26934161Y28747363D02*
Y29006442D01*
X27000201Y28829401D02*
Y28924402D01*
X26952701Y28876901D02*
X27047702D01*
X27059741Y30703162D02*
Y30835242D01*
X26800659Y30703162D02*
Y30835242D01*
Y30703162D02*
X27059741D01*
X26800659Y30835242D02*
X27059741D01*
X26882700Y30769202D02*
X26977701D01*
X26930200Y30721701D02*
Y30816702D01*
X27059741Y29090262D02*
Y29222342D01*
X26800659Y29090262D02*
Y29222342D01*
Y29090262D02*
X27059741D01*
X26800659Y29222342D02*
X27059741D01*
X26882700Y29156302D02*
X26977701D01*
X26930200Y29108801D02*
Y29203802D01*
X26597461Y29737961D02*
Y29870041D01*
X26856540Y29737961D02*
Y29870041D01*
X26597461D02*
X26856540D01*
X26597461Y29737961D02*
X26856540D01*
X26679501Y29804001D02*
X26774500D01*
X26726999Y29756503D02*
Y29851501D01*
X26889859Y29737961D02*
Y29870041D01*
X27148941Y29737961D02*
Y29870041D01*
X26889859D02*
X27148941D01*
X26889859Y29737961D02*
X27148941D01*
X26971899Y29804001D02*
X27066901D01*
X27019400Y29756503D02*
Y29851501D01*
X26597461Y28086963D02*
Y28219043D01*
X26856540Y28086963D02*
Y28219043D01*
X26597461D02*
X26856540D01*
X26597461Y28086963D02*
X26856540D01*
X26679501Y28153003D02*
X26774500D01*
X26726999Y28105502D02*
Y28200500D01*
X26908759Y28086963D02*
Y28219043D01*
X27167841Y28086963D02*
Y28219043D01*
X26908759D02*
X27167841D01*
X26908759Y28086963D02*
X27167841D01*
X26990799Y28153003D02*
X27085800D01*
X27038300Y28105502D02*
Y28200500D01*
X20495261Y30703162D02*
Y30835242D01*
X20754340Y30703162D02*
Y30835242D01*
X20495261D02*
X20754340D01*
X20495261Y30703162D02*
X20754340D01*
X20577299Y30769202D02*
X20672301D01*
X20624802Y30721701D02*
Y30816702D01*
X4117340Y29839563D02*
Y29971643D01*
X3858260Y29839563D02*
Y29971643D01*
Y29839563D02*
X4117340D01*
X3858260Y29971643D02*
X4117340D01*
X3940300Y29905603D02*
X4035300D01*
X3987800Y29858102D02*
Y29953101D01*
X20190460Y30797141D02*
X20322540D01*
X20190460Y30538062D02*
X20322540D01*
Y30797141D01*
X20190460Y30538062D02*
Y30797141D01*
X20256500Y30620102D02*
Y30715103D01*
X20209000Y30667603D02*
X20304001D01*
X21173441Y30887161D02*
Y31019241D01*
X20914360Y30887161D02*
Y31019241D01*
Y30887161D02*
X21173441D01*
X20914360Y31019241D02*
X21173441D01*
X20996400Y30953201D02*
X21091400D01*
X21043900Y30905701D02*
Y31000702D01*
X4302760Y29915762D02*
X4434840D01*
X4302760Y30174841D02*
X4434840D01*
X4302760Y29915762D02*
Y30174841D01*
X4434840Y29915762D02*
Y30174841D01*
X4368800Y29997803D02*
Y30092801D01*
X4321300Y30045303D02*
X4416300D01*
X3362960Y30346143D02*
X3495040D01*
X3362960Y30087061D02*
X3495040D01*
Y30346143D01*
X3362960Y30087061D02*
Y30346143D01*
X3429000Y30169101D02*
Y30264102D01*
X3381500Y30216602D02*
X3476500D01*
X27059741Y12290194D02*
Y12422274D01*
X26800659Y12290194D02*
Y12422274D01*
Y12290194D02*
X27059741D01*
X26800659Y12422274D02*
X27059741D01*
X26882700Y12356234D02*
X26977701D01*
X26930200Y12308734D02*
Y12403734D01*
X27059741Y13903094D02*
Y14035175D01*
X26800659Y13903094D02*
Y14035175D01*
Y13903094D02*
X27059741D01*
X26800659Y14035175D02*
X27059741D01*
X26882700Y13969135D02*
X26977701D01*
X26930200Y13921634D02*
Y14016634D01*
X20495261Y13903094D02*
Y14035175D01*
X20754340Y13903094D02*
Y14035175D01*
X20495261D02*
X20754340D01*
X20495261Y13903094D02*
X20754340D01*
X20577299Y13969135D02*
X20672301D01*
X20624802Y13921634D02*
Y14016634D01*
X20190460Y13997073D02*
X20322540D01*
X20190460Y13737994D02*
X20322540D01*
Y13997073D01*
X20190460Y13737994D02*
Y13997073D01*
X20256500Y13820033D02*
Y13915034D01*
X20209000Y13867534D02*
X20304001D01*
X21173441Y14087094D02*
Y14219174D01*
X20914360Y14087094D02*
Y14219174D01*
Y14087094D02*
X21173441D01*
X20914360Y14219174D02*
X21173441D01*
X20996400Y14153134D02*
X21091400D01*
X21043900Y14105634D02*
Y14200633D01*
X26597461Y12937894D02*
Y13069974D01*
X26856540Y12937894D02*
Y13069974D01*
X26597461D02*
X26856540D01*
X26597461Y12937894D02*
X26856540D01*
X26679501Y13003934D02*
X26774500D01*
X26726999Y12956435D02*
Y13051434D01*
X26889859Y12937894D02*
Y13069974D01*
X27148941Y12937894D02*
Y13069974D01*
X26889859D02*
X27148941D01*
X26889859Y12937894D02*
X27148941D01*
X26971899Y13003934D02*
X27066901D01*
X27019400Y12956435D02*
Y13051434D01*
X26934161Y13831973D02*
X27066241D01*
X26934161Y13572894D02*
X27066241D01*
Y13831973D01*
X26934161Y13572894D02*
Y13831973D01*
X27000201Y13654935D02*
Y13749934D01*
X26952701Y13702434D02*
X27047702D01*
X26934161Y12206374D02*
X27066241D01*
X26934161Y11947294D02*
X27066241D01*
Y12206374D01*
X26934161Y11947294D02*
Y12206374D01*
X27000201Y12029334D02*
Y12124334D01*
X26952701Y12076834D02*
X27047702D01*
X26908759Y11286894D02*
Y11418974D01*
X27167841Y11286894D02*
Y11418974D01*
X26908759D02*
X27167841D01*
X26908759Y11286894D02*
X27167841D01*
X26990799Y11352934D02*
X27085800D01*
X27038300Y11305434D02*
Y11400434D01*
X26597461Y11286894D02*
Y11418974D01*
X26856540Y11286894D02*
Y11418974D01*
X26597461D02*
X26856540D01*
X26597461Y11286894D02*
X26856540D01*
X26679501Y11352934D02*
X26774500D01*
X26726999Y11305434D02*
Y11400434D01*
X4117340Y13039494D02*
Y13171574D01*
X3858260Y13039494D02*
Y13171574D01*
Y13039494D02*
X4117340D01*
X3858260Y13171574D02*
X4117340D01*
X3940300Y13105534D02*
X4035300D01*
X3987800Y13058034D02*
Y13153033D01*
X3362960Y13546074D02*
X3495040D01*
X3362960Y13286993D02*
X3495040D01*
Y13546074D01*
X3362960Y13286993D02*
Y13546074D01*
X3429000Y13369034D02*
Y13464034D01*
X3381500Y13416534D02*
X3476500D01*
X4302760Y13115694D02*
X4434840D01*
X4302760Y13374774D02*
X4434840D01*
X4302760Y13115694D02*
Y13374774D01*
X4434840Y13115694D02*
Y13374774D01*
X4368800Y13197734D02*
Y13292734D01*
X4321300Y13245235D02*
X4416300D01*
X31036261Y25587959D02*
Y25720041D01*
X31295340Y25587959D02*
Y25720041D01*
X31036261D02*
X31295340D01*
X31036261Y25587959D02*
X31295340D01*
X31118301Y25654001D02*
X31213300D01*
X31165799Y25606500D02*
Y25701501D01*
X31023560Y25079961D02*
Y25212041D01*
X31282639Y25079961D02*
Y25212041D01*
X31023560D02*
X31282639D01*
X31023560Y25079961D02*
X31282639D01*
X31105600Y25146001D02*
X31200601D01*
X31153101Y25098500D02*
Y25193500D01*
X31023560Y24571960D02*
Y24704041D01*
X31282639Y24571960D02*
Y24704041D01*
X31023560D02*
X31282639D01*
X31023560Y24571960D02*
X31282639D01*
X31105600Y24638000D02*
X31200601D01*
X31153101Y24590500D02*
Y24685500D01*
X31030060Y24063960D02*
Y24196040D01*
X31289139Y24063960D02*
Y24196040D01*
X31030060D02*
X31289139D01*
X31030060Y24063960D02*
X31289139D01*
X31112100Y24130000D02*
X31207101D01*
X31159601Y24082500D02*
Y24177499D01*
D37*
X3764100Y4853000D02*
X4186100D01*
X3764100D02*
Y5193000D01*
X4186100D01*
Y4853000D02*
Y5193000D01*
X26802200Y5071400D02*
X27068201D01*
Y4709400D02*
Y5071400D01*
X26802200Y4709400D02*
X27068201D01*
X26802200D02*
Y5071400D01*
X26803699Y3451400D02*
X27069699D01*
Y3089400D02*
Y3451400D01*
X26803699Y3089400D02*
X27069699D01*
X26803699D02*
Y3451400D01*
X20412300Y5459700D02*
X20834300D01*
Y5119700D02*
Y5459700D01*
X20412300Y5119700D02*
X20834300D01*
X20412300D02*
Y5459700D01*
X3764100Y46853171D02*
X4186100D01*
X3764100D02*
Y47193170D01*
X4186100D01*
Y46853171D02*
Y47193170D01*
X20412300Y47459869D02*
X20834300D01*
Y47119870D02*
Y47459869D01*
X20412300Y47119870D02*
X20834300D01*
X20412300D02*
Y47459869D01*
X26803699Y45451569D02*
X27069699D01*
Y45089569D02*
Y45451569D01*
X26803699Y45089569D02*
X27069699D01*
X26803699D02*
Y45451569D01*
X26802200Y47071570D02*
X27068201D01*
Y46709570D02*
Y47071570D01*
X26802200Y46709570D02*
X27068201D01*
X26802200D02*
Y47071570D01*
X3764100Y21653069D02*
X4186100D01*
X3764100D02*
Y21993068D01*
X4186100D01*
Y21653069D02*
Y21993068D01*
X20412300Y22259769D02*
X20834300D01*
Y21919768D02*
Y22259769D01*
X20412300Y21919768D02*
X20834300D01*
X20412300D02*
Y22259769D01*
X26803699Y20251468D02*
X27069699D01*
Y19889468D02*
Y20251468D01*
X26803699Y19889468D02*
X27069699D01*
X26803699D02*
Y20251468D01*
X26802200Y21871468D02*
X27068201D01*
Y21509468D02*
Y21871468D01*
X26802200Y21509468D02*
X27068201D01*
X26802200D02*
Y21871468D01*
X3764100Y38453137D02*
X4186100D01*
X3764100D02*
Y38793137D01*
X4186100D01*
Y38453137D02*
Y38793137D01*
X20412300Y39059836D02*
X20834300D01*
Y38719836D02*
Y39059836D01*
X20412300Y38719836D02*
X20834300D01*
X20412300D02*
Y39059836D01*
X26803699Y37051535D02*
X27069699D01*
Y36689536D02*
Y37051535D01*
X26803699Y36689536D02*
X27069699D01*
X26803699D02*
Y37051535D01*
X26802200Y38671536D02*
X27068201D01*
Y38309537D02*
Y38671536D01*
X26802200Y38309537D02*
X27068201D01*
X26802200D02*
Y38671536D01*
Y29909503D02*
Y30271503D01*
Y29909503D02*
X27068201D01*
Y30271503D01*
X26802200D02*
X27068201D01*
X26803699Y28289502D02*
Y28651501D01*
Y28289502D02*
X27069699D01*
Y28651501D01*
X26803699D02*
X27069699D01*
X20412300Y30319803D02*
Y30659802D01*
Y30319803D02*
X20834300D01*
Y30659802D01*
X20412300D02*
X20834300D01*
X4186100Y30053101D02*
Y30393103D01*
X3764100D02*
X4186100D01*
X3764100Y30053101D02*
Y30393103D01*
Y30053101D02*
X4186100D01*
X26803699Y11489434D02*
Y11851434D01*
Y11489434D02*
X27069699D01*
Y11851434D01*
X26803699D02*
X27069699D01*
X26802200Y13109435D02*
Y13471434D01*
Y13109435D02*
X27068201D01*
Y13471434D01*
X26802200D02*
X27068201D01*
X20412300Y13519734D02*
Y13859734D01*
Y13519734D02*
X20834300D01*
Y13859734D01*
X20412300D02*
X20834300D01*
X4186100Y13253033D02*
Y13593034D01*
X3764100D02*
X4186100D01*
X3764100Y13253033D02*
Y13593034D01*
Y13253033D02*
X4186100D01*
%TF.MD5,f1540f941689562f3b94275b9df4206f*%
M02*
