%TF.GenerationSoftware,Altium Limited,Altium Designer,22.9.1 (49)*%
G04 Layer_Color=255*
%FSLAX45Y45*%
%MOMM*%
%TF.SameCoordinates,19B3199C-24C9-4E42-A554-521A99F5088D*%
%TF.FilePolarity,Positive*%
%TF.FileFunction,Pads,Top*%
%TF.Part,Single*%
G01*
G75*
%TA.AperFunction,SMDPad,CuDef*%
%ADD10R,0.80000X0.90000*%
%ADD11R,1.10000X1.40000*%
%ADD12R,0.90000X0.80000*%
G04:AMPARAMS|DCode=13|XSize=1.21mm|YSize=0.59mm|CornerRadius=0.1475mm|HoleSize=0mm|Usage=FLASHONLY|Rotation=180.000|XOffset=0mm|YOffset=0mm|HoleType=Round|Shape=RoundedRectangle|*
%AMROUNDEDRECTD13*
21,1,1.21000,0.29500,0,0,180.0*
21,1,0.91500,0.59000,0,0,180.0*
1,1,0.29500,-0.45750,0.14750*
1,1,0.29500,0.45750,0.14750*
1,1,0.29500,0.45750,-0.14750*
1,1,0.29500,-0.45750,-0.14750*
%
%ADD13ROUNDEDRECTD13*%
G04:AMPARAMS|DCode=14|XSize=1.19mm|YSize=0.4mm|CornerRadius=0.05mm|HoleSize=0mm|Usage=FLASHONLY|Rotation=270.000|XOffset=0mm|YOffset=0mm|HoleType=Round|Shape=RoundedRectangle|*
%AMROUNDEDRECTD14*
21,1,1.19000,0.30000,0,0,270.0*
21,1,1.09000,0.40000,0,0,270.0*
1,1,0.10000,-0.15000,-0.54500*
1,1,0.10000,-0.15000,0.54500*
1,1,0.10000,0.15000,0.54500*
1,1,0.10000,0.15000,-0.54500*
%
%ADD14ROUNDEDRECTD14*%
%TA.AperFunction,ComponentPad*%
%ADD19R,1.50000X1.50000*%
%ADD20C,1.50000*%
%TA.AperFunction,WasherPad*%
%ADD21C,3.04800*%
%TA.AperFunction,ComponentPad*%
%ADD22R,1.50000X1.50000*%
D10*
X23552000Y48260001D02*
D03*
X23692000D02*
D03*
X27298801Y3111500D02*
D03*
X27158801D02*
D03*
X27298801Y4762500D02*
D03*
X27158801D02*
D03*
X27298801Y11518900D02*
D03*
X27158801D02*
D03*
X27298801Y13157201D02*
D03*
X27158801D02*
D03*
X27286099Y21564600D02*
D03*
X27146100D02*
D03*
X27286099Y38354001D02*
D03*
X27146100D02*
D03*
X27298801Y36728400D02*
D03*
X27158801D02*
D03*
X27298801Y45110400D02*
D03*
X27158801D02*
D03*
X27286099Y46761401D02*
D03*
X27146100D02*
D03*
X27298801Y19913600D02*
D03*
X27158801D02*
D03*
X27298801Y28320999D02*
D03*
X27158801D02*
D03*
X27298801Y29959299D02*
D03*
X27158801D02*
D03*
X10395100Y48310800D02*
D03*
X10255100D02*
D03*
X12674600Y48298099D02*
D03*
X12534600D02*
D03*
X26860199Y3956200D02*
D03*
X27000201D02*
D03*
X26657001Y36553036D02*
D03*
X26797000D02*
D03*
X4311500Y47124771D02*
D03*
X4451500D02*
D03*
X20275700Y47181769D02*
D03*
X20135699D02*
D03*
X4311500Y38724734D02*
D03*
X4451500D02*
D03*
X20275700Y38781735D02*
D03*
X20135699D02*
D03*
X4311500Y30324701D02*
D03*
X4451500D02*
D03*
X20275700Y30381702D02*
D03*
X20135699D02*
D03*
X4311500Y21924667D02*
D03*
X4451500D02*
D03*
X20275700Y21981668D02*
D03*
X20135699D02*
D03*
X4311500Y13524634D02*
D03*
X4451500D02*
D03*
X20275700Y13581635D02*
D03*
X20135699D02*
D03*
X3917800Y4705500D02*
D03*
X4057800D02*
D03*
X4311500Y5124600D02*
D03*
X4451500D02*
D03*
X20275700Y5181600D02*
D03*
X20135699D02*
D03*
X26860199Y5569100D02*
D03*
X27000201D02*
D03*
X26797000Y4603900D02*
D03*
X26657001D02*
D03*
X27089401D02*
D03*
X26949399D02*
D03*
X26797000Y2952900D02*
D03*
X26657001D02*
D03*
X27108301Y2952900D02*
D03*
X26968301D02*
D03*
X20694800Y5569100D02*
D03*
X20554800D02*
D03*
X20973900Y5753100D02*
D03*
X21113901D02*
D03*
X20973900Y47753271D02*
D03*
X21113901D02*
D03*
X3917800Y46705670D02*
D03*
X4057800D02*
D03*
X20694800Y47569269D02*
D03*
X20554800D02*
D03*
X27108301Y44953070D02*
D03*
X26968301D02*
D03*
X26797000Y44953070D02*
D03*
X26657001D02*
D03*
X27089401Y46604071D02*
D03*
X26949399D02*
D03*
X26797000D02*
D03*
X26657001D02*
D03*
X26860199Y45956369D02*
D03*
X27000201D02*
D03*
X26860199Y47569269D02*
D03*
X27000201D02*
D03*
X20973900Y22553168D02*
D03*
X21113901D02*
D03*
X3917800Y21505568D02*
D03*
X4057800D02*
D03*
X20694800Y22369168D02*
D03*
X20554800D02*
D03*
X27108301Y19752968D02*
D03*
X26968301D02*
D03*
X26797000Y19752968D02*
D03*
X26657001D02*
D03*
X27089401Y21403967D02*
D03*
X26949399D02*
D03*
X26797000D02*
D03*
X26657001D02*
D03*
X26860199Y20756268D02*
D03*
X27000201D02*
D03*
X26860199Y22369168D02*
D03*
X27000201D02*
D03*
X20973900Y39353235D02*
D03*
X21113901D02*
D03*
X3917800Y38305637D02*
D03*
X4057800D02*
D03*
X20694800Y39169235D02*
D03*
X20554800D02*
D03*
X27108301Y36553036D02*
D03*
X26968301D02*
D03*
X27089401Y38204037D02*
D03*
X26949399D02*
D03*
X26797000D02*
D03*
X26657001D02*
D03*
X26860199Y37556335D02*
D03*
X27000201D02*
D03*
X26860199Y39169235D02*
D03*
X27000201D02*
D03*
Y30769202D02*
D03*
X26860199D02*
D03*
X27000201Y29156302D02*
D03*
X26860199D02*
D03*
X26657001Y29804001D02*
D03*
X26797000D02*
D03*
X26949399D02*
D03*
X27089401D02*
D03*
X26657001Y28153003D02*
D03*
X26797000D02*
D03*
X26968301Y28153003D02*
D03*
X27108301D02*
D03*
X20554800Y30769202D02*
D03*
X20694800D02*
D03*
X4057800Y29905603D02*
D03*
X3917800D02*
D03*
X21113901Y30953201D02*
D03*
X20973900D02*
D03*
X27000201Y12356234D02*
D03*
X26860199D02*
D03*
X27000201Y13969135D02*
D03*
X26860199D02*
D03*
X20554800Y13969135D02*
D03*
X20694800D02*
D03*
X21113901Y14153134D02*
D03*
X20973900D02*
D03*
X26657001Y13003934D02*
D03*
X26797000D02*
D03*
X26949399D02*
D03*
X27089401D02*
D03*
X26968301Y11352934D02*
D03*
X27108301D02*
D03*
X26657001Y11352934D02*
D03*
X26797000D02*
D03*
X4057800Y13105534D02*
D03*
X3917800D02*
D03*
X31095801Y25654001D02*
D03*
X31235800D02*
D03*
X31083099Y25146001D02*
D03*
X31223099D02*
D03*
X31083099Y24638000D02*
D03*
X31223099D02*
D03*
X31089600Y24130000D02*
D03*
X31229599D02*
D03*
D11*
X23695799Y48514001D02*
D03*
X23545799D02*
D03*
X10401300Y48552100D02*
D03*
X10251300D02*
D03*
X12686100Y48539401D02*
D03*
X12536100D02*
D03*
D12*
X4368800Y4915200D02*
D03*
Y4775200D02*
D03*
X3429000Y4946500D02*
D03*
Y5086500D02*
D03*
X27000201Y5232400D02*
D03*
Y5372400D02*
D03*
Y3606800D02*
D03*
Y3746800D02*
D03*
X20256500Y5397500D02*
D03*
Y5537500D02*
D03*
X3429000Y46946671D02*
D03*
Y47086670D02*
D03*
X4368800Y46915369D02*
D03*
Y46775369D02*
D03*
X20256500Y47397672D02*
D03*
Y47537671D02*
D03*
X27000201Y45606970D02*
D03*
Y45746970D02*
D03*
Y47232571D02*
D03*
Y47372571D02*
D03*
X3429000Y21746568D02*
D03*
Y21886568D02*
D03*
X4368800Y21715268D02*
D03*
Y21575269D02*
D03*
X20256500Y22197568D02*
D03*
Y22337569D02*
D03*
X27000201Y20406868D02*
D03*
Y20546867D02*
D03*
Y22032468D02*
D03*
Y22172469D02*
D03*
X3429000Y38546637D02*
D03*
Y38686636D02*
D03*
X4368800Y38515335D02*
D03*
Y38375336D02*
D03*
X20256500Y38997635D02*
D03*
Y39137637D02*
D03*
X27000201Y37206937D02*
D03*
Y37346936D02*
D03*
Y38832535D02*
D03*
Y38972537D02*
D03*
Y30572501D02*
D03*
Y30432501D02*
D03*
Y28946902D02*
D03*
Y28806903D02*
D03*
X20256500Y30737601D02*
D03*
Y30597601D02*
D03*
X4368800Y29975302D02*
D03*
Y30115302D02*
D03*
X3429000Y30286603D02*
D03*
Y30146603D02*
D03*
X20256500Y13937534D02*
D03*
Y13797534D02*
D03*
X27000201Y13772433D02*
D03*
Y13632434D02*
D03*
Y12146834D02*
D03*
Y12006834D02*
D03*
X3429000Y13486534D02*
D03*
Y13346535D02*
D03*
X4368800Y13175233D02*
D03*
Y13315234D02*
D03*
D13*
X4100600Y4928000D02*
D03*
Y5023000D02*
D03*
Y5118000D02*
D03*
X3849600D02*
D03*
Y4928000D02*
D03*
X20497800Y5384700D02*
D03*
Y5289700D02*
D03*
Y5194700D02*
D03*
X20748801D02*
D03*
Y5384700D02*
D03*
X4100600Y46928171D02*
D03*
Y47023169D02*
D03*
Y47118170D02*
D03*
X3849600D02*
D03*
Y46928171D02*
D03*
X20497800Y47384869D02*
D03*
Y47289871D02*
D03*
Y47194870D02*
D03*
X20748801D02*
D03*
Y47384869D02*
D03*
X4100600Y21728069D02*
D03*
Y21823068D02*
D03*
Y21918068D02*
D03*
X3849600D02*
D03*
Y21728069D02*
D03*
X20497800Y22184769D02*
D03*
Y22089767D02*
D03*
Y21994768D02*
D03*
X20748801D02*
D03*
Y22184769D02*
D03*
X4100600Y38528137D02*
D03*
Y38623135D02*
D03*
Y38718137D02*
D03*
X3849600D02*
D03*
Y38528137D02*
D03*
X20497800Y38984836D02*
D03*
Y38889835D02*
D03*
Y38794836D02*
D03*
X20748801D02*
D03*
Y38984836D02*
D03*
Y30584802D02*
D03*
Y30394803D02*
D03*
X20497800D02*
D03*
Y30489801D02*
D03*
Y30584802D02*
D03*
X3849600Y30128101D02*
D03*
Y30318103D02*
D03*
X4100600D02*
D03*
Y30223102D02*
D03*
Y30128101D02*
D03*
X20748801Y13784734D02*
D03*
Y13594734D02*
D03*
X20497800D02*
D03*
Y13689734D02*
D03*
Y13784734D02*
D03*
X3849600Y13328033D02*
D03*
Y13518034D02*
D03*
X4100600D02*
D03*
Y13423035D02*
D03*
Y13328033D02*
D03*
D14*
X27000201Y4986400D02*
D03*
X26935199D02*
D03*
X26870200D02*
D03*
Y4794400D02*
D03*
X27000201D02*
D03*
X27001700Y3366400D02*
D03*
X26936700D02*
D03*
X26871701D02*
D03*
Y3174400D02*
D03*
X27001700D02*
D03*
Y45366571D02*
D03*
X26936700D02*
D03*
X26871701D02*
D03*
Y45174570D02*
D03*
X27001700D02*
D03*
X27000201Y46986569D02*
D03*
X26935199D02*
D03*
X26870200D02*
D03*
Y46794571D02*
D03*
X27000201D02*
D03*
X27001700Y20166467D02*
D03*
X26936700D02*
D03*
X26871701D02*
D03*
Y19974467D02*
D03*
X27001700D02*
D03*
X27000201Y21786469D02*
D03*
X26935199D02*
D03*
X26870200D02*
D03*
Y21594469D02*
D03*
X27000201D02*
D03*
X27001700Y36966537D02*
D03*
X26936700D02*
D03*
X26871701D02*
D03*
Y36774536D02*
D03*
X27001700D02*
D03*
X27000201Y38586536D02*
D03*
X26935199D02*
D03*
X26870200D02*
D03*
Y38394537D02*
D03*
X27000201D02*
D03*
Y29994501D02*
D03*
X26870200D02*
D03*
Y30186502D02*
D03*
X26935199D02*
D03*
X27000201D02*
D03*
X27001700Y28374503D02*
D03*
X26871701D02*
D03*
Y28566501D02*
D03*
X26936700D02*
D03*
X27001700D02*
D03*
Y11574434D02*
D03*
X26871701D02*
D03*
Y11766434D02*
D03*
X26936700D02*
D03*
X27001700D02*
D03*
X27000201Y13194434D02*
D03*
X26870200D02*
D03*
Y13386433D02*
D03*
X26935199D02*
D03*
X27000201D02*
D03*
D19*
X23114000Y48882300D02*
D03*
X24130000D02*
D03*
X9867900D02*
D03*
X10883900D02*
D03*
X13169901D02*
D03*
X12153900D02*
D03*
X21602699Y6083300D02*
D03*
X26314401Y5511800D02*
D03*
Y3898900D02*
D03*
X20688300Y6083300D02*
D03*
X21602699Y48083469D02*
D03*
Y14483334D02*
D03*
Y22883368D02*
D03*
Y31283401D02*
D03*
Y39683435D02*
D03*
X26314401Y45899069D02*
D03*
Y47511969D02*
D03*
Y20698969D02*
D03*
Y22311868D02*
D03*
Y37499036D02*
D03*
Y39111935D02*
D03*
Y30711902D02*
D03*
Y29099002D02*
D03*
X20688300Y31283401D02*
D03*
X26314401Y13911835D02*
D03*
Y12298934D02*
D03*
X29210001Y27939999D02*
D03*
X20688300Y14483334D02*
D03*
X30734000Y22098000D02*
D03*
X20688300Y22883368D02*
D03*
Y39683435D02*
D03*
Y48083469D02*
D03*
D20*
X23114000Y49136301D02*
D03*
X24130000D02*
D03*
X9867900D02*
D03*
X10883900D02*
D03*
X13169901D02*
D03*
X12153900D02*
D03*
X3048000Y12730734D02*
D03*
Y4330700D02*
D03*
X21602699Y6337300D02*
D03*
X26314401Y5003800D02*
D03*
Y5257800D02*
D03*
Y3390900D02*
D03*
Y3644900D02*
D03*
X20688300Y6337300D02*
D03*
X3048000Y4940300D02*
D03*
Y46330869D02*
D03*
X21602699Y48337469D02*
D03*
Y14737334D02*
D03*
Y23137367D02*
D03*
Y31537402D02*
D03*
Y39937436D02*
D03*
X3048000Y21130768D02*
D03*
Y29530801D02*
D03*
Y37930835D02*
D03*
X26314401Y45391071D02*
D03*
Y45645071D02*
D03*
Y47003970D02*
D03*
Y47257971D02*
D03*
Y20190968D02*
D03*
Y20444968D02*
D03*
Y21803868D02*
D03*
Y22057867D02*
D03*
Y36991037D02*
D03*
Y37245035D02*
D03*
Y38603937D02*
D03*
Y38857935D02*
D03*
Y30457901D02*
D03*
Y30203903D02*
D03*
Y28845001D02*
D03*
Y28591003D02*
D03*
X20688300Y31537402D02*
D03*
X3048000Y30140402D02*
D03*
X26314401Y13657834D02*
D03*
Y13403835D02*
D03*
Y12044934D02*
D03*
Y11790934D02*
D03*
X29210001Y22098000D02*
D03*
Y22352000D02*
D03*
Y22606000D02*
D03*
Y22860001D02*
D03*
Y23114000D02*
D03*
Y23367999D02*
D03*
Y23622000D02*
D03*
Y23875999D02*
D03*
Y24130000D02*
D03*
Y24384000D02*
D03*
Y24638000D02*
D03*
Y24892000D02*
D03*
Y25146001D02*
D03*
Y25400000D02*
D03*
Y25654001D02*
D03*
Y25907999D02*
D03*
Y26162000D02*
D03*
Y26416000D02*
D03*
Y26670001D02*
D03*
Y26923999D02*
D03*
Y27178000D02*
D03*
Y27432001D02*
D03*
Y27685999D02*
D03*
X3048000Y13340334D02*
D03*
X20688300Y14737334D02*
D03*
X30734000Y27939999D02*
D03*
Y27685999D02*
D03*
Y27432001D02*
D03*
Y27178000D02*
D03*
Y26923999D02*
D03*
Y26670001D02*
D03*
Y26416000D02*
D03*
Y26162000D02*
D03*
Y25907999D02*
D03*
Y25654001D02*
D03*
Y25400000D02*
D03*
Y25146001D02*
D03*
Y24892000D02*
D03*
Y24638000D02*
D03*
Y24384000D02*
D03*
Y24130000D02*
D03*
Y23875999D02*
D03*
Y23622000D02*
D03*
Y23367999D02*
D03*
Y23114000D02*
D03*
Y22860001D02*
D03*
Y22606000D02*
D03*
Y22352000D02*
D03*
X20688300Y23137367D02*
D03*
Y39937436D02*
D03*
Y48337469D02*
D03*
X3048000Y21740369D02*
D03*
Y38540436D02*
D03*
Y46940469D02*
D03*
D21*
X32766000Y18288000D02*
D03*
X2794000Y33782001D02*
D03*
X17780000Y2794000D02*
D03*
Y49276001D02*
D03*
X32766000Y33782001D02*
D03*
X2794000Y18288000D02*
D03*
X32766000Y2794000D02*
D03*
Y49276001D02*
D03*
X2794000D02*
D03*
Y2794000D02*
D03*
D22*
Y12730734D02*
D03*
Y4330700D02*
D03*
Y4940300D02*
D03*
Y46330869D02*
D03*
Y21130768D02*
D03*
Y29530801D02*
D03*
Y37930835D02*
D03*
Y30140402D02*
D03*
Y13340334D02*
D03*
Y21740369D02*
D03*
Y38540436D02*
D03*
Y46940469D02*
D03*
%TF.MD5,a46154c771c5d20ee9dac263c38d85f7*%
M02*
