%TF.GenerationSoftware,Altium Limited,Altium Designer,22.7.1 (60)*%
G04 Layer_Color=16711935*
%FSLAX45Y45*%
%MOMM*%
%TF.SameCoordinates,8DF05635-03F1-411C-9BC5-7CD19558B576*%
%TF.FilePolarity,Positive*%
%TF.FileFunction,Other,Mechanical_13*%
%TF.Part,Single*%
G01*
G75*
%TA.AperFunction,NonConductor*%
%ADD26C,0.20000*%
%ADD28C,0.12700*%
%ADD42C,0.10000*%
D26*
X5434400Y4127200D02*
G03*
X5434400Y4127200I-10000J0D01*
G01*
X4038660Y4750010D02*
G03*
X4038660Y4750010I-10000J0D01*
G01*
X5445900Y5449500D02*
G03*
X5445900Y5449500I-10000J0D01*
G01*
D28*
X2565900Y4318000D02*
X2946900D01*
Y4953000D01*
X2565900D02*
X2946900D01*
X2565900Y4135500D02*
Y4318000D01*
Y4953000D01*
Y5135500D01*
X1613900Y4952000D02*
X2565900Y4953000D01*
X1613900Y4319000D02*
Y4952000D01*
Y4319000D02*
X2565900Y4318000D01*
X2946900D01*
Y4953000D01*
X2565900D02*
X2946900D01*
X2565900Y4135500D02*
Y4318000D01*
Y4953000D01*
Y5135500D01*
X1613900Y4952000D02*
X2565900Y4953000D01*
X1613900Y4319000D02*
Y4952000D01*
Y4319000D02*
X2565900Y4318000D01*
X5259400Y3854700D02*
Y3979700D01*
Y3854700D02*
X5459400D01*
Y3979700D01*
X5259400D02*
X5459400D01*
X3863660Y4477510D02*
Y4602510D01*
Y4477510D02*
X4063660D01*
Y4602510D01*
X3863660D02*
X4063660D01*
X5270900Y5302000D02*
X5470900D01*
Y5177000D02*
Y5302000D01*
X5270900Y5177000D02*
X5470900D01*
X5270900D02*
Y5302000D01*
D42*
X8689626Y5570098D02*
G03*
X8689626Y5174102I-150000J-197998D01*
G01*
X8671700Y3880998D02*
G03*
X8671700Y3485002I-150000J-197998D01*
G01*
X7449698Y3787000D02*
G03*
X7053702Y3787000I-197998J150000D01*
G01*
X7736700Y3612002D02*
G03*
X7736700Y4007998I150000J197998D01*
G01*
X7462398Y5476100D02*
G03*
X7066402Y5476100I-197998J150000D01*
G01*
X7736700Y5301102D02*
G03*
X7736700Y5697098I150000J197998D01*
G01*
X9066400Y5388100D02*
Y5483100D01*
X8891400Y5388100D02*
Y5483100D01*
Y5388100D02*
X9066400D01*
X8891400Y5483100D02*
X9066400D01*
X9120000Y5197600D02*
Y5292600D01*
X9295000Y5197600D02*
Y5292600D01*
X9120000D02*
X9295000D01*
X9120000Y5197600D02*
X9295000D01*
X9031100Y3508500D02*
Y3603500D01*
X9206100Y3508500D02*
Y3603500D01*
X9031100D02*
X9206100D01*
X9031100Y3508500D02*
X9206100D01*
X9193400Y3787900D02*
Y3882900D01*
X9018400Y3787900D02*
Y3882900D01*
Y3787900D02*
X9193400D01*
X9018400Y3882900D02*
X9193400D01*
X5602100Y3857500D02*
X5777100D01*
X5602100Y3762500D02*
X5777100D01*
X5602100D02*
Y3857500D01*
X5777100Y3762500D02*
Y3857500D01*
X5639000Y5185400D02*
X5814000D01*
X5639000Y5090400D02*
X5814000D01*
X5639000D02*
Y5185400D01*
X5814000Y5090400D02*
Y5185400D01*
X7426200Y3265300D02*
Y3440300D01*
X7331200Y3265300D02*
Y3440300D01*
X7426200D01*
X7331200Y3265300D02*
X7426200D01*
X6905500Y5144900D02*
Y5319900D01*
X6810500Y5144900D02*
Y5319900D01*
X6905500D01*
X6810500Y5144900D02*
X6905500D01*
X6073337Y5440076D02*
X6248337D01*
X6073337Y5535076D02*
X6248337D01*
Y5440076D02*
Y5535076D01*
X6073337Y5440076D02*
Y5535076D01*
X6524083Y5470005D02*
Y5645005D01*
X6429083Y5470005D02*
Y5645005D01*
X6524083D01*
X6429083Y5470005D02*
X6524083D01*
X6668900Y5578600D02*
X6843900D01*
X6668900Y5673600D02*
X6843900D01*
Y5578600D02*
Y5673600D01*
X6668900Y5578600D02*
Y5673600D01*
X8962900Y5081400D02*
Y5256400D01*
X8867900Y5081400D02*
Y5256400D01*
X8962900D01*
X8867900Y5081400D02*
X8962900D01*
X8535800Y5826000D02*
X8710800D01*
X8535800Y5731000D02*
X8710800D01*
X8535800D02*
Y5826000D01*
X8710800Y5731000D02*
Y5826000D01*
X8594600Y5976900D02*
Y6151900D01*
X8499600Y5976900D02*
Y6151900D01*
X8594600D01*
X8499600Y5976900D02*
X8594600D01*
X8689625Y5174102D02*
Y5570098D01*
X7438900Y4941700D02*
Y5116700D01*
X7343900Y4941700D02*
Y5116700D01*
X7438900D01*
X7343900Y4941700D02*
X7438900D01*
X7667500D02*
Y5116700D01*
X7572500Y4941700D02*
Y5116700D01*
X7667500D01*
X7572500Y4941700D02*
X7667500D01*
X6059300Y3749800D02*
X6234300D01*
X6059300Y3844800D02*
X6234300D01*
Y3749800D02*
Y3844800D01*
X6059300Y3749800D02*
Y3844800D01*
X7629400Y3265300D02*
Y3440300D01*
X7534400Y3265300D02*
Y3440300D01*
X7629400D01*
X7534400Y3265300D02*
X7629400D01*
X8671700Y3485002D02*
Y3880998D01*
X8569200Y4306700D02*
Y4481700D01*
X8474200Y4306700D02*
Y4481700D01*
X8569200D01*
X8474200Y4306700D02*
X8569200D01*
X8903159Y3396989D02*
Y3571989D01*
X8808159Y3396989D02*
Y3571989D01*
X8903159D01*
X8808159Y3396989D02*
X8903159D01*
X3151000Y4588000D02*
X3326000D01*
X3151000Y4683000D02*
X3326000D01*
Y4588000D02*
Y4683000D01*
X3151000Y4588000D02*
Y4683000D01*
X8504316Y4146347D02*
X8679316D01*
X8504316Y4051346D02*
X8679316D01*
X8504316D02*
Y4146347D01*
X8679316Y4051346D02*
Y4146347D01*
X6630800Y3889500D02*
X6805800D01*
X6630800Y3984500D02*
X6805800D01*
Y3889500D02*
Y3984500D01*
X6630800Y3889500D02*
Y3984500D01*
X6892800Y3417700D02*
Y3592700D01*
X6797800Y3417700D02*
Y3592700D01*
X6892800D01*
X6797800Y3417700D02*
X6892800D01*
X6486400Y3779500D02*
Y3954500D01*
X6391400Y3779500D02*
Y3954500D01*
X6486400D01*
X6391400Y3779500D02*
X6486400D01*
X7053702Y3787000D02*
X7449698D01*
X4116500Y3489200D02*
X4291500D01*
X4116500Y3394200D02*
X4291500D01*
X4116500D02*
Y3489200D01*
X4291500Y3394200D02*
Y3489200D01*
X3716300Y3489200D02*
X3891300D01*
X3716300Y3394200D02*
X3891300D01*
X3716300D02*
Y3489200D01*
X3891300Y3394200D02*
Y3489200D01*
X4916300Y3965700D02*
X5091300D01*
X4916300Y4060700D02*
X5091300D01*
Y3965700D02*
Y4060700D01*
X4916300Y3965700D02*
Y4060700D01*
X5032500Y3335000D02*
X5127500D01*
X5032500Y3510000D02*
X5127500D01*
X5032500Y3335000D02*
Y3510000D01*
X5127500Y3335000D02*
Y3510000D01*
Y3652800D02*
Y3827800D01*
X5032500Y3652800D02*
Y3827800D01*
X5127500D01*
X5032500Y3652800D02*
X5127500D01*
X5284600Y3356100D02*
X5459600D01*
X5284600Y3451100D02*
X5459600D01*
Y3356100D02*
Y3451100D01*
X5284600Y3356100D02*
Y3451100D01*
Y3546600D02*
X5459600D01*
X5284600Y3641600D02*
X5459600D01*
Y3546600D02*
Y3641600D01*
X5284600Y3546600D02*
Y3641600D01*
X4694500Y5482200D02*
Y5657200D01*
X4599500Y5482200D02*
Y5657200D01*
X4694500D01*
X4599500Y5482200D02*
X4694500D01*
X4694500Y5170900D02*
Y5345900D01*
X4599500Y5170900D02*
Y5345900D01*
X4694500D01*
X4599500Y5170900D02*
X4694500D01*
X4940500Y5090400D02*
X5115500D01*
X4940500Y5185400D02*
X5115500D01*
Y5090400D02*
Y5185400D01*
X4940500Y5090400D02*
Y5185400D01*
X5283400Y4684000D02*
X5458400D01*
X5283400Y4779000D02*
X5458400D01*
Y4684000D02*
Y4779000D01*
X5283400Y4684000D02*
Y4779000D01*
Y4887200D02*
X5458400D01*
X5283400Y4982200D02*
X5458400D01*
Y4887200D02*
Y4982200D01*
X5283400Y4887200D02*
Y4982200D01*
X3638907Y3942830D02*
X3733907D01*
X3638907Y4117830D02*
X3733907D01*
X3638907Y3942830D02*
Y4117830D01*
X3733907Y3942830D02*
Y4117830D01*
X3640100Y5057900D02*
X3815100D01*
X3640100Y5152900D02*
X3815100D01*
Y5057900D02*
Y5152900D01*
X3640100Y5057900D02*
Y5152900D01*
X3265600Y5057900D02*
X3440600D01*
X3265600Y5152900D02*
X3440600D01*
Y5057900D02*
Y5152900D01*
X3265600Y5057900D02*
Y5152900D01*
X3733907Y4285572D02*
Y4460572D01*
X3638907Y4285572D02*
Y4460572D01*
X3733907D01*
X3638907Y4285572D02*
X3733907D01*
X3875200Y4156200D02*
X4050200D01*
X3875200Y4251200D02*
X4050200D01*
Y4156200D02*
Y4251200D01*
X3875200Y4156200D02*
Y4251200D01*
Y3965700D02*
X4050200D01*
X3875200Y4060700D02*
X4050200D01*
Y3965700D02*
Y4060700D01*
X3875200Y3965700D02*
Y4060700D01*
X3532300Y4588000D02*
X3707300D01*
X3532300Y4683000D02*
X3707300D01*
Y4588000D02*
Y4683000D01*
X3532300Y4588000D02*
Y4683000D01*
X4205400Y4479800D02*
X4380400D01*
X4205400Y4384800D02*
X4380400D01*
X4205400D02*
Y4479800D01*
X4380400Y4384800D02*
Y4479800D01*
X7736700Y3612002D02*
Y4007998D01*
X7066402Y5476100D02*
X7462398D01*
X7736700Y5301102D02*
Y5697098D01*
X4940500Y5293600D02*
Y5388600D01*
X5115500Y5293600D02*
Y5388600D01*
X4940500D02*
X5115500D01*
X4940500Y5293600D02*
X5115500D01*
%TF.MD5,80b24edaa80805cc73ee746f3a394f00*%
M02*
