%TF.GenerationSoftware,Altium Limited,Altium Designer,22.7.1 (60)*%
G04 Layer_Color=2752767*
%FSLAX45Y45*%
%MOMM*%
%TF.SameCoordinates,8DF05635-03F1-411C-9BC5-7CD19558B576*%
%TF.FilePolarity,Positive*%
%TF.FileFunction,Drawing*%
%TF.Part,Single*%
G01*
G75*
%TA.AperFunction,NonConductor*%
%ADD28C,0.12700*%
%ADD56C,0.16933*%
D28*
X9677400Y5461000D02*
Y5562600D01*
X9779000D01*
Y5461000D01*
X9677400D01*
Y5207000D02*
Y5308600D01*
X9779000D01*
Y5207000D01*
X9677400D01*
Y4953000D02*
Y5054600D01*
X9779000D01*
Y4953000D01*
X9677400D01*
Y3848100D02*
Y3949700D01*
X9779000D01*
Y3848100D01*
X9677400D01*
Y3594100D02*
Y3695700D01*
X9779000D01*
Y3594100D01*
X9677400D01*
Y3340100D02*
Y3441700D01*
X9779000D01*
Y3340100D01*
X9677400D01*
X8488826Y5194300D02*
Y5295900D01*
X8590426D01*
Y5194300D01*
X8488826D01*
Y5321300D02*
Y5422900D01*
X8590426D01*
Y5321300D01*
X8488826D01*
Y5448300D02*
Y5549900D01*
X8590426D01*
Y5448300D01*
X8488826D01*
X8470900Y3505200D02*
Y3606800D01*
X8572500D01*
Y3505200D01*
X8470900D01*
Y3632200D02*
Y3733800D01*
X8572500D01*
Y3632200D01*
X8470900D01*
Y3759200D02*
Y3860800D01*
X8572500D01*
Y3759200D01*
X8470900D01*
X7073900Y3886200D02*
Y3987800D01*
X7175500D01*
Y3886200D01*
X7073900D01*
X7200900D02*
Y3987800D01*
X7302500D01*
Y3886200D01*
X7200900D01*
X7327900D02*
Y3987800D01*
X7429500D01*
Y3886200D01*
X7327900D01*
X7835900Y3632200D02*
Y3733800D01*
X7937500D01*
Y3632200D01*
X7835900D01*
Y3759200D02*
Y3860800D01*
X7937500D01*
Y3759200D01*
X7835900D01*
Y3886200D02*
Y3987800D01*
X7937500D01*
Y3886200D01*
X7835900D01*
X7340600Y5575300D02*
Y5676900D01*
X7442200D01*
Y5575300D01*
X7340600D01*
X7213600D02*
Y5676900D01*
X7315200D01*
Y5575300D01*
X7213600D01*
X7086600D02*
Y5676900D01*
X7188200D01*
Y5575300D01*
X7086600D01*
X7835900Y5321300D02*
Y5422900D01*
X7937500D01*
Y5321300D01*
X7835900D01*
Y5448300D02*
Y5549900D01*
X7937500D01*
Y5448300D01*
X7835900D01*
Y5575300D02*
Y5676900D01*
X7937500D01*
Y5575300D01*
X7835900D01*
X4965700Y6032500D02*
Y6134100D01*
X5067300D01*
Y6032500D01*
X4965700D01*
Y6286500D02*
Y6388100D01*
X5067300D01*
Y6286500D01*
X4965700D01*
X4051300Y6032500D02*
Y6134100D01*
X4152900D01*
Y6032500D01*
X4051300D01*
Y6286500D02*
Y6388100D01*
X4152900D01*
Y6286500D01*
X4051300D01*
X3733800Y3644900D02*
X3683000Y3746500D01*
X3784600D01*
X3733800Y3644900D01*
X4465181Y4377060D02*
X4490581Y4427860D01*
X4465181Y4478660D01*
X4515981Y4453260D01*
X4566781Y4478660D01*
X4541381Y4427860D01*
X4566781Y4377060D01*
X4515981Y4402460D01*
X4465181Y4377060D01*
X4414381Y5139060D02*
X4439781Y5189860D01*
X4414381Y5240660D01*
X4465181Y5215260D01*
X4515981Y5240660D01*
X4490581Y5189860D01*
X4515981Y5139060D01*
X4465181Y5164460D01*
X4414381Y5139060D01*
X9474200Y5067300D02*
X9499600Y5118100D01*
X9474200Y5168900D01*
X9525000Y5143500D01*
X9575800Y5168900D01*
X9550400Y5118100D01*
X9575800Y5067300D01*
X9525000Y5092700D01*
X9474200Y5067300D01*
X8720060Y5055311D02*
X8745460Y5106111D01*
X8720060Y5156911D01*
X8770860Y5131511D01*
X8821660Y5156911D01*
X8796260Y5106111D01*
X8821660Y5055311D01*
X8770860Y5080711D01*
X8720060Y5055311D01*
X9334500Y5067300D02*
X9359900Y5118100D01*
X9334500Y5168900D01*
X9385300Y5143500D01*
X9436100Y5168900D01*
X9410700Y5118100D01*
X9436100Y5067300D01*
X9385300Y5092700D01*
X9334500Y5067300D01*
X9177260Y5055311D02*
X9202660Y5106111D01*
X9177260Y5156911D01*
X9228060Y5131511D01*
X9278860Y5156911D01*
X9253460Y5106111D01*
X9278860Y5055311D01*
X9228060Y5080711D01*
X9177260Y5055311D01*
X9024860D02*
X9050260Y5106111D01*
X9024860Y5156911D01*
X9075660Y5131511D01*
X9126460Y5156911D01*
X9101060Y5106111D01*
X9126460Y5055311D01*
X9075660Y5080711D01*
X9024860Y5055311D01*
X9448800Y5321300D02*
X9474200Y5372100D01*
X9448800Y5422900D01*
X9499600Y5397500D01*
X9550400Y5422900D01*
X9525000Y5372100D01*
X9550400Y5321300D01*
X9499600Y5346700D01*
X9448800Y5321300D01*
X9296400D02*
X9321800Y5372100D01*
X9296400Y5422900D01*
X9347200Y5397500D01*
X9398000Y5422900D01*
X9372600Y5372100D01*
X9398000Y5321300D01*
X9347200Y5346700D01*
X9296400Y5321300D01*
X9144000D02*
X9169400Y5372100D01*
X9144000Y5422900D01*
X9194800Y5397500D01*
X9245600Y5422900D01*
X9220200Y5372100D01*
X9245600Y5321300D01*
X9194800Y5346700D01*
X9144000Y5321300D01*
X8910560Y5283911D02*
X8935960Y5334711D01*
X8910560Y5385511D01*
X8961360Y5360111D01*
X9012160Y5385511D01*
X8986760Y5334711D01*
X9012160Y5283911D01*
X8961360Y5309311D01*
X8910560Y5283911D01*
X8758160D02*
X8783560Y5334711D01*
X8758160Y5385511D01*
X8808960Y5360111D01*
X8859760Y5385511D01*
X8834360Y5334711D01*
X8859760Y5283911D01*
X8808960Y5309311D01*
X8758160Y5283911D01*
X9423400Y5588000D02*
X9448800Y5638800D01*
X9423400Y5689600D01*
X9474200Y5664200D01*
X9525000Y5689600D01*
X9499600Y5638800D01*
X9525000Y5588000D01*
X9474200Y5613400D01*
X9423400Y5588000D01*
X9283700D02*
X9309100Y5638800D01*
X9283700Y5689600D01*
X9334500Y5664200D01*
X9385300Y5689600D01*
X9359900Y5638800D01*
X9385300Y5588000D01*
X9334500Y5613400D01*
X9283700Y5588000D01*
X9144000Y5600700D02*
X9169400Y5651500D01*
X9144000Y5702300D01*
X9194800Y5676900D01*
X9245600Y5702300D01*
X9220200Y5651500D01*
X9245600Y5600700D01*
X9194800Y5626100D01*
X9144000Y5600700D01*
X9004300Y5575300D02*
X9029700Y5626100D01*
X9004300Y5676900D01*
X9055100Y5651500D01*
X9105900Y5676900D01*
X9080500Y5626100D01*
X9105900Y5575300D01*
X9055100Y5600700D01*
X9004300Y5575300D01*
X8859760Y5512511D02*
X8885160Y5563311D01*
X8859760Y5614111D01*
X8910560Y5588711D01*
X8961360Y5614111D01*
X8935960Y5563311D01*
X8961360Y5512511D01*
X8910560Y5537911D01*
X8859760Y5512511D01*
X8732760D02*
X8758160Y5563311D01*
X8732760Y5614111D01*
X8783560Y5588711D01*
X8834360Y5614111D01*
X8808960Y5563311D01*
X8834360Y5512511D01*
X8783560Y5537911D01*
X8732760Y5512511D01*
X8669260Y3378911D02*
X8694660Y3429711D01*
X8669260Y3480511D01*
X8720060Y3455111D01*
X8770860Y3480511D01*
X8745460Y3429711D01*
X8770860Y3378911D01*
X8720060Y3404311D01*
X8669260Y3378911D01*
X8783560Y3937711D02*
X8808960Y3988511D01*
X8783560Y4039311D01*
X8834360Y4013911D01*
X8885160Y4039311D01*
X8859760Y3988511D01*
X8885160Y3937711D01*
X8834360Y3963111D01*
X8783560Y3937711D01*
X8681960Y3861511D02*
X8707360Y3912311D01*
X8681960Y3963111D01*
X8732760Y3937711D01*
X8783560Y3963111D01*
X8758160Y3912311D01*
X8783560Y3861511D01*
X8732760Y3886911D01*
X8681960Y3861511D01*
X9316960Y3366211D02*
X9342360Y3417011D01*
X9316960Y3467811D01*
X9367760Y3442411D01*
X9418560Y3467811D01*
X9393160Y3417011D01*
X9418560Y3366211D01*
X9367760Y3391611D01*
X9316960Y3366211D01*
X9164560D02*
X9189960Y3417011D01*
X9164560Y3467811D01*
X9215360Y3442411D01*
X9266160Y3467811D01*
X9240760Y3417011D01*
X9266160Y3366211D01*
X9215360Y3391611D01*
X9164560Y3366211D01*
X8999460D02*
X9024860Y3417011D01*
X8999460Y3467811D01*
X9050260Y3442411D01*
X9101060Y3467811D01*
X9075660Y3417011D01*
X9101060Y3366211D01*
X9050260Y3391611D01*
X8999460Y3366211D01*
X9245600Y3937000D02*
X9271000Y3987800D01*
X9245600Y4038600D01*
X9296400Y4013200D01*
X9347200Y4038600D01*
X9321800Y3987800D01*
X9347200Y3937000D01*
X9296400Y3962400D01*
X9245600Y3937000D01*
X9393160Y3645611D02*
X9418560Y3696411D01*
X9393160Y3747211D01*
X9443960Y3721811D01*
X9494760Y3747211D01*
X9469360Y3696411D01*
X9494760Y3645611D01*
X9443960Y3671011D01*
X9393160Y3645611D01*
X9228060D02*
X9253460Y3696411D01*
X9228060Y3747211D01*
X9278860Y3721811D01*
X9329660Y3747211D01*
X9304260Y3696411D01*
X9329660Y3645611D01*
X9278860Y3671011D01*
X9228060Y3645611D01*
X9050260D02*
X9075660Y3696411D01*
X9050260Y3747211D01*
X9101060Y3721811D01*
X9151860Y3747211D01*
X9126460Y3696411D01*
X9151860Y3645611D01*
X9101060Y3671011D01*
X9050260Y3645611D01*
X8872460D02*
X8897860Y3696411D01*
X8872460Y3747211D01*
X8923260Y3721811D01*
X8974060Y3747211D01*
X8948660Y3696411D01*
X8974060Y3645611D01*
X8923260Y3671011D01*
X8872460Y3645611D01*
X9410700Y3937000D02*
X9436100Y3987800D01*
X9410700Y4038600D01*
X9461500Y4013200D01*
X9512300Y4038600D01*
X9486900Y3987800D01*
X9512300Y3937000D01*
X9461500Y3962400D01*
X9410700Y3937000D01*
X9080500D02*
X9105900Y3987800D01*
X9080500Y4038600D01*
X9131300Y4013200D01*
X9182100Y4038600D01*
X9156700Y3987800D01*
X9182100Y3937000D01*
X9131300Y3962400D01*
X9080500Y3937000D01*
X3492800Y3911600D02*
X3518200Y3962400D01*
X3492800Y4013200D01*
X3543600Y3987800D01*
X3594400Y4013200D01*
X3569000Y3962400D01*
X3594400Y3911600D01*
X3543600Y3937000D01*
X3492800Y3911600D01*
X8783644Y5725496D02*
X8809044Y5776296D01*
X8783644Y5827096D01*
X8834444Y5801696D01*
X8885244Y5827096D01*
X8859844Y5776296D01*
X8885244Y5725496D01*
X8834444Y5750896D01*
X8783644Y5725496D01*
X6967544Y3375996D02*
X6992944Y3426796D01*
X6967544Y3477596D01*
X7018344Y3452196D01*
X7069144Y3477596D01*
X7043744Y3426796D01*
X7069144Y3375996D01*
X7018344Y3401396D01*
X6967544Y3375996D01*
X6611944D02*
X6637344Y3426796D01*
X6611944Y3477596D01*
X6662744Y3452196D01*
X6713544Y3477596D01*
X6688144Y3426796D01*
X6713544Y3375996D01*
X6662744Y3401396D01*
X6611944Y3375996D01*
X6802444Y3236296D02*
X6827844Y3287096D01*
X6802444Y3337896D01*
X6853244Y3312496D01*
X6904044Y3337896D01*
X6878644Y3287096D01*
X6904044Y3236296D01*
X6853244Y3261696D01*
X6802444Y3236296D01*
X7704144D02*
X7729544Y3287096D01*
X7704144Y3337896D01*
X7754944Y3312496D01*
X7805744Y3337896D01*
X7780344Y3287096D01*
X7805744Y3236296D01*
X7754944Y3261696D01*
X7704144Y3236296D01*
X7158044D02*
X7183444Y3287096D01*
X7158044Y3337896D01*
X7208844Y3312496D01*
X7259644Y3337896D01*
X7234244Y3287096D01*
X7259644Y3236296D01*
X7208844Y3261696D01*
X7158044Y3236296D01*
X7335844Y3083896D02*
X7361244Y3134696D01*
X7335844Y3185496D01*
X7386644Y3160096D01*
X7437444Y3185496D01*
X7412044Y3134696D01*
X7437444Y3083896D01*
X7386644Y3109296D01*
X7335844Y3083896D01*
X7526344D02*
X7551744Y3134696D01*
X7526344Y3185496D01*
X7577144Y3160096D01*
X7627944Y3185496D01*
X7602544Y3134696D01*
X7627944Y3083896D01*
X7577144Y3109296D01*
X7526344Y3083896D01*
X8923344Y3236296D02*
X8948744Y3287096D01*
X8923344Y3337896D01*
X8974144Y3312496D01*
X9024944Y3337896D01*
X8999544Y3287096D01*
X9024944Y3236296D01*
X8974144Y3261696D01*
X8923344Y3236296D01*
X8745544Y4049096D02*
X8770944Y4099896D01*
X8745544Y4150696D01*
X8796344Y4125296D01*
X8847144Y4150696D01*
X8821744Y4099896D01*
X8847144Y4049096D01*
X8796344Y4074496D01*
X8745544Y4049096D01*
X8915400Y3937000D02*
X8940800Y3987800D01*
X8915400Y4038600D01*
X8966200Y4013200D01*
X9017000Y4038600D01*
X8991600Y3987800D01*
X9017000Y3937000D01*
X8966200Y3962400D01*
X8915400Y3937000D01*
X8936044Y4925396D02*
X8961444Y4976196D01*
X8936044Y5026996D01*
X8986844Y5001596D01*
X9037644Y5026996D01*
X9012244Y4976196D01*
X9037644Y4925396D01*
X8986844Y4950796D01*
X8936044Y4925396D01*
X7340600Y4762500D02*
X7366000Y4813300D01*
X7340600Y4864100D01*
X7391400Y4838700D01*
X7442200Y4864100D01*
X7416800Y4813300D01*
X7442200Y4762500D01*
X7391400Y4787900D01*
X7340600Y4762500D01*
X7569200D02*
X7594600Y4813300D01*
X7569200Y4864100D01*
X7620000Y4838700D01*
X7670800Y4864100D01*
X7645400Y4813300D01*
X7670800Y4762500D01*
X7620000Y4787900D01*
X7569200Y4762500D01*
X7716844Y4912696D02*
X7742244Y4963496D01*
X7716844Y5014296D01*
X7767644Y4988896D01*
X7818444Y5014296D01*
X7793044Y4963496D01*
X7818444Y4912696D01*
X7767644Y4938096D01*
X7716844Y4912696D01*
X7183444D02*
X7208844Y4963496D01*
X7183444Y5014296D01*
X7234244Y4988896D01*
X7285044Y5014296D01*
X7259644Y4963496D01*
X7285044Y4912696D01*
X7234244Y4938096D01*
X7183444Y4912696D01*
X6967544Y5115896D02*
X6992944Y5166696D01*
X6967544Y5217496D01*
X7018344Y5192096D01*
X7069144Y5217496D01*
X7043744Y5166696D01*
X7069144Y5115896D01*
X7018344Y5141296D01*
X6967544Y5115896D01*
X6815144Y4976196D02*
X6840544Y5026996D01*
X6815144Y5077796D01*
X6865944Y5052396D01*
X6916744Y5077796D01*
X6891344Y5026996D01*
X6916744Y4976196D01*
X6865944Y5001596D01*
X6815144Y4976196D01*
X6662744Y5115896D02*
X6688144Y5166696D01*
X6662744Y5217496D01*
X6713544Y5192096D01*
X6764344Y5217496D01*
X6738944Y5166696D01*
X6764344Y5115896D01*
X6713544Y5141296D01*
X6662744Y5115896D01*
X5169200Y5435600D02*
X5194600Y5486400D01*
X5169200Y5537200D01*
X5220000Y5511800D01*
X5270800Y5537200D01*
X5245400Y5486400D01*
X5270800Y5435600D01*
X5220000Y5461000D01*
X5169200Y5435600D01*
X5465831Y5436133D02*
X5491231Y5486933D01*
X5465831Y5537733D01*
X5516631Y5512333D01*
X5567431Y5537733D01*
X5542031Y5486933D01*
X5567431Y5436133D01*
X5516631Y5461533D01*
X5465831Y5436133D01*
X5313431D02*
X5338831Y5486933D01*
X5313431Y5537733D01*
X5364231Y5512333D01*
X5415031Y5537733D01*
X5389631Y5486933D01*
X5415031Y5436133D01*
X5364231Y5461533D01*
X5313431Y5436133D01*
X4406900Y5003800D02*
X4432300Y5054600D01*
X4406900Y5105400D01*
X4457700Y5080000D01*
X4508500Y5105400D01*
X4483100Y5054600D01*
X4508500Y5003800D01*
X4457700Y5029200D01*
X4406900Y5003800D01*
X4584700Y4991100D02*
X4610100Y5041900D01*
X4584700Y5092700D01*
X4635500Y5067300D01*
X4686300Y5092700D01*
X4660900Y5041900D01*
X4686300Y4991100D01*
X4635500Y5016500D01*
X4584700Y4991100D01*
X5859531Y5080533D02*
X5884931Y5131333D01*
X5859531Y5182133D01*
X5910331Y5156733D01*
X5961131Y5182133D01*
X5935731Y5131333D01*
X5961131Y5080533D01*
X5910331Y5105933D01*
X5859531Y5080533D01*
X5313131Y4102633D02*
X5338531Y4153433D01*
X5313131Y4204233D01*
X5363931Y4178833D01*
X5414731Y4204233D01*
X5389331Y4153433D01*
X5414731Y4102633D01*
X5363931Y4128033D01*
X5313131Y4102633D01*
X5706831Y3645433D02*
X5732231Y3696233D01*
X5706831Y3747033D01*
X5757631Y3721633D01*
X5808431Y3747033D01*
X5783031Y3696233D01*
X5808431Y3645433D01*
X5757631Y3670833D01*
X5706831Y3645433D01*
X5689300Y3873500D02*
X5714700Y3924300D01*
X5689300Y3975100D01*
X5740100Y3949700D01*
X5790900Y3975100D01*
X5765500Y3924300D01*
X5790900Y3873500D01*
X5740100Y3898900D01*
X5689300Y3873500D01*
X4868631Y3302533D02*
X4894031Y3353333D01*
X4868631Y3404133D01*
X4919431Y3378733D01*
X4970231Y3404133D01*
X4944831Y3353333D01*
X4970231Y3302533D01*
X4919431Y3327933D01*
X4868631Y3302533D01*
X5041900Y3149600D02*
X5067300Y3200400D01*
X5041900Y3251200D01*
X5092700Y3225800D01*
X5143500Y3251200D01*
X5118100Y3200400D01*
X5143500Y3149600D01*
X5092700Y3175000D01*
X5041900Y3149600D01*
X4373631Y3391433D02*
X4399031Y3442233D01*
X4373631Y3493033D01*
X4424431Y3467633D01*
X4475231Y3493033D01*
X4449831Y3442233D01*
X4475231Y3391433D01*
X4424431Y3416833D01*
X4373631Y3391433D01*
X3098800Y5041900D02*
X3124200Y5092700D01*
X3098800Y5143500D01*
X3149600Y5118100D01*
X3200400Y5143500D01*
X3175000Y5092700D01*
X3200400Y5041900D01*
X3149600Y5067300D01*
X3098800Y5041900D01*
X2628900Y4140200D02*
X2654300Y4191000D01*
X2628900Y4241800D01*
X2679700Y4216400D01*
X2730500Y4241800D01*
X2705100Y4191000D01*
X2730500Y4140200D01*
X2679700Y4165600D01*
X2628900Y4140200D01*
X2794000D02*
X2819400Y4191000D01*
X2794000Y4241800D01*
X2844800Y4216400D01*
X2895600Y4241800D01*
X2870200Y4191000D01*
X2895600Y4140200D01*
X2844800Y4165600D01*
X2794000Y4140200D01*
X2959100D02*
X2984500Y4191000D01*
X2959100Y4241800D01*
X3009900Y4216400D01*
X3060700Y4241800D01*
X3035300Y4191000D01*
X3060700Y4140200D01*
X3009900Y4165600D01*
X2959100Y4140200D01*
Y5041900D02*
X2984500Y5092700D01*
X2959100Y5143500D01*
X3009900Y5118100D01*
X3060700Y5143500D01*
X3035300Y5092700D01*
X3060700Y5041900D01*
X3009900Y5067300D01*
X2959100Y5041900D01*
X2806700D02*
X2832100Y5092700D01*
X2806700Y5143500D01*
X2857500Y5118100D01*
X2908300Y5143500D01*
X2882900Y5092700D01*
X2908300Y5041900D01*
X2857500Y5067300D01*
X2806700Y5041900D01*
X2641600D02*
X2667000Y5092700D01*
X2641600Y5143500D01*
X2692400Y5118100D01*
X2743200Y5143500D01*
X2717800Y5092700D01*
X2743200Y5041900D01*
X2692400Y5067300D01*
X2641600Y5041900D01*
X5512100Y4991100D02*
X5537500Y5041900D01*
X5512100Y5092700D01*
X5562900Y5067300D01*
X5613700Y5092700D01*
X5588300Y5041900D01*
X5613700Y4991100D01*
X5562900Y5016500D01*
X5512100Y4991100D01*
X5613700Y5588000D02*
X5562900Y5689600D01*
X5664500D01*
X5613700Y5588000D01*
X4077000Y3594100D02*
X4102400Y3644900D01*
X4077000Y3695700D01*
X4127800Y3670300D01*
X4178600Y3695700D01*
X4153200Y3644900D01*
X4178600Y3594100D01*
X4127800Y3619500D01*
X4077000Y3594100D01*
X4699000Y3975100D02*
X4724400Y4025900D01*
X4699000Y4076700D01*
X4749800Y4051300D01*
X4800600Y4076700D01*
X4775200Y4025900D01*
X4800600Y3975100D01*
X4749800Y4000500D01*
X4699000Y3975100D01*
X5499100Y3644900D02*
X5524500Y3695700D01*
X5499100Y3746500D01*
X5549900Y3721100D01*
X5600700Y3746500D01*
X5575300Y3695700D01*
X5600700Y3644900D01*
X5549900Y3670300D01*
X5499100Y3644900D01*
X4089700Y4268470D02*
X4115100Y4319270D01*
X4089700Y4370070D01*
X4140500Y4344670D01*
X4191300Y4370070D01*
X4165900Y4319270D01*
X4191300Y4268470D01*
X4140500Y4293870D01*
X4089700Y4268470D01*
X6540500Y4318000D02*
X6489700Y4419600D01*
X6591300D01*
X6540500Y4318000D01*
X8216900D02*
X8166100Y4419600D01*
X8267700D01*
X8216900Y4318000D01*
D56*
X2844800Y6477000D02*
G03*
X2844800Y6477000I-50800J0D01*
G01*
Y2794000D02*
G03*
X2844800Y2794000I-50800J0D01*
G01*
X9956800D02*
G03*
X9956800Y2794000I-50800J0D01*
G01*
Y6477000D02*
G03*
X9956800Y6477000I-50800J0D01*
G01*
%TF.MD5,240ed367287ea9e7c15936d5187c5bd6*%
M02*
