%TF.GenerationSoftware,Altium Limited,Altium Designer,22.7.1 (60)*%
G04 Layer_Color=255*
%FSLAX45Y45*%
%MOMM*%
%TF.SameCoordinates,8DF05635-03F1-411C-9BC5-7CD19558B576*%
%TF.FilePolarity,Positive*%
%TF.FileFunction,Pads,Bot*%
%TF.Part,Single*%
G01*
G75*
%TA.AperFunction,ConnectorPad*%
%ADD12R,4.20000X1.35000*%
%TA.AperFunction,ComponentPad*%
%ADD16R,1.50000X1.50000*%
%ADD17C,1.50000*%
%TA.AperFunction,WasherPad*%
%ADD18C,3.04800*%
%TA.AperFunction,ComponentPad*%
%ADD19O,2.00000X1.00000*%
%ADD20O,2.00000X1.00000*%
%ADD21O,1.00000X2.00000*%
%ADD22O,1.00000X2.00000*%
D12*
X2775900Y4353000D02*
D03*
Y4918000D02*
D03*
D16*
X9728200Y5511800D02*
D03*
Y3898900D02*
D03*
X5016500Y6083300D02*
D03*
X4102100D02*
D03*
D17*
X9728200Y5257800D02*
D03*
Y5003800D02*
D03*
Y3644900D02*
D03*
Y3390900D02*
D03*
X5016500Y6337300D02*
D03*
X4102100D02*
D03*
D18*
X2794000Y6477000D02*
D03*
Y2794000D02*
D03*
X9906000D02*
D03*
Y6477000D02*
D03*
D19*
X8539626Y5245100D02*
D03*
Y5499100D02*
D03*
X8521700Y3556000D02*
D03*
Y3810000D02*
D03*
X7886700Y3683000D02*
D03*
Y3937000D02*
D03*
Y5372100D02*
D03*
Y5626100D02*
D03*
D20*
X8539626Y5372100D02*
D03*
X8521700Y3683000D02*
D03*
X7886700Y3810000D02*
D03*
Y5499100D02*
D03*
D21*
X7124700Y3937000D02*
D03*
X7378700D02*
D03*
X7391400Y5626100D02*
D03*
X7137400D02*
D03*
D22*
X7251700Y3937000D02*
D03*
X7264400Y5626100D02*
D03*
%TF.MD5,6a7c9a630502de1cdfd580b9e47be35b*%
M02*
