%TF.GenerationSoftware,Altium Limited,Altium Designer,22.7.1 (60)*%
G04 Layer_Physical_Order=1*
G04 Layer_Color=255*
%FSLAX45Y45*%
%MOMM*%
%TF.SameCoordinates,8DF05635-03F1-411C-9BC5-7CD19558B576*%
%TF.FilePolarity,Positive*%
%TF.FileFunction,Copper,L1,Top,Signal*%
%TF.Part,Single*%
G01*
G75*
%TA.AperFunction,SMDPad,CuDef*%
%ADD10R,0.80000X0.90000*%
%ADD11R,0.90000X0.80000*%
%TA.AperFunction,ConnectorPad*%
%ADD12R,4.20000X1.35000*%
%ADD13R,3.60000X1.27000*%
%TA.AperFunction,SMDPad,CuDef*%
G04:AMPARAMS|DCode=14|XSize=1.19mm|YSize=0.4mm|CornerRadius=0.05mm|HoleSize=0mm|Usage=FLASHONLY|Rotation=270.000|XOffset=0mm|YOffset=0mm|HoleType=Round|Shape=RoundedRectangle|*
%AMROUNDEDRECTD14*
21,1,1.19000,0.30000,0,0,270.0*
21,1,1.09000,0.40000,0,0,270.0*
1,1,0.10000,-0.15000,-0.54500*
1,1,0.10000,-0.15000,0.54500*
1,1,0.10000,0.15000,0.54500*
1,1,0.10000,0.15000,-0.54500*
%
%ADD14ROUNDEDRECTD14*%
%TA.AperFunction,Conductor*%
%ADD15C,0.83820*%
%TA.AperFunction,ComponentPad*%
%ADD16R,1.50000X1.50000*%
%ADD17C,1.50000*%
%TA.AperFunction,WasherPad*%
%ADD18C,3.04800*%
%TA.AperFunction,ComponentPad*%
%ADD19O,2.00000X1.00000*%
%ADD20O,2.00000X1.00000*%
%ADD21O,1.00000X2.00000*%
%ADD22O,1.00000X2.00000*%
%TA.AperFunction,ViaPad*%
%ADD23C,1.27000*%
%ADD24C,0.71120*%
G36*
X10134104Y2565896D02*
X2565896D01*
Y4260100D01*
X2763200D01*
Y4353000D01*
Y4445900D01*
X2565896D01*
Y4561840D01*
X2946060D01*
Y4582410D01*
X3118340D01*
Y4580340D01*
X3218660D01*
Y4620769D01*
X3221590Y4635500D01*
X3218660Y4650231D01*
Y4690660D01*
X3118340D01*
Y4688590D01*
X2946060D01*
Y4709160D01*
X2565896D01*
Y4825100D01*
X2763200D01*
Y4918000D01*
Y5010900D01*
X2565896D01*
Y6705104D01*
X10134104D01*
Y2565896D01*
D02*
G37*
%LPC*%
G36*
X5029718Y6437700D02*
X5029200D01*
Y6350000D01*
X5116900D01*
Y6350518D01*
X5110058Y6376053D01*
X5096840Y6398947D01*
X5078147Y6417640D01*
X5055253Y6430858D01*
X5029718Y6437700D01*
D02*
G37*
G36*
X5003800D02*
X5003282D01*
X4977747Y6430858D01*
X4954853Y6417640D01*
X4936160Y6398947D01*
X4922942Y6376053D01*
X4916100Y6350518D01*
Y6350000D01*
X5003800D01*
Y6437700D01*
D02*
G37*
G36*
X9922011Y6639560D02*
X9889989D01*
X9858583Y6633313D01*
X9828999Y6621059D01*
X9802374Y6603269D01*
X9779731Y6580626D01*
X9761941Y6554001D01*
X9749687Y6524417D01*
X9743440Y6493011D01*
Y6460989D01*
X9749687Y6429583D01*
X9761941Y6399999D01*
X9779731Y6373374D01*
X9802374Y6350731D01*
X9828999Y6332941D01*
X9858583Y6320687D01*
X9889989Y6314440D01*
X9922011D01*
X9953417Y6320687D01*
X9983001Y6332941D01*
X10009626Y6350731D01*
X10032269Y6373374D01*
X10050059Y6399999D01*
X10062313Y6429583D01*
X10068560Y6460989D01*
Y6493011D01*
X10062313Y6524417D01*
X10050059Y6554001D01*
X10032269Y6580626D01*
X10009626Y6603269D01*
X9983001Y6621059D01*
X9953417Y6633313D01*
X9922011Y6639560D01*
D02*
G37*
G36*
X2810011D02*
X2777989D01*
X2746583Y6633313D01*
X2716999Y6621059D01*
X2690374Y6603269D01*
X2667731Y6580626D01*
X2649941Y6554001D01*
X2637687Y6524417D01*
X2631440Y6493011D01*
Y6460989D01*
X2637687Y6429583D01*
X2649941Y6399999D01*
X2667731Y6373374D01*
X2690374Y6350731D01*
X2716999Y6332941D01*
X2746583Y6320687D01*
X2777989Y6314440D01*
X2810011D01*
X2841417Y6320687D01*
X2871001Y6332941D01*
X2897626Y6350731D01*
X2920269Y6373374D01*
X2938059Y6399999D01*
X2950313Y6429583D01*
X2956560Y6460989D01*
Y6493011D01*
X2950313Y6524417D01*
X2938059Y6554001D01*
X2920269Y6580626D01*
X2897626Y6603269D01*
X2871001Y6621059D01*
X2841417Y6633313D01*
X2810011Y6639560D01*
D02*
G37*
G36*
X5116900Y6324600D02*
X5029200D01*
Y6236900D01*
X5029718D01*
X5055253Y6243742D01*
X5078147Y6256960D01*
X5096840Y6275653D01*
X5110058Y6298547D01*
X5116900Y6324082D01*
Y6324600D01*
D02*
G37*
G36*
X5003800D02*
X4916100D01*
Y6324082D01*
X4922942Y6298547D01*
X4936160Y6275653D01*
X4954853Y6256960D01*
X4977747Y6243742D01*
X5003282Y6236900D01*
X5003800D01*
Y6324600D01*
D02*
G37*
G36*
X5116900Y6183700D02*
X5029200D01*
Y6096000D01*
X5116900D01*
Y6183700D01*
D02*
G37*
G36*
X5003800D02*
X4916100D01*
Y6096000D01*
X5003800D01*
Y6183700D01*
D02*
G37*
G36*
X5116900Y6070600D02*
X5029200D01*
Y5982900D01*
X5116900D01*
Y6070600D01*
D02*
G37*
G36*
X5003800D02*
X4916100D01*
Y5982900D01*
X5003800D01*
Y6070600D01*
D02*
G37*
G36*
X8758700Y5848900D02*
X8706000D01*
Y5791201D01*
X8758700D01*
Y5848900D01*
D02*
G37*
G36*
X8680600D02*
X8627900D01*
Y5791201D01*
X8680600D01*
Y5848900D01*
D02*
G37*
G36*
X8758700Y5765801D02*
X8706000D01*
Y5708100D01*
X8758700D01*
Y5765801D01*
D02*
G37*
G36*
X8680600D02*
X8627900D01*
Y5708100D01*
X8680600D01*
Y5765801D01*
D02*
G37*
G36*
X4113312Y6422460D02*
X4090888D01*
X4069230Y6416656D01*
X4049811Y6405445D01*
X4033955Y6389589D01*
X4022744Y6370170D01*
X4016940Y6348512D01*
Y6326088D01*
X4022744Y6304430D01*
X4033955Y6285011D01*
X4049310Y6269656D01*
Y6168460D01*
X4016940D01*
Y5998140D01*
X4049310D01*
Y5499101D01*
X4049310Y5499100D01*
X4049310Y5499099D01*
Y5433371D01*
X3776498Y5160560D01*
X3747440D01*
Y5121312D01*
X3744510Y5106581D01*
X3744510Y5106579D01*
Y5105400D01*
X3747440Y5090669D01*
Y5050240D01*
X3847760D01*
Y5081660D01*
X4138531Y5372431D01*
X4140221Y5373560D01*
X4151729Y5390783D01*
X4155770Y5411100D01*
X4155490Y5412510D01*
Y5477109D01*
X4264991Y5586610D01*
X4645186D01*
X4647450Y5586160D01*
X4647451Y5586160D01*
X5562169D01*
X5568472Y5579858D01*
X5585268Y5570160D01*
X5604003Y5565140D01*
X5623397D01*
X5642132Y5570160D01*
X5658928Y5579858D01*
X5672642Y5593572D01*
X5672966Y5594132D01*
X5692478Y5598013D01*
X5709702Y5609521D01*
X6159500Y6059319D01*
X6423493Y5795327D01*
Y5677665D01*
X6421423D01*
Y5577345D01*
X6459022D01*
X6477285Y5573712D01*
X6477287Y5573713D01*
X6636240D01*
Y5570940D01*
X6736560D01*
Y5611369D01*
X6739490Y5626100D01*
X6736560Y5640832D01*
Y5681260D01*
X6636240D01*
Y5679893D01*
X6529673D01*
Y5817317D01*
X6525632Y5837634D01*
X6514123Y5854858D01*
X6514122Y5854858D01*
X6299404Y6069577D01*
X6304264Y6081310D01*
X8547100D01*
X8561831Y6084240D01*
X8602260D01*
Y6184560D01*
X8561831D01*
X8547100Y6187490D01*
X6159501D01*
X6159500Y6187490D01*
X6139183Y6183449D01*
X6121960Y6171940D01*
X5651849Y5701830D01*
X5642132Y5707440D01*
X5623397Y5712460D01*
X5604003D01*
X5585268Y5707440D01*
X5568472Y5697742D01*
X5563069Y5692340D01*
X4649263D01*
X4647000Y5692790D01*
X4646998Y5692790D01*
X4243000D01*
X4222683Y5688749D01*
X4205460Y5677241D01*
X4205459Y5677240D01*
X4167223Y5639004D01*
X4155490Y5643864D01*
Y5998140D01*
X4187260D01*
Y6168460D01*
X4155490D01*
Y6270256D01*
X4170245Y6285011D01*
X4181456Y6304430D01*
X4187260Y6326088D01*
Y6348512D01*
X4181456Y6370170D01*
X4170245Y6389589D01*
X4154389Y6405445D01*
X4134970Y6416656D01*
X4113312Y6422460D01*
D02*
G37*
G36*
X8547100Y6047490D02*
X8532369Y6044560D01*
X8491940D01*
Y5944240D01*
X8494010D01*
Y5778500D01*
Y5560438D01*
X8489626D01*
X8466152Y5555769D01*
X8460796Y5552190D01*
X7965530D01*
X7960173Y5555769D01*
X7958383Y5556126D01*
Y5569074D01*
X7960173Y5569431D01*
X7980073Y5582727D01*
X7993370Y5602627D01*
X7998039Y5626100D01*
X7993370Y5649573D01*
X7980073Y5669473D01*
X7960173Y5682769D01*
X7936700Y5687438D01*
X7836700D01*
X7813227Y5682769D01*
X7807870Y5679190D01*
X7452124D01*
X7448069Y5699573D01*
X7434773Y5719473D01*
X7414873Y5732770D01*
X7391400Y5737439D01*
X7367927Y5732770D01*
X7348027Y5719473D01*
X7334731Y5699573D01*
X7334374Y5697783D01*
X7321426D01*
X7321069Y5699573D01*
X7307773Y5719473D01*
X7287873Y5732769D01*
X7264400Y5737438D01*
X7240927Y5732769D01*
X7221027Y5719473D01*
X7207731Y5699573D01*
X7207374Y5697783D01*
X7194426D01*
X7194069Y5699573D01*
X7180773Y5719473D01*
X7160873Y5732770D01*
X7137400Y5737439D01*
X7113927Y5732770D01*
X7094027Y5719473D01*
X7080731Y5699573D01*
X7076676Y5679190D01*
X6876560D01*
Y5681260D01*
X6776240D01*
Y5640832D01*
X6773310Y5626100D01*
X6776240Y5611369D01*
Y5570940D01*
X6876560D01*
Y5573010D01*
X7076676D01*
X7080731Y5552627D01*
X7094027Y5532727D01*
X7113927Y5519430D01*
X7137400Y5514761D01*
X7160873Y5519430D01*
X7180773Y5532727D01*
X7191233Y5548381D01*
X7204354Y5549824D01*
X7206008Y5549374D01*
X7211310Y5543347D01*
Y5457591D01*
X7109209Y5355490D01*
X6684859D01*
X6531743Y5508607D01*
Y5537665D01*
X6492495D01*
X6477763Y5540596D01*
X6477762Y5540595D01*
X6476725D01*
X6476548Y5540631D01*
X6476546Y5540631D01*
X6280997D01*
Y5542736D01*
X6180677D01*
Y5502307D01*
X6177747Y5487576D01*
X6180677Y5472844D01*
Y5432416D01*
X6280997D01*
Y5434450D01*
X6455737D01*
X6625327Y5264860D01*
X6625328Y5264860D01*
X6642552Y5253351D01*
X6662868Y5249310D01*
X6662870Y5249310D01*
X7131199D01*
X7131200Y5249310D01*
X7151517Y5253351D01*
X7168741Y5264860D01*
X7301940Y5398059D01*
X7301940Y5398060D01*
X7313449Y5415283D01*
X7317490Y5435600D01*
Y5547270D01*
X7318232Y5548381D01*
X7331355Y5549824D01*
X7333007Y5549374D01*
X7338310Y5543347D01*
Y5149360D01*
X7336240D01*
Y5049040D01*
X7376669D01*
X7391400Y5046110D01*
X7406131Y5049040D01*
X7446560D01*
Y5149360D01*
X7444490D01*
Y5547270D01*
X7448069Y5552627D01*
X7452124Y5573010D01*
X7566910D01*
Y5149360D01*
X7564840D01*
Y5049040D01*
X7605269D01*
X7620000Y5046110D01*
X7634731Y5049040D01*
X7675160D01*
Y5149360D01*
X7673090D01*
Y5573010D01*
X7807870D01*
X7813227Y5569431D01*
X7815017Y5569074D01*
Y5556126D01*
X7813227Y5555769D01*
X7793327Y5542473D01*
X7780031Y5522573D01*
X7775362Y5499100D01*
X7780031Y5475627D01*
X7793327Y5455727D01*
X7813227Y5442431D01*
X7815017Y5442074D01*
Y5429126D01*
X7813227Y5428769D01*
X7793327Y5415473D01*
X7780030Y5395573D01*
X7775361Y5372100D01*
X7780030Y5348627D01*
X7793327Y5328727D01*
X7813227Y5315431D01*
X7836700Y5310762D01*
X7936700D01*
X7960173Y5315431D01*
X7965530Y5319010D01*
X8460796D01*
X8466153Y5315431D01*
X8467943Y5315074D01*
Y5302126D01*
X8466152Y5301769D01*
X8446253Y5288473D01*
X8432956Y5268573D01*
X8428287Y5245100D01*
X8432956Y5221627D01*
X8446253Y5201727D01*
X8466152Y5188431D01*
X8489626Y5183762D01*
X8589626D01*
X8600064Y5185838D01*
X8600204Y5185810D01*
X8600205Y5185810D01*
X9132479D01*
X9132480Y5185810D01*
X9152797Y5189851D01*
X9152930Y5189940D01*
X9187660D01*
Y5229189D01*
X9190590Y5243920D01*
Y5245100D01*
X9187660Y5259831D01*
Y5300260D01*
X9087340D01*
Y5291990D01*
X8627735D01*
X8613099Y5301769D01*
X8611309Y5302126D01*
Y5315074D01*
X8613099Y5315431D01*
X8623089Y5322106D01*
X8678945D01*
X8678946Y5322105D01*
X8699263Y5326147D01*
X8716487Y5337655D01*
X8761341Y5382510D01*
X8858740D01*
Y5380440D01*
X8959060D01*
Y5420869D01*
X8961990Y5435600D01*
X8959060Y5450331D01*
Y5490760D01*
X8858740D01*
Y5488690D01*
X8739351D01*
X8739350Y5488690D01*
X8719033Y5484649D01*
X8701810Y5473140D01*
X8701809Y5473139D01*
X8656955Y5428286D01*
X8613823D01*
X8613099Y5428769D01*
X8611309Y5429126D01*
Y5442074D01*
X8613099Y5442431D01*
X8632999Y5455727D01*
X8646295Y5475627D01*
X8650964Y5499100D01*
X8646295Y5522573D01*
X8632999Y5542473D01*
X8613099Y5555769D01*
X8600190Y5558337D01*
Y5723340D01*
X8603460D01*
Y5833660D01*
X8600190D01*
Y5944240D01*
X8602260D01*
Y6044560D01*
X8561831D01*
X8547100Y6047490D01*
D02*
G37*
G36*
X9813360Y5596960D02*
X9643040D01*
Y5564890D01*
X9125100D01*
X9104783Y5560849D01*
X9087560Y5549340D01*
X9028979Y5490760D01*
X8998740D01*
Y5451512D01*
X8995810Y5436780D01*
X8995810Y5436779D01*
Y5435600D01*
X8998740Y5420869D01*
Y5380440D01*
X9099060D01*
Y5410679D01*
X9147091Y5458710D01*
X9643040D01*
Y5426640D01*
X9813360D01*
Y5596960D01*
D02*
G37*
G36*
X5358200Y5420996D02*
X5355900D01*
X5344038Y5418636D01*
X5333983Y5411917D01*
X5328264Y5403359D01*
X5320900Y5406409D01*
X5290900D01*
X5279297Y5401603D01*
X5276226Y5394190D01*
X5148160D01*
Y5396260D01*
X5047840D01*
Y5355832D01*
X5044910Y5341100D01*
X5047840Y5326369D01*
Y5285940D01*
X5148160D01*
Y5288010D01*
X5274491D01*
Y5281000D01*
X5279297Y5269397D01*
X5290900Y5264591D01*
X5320900D01*
X5328264Y5267641D01*
X5333983Y5259083D01*
X5344038Y5252364D01*
X5355900Y5250004D01*
X5358200D01*
Y5335500D01*
Y5420996D01*
D02*
G37*
G36*
X6140997Y5542736D02*
X6040677D01*
Y5511316D01*
X5916451Y5387090D01*
X5880401D01*
X5880400Y5387090D01*
X5880399Y5387090D01*
X5467309D01*
Y5390000D01*
X5462503Y5401603D01*
X5450900Y5406409D01*
X5420900D01*
X5413536Y5403359D01*
X5407817Y5411917D01*
X5397761Y5418636D01*
X5385900Y5420996D01*
X5383600D01*
Y5335500D01*
Y5250004D01*
X5385900D01*
X5397761Y5252364D01*
X5407817Y5259083D01*
X5413536Y5267641D01*
X5420900Y5264591D01*
X5450900D01*
X5462503Y5269397D01*
X5467272Y5280910D01*
X5858409D01*
X5967010Y5172309D01*
Y5038491D01*
X5916309Y4987790D01*
X5598502D01*
X5594650Y5000490D01*
X5600440Y5004360D01*
X5678820Y5082740D01*
X5706660D01*
Y5193060D01*
X5668648D01*
X5650900Y5196590D01*
X5467309D01*
Y5198000D01*
X5462503Y5209603D01*
X5450900Y5214409D01*
X5420900D01*
X5409297Y5209603D01*
X5404491Y5198000D01*
Y5185137D01*
X5398360Y5181040D01*
X5386851Y5163817D01*
X5382810Y5143500D01*
X5386851Y5123183D01*
X5398360Y5105960D01*
X5404491Y5101863D01*
Y5089000D01*
X5409297Y5077397D01*
X5420900Y5072591D01*
X5450900D01*
X5462503Y5077397D01*
X5467309Y5089000D01*
Y5090410D01*
X5520657D01*
X5524203Y5077710D01*
X5513851Y5062217D01*
X5509810Y5041900D01*
X5513851Y5021583D01*
X5525360Y5004360D01*
X5531150Y5000490D01*
X5527298Y4987790D01*
X5491060D01*
Y4989860D01*
X5390740D01*
Y4949432D01*
X5387810Y4934700D01*
Y4731500D01*
X5390740Y4716769D01*
Y4676340D01*
X5491060D01*
Y4716769D01*
X5493990Y4731500D01*
Y4881610D01*
X5938299D01*
X5938300Y4881610D01*
X5958617Y4885651D01*
X5975841Y4897160D01*
X6057640Y4978960D01*
X6069149Y4996183D01*
X6073190Y5016500D01*
X6073190Y5016501D01*
Y5194300D01*
X6069149Y5214617D01*
X6057640Y5231840D01*
X6057640Y5231841D01*
X5984502Y5304979D01*
X6111938Y5432416D01*
X6140997D01*
Y5471664D01*
X6143928Y5486395D01*
X6143927Y5486397D01*
Y5487576D01*
X6140997Y5502307D01*
Y5542736D01*
D02*
G37*
G36*
X4647000Y5552791D02*
X4632268Y5549860D01*
X4591840D01*
Y5449540D01*
X4593910D01*
Y5378560D01*
X4591840D01*
Y5278240D01*
X4632269D01*
X4647000Y5275310D01*
X4648179D01*
X4648180Y5275310D01*
X4662912Y5278240D01*
X4702160D01*
Y5288010D01*
X4907840D01*
Y5285940D01*
X5008160D01*
Y5326369D01*
X5011090Y5341100D01*
X5008160Y5355832D01*
Y5396260D01*
X4907840D01*
Y5394190D01*
X4700090D01*
Y5449540D01*
X4702160D01*
Y5549860D01*
X4661731D01*
X4647000Y5552791D01*
D02*
G37*
G36*
X4717400Y5253800D02*
X4659700D01*
Y5201100D01*
X4717400D01*
Y5253800D01*
D02*
G37*
G36*
X4634300D02*
X4576600D01*
Y5201100D01*
X4634300D01*
Y5253800D01*
D02*
G37*
G36*
X5320900Y5214409D02*
X5290900D01*
X5279297Y5209603D01*
X5274491Y5198000D01*
X5265510Y5190630D01*
X5263700Y5190991D01*
X5263698Y5190990D01*
X5148160D01*
Y5193060D01*
X5047840D01*
Y5152632D01*
X5044910Y5137900D01*
X5047840Y5123169D01*
Y5082740D01*
X5148160D01*
Y5084810D01*
X5238487D01*
X5241768Y5081063D01*
X5246654Y5072421D01*
X5243110Y5054600D01*
X5247151Y5034283D01*
X5247810Y5033297D01*
Y4934700D01*
Y4731500D01*
X5250740Y4716769D01*
Y4676340D01*
X5351060D01*
Y4716769D01*
X5353990Y4731500D01*
Y4934700D01*
Y5049899D01*
X5353990Y5049900D01*
X5349949Y5070217D01*
X5338440Y5087440D01*
X5338440Y5087441D01*
X5337183Y5088697D01*
X5337309Y5089000D01*
Y5198000D01*
X5332503Y5209603D01*
X5320900Y5214409D01*
D02*
G37*
G36*
X6928400Y5227800D02*
X6870700D01*
Y5175100D01*
X6928400D01*
Y5227800D01*
D02*
G37*
G36*
X6845300D02*
X6787600D01*
Y5175100D01*
X6845300D01*
Y5227800D01*
D02*
G37*
G36*
X9739412Y5342960D02*
X9716988D01*
X9695330Y5337156D01*
X9675911Y5325945D01*
X9660055Y5310089D01*
X9654970Y5301281D01*
X9279410D01*
X9274279Y5300260D01*
X9227340D01*
Y5261012D01*
X9224410Y5246281D01*
X9224410Y5246280D01*
Y5245100D01*
X9227340Y5230369D01*
Y5189940D01*
X9327660D01*
Y5195101D01*
X9670465D01*
X9675911Y5189655D01*
X9695330Y5178444D01*
X9716988Y5172640D01*
X9739412D01*
X9761070Y5178444D01*
X9780489Y5189655D01*
X9796345Y5205511D01*
X9807556Y5224930D01*
X9813360Y5246588D01*
Y5269012D01*
X9807556Y5290670D01*
X9796345Y5310089D01*
X9780489Y5325945D01*
X9761070Y5337156D01*
X9739412Y5342960D01*
D02*
G37*
G36*
X5861900Y5208300D02*
X5809199D01*
Y5150600D01*
X5861900D01*
Y5208300D01*
D02*
G37*
G36*
X5783799D02*
X5731100D01*
Y5150600D01*
X5783799D01*
Y5208300D01*
D02*
G37*
G36*
X4717400Y5175700D02*
X4659700D01*
Y5123000D01*
X4717400D01*
Y5175700D01*
D02*
G37*
G36*
X4634300D02*
X4576600D01*
Y5123000D01*
X4634300D01*
Y5175700D01*
D02*
G37*
G36*
X3348500Y5175800D02*
X3295800D01*
Y5118100D01*
X3348500D01*
Y5175800D01*
D02*
G37*
G36*
X3270400D02*
X3217700D01*
Y5118100D01*
X3270400D01*
Y5175800D01*
D02*
G37*
G36*
X8985800Y5164300D02*
X8928100D01*
Y5111600D01*
X8985800D01*
Y5164300D01*
D02*
G37*
G36*
X8902700D02*
X8845000D01*
Y5111600D01*
X8902700D01*
Y5164300D01*
D02*
G37*
G36*
X6928400Y5149700D02*
X6870700D01*
Y5097000D01*
X6928400D01*
Y5149700D01*
D02*
G37*
G36*
X6845300D02*
X6787600D01*
Y5097000D01*
X6845300D01*
Y5149700D01*
D02*
G37*
G36*
X5861900Y5125200D02*
X5809199D01*
Y5067500D01*
X5861900D01*
Y5125200D01*
D02*
G37*
G36*
X5783799D02*
X5731100D01*
Y5067500D01*
X5783799D01*
Y5125200D01*
D02*
G37*
G36*
X3348500Y5092700D02*
X3295800D01*
Y5035000D01*
X3348500D01*
Y5092700D01*
D02*
G37*
G36*
X3270400D02*
X3217700D01*
Y5035000D01*
X3270400D01*
Y5092700D01*
D02*
G37*
G36*
X8985800Y5086200D02*
X8928100D01*
Y5033500D01*
X8985800D01*
Y5086200D01*
D02*
G37*
G36*
X8902700D02*
X8845000D01*
Y5033500D01*
X8902700D01*
Y5086200D01*
D02*
G37*
G36*
X9741418Y5104200D02*
X9740900D01*
Y5016500D01*
X9828600D01*
Y5017018D01*
X9821758Y5042553D01*
X9808540Y5065447D01*
X9789847Y5084140D01*
X9766953Y5097358D01*
X9741418Y5104200D01*
D02*
G37*
G36*
X9715500D02*
X9714982D01*
X9689447Y5097358D01*
X9666553Y5084140D01*
X9647860Y5065447D01*
X9634642Y5042553D01*
X9627800Y5017018D01*
Y5016500D01*
X9715500D01*
Y5104200D01*
D02*
G37*
G36*
X7690400Y5024600D02*
X7632700D01*
Y4971900D01*
X7690400D01*
Y5024600D01*
D02*
G37*
G36*
X7461800D02*
X7404100D01*
Y4971900D01*
X7461800D01*
Y5024600D01*
D02*
G37*
G36*
X7607300D02*
X7549600D01*
Y4971900D01*
X7607300D01*
Y5024600D01*
D02*
G37*
G36*
X7378700D02*
X7321000D01*
Y4971900D01*
X7378700D01*
Y5024600D01*
D02*
G37*
G36*
X3011300Y5010900D02*
X2788600D01*
Y4930700D01*
X3011300D01*
Y5010900D01*
D02*
G37*
G36*
X9828600Y4991100D02*
X9740900D01*
Y4903400D01*
X9741418D01*
X9766953Y4910242D01*
X9789847Y4923460D01*
X9808540Y4942153D01*
X9821758Y4965047D01*
X9828600Y4990582D01*
Y4991100D01*
D02*
G37*
G36*
X9715500D02*
X9627800D01*
Y4990582D01*
X9634642Y4965047D01*
X9647860Y4942153D01*
X9666553Y4923460D01*
X9689447Y4910242D01*
X9714982Y4903400D01*
X9715500D01*
Y4991100D01*
D02*
G37*
G36*
X7690400Y4946500D02*
X7632700D01*
Y4893800D01*
X7690400D01*
Y4946500D01*
D02*
G37*
G36*
X7607300D02*
X7549600D01*
Y4893800D01*
X7607300D01*
Y4946500D01*
D02*
G37*
G36*
X7461800D02*
X7404100D01*
Y4893800D01*
X7461800D01*
Y4946500D01*
D02*
G37*
G36*
X7378700D02*
X7321000D01*
Y4893800D01*
X7378700D01*
Y4946500D01*
D02*
G37*
G36*
X3011300Y4905300D02*
X2788600D01*
Y4825100D01*
X3011300D01*
Y4905300D01*
D02*
G37*
G36*
X3950959Y4721505D02*
X3948660D01*
X3936798Y4719146D01*
X3926742Y4712427D01*
X3921024Y4703868D01*
X3913659Y4706919D01*
X3883659D01*
X3872057Y4702113D01*
X3867250Y4690510D01*
Y4688590D01*
X3739960D01*
Y4690660D01*
X3639640D01*
Y4650231D01*
X3636710Y4635500D01*
X3639640Y4620769D01*
Y4580340D01*
X3739960D01*
Y4582410D01*
X3867250D01*
Y4581510D01*
X3872057Y4569907D01*
X3883659Y4565101D01*
X3913659D01*
X3921024Y4568151D01*
X3926742Y4559593D01*
X3936798Y4552874D01*
X3948660Y4550514D01*
X3950959D01*
Y4636010D01*
Y4721505D01*
D02*
G37*
G36*
X5008160Y5193060D02*
X4907840D01*
Y5161641D01*
X4712260Y4966060D01*
X4700751Y4948837D01*
X4696710Y4928520D01*
X4696710Y4928519D01*
Y4701290D01*
X4064000D01*
X4056243Y4699747D01*
X4055263Y4702113D01*
X4043660Y4706919D01*
X4013660D01*
X4006295Y4703868D01*
X4000577Y4712427D01*
X3990521Y4719146D01*
X3978660Y4721505D01*
X3976359D01*
Y4636010D01*
Y4550514D01*
X3978660D01*
X3990521Y4552874D01*
X4000577Y4559593D01*
X4006295Y4568151D01*
X4013660Y4565101D01*
X4043660D01*
X4055263Y4569907D01*
X4060069Y4581510D01*
Y4591884D01*
X4064000Y4595110D01*
X4696710D01*
Y4025900D01*
X4700751Y4005583D01*
X4712260Y3988360D01*
X4729483Y3976851D01*
X4739326Y3974893D01*
X4750777Y3967241D01*
X4771094Y3963200D01*
X4771095Y3963200D01*
X4883640D01*
Y3958040D01*
X4983960D01*
Y3998469D01*
X4986890Y4013200D01*
Y4014381D01*
X4983960Y4029112D01*
Y4068360D01*
X4937021D01*
X4931890Y4069381D01*
X4931889Y4069380D01*
X4802890D01*
Y4648200D01*
Y4906529D01*
X4979101Y5082740D01*
X5008160D01*
Y5121988D01*
X5011090Y5136720D01*
X5011090Y5136721D01*
Y5137900D01*
X5008160Y5152632D01*
Y5193060D01*
D02*
G37*
G36*
X3473260Y5160560D02*
X3372940D01*
Y5120132D01*
X3370010Y5105400D01*
X3372940Y5090669D01*
Y5050240D01*
X3473260D01*
Y5052310D01*
X3496710D01*
Y4688590D01*
X3358660D01*
Y4690660D01*
X3258340D01*
Y4650231D01*
X3255410Y4635500D01*
X3258340Y4620769D01*
Y4580340D01*
X3358660D01*
Y4582410D01*
X3499640D01*
Y4580340D01*
X3599960D01*
Y4620769D01*
X3602890Y4635500D01*
Y5039425D01*
X3607440Y5050240D01*
X3707760D01*
Y5090669D01*
X3710690Y5105400D01*
X3707760Y5120131D01*
Y5160560D01*
X3607440D01*
Y5158490D01*
X3556301D01*
X3556300Y5158490D01*
X3556299Y5158490D01*
X3473260D01*
Y5160560D01*
D02*
G37*
G36*
X4428300Y4502700D02*
X4375600D01*
Y4445000D01*
X4428300D01*
Y4502700D01*
D02*
G37*
G36*
X4350200D02*
X4297500D01*
Y4445000D01*
X4350200D01*
Y4502700D01*
D02*
G37*
G36*
X8323985Y4517290D02*
X8303668Y4513249D01*
X8286444Y4501741D01*
X8227044Y4442340D01*
X8226597Y4442460D01*
X8207203D01*
X8188468Y4437440D01*
X8171672Y4427742D01*
X8157958Y4414028D01*
X8148260Y4397232D01*
X8143240Y4378497D01*
Y4359103D01*
X8148260Y4340368D01*
X8157958Y4323572D01*
X8171672Y4309858D01*
X8188468Y4300160D01*
X8207203Y4295140D01*
X8226597D01*
X8245332Y4300160D01*
X8262128Y4309858D01*
X8275842Y4323572D01*
X8285540Y4340368D01*
X8289313Y4354447D01*
X8345975Y4411110D01*
X8521700D01*
X8536431Y4414040D01*
X8576860D01*
Y4514360D01*
X8536431D01*
X8521700Y4517290D01*
X8323986D01*
X8323985Y4517290D01*
D02*
G37*
G36*
X3011300Y4445900D02*
X2788600D01*
Y4365700D01*
X3011300D01*
Y4445900D01*
D02*
G37*
G36*
X4428300Y4419600D02*
X4375600D01*
Y4361900D01*
X4428300D01*
Y4419600D01*
D02*
G37*
G36*
X4350200D02*
X4297500D01*
Y4361900D01*
X4350200D01*
Y4419600D01*
D02*
G37*
G36*
X4043660Y4514919D02*
X4013660D01*
X4002057Y4510113D01*
X3997251Y4498510D01*
Y4389510D01*
X4002057Y4377907D01*
X4013660Y4373100D01*
X4043660D01*
X4055263Y4377907D01*
X4055802Y4379210D01*
X4087144D01*
X4097567Y4366509D01*
X4095672Y4356981D01*
X4095672Y4356980D01*
Y4345904D01*
X4091451Y4339587D01*
X4087410Y4319270D01*
X4091451Y4298954D01*
X4102960Y4281730D01*
X4120183Y4270221D01*
X4140500Y4266180D01*
X4160817Y4270221D01*
X4178040Y4281730D01*
X4186302Y4289992D01*
X4197811Y4307215D01*
X4201852Y4327532D01*
Y4334990D01*
X4244001Y4377140D01*
X4273060D01*
Y4416388D01*
X4275990Y4431119D01*
Y4432300D01*
X4273060Y4447031D01*
Y4487460D01*
X4172740D01*
Y4485390D01*
X4060069D01*
Y4498510D01*
X4055263Y4510113D01*
X4043660Y4514919D01*
D02*
G37*
G36*
X3011300Y4340300D02*
X2788600D01*
Y4260100D01*
X3011300D01*
Y4340300D01*
D02*
G37*
G36*
X8727216Y4169246D02*
X8674517D01*
Y4111547D01*
X8727216D01*
Y4169246D01*
D02*
G37*
G36*
X8649117D02*
X8596416D01*
Y4111547D01*
X8649117D01*
Y4169246D01*
D02*
G37*
G36*
X5346700Y4098696D02*
X5344400D01*
X5332538Y4096336D01*
X5322483Y4089617D01*
X5316764Y4081059D01*
X5309400Y4084109D01*
X5279400D01*
X5267797Y4079303D01*
X5262991Y4067700D01*
Y4066290D01*
X5123960D01*
Y4068360D01*
X5023640D01*
Y4027931D01*
X5020710Y4013200D01*
X5023640Y3998469D01*
Y3958040D01*
X5123960D01*
Y3960110D01*
X5262991D01*
Y3958700D01*
X5267797Y3947097D01*
X5279400Y3942291D01*
X5309400D01*
X5316764Y3945341D01*
X5322483Y3936783D01*
X5332538Y3930064D01*
X5344400Y3927704D01*
X5346700D01*
Y4013200D01*
Y4098696D01*
D02*
G37*
G36*
X3686407Y4356162D02*
X3671676Y4353232D01*
X3631247D01*
Y4252913D01*
X3633317D01*
Y4150490D01*
X3631247D01*
Y4050170D01*
X3671676D01*
X3686407Y4047240D01*
X3701138Y4050170D01*
X3741567D01*
Y4150490D01*
X3739497D01*
Y4252913D01*
X3741567D01*
Y4353232D01*
X3701138D01*
X3686407Y4356162D01*
D02*
G37*
G36*
X8727216Y4086147D02*
X8674517D01*
Y4028447D01*
X8727216D01*
Y4086147D01*
D02*
G37*
G36*
X8649117D02*
X8596416D01*
Y4028447D01*
X8649117D01*
Y4086147D01*
D02*
G37*
G36*
X3756807Y4025730D02*
X3699107D01*
Y3973030D01*
X3756807D01*
Y4025730D01*
D02*
G37*
G36*
X3673707D02*
X3616007D01*
Y3973030D01*
X3673707D01*
Y4025730D01*
D02*
G37*
G36*
X3913659Y4514919D02*
X3883659D01*
X3872057Y4510113D01*
X3867250Y4498510D01*
Y4496787D01*
X3864109Y4496162D01*
X3686407D01*
X3671676Y4493232D01*
X3631247D01*
Y4392912D01*
X3671676D01*
X3686407Y4389982D01*
X3820996D01*
X3824751Y4371104D01*
X3836260Y4353880D01*
X3837700Y4352440D01*
Y4205611D01*
X3837700Y4205610D01*
X3839610Y4196008D01*
Y4013200D01*
X3842540Y3998469D01*
Y3958040D01*
X3942860D01*
Y3998469D01*
X3945790Y4013200D01*
Y4203700D01*
X3943880Y4213302D01*
Y4374430D01*
X3939839Y4394747D01*
X3930069Y4409370D01*
Y4498510D01*
X3925262Y4510113D01*
X3913659Y4514919D01*
D02*
G37*
G36*
X3756807Y3947630D02*
X3699107D01*
Y3894930D01*
X3756807D01*
Y3947630D01*
D02*
G37*
G36*
X3673707D02*
X3616007D01*
Y3894930D01*
X3673707D01*
Y3947630D01*
D02*
G37*
G36*
X9813360Y3984060D02*
X9643040D01*
Y3888821D01*
X9642709Y3888490D01*
X9226060D01*
Y3890560D01*
X9125740D01*
Y3850131D01*
X9122810Y3835400D01*
X9125740Y3820669D01*
Y3780240D01*
X9226060D01*
Y3782310D01*
X9664698D01*
X9664700Y3782309D01*
X9685016Y3786351D01*
X9702240Y3797859D01*
X9718121Y3813740D01*
X9813360D01*
Y3984060D01*
D02*
G37*
G36*
X6550197Y4442460D02*
X6530803D01*
X6512068Y4437440D01*
X6495272Y4427742D01*
X6481558Y4414028D01*
X6471860Y4397232D01*
X6466840Y4378497D01*
Y4359103D01*
X6471860Y4340368D01*
X6481558Y4323572D01*
X6487410Y4317719D01*
Y3990090D01*
X6438900D01*
X6424167Y3987160D01*
X6383740D01*
Y3886840D01*
X6424169D01*
X6438900Y3883910D01*
X6438903Y3883910D01*
X6598140D01*
Y3881840D01*
X6698460D01*
Y3922269D01*
X6701390Y3937000D01*
X6698460Y3951731D01*
Y3992160D01*
X6598140D01*
X6593590Y4002975D01*
Y4317719D01*
X6599442Y4323572D01*
X6609140Y4340368D01*
X6614160Y4359103D01*
Y4378497D01*
X6609140Y4397232D01*
X6599442Y4414028D01*
X6585728Y4427742D01*
X6568932Y4437440D01*
X6550197Y4442460D01*
D02*
G37*
G36*
X8522880Y4377290D02*
X8522879Y4377290D01*
X8521700D01*
X8506969Y4374360D01*
X8466540D01*
Y4274040D01*
X8468610D01*
Y3870724D01*
X8448227Y3866669D01*
X8442870Y3863090D01*
X7965530D01*
X7960173Y3866669D01*
X7958383Y3867026D01*
Y3879974D01*
X7960173Y3880331D01*
X7980073Y3893627D01*
X7993370Y3913527D01*
X7998039Y3937000D01*
X7993370Y3960473D01*
X7980073Y3980373D01*
X7960173Y3993669D01*
X7936700Y3998338D01*
X7836700D01*
X7813227Y3993669D01*
X7807870Y3990090D01*
X7439424D01*
X7435369Y4010473D01*
X7422073Y4030373D01*
X7402173Y4043670D01*
X7378700Y4048339D01*
X7355227Y4043670D01*
X7335327Y4030373D01*
X7322031Y4010473D01*
X7321674Y4008683D01*
X7308726D01*
X7308369Y4010473D01*
X7295073Y4030373D01*
X7275173Y4043669D01*
X7251700Y4048338D01*
X7228227Y4043669D01*
X7208327Y4030373D01*
X7195031Y4010473D01*
X7194674Y4008683D01*
X7181726D01*
X7181369Y4010473D01*
X7168073Y4030373D01*
X7148173Y4043670D01*
X7124700Y4048339D01*
X7101227Y4043670D01*
X7081327Y4030373D01*
X7068031Y4010473D01*
X7063976Y3990090D01*
X6838460D01*
Y3992160D01*
X6738140D01*
Y3951731D01*
X6735210Y3937000D01*
X6738140Y3922269D01*
Y3881840D01*
X6838460D01*
Y3883910D01*
X7063976D01*
X7068031Y3863527D01*
X7081327Y3843627D01*
X7101227Y3830330D01*
X7124700Y3825661D01*
X7148173Y3830330D01*
X7168073Y3843627D01*
X7178533Y3859281D01*
X7191654Y3860724D01*
X7193308Y3860274D01*
X7198610Y3854247D01*
Y3743091D01*
X7083809Y3628290D01*
X6683871D01*
X6494060Y3818101D01*
Y3847160D01*
X6455416D01*
X6439930Y3850240D01*
X6439929Y3850240D01*
X6266960D01*
Y3852460D01*
X6166640D01*
Y3812032D01*
X6163710Y3797300D01*
X6166640Y3782569D01*
Y3742140D01*
X6266960D01*
Y3744060D01*
X6417939D01*
X6624339Y3537660D01*
X6624340Y3537660D01*
X6641564Y3526151D01*
X6661880Y3522110D01*
X6661882Y3522110D01*
X7105799D01*
X7105800Y3522110D01*
X7126117Y3526151D01*
X7143341Y3537660D01*
X7289240Y3683560D01*
X7300749Y3700783D01*
X7304790Y3721100D01*
X7304790Y3721101D01*
Y3858170D01*
X7305532Y3859281D01*
X7318655Y3860724D01*
X7320307Y3860274D01*
X7325610Y3854247D01*
Y3472960D01*
X7323540D01*
Y3372640D01*
X7363969D01*
X7378700Y3369710D01*
X7393431Y3372640D01*
X7433860D01*
Y3472960D01*
X7431790D01*
Y3858170D01*
X7435369Y3863527D01*
X7439424Y3883910D01*
X7528810D01*
Y3472960D01*
X7526740D01*
Y3372640D01*
X7567169D01*
X7581900Y3369710D01*
X7596631Y3372640D01*
X7637060D01*
Y3472960D01*
X7634990D01*
Y3883910D01*
X7807870D01*
X7813227Y3880331D01*
X7815017Y3879974D01*
Y3867026D01*
X7813227Y3866669D01*
X7793327Y3853373D01*
X7780031Y3833473D01*
X7775362Y3810000D01*
X7780031Y3786527D01*
X7793327Y3766627D01*
X7813227Y3753331D01*
X7815017Y3752974D01*
Y3740026D01*
X7813227Y3739669D01*
X7793327Y3726373D01*
X7780030Y3706473D01*
X7775361Y3683000D01*
X7780030Y3659527D01*
X7793327Y3639627D01*
X7813227Y3626331D01*
X7836700Y3621662D01*
X7936700D01*
X7960173Y3626331D01*
X7965530Y3629910D01*
X8442870D01*
X8448227Y3626331D01*
X8450017Y3625974D01*
Y3613026D01*
X8448227Y3612669D01*
X8428327Y3599373D01*
X8415030Y3579473D01*
X8410361Y3556000D01*
X8415030Y3532527D01*
X8428327Y3512627D01*
X8448227Y3499331D01*
X8471700Y3494662D01*
X8571700D01*
X8595173Y3499331D01*
X8600530Y3502910D01*
X8844520D01*
X8846290Y3503262D01*
X8855659Y3501398D01*
X8859460Y3502155D01*
X8998440D01*
Y3500840D01*
X9098760D01*
Y3541269D01*
X9101690Y3556000D01*
X9098760Y3570731D01*
Y3611160D01*
X8998440D01*
Y3608335D01*
X8856416D01*
X8856415Y3608335D01*
X8852366Y3607529D01*
X8844520Y3609090D01*
X8600530D01*
X8599419Y3609833D01*
X8597976Y3622954D01*
X8598426Y3624608D01*
X8604453Y3629910D01*
X8699499D01*
X8699500Y3629910D01*
X8719817Y3633951D01*
X8737040Y3645460D01*
X8873890Y3782310D01*
X8985740D01*
Y3780240D01*
X9086060D01*
Y3820669D01*
X9088990Y3835400D01*
X9086060Y3850131D01*
Y3890560D01*
X8985740D01*
Y3888490D01*
X8851901D01*
X8851900Y3888490D01*
X8831583Y3884449D01*
X8814359Y3872940D01*
X8814359Y3872939D01*
X8677509Y3736090D01*
X8600530D01*
X8595173Y3739669D01*
X8593383Y3740026D01*
Y3752974D01*
X8595173Y3753331D01*
X8615073Y3766627D01*
X8628370Y3786527D01*
X8633039Y3810000D01*
X8628370Y3833473D01*
X8615073Y3853373D01*
X8595173Y3866669D01*
X8574790Y3870724D01*
Y4274040D01*
X8576860D01*
Y4295783D01*
X8578129Y4297683D01*
X8582171Y4318000D01*
X8578129Y4338316D01*
X8576860Y4340217D01*
Y4374360D01*
X8537612D01*
X8522880Y4377290D01*
D02*
G37*
G36*
X5825000Y3880400D02*
X5772300D01*
Y3822700D01*
X5825000D01*
Y3880400D01*
D02*
G37*
G36*
X5746900D02*
X5694200D01*
Y3822700D01*
X5746900D01*
Y3880400D01*
D02*
G37*
G36*
X5825000Y3797300D02*
X5772300D01*
Y3739600D01*
X5825000D01*
Y3797300D01*
D02*
G37*
G36*
X5746900D02*
X5694200D01*
Y3739600D01*
X5746900D01*
Y3797300D01*
D02*
G37*
G36*
X5374400Y4098696D02*
X5372100D01*
Y4013200D01*
Y3927704D01*
X5374400D01*
X5386262Y3930064D01*
X5396317Y3936783D01*
X5402036Y3945341D01*
X5409400Y3942291D01*
X5439400D01*
X5451003Y3947097D01*
X5455809Y3958700D01*
X5458205Y3960666D01*
X5461000Y3960110D01*
X5859808D01*
X5877810Y3942109D01*
Y3784601D01*
X5877810Y3784600D01*
X5877810Y3784599D01*
Y3679591D01*
X5845409Y3647190D01*
X5592143D01*
X5588597Y3659890D01*
X5598949Y3675383D01*
X5602990Y3695700D01*
Y3717128D01*
X5640701Y3754840D01*
X5669760D01*
Y3794088D01*
X5672690Y3808819D01*
X5672690Y3808820D01*
Y3810000D01*
X5669760Y3824731D01*
Y3865160D01*
X5569440D01*
Y3863090D01*
X5455809D01*
Y3875700D01*
X5451003Y3887303D01*
X5439400Y3892109D01*
X5409400D01*
X5397797Y3887303D01*
X5392991Y3875700D01*
Y3766700D01*
X5397797Y3755097D01*
X5409400Y3750291D01*
X5439400D01*
X5451003Y3755097D01*
X5451754Y3756910D01*
X5490339D01*
X5498396Y3747092D01*
X5496810Y3739119D01*
X5496810Y3739118D01*
Y3695700D01*
X5500851Y3675383D01*
X5511203Y3659890D01*
X5507657Y3647190D01*
X5492260D01*
Y3649260D01*
X5391940D01*
Y3608831D01*
X5389010Y3594100D01*
Y3403600D01*
X5391940Y3388869D01*
Y3348440D01*
X5492260D01*
Y3388869D01*
X5495190Y3403600D01*
Y3541010D01*
X5867399D01*
X5867400Y3541010D01*
X5887717Y3545051D01*
X5904941Y3556560D01*
X5968440Y3620060D01*
X5979949Y3637283D01*
X5983990Y3657600D01*
X5983990Y3657601D01*
Y3744210D01*
X6026640D01*
Y3742140D01*
X6126960D01*
Y3782569D01*
X6129890Y3797300D01*
X6126960Y3812031D01*
Y3852460D01*
X6026640D01*
Y3850390D01*
X5983990D01*
Y3964098D01*
X5983990Y3964099D01*
X5979949Y3984416D01*
X5968440Y4001640D01*
X5968440Y4001640D01*
X5919340Y4050740D01*
X5902116Y4062249D01*
X5881799Y4066290D01*
X5881798Y4066290D01*
X5461000D01*
X5458205Y4065734D01*
X5455809Y4067700D01*
X5451003Y4079303D01*
X5439400Y4084109D01*
X5409400D01*
X5402036Y4081059D01*
X5396317Y4089617D01*
X5386262Y4096336D01*
X5374400Y4098696D01*
D02*
G37*
G36*
X9739412Y3730060D02*
X9716988D01*
X9695330Y3724256D01*
X9675911Y3713045D01*
X9660856Y3697990D01*
X9588500D01*
X9568183Y3693949D01*
X9550960Y3682440D01*
X9550959Y3682440D01*
X9477609Y3609090D01*
X9238760D01*
Y3611160D01*
X9138440D01*
Y3570731D01*
X9135510Y3556000D01*
X9138440Y3541269D01*
Y3500840D01*
X9238760D01*
Y3502910D01*
X9499599D01*
X9499600Y3502910D01*
X9519917Y3506951D01*
X9537141Y3518460D01*
X9610491Y3591810D01*
X9660856D01*
X9675911Y3576755D01*
X9695330Y3565544D01*
X9716988Y3559740D01*
X9739412D01*
X9761070Y3565544D01*
X9780489Y3576755D01*
X9796345Y3592611D01*
X9807556Y3612030D01*
X9813360Y3633688D01*
Y3656112D01*
X9807556Y3677770D01*
X9796345Y3697189D01*
X9780489Y3713045D01*
X9761070Y3724256D01*
X9739412Y3730060D01*
D02*
G37*
G36*
X4082860Y4258860D02*
X3982540D01*
Y4218431D01*
X3979610Y4203700D01*
Y4013200D01*
Y3740001D01*
X3979610Y3740000D01*
X3983651Y3719683D01*
X3995160Y3702459D01*
X4074710Y3622909D01*
Y3494790D01*
X3923960D01*
Y3496860D01*
X3823640D01*
Y3456431D01*
X3820710Y3441700D01*
X3823640Y3426969D01*
Y3386540D01*
X3923960D01*
Y3388610D01*
X4083840D01*
Y3386540D01*
X4184160D01*
Y3426969D01*
X4187090Y3441700D01*
X4185180Y3451301D01*
Y3451380D01*
X4184160Y3456509D01*
Y3496860D01*
X4180890D01*
Y3644900D01*
X4176849Y3665217D01*
X4165340Y3682440D01*
X4165340Y3682441D01*
X4085790Y3761991D01*
Y4013200D01*
Y4203700D01*
X4082860Y4218431D01*
Y4258860D01*
D02*
G37*
G36*
X4339400Y3512100D02*
X4286700D01*
Y3454400D01*
X4339400D01*
Y3512100D01*
D02*
G37*
G36*
X4261300D02*
X4208600D01*
Y3454400D01*
X4261300D01*
Y3512100D01*
D02*
G37*
G36*
X6915700Y3500600D02*
X6858000D01*
Y3447900D01*
X6915700D01*
Y3500600D01*
D02*
G37*
G36*
X6832600D02*
X6774900D01*
Y3447900D01*
X6832600D01*
Y3500600D01*
D02*
G37*
G36*
X5080000Y3723390D02*
X5065269Y3720460D01*
X5024840D01*
Y3620140D01*
X5026910D01*
Y3542660D01*
X5024840D01*
Y3442340D01*
X5065269D01*
X5080000Y3439410D01*
X5094731Y3442340D01*
X5135160D01*
Y3542660D01*
X5133090D01*
Y3620140D01*
X5135160D01*
Y3720460D01*
X5094731D01*
X5080000Y3723390D01*
D02*
G37*
G36*
X8926059Y3479889D02*
X8868359D01*
Y3427189D01*
X8926059D01*
Y3479889D01*
D02*
G37*
G36*
X8842959D02*
X8785259D01*
Y3427189D01*
X8842959D01*
Y3479889D01*
D02*
G37*
G36*
X9741418Y3491300D02*
X9740900D01*
Y3403600D01*
X9828600D01*
Y3404118D01*
X9821758Y3429653D01*
X9808540Y3452547D01*
X9789847Y3471240D01*
X9766953Y3484458D01*
X9741418Y3491300D01*
D02*
G37*
G36*
X9715500D02*
X9714982D01*
X9689447Y3484458D01*
X9666553Y3471240D01*
X9647860Y3452547D01*
X9634642Y3429653D01*
X9627800Y3404118D01*
Y3403600D01*
X9715500D01*
Y3491300D01*
D02*
G37*
G36*
X3743497Y3769360D02*
X3724103D01*
X3705368Y3764340D01*
X3688572Y3754642D01*
X3674858Y3740928D01*
X3665160Y3724132D01*
X3660140Y3705397D01*
Y3686003D01*
X3665160Y3667268D01*
X3674858Y3650472D01*
X3680710Y3644619D01*
Y3441700D01*
X3683640Y3426969D01*
Y3386540D01*
X3783960D01*
Y3426969D01*
X3786890Y3441700D01*
Y3644619D01*
X3792742Y3650472D01*
X3802440Y3667268D01*
X3807460Y3686003D01*
Y3705397D01*
X3802440Y3724132D01*
X3792742Y3740928D01*
X3779028Y3754642D01*
X3762232Y3764340D01*
X3743497Y3769360D01*
D02*
G37*
G36*
X4339400Y3429000D02*
X4286700D01*
Y3371300D01*
X4339400D01*
Y3429000D01*
D02*
G37*
G36*
X4261300D02*
X4208600D01*
Y3371300D01*
X4261300D01*
Y3429000D01*
D02*
G37*
G36*
X6915700Y3422500D02*
X6858000D01*
Y3369800D01*
X6915700D01*
Y3422500D01*
D02*
G37*
G36*
X6832600D02*
X6774900D01*
Y3369800D01*
X6832600D01*
Y3422500D01*
D02*
G37*
G36*
X5150400Y3417900D02*
X5092700D01*
Y3365200D01*
X5150400D01*
Y3417900D01*
D02*
G37*
G36*
X5067300D02*
X5009600D01*
Y3365200D01*
X5067300D01*
Y3417900D01*
D02*
G37*
G36*
X8926059Y3401789D02*
X8868359D01*
Y3349089D01*
X8926059D01*
Y3401789D01*
D02*
G37*
G36*
X8842959D02*
X8785259D01*
Y3349089D01*
X8842959D01*
Y3401789D01*
D02*
G37*
G36*
X5309400Y3892109D02*
X5279400D01*
X5267797Y3887303D01*
X5262991Y3875700D01*
Y3863390D01*
X5080000D01*
X5065269Y3860460D01*
X5024840D01*
Y3760140D01*
X5065269D01*
X5080000Y3757210D01*
X5234931D01*
X5242987Y3747393D01*
X5242810Y3746500D01*
Y3733801D01*
X5242810Y3733800D01*
X5246851Y3713483D01*
X5249010Y3710252D01*
Y3594100D01*
Y3403600D01*
X5251940Y3388869D01*
Y3348440D01*
X5352260D01*
Y3388869D01*
X5355190Y3403600D01*
Y3594100D01*
Y3727599D01*
X5355190Y3727600D01*
X5351149Y3747917D01*
X5347674Y3753118D01*
X5344949Y3766817D01*
X5333440Y3784040D01*
X5325809Y3789139D01*
Y3875700D01*
X5321003Y3887303D01*
X5309400Y3892109D01*
D02*
G37*
G36*
X7652300Y3348200D02*
X7594600D01*
Y3295500D01*
X7652300D01*
Y3348200D01*
D02*
G37*
G36*
X7449100D02*
X7391400D01*
Y3295500D01*
X7449100D01*
Y3348200D01*
D02*
G37*
G36*
X7569200D02*
X7511500D01*
Y3295500D01*
X7569200D01*
Y3348200D01*
D02*
G37*
G36*
X7366000D02*
X7308300D01*
Y3295500D01*
X7366000D01*
Y3348200D01*
D02*
G37*
G36*
X9828600Y3378200D02*
X9740900D01*
Y3290500D01*
X9741418D01*
X9766953Y3297342D01*
X9789847Y3310560D01*
X9808540Y3329253D01*
X9821758Y3352147D01*
X9828600Y3377682D01*
Y3378200D01*
D02*
G37*
G36*
X9715500D02*
X9627800D01*
Y3377682D01*
X9634642Y3352147D01*
X9647860Y3329253D01*
X9666553Y3310560D01*
X9689447Y3297342D01*
X9714982Y3290500D01*
X9715500D01*
Y3378200D01*
D02*
G37*
G36*
X5150400Y3339800D02*
X5092700D01*
Y3287100D01*
X5150400D01*
Y3339800D01*
D02*
G37*
G36*
X5067300D02*
X5009600D01*
Y3287100D01*
X5067300D01*
Y3339800D01*
D02*
G37*
G36*
X7652300Y3270100D02*
X7594600D01*
Y3217400D01*
X7652300D01*
Y3270100D01*
D02*
G37*
G36*
X7569200D02*
X7511500D01*
Y3217400D01*
X7569200D01*
Y3270100D01*
D02*
G37*
G36*
X7449100D02*
X7391400D01*
Y3217400D01*
X7449100D01*
Y3270100D01*
D02*
G37*
G36*
X7366000D02*
X7308300D01*
Y3217400D01*
X7366000D01*
Y3270100D01*
D02*
G37*
G36*
X9922011Y2956560D02*
X9889989D01*
X9858583Y2950313D01*
X9828999Y2938059D01*
X9802374Y2920269D01*
X9779731Y2897626D01*
X9761941Y2871001D01*
X9749687Y2841417D01*
X9743440Y2810011D01*
Y2777989D01*
X9749687Y2746583D01*
X9761941Y2716999D01*
X9779731Y2690374D01*
X9802374Y2667731D01*
X9828999Y2649941D01*
X9858583Y2637687D01*
X9889989Y2631440D01*
X9922011D01*
X9953417Y2637687D01*
X9983001Y2649941D01*
X10009626Y2667731D01*
X10032269Y2690374D01*
X10050059Y2716999D01*
X10062313Y2746583D01*
X10068560Y2777989D01*
Y2810011D01*
X10062313Y2841417D01*
X10050059Y2871001D01*
X10032269Y2897626D01*
X10009626Y2920269D01*
X9983001Y2938059D01*
X9953417Y2950313D01*
X9922011Y2956560D01*
D02*
G37*
G36*
X2810011D02*
X2777989D01*
X2746583Y2950313D01*
X2716999Y2938059D01*
X2690374Y2920269D01*
X2667731Y2897626D01*
X2649941Y2871001D01*
X2637687Y2841417D01*
X2631440Y2810011D01*
Y2777989D01*
X2637687Y2746583D01*
X2649941Y2716999D01*
X2667731Y2690374D01*
X2690374Y2667731D01*
X2716999Y2649941D01*
X2746583Y2637687D01*
X2777989Y2631440D01*
X2810011D01*
X2841417Y2637687D01*
X2871001Y2649941D01*
X2897626Y2667731D01*
X2920269Y2690374D01*
X2938059Y2716999D01*
X2950313Y2746583D01*
X2956560Y2777989D01*
Y2810011D01*
X2950313Y2841417D01*
X2938059Y2871001D01*
X2920269Y2897626D01*
X2897626Y2920269D01*
X2871001Y2938059D01*
X2841417Y2950313D01*
X2810011Y2956560D01*
D02*
G37*
%LPD*%
D10*
X9048900Y5435600D02*
D03*
X8908900D02*
D03*
X9137500Y5245100D02*
D03*
X9277500D02*
D03*
X9048600Y3556000D02*
D03*
X9188600D02*
D03*
X9175900Y3835400D02*
D03*
X9035900D02*
D03*
X5619600Y3810000D02*
D03*
X5759600D02*
D03*
X5656500Y5137900D02*
D03*
X5796500D02*
D03*
X6230837Y5487576D02*
D03*
X6090837D02*
D03*
X6826400Y5626100D02*
D03*
X6686400D02*
D03*
X8553300Y5778500D02*
D03*
X8693300D02*
D03*
X6216800Y3797300D02*
D03*
X6076800D02*
D03*
X3308500Y4635500D02*
D03*
X3168500D02*
D03*
X8521816Y4098847D02*
D03*
X8661816D02*
D03*
X6788300Y3937000D02*
D03*
X6648300D02*
D03*
X4134000Y3441700D02*
D03*
X4274000D02*
D03*
X3733800Y3441700D02*
D03*
X3873800D02*
D03*
X5073800Y4013200D02*
D03*
X4933800D02*
D03*
X5442100Y3403600D02*
D03*
X5302100D02*
D03*
X5442100Y3594100D02*
D03*
X5302100D02*
D03*
X5098000Y5137900D02*
D03*
X4958000D02*
D03*
X5440900Y4731500D02*
D03*
X5300900D02*
D03*
X5440900Y4934700D02*
D03*
X5300900D02*
D03*
X3797600Y5105400D02*
D03*
X3657600D02*
D03*
X3423100Y5105400D02*
D03*
X3283100D02*
D03*
X4032700Y4203700D02*
D03*
X3892700D02*
D03*
X4032700Y4013200D02*
D03*
X3892700D02*
D03*
X3689800Y4635500D02*
D03*
X3549800D02*
D03*
X4222900Y4432300D02*
D03*
X4362900D02*
D03*
X4958000Y5341100D02*
D03*
X5098000D02*
D03*
D11*
X7378700Y3422800D02*
D03*
Y3282800D02*
D03*
X6858000Y5302400D02*
D03*
Y5162400D02*
D03*
X6476583Y5627505D02*
D03*
Y5487505D02*
D03*
X8915400Y5238900D02*
D03*
Y5098900D02*
D03*
X8547100Y6134400D02*
D03*
Y5994400D02*
D03*
X7391400Y5099200D02*
D03*
Y4959200D02*
D03*
X7620000Y5099200D02*
D03*
Y4959200D02*
D03*
X7581900Y3422800D02*
D03*
Y3282800D02*
D03*
X8521700Y4464200D02*
D03*
Y4324200D02*
D03*
X8855659Y3554489D02*
D03*
Y3414489D02*
D03*
X6845300Y3575200D02*
D03*
Y3435200D02*
D03*
X6438900Y3937000D02*
D03*
Y3797000D02*
D03*
X5080000Y3352500D02*
D03*
Y3492500D02*
D03*
Y3810300D02*
D03*
Y3670300D02*
D03*
X4647000Y5639700D02*
D03*
Y5499700D02*
D03*
X4647000Y5328400D02*
D03*
Y5188400D02*
D03*
X3686407Y3960330D02*
D03*
Y4100330D02*
D03*
Y4443072D02*
D03*
Y4303072D02*
D03*
D12*
X2775900Y4353000D02*
D03*
Y4918000D02*
D03*
D13*
X2755900Y4635500D02*
D03*
D14*
X5424400Y3821200D02*
D03*
X5294400D02*
D03*
Y4013200D02*
D03*
X5359400D02*
D03*
X5424400D02*
D03*
X4028660Y4444010D02*
D03*
X3898659D02*
D03*
Y4636010D02*
D03*
X3963660D02*
D03*
X4028660D02*
D03*
X5435900Y5335500D02*
D03*
X5370900D02*
D03*
X5305900D02*
D03*
Y5143500D02*
D03*
X5435900D02*
D03*
D15*
X3733800Y3441700D02*
Y3695700D01*
X9188600Y3556000D02*
X9499600D01*
X9588500Y3644900D02*
X9728200D01*
X9499600Y3556000D02*
X9588500Y3644900D01*
X7886700Y3683000D02*
X8699500D01*
X8851900Y3835400D02*
X9035900D01*
X8699500Y3683000D02*
X8851900Y3835400D01*
X5930900Y3784600D02*
X5943600Y3797300D01*
X6076800D01*
X9175900Y3835400D02*
X9664700D01*
X9728200Y3898900D01*
X8856415Y3555245D02*
X9047844D01*
X8855659Y3554489D02*
X8856415Y3555245D01*
X9047844D02*
X9048600Y3556000D01*
X8521700Y3556000D02*
X8844520D01*
X9277500Y5246281D02*
X9279410Y5248191D01*
X9718591D02*
X9728200Y5257800D01*
X9277500Y5245100D02*
Y5246281D01*
X9279410Y5248191D02*
X9718591D01*
X9137500Y5243920D02*
Y5245100D01*
X8915400Y5238900D02*
X9132480D01*
X9137500Y5243920D01*
X8594004Y5245100D02*
X8600204Y5238900D01*
X8539626Y5245100D02*
X8594004D01*
X8600204Y5238900D02*
X8915400D01*
X9050810Y5438690D02*
X9051990D01*
X9125100Y5511800D01*
X9728200D01*
X9048900Y5435600D02*
Y5436780D01*
X9050810Y5438690D01*
X8539626Y5372100D02*
X8542722Y5375196D01*
X8739350Y5435600D02*
X8908900D01*
X8678946Y5375196D02*
X8739350Y5435600D01*
X8542722Y5375196D02*
X8678946D01*
X5880400Y5334000D02*
X5938442D01*
X6090837Y5486395D02*
Y5487576D01*
X5938442Y5334000D02*
X6090837Y5486395D01*
X5621962Y5647062D02*
X5672162D01*
X5613700Y5638800D02*
X5621962Y5647062D01*
X5672162D02*
X6159500Y6134400D01*
X3308500Y4635500D02*
X3549800D01*
X3168500Y4635500D02*
X3168500Y4635500D01*
X2755900Y4635500D02*
X3168500D01*
X4749800Y4648200D02*
Y4928520D01*
Y4025900D02*
Y4648200D01*
X4064000D02*
X4749800D01*
X4032700Y4013200D02*
Y4203700D01*
Y3740000D02*
Y4013200D01*
Y3740000D02*
X4127800Y3644900D01*
X4958000Y5136720D02*
Y5137900D01*
X4749800Y4928520D02*
X4958000Y5136720D01*
X4102400Y5499100D02*
Y6337000D01*
X4102100Y6337300D02*
X4102400Y6337000D01*
Y5411381D02*
Y5499100D01*
X4243000Y5639700D01*
X4647000D01*
X5650900Y5129900D02*
Y5143500D01*
X5435900D02*
X5650900D01*
X5562900Y5041900D02*
X5650900Y5129900D01*
X4647450Y5639250D02*
X5613250D01*
X4647000Y5639700D02*
X4647450Y5639250D01*
X5613250D02*
X5613700Y5638800D01*
X4134000Y3441700D02*
X4134000Y3441700D01*
X4132090Y3443610D02*
X4134000Y3441700D01*
X4127800Y3455670D02*
X4132090Y3451380D01*
Y3443610D02*
Y3451380D01*
X4127800Y3455670D02*
Y3644900D01*
X4771094Y4016290D02*
X4931890D01*
X4761485Y4025900D02*
X4771094Y4016290D01*
X4749800Y4025900D02*
X4761485D01*
X4933800Y4013200D02*
Y4014381D01*
X4931890Y4016290D02*
X4933800Y4014381D01*
X5549900Y3739119D02*
X5619600Y3808819D01*
X5549900Y3695700D02*
Y3739119D01*
X5619600Y3808819D02*
Y3810000D01*
X4148762Y4356981D02*
X4222900Y4431119D01*
Y4432300D01*
X4148762Y4327532D02*
Y4356981D01*
X4140500Y4319270D02*
X4148762Y4327532D01*
X5295900Y3733800D02*
Y3746500D01*
X6540500Y3937000D02*
Y4368800D01*
X6438900Y3937000D02*
X6540500D01*
X6648300D01*
X8216900Y4368800D02*
X8228585D01*
X8323985Y4464200D02*
X8521700D01*
X8228585Y4368800D02*
X8323985Y4464200D01*
X6159500Y6134400D02*
X8547100D01*
X6476583Y5627505D02*
Y5817317D01*
X6159500Y6134400D02*
X6476583Y5817317D01*
X4102400Y5411381D02*
X4102680Y5411100D01*
X3797600Y5106581D02*
X4102400Y5411381D01*
X3797600Y5105400D02*
Y5106581D01*
X8521700Y3810000D02*
Y4324200D01*
X8522880D02*
X8529080Y4318000D01*
X8521700Y4324200D02*
X8522880D01*
X8521700Y3810000D02*
X8521700Y3810000D01*
X8547100Y5778500D02*
Y5994400D01*
Y5506574D02*
Y5778500D01*
X8534400Y5499100D02*
X8539626D01*
X8547100Y5506574D01*
X7886700Y5372100D02*
X8534400D01*
X7886700Y5499100D02*
X8534400D01*
X7639050Y5626100D02*
X7886700D01*
X7391400D02*
X7639050D01*
X7620000Y5607050D02*
X7639050Y5626100D01*
X7620000Y5099200D02*
Y5607050D01*
X7391400Y5099200D02*
Y5626100D01*
X7391400Y5626100D01*
X6476583Y5487505D02*
X6477763D01*
X6662868Y5302400D02*
X6858000D01*
X6477763Y5487505D02*
X6662868Y5302400D01*
X6858000D02*
X7131200D01*
X7264400Y5435600D01*
Y5626100D01*
X6826400Y5626100D02*
X6826400Y5626100D01*
X7137400D01*
X6477285Y5626803D02*
X6685698D01*
X6686400Y5626100D01*
X6476583Y5627505D02*
X6477285Y5626803D01*
X6476548Y5487540D02*
X6476583Y5487505D01*
X6230837Y5487576D02*
X6230872Y5487540D01*
X6476548D01*
X5880400Y5334000D02*
X6020100Y5194300D01*
X5461300Y5334000D02*
X5880400D01*
X5938300Y4934700D02*
X6020100Y5016500D01*
Y5194300D01*
X5440900Y4934700D02*
X5938300D01*
X7886700Y3810000D02*
X8521700D01*
X7594600Y3937000D02*
X7886700D01*
X7378700D02*
X7594600D01*
X7581900Y3924300D02*
X7594600Y3937000D01*
X7581900Y3422800D02*
Y3924300D01*
X7378700Y3937000D02*
X7378700Y3937000D01*
X7378700Y3422800D02*
Y3937000D01*
X6216950Y3797150D02*
X6439930D01*
X6661880Y3575200D02*
X6845300D01*
X6439930Y3797150D02*
X6661880Y3575200D01*
X6845300D02*
X7105800D01*
X7251700Y3721100D02*
Y3937000D01*
X7105800Y3575200D02*
X7251700Y3721100D01*
X7124700Y3937000D02*
X7124700Y3937000D01*
X6788300Y3937000D02*
X7124700D01*
X6438900Y3937000D02*
X6438900Y3937000D01*
X6216800Y3797300D02*
X6216950Y3797150D01*
X5930900Y3784600D02*
Y3964099D01*
Y3657600D02*
Y3784600D01*
X5461000Y4013200D02*
X5881799D01*
X5930900Y3964099D01*
X5442100Y3594100D02*
X5867400D01*
X5930900Y3657600D01*
X5448300Y3810000D02*
X5448300Y3810000D01*
X5619600D01*
X5442100Y3403600D02*
Y3594100D01*
X5302100Y3403600D02*
Y3594100D01*
X5295900Y3733800D02*
X5302100Y3727600D01*
Y3594100D02*
Y3727600D01*
X5080000Y3492500D02*
Y3670300D01*
Y3810300D02*
X5270200D01*
X5270500Y3810000D01*
X5270500Y4013200D02*
X5270500Y4013200D01*
X5073800Y4013200D02*
X5270500D01*
X3873800Y3441700D02*
X4134000D01*
X5440900Y4731500D02*
Y4934700D01*
X5098000Y5137900D02*
X5263700D01*
X5270800Y5130800D01*
X5300900Y4934700D02*
Y5049900D01*
Y4731500D02*
Y4934700D01*
X5296200Y5054600D02*
X5300900Y5049900D01*
X5098000Y5341100D02*
X5276400D01*
X4648180Y5328400D02*
X4660880Y5341100D01*
X4647000Y5328400D02*
X4648180D01*
X4660880Y5341100D02*
X4958000D01*
X4647000Y5499700D02*
X4647000Y5499700D01*
Y5328400D02*
Y5499700D01*
X4051600Y4432300D02*
X4191300D01*
X3873800Y4635500D02*
X3873800Y4635500D01*
X3689800Y4635500D02*
X3873800D01*
X3556300Y5105400D02*
X3657600D01*
X3423100D02*
X3556300D01*
X3549800Y4635500D02*
Y5098900D01*
X3556300Y5105400D01*
X3423100Y5105400D02*
X3423100Y5105400D01*
X3892700Y4013200D02*
Y4203700D01*
X3686407Y4100330D02*
Y4303072D01*
X3873800Y4391421D02*
Y4445000D01*
Y4391421D02*
X3890790Y4374430D01*
Y4205610D02*
X3892700Y4203700D01*
X3890790Y4205610D02*
Y4374430D01*
X3871872Y4443072D02*
X3873800Y4445000D01*
X3686407Y4443072D02*
X3871872D01*
D16*
X9728200Y5511800D02*
D03*
Y3898900D02*
D03*
X5016500Y6083300D02*
D03*
X4102100D02*
D03*
D17*
X9728200Y5257800D02*
D03*
Y5003800D02*
D03*
Y3644900D02*
D03*
Y3390900D02*
D03*
X5016500Y6337300D02*
D03*
X4102100D02*
D03*
D18*
X2794000Y6477000D02*
D03*
Y2794000D02*
D03*
X9906000D02*
D03*
Y6477000D02*
D03*
D19*
X8539626Y5245100D02*
D03*
Y5499100D02*
D03*
X8521700Y3556000D02*
D03*
Y3810000D02*
D03*
X7886700Y3683000D02*
D03*
Y3937000D02*
D03*
Y5372100D02*
D03*
Y5626100D02*
D03*
D20*
X8539626Y5372100D02*
D03*
X8521700Y3683000D02*
D03*
X7886700Y3810000D02*
D03*
Y5499100D02*
D03*
D21*
X7124700Y3937000D02*
D03*
X7378700D02*
D03*
X7391400Y5626100D02*
D03*
X7137400D02*
D03*
D22*
X7251700Y3937000D02*
D03*
X7264400Y5626100D02*
D03*
D23*
X3733800Y3695700D02*
D03*
X5613700Y5638800D02*
D03*
X6540500Y4368800D02*
D03*
X8216900D02*
D03*
D24*
X4515981Y4427860D02*
D03*
X4465181Y5189860D02*
D03*
X9525000Y5118100D02*
D03*
X8770860Y5106111D02*
D03*
X9385300Y5118100D02*
D03*
X9228060Y5106111D02*
D03*
X9075660D02*
D03*
X9499600Y5372100D02*
D03*
X9347200D02*
D03*
X9194800D02*
D03*
X8961360Y5334711D02*
D03*
X8808960D02*
D03*
X9474200Y5638800D02*
D03*
X9334500D02*
D03*
X9194800Y5651500D02*
D03*
X9055100Y5626100D02*
D03*
X8910560Y5563311D02*
D03*
X8783560D02*
D03*
X8720060Y3429711D02*
D03*
X8834360Y3988511D02*
D03*
X8732760Y3912311D02*
D03*
X9367760Y3417011D02*
D03*
X9215360D02*
D03*
X9050260D02*
D03*
X9296400Y3987800D02*
D03*
X9443960Y3696411D02*
D03*
X9278860D02*
D03*
X9101060D02*
D03*
X8923260D02*
D03*
X9461500Y3987800D02*
D03*
X9131300D02*
D03*
X3543600Y3962400D02*
D03*
X8834444Y5776296D02*
D03*
X7018344Y3426796D02*
D03*
X6662744D02*
D03*
X6853244Y3287096D02*
D03*
X7754944D02*
D03*
X7208844D02*
D03*
X7386644Y3134696D02*
D03*
X7577144D02*
D03*
X8974144Y3287096D02*
D03*
X8796344Y4099896D02*
D03*
X8966200Y3987800D02*
D03*
X8986844Y4976196D02*
D03*
X7391400Y4813300D02*
D03*
X7620000D02*
D03*
X7767644Y4963496D02*
D03*
X7234244D02*
D03*
X7018344Y5166696D02*
D03*
X6865944Y5026996D02*
D03*
X6713544Y5166696D02*
D03*
X5220000Y5486400D02*
D03*
X5516631Y5486933D02*
D03*
X5364231D02*
D03*
X4457700Y5054600D02*
D03*
X4635500Y5041900D02*
D03*
X5910331Y5131333D02*
D03*
X5363931Y4153433D02*
D03*
X5757631Y3696233D02*
D03*
X5740100Y3924300D02*
D03*
X4919431Y3353333D02*
D03*
X5092700Y3200400D02*
D03*
X4424431Y3442233D02*
D03*
X3149600Y5092700D02*
D03*
X2679700Y4191000D02*
D03*
X2844800D02*
D03*
X3009900D02*
D03*
Y5092700D02*
D03*
X2857500D02*
D03*
X2692400D02*
D03*
X5562900Y5041900D02*
D03*
X4127800Y3644900D02*
D03*
X4749800Y4025900D02*
D03*
X5549900Y3695700D02*
D03*
X4140500Y4319270D02*
D03*
%TF.MD5,53a86da9600cfcab557ce6e178127894*%
M02*
