%TF.GenerationSoftware,Altium Limited,Altium Designer,22.7.1 (60)*%
G04 Layer_Color=65535*
%FSLAX45Y45*%
%MOMM*%
%TF.SameCoordinates,8DF05635-03F1-411C-9BC5-7CD19558B576*%
%TF.FilePolarity,Positive*%
%TF.FileFunction,Legend,Top*%
%TF.Part,Single*%
G01*
G75*
%TA.AperFunction,NonConductor*%
%ADD25C,0.28000*%
%ADD26C,0.20000*%
%ADD27C,0.25000*%
%ADD28C,0.12700*%
%ADD29C,0.25400*%
D25*
X2999900Y4635500D02*
G03*
X2999900Y4635500I-14000J0D01*
G01*
D26*
X8689626Y5570098D02*
G03*
X8689626Y5174102I-150000J-197998D01*
G01*
X8671700Y3880998D02*
G03*
X8671700Y3485002I-150000J-197998D01*
G01*
X7449698Y3787000D02*
G03*
X7053702Y3787000I-197998J150000D01*
G01*
X5434400Y4127200D02*
G03*
X5434400Y4127200I-10000J0D01*
G01*
X4038660Y4750010D02*
G03*
X4038660Y4750010I-10000J0D01*
G01*
X7736700Y3612002D02*
G03*
X7736700Y4007998I150000J197998D01*
G01*
X7462398Y5476100D02*
G03*
X7066402Y5476100I-197998J150000D01*
G01*
X7736700Y5301102D02*
G03*
X7736700Y5697098I150000J197998D01*
G01*
X5445900Y5449500D02*
G03*
X5445900Y5449500I-10000J0D01*
G01*
X9601200Y4876800D02*
Y5638800D01*
Y4876800D02*
X9855200D01*
Y5638800D01*
X9601200D02*
X9855200D01*
X9601200Y3263900D02*
Y4025900D01*
Y3263900D02*
X9855200D01*
Y4025900D01*
X9601200D02*
X9855200D01*
X8689625Y5174102D02*
Y5570098D01*
X8671700Y3485002D02*
Y3880998D01*
X7053702Y3787000D02*
X7449698D01*
X7736700Y3612002D02*
Y4007998D01*
X7066402Y5476100D02*
X7462398D01*
X7736700Y5301102D02*
Y5697098D01*
X4889500Y6464300D02*
X5143500D01*
Y5956300D02*
Y6464300D01*
X4889500Y5956300D02*
X5143500D01*
X4889500D02*
Y6464300D01*
X3975100D02*
X4229100D01*
Y5956300D02*
Y6464300D01*
X3975100Y5956300D02*
X4229100D01*
X3975100D02*
Y6464300D01*
D27*
X8687126Y5089100D02*
G03*
X8687126Y5089100I-12500J0D01*
G01*
X8669200Y3400000D02*
G03*
X8669200Y3400000I-12500J0D01*
G01*
X6981200Y3802000D02*
G03*
X6981200Y3802000I-12500J0D01*
G01*
X7764200Y4093000D02*
G03*
X7764200Y4093000I-12500J0D01*
G01*
X6993900Y5491100D02*
G03*
X6993900Y5491100I-12500J0D01*
G01*
X7764200Y5782100D02*
G03*
X7764200Y5782100I-12500J0D01*
G01*
D28*
X2946900Y4445500D02*
Y4545500D01*
Y4725500D02*
Y4825500D01*
X2575900Y4445500D02*
Y4545500D01*
Y4725500D02*
Y4825500D01*
X5242400Y3854700D02*
Y3979700D01*
X5476400Y3854700D02*
Y3979700D01*
X3846660Y4477510D02*
Y4602510D01*
X4080660Y4477510D02*
Y4602510D01*
X5487900Y5177000D02*
Y5302000D01*
X5253900Y5177000D02*
Y5302000D01*
D29*
X9944100Y5448300D02*
Y5600651D01*
X10020275D01*
X10045667Y5575259D01*
Y5524475D01*
X10020275Y5499083D01*
X9944100D01*
X9959102Y3810845D02*
Y3963196D01*
X10035278D01*
X10060669Y3937804D01*
Y3887021D01*
X10035278Y3861629D01*
X9959102D01*
X10045667Y3441659D02*
X10020275Y3467051D01*
X9969492D01*
X9944100Y3441659D01*
Y3340092D01*
X9969492Y3314700D01*
X10020275D01*
X10045667Y3340092D01*
Y3390875D01*
X9994883D01*
X10032967Y5041859D02*
X10007575Y5067251D01*
X9956792D01*
X9931400Y5041859D01*
Y4940292D01*
X9956792Y4914900D01*
X10007575D01*
X10032967Y4940292D01*
Y4991075D01*
X9982183D01*
X10045667Y3695659D02*
X10020275Y3721051D01*
X9969492D01*
X9944100Y3695659D01*
Y3670267D01*
X9969492Y3644875D01*
X10020275D01*
X10045667Y3619483D01*
Y3594092D01*
X10020275Y3568700D01*
X9969492D01*
X9944100Y3594092D01*
X10032967Y5308559D02*
X10007575Y5333951D01*
X9956792D01*
X9931400Y5308559D01*
Y5283167D01*
X9956792Y5257775D01*
X10007575D01*
X10032967Y5232383D01*
Y5206992D01*
X10007575Y5181600D01*
X9956792D01*
X9931400Y5206992D01*
X8839266Y5562625D02*
Y5714975D01*
X8915441D01*
X8940833Y5689583D01*
Y5638800D01*
X8915441Y5613408D01*
X8839266D01*
X8890049D02*
X8940833Y5562625D01*
X8991617Y5689583D02*
X9017008Y5714975D01*
X9067792D01*
X9093184Y5689583D01*
Y5664192D01*
X9067792Y5638800D01*
X9042400D01*
X9067792D01*
X9093184Y5613408D01*
Y5588017D01*
X9067792Y5562625D01*
X9017008D01*
X8991617Y5588017D01*
X9143967Y5689583D02*
X9169359Y5714975D01*
X9220143D01*
X9245534Y5689583D01*
Y5664192D01*
X9220143Y5638800D01*
X9194751D01*
X9220143D01*
X9245534Y5613408D01*
Y5588017D01*
X9220143Y5562625D01*
X9169359D01*
X9143967Y5588017D01*
X9296375Y4775258D02*
X9144025D01*
Y4851433D01*
X9169417Y4876825D01*
X9220200D01*
X9245592Y4851433D01*
Y4775258D01*
Y4826041D02*
X9296375Y4876825D01*
X9169417Y4927608D02*
X9144025Y4953000D01*
Y5003784D01*
X9169417Y5029176D01*
X9194808D01*
X9220200Y5003784D01*
Y4978392D01*
Y5003784D01*
X9245592Y5029176D01*
X9270983D01*
X9296375Y5003784D01*
Y4953000D01*
X9270983Y4927608D01*
X9296375Y5079959D02*
Y5130743D01*
Y5105351D01*
X9144025D01*
X9169417Y5079959D01*
X9067866Y3276625D02*
Y3428975D01*
X9144041D01*
X9169433Y3403583D01*
Y3352800D01*
X9144041Y3327408D01*
X9067866D01*
X9118649D02*
X9169433Y3276625D01*
X9220217Y3403583D02*
X9245608Y3428975D01*
X9296392D01*
X9321784Y3403583D01*
Y3378192D01*
X9296392Y3352800D01*
X9271000D01*
X9296392D01*
X9321784Y3327408D01*
Y3302017D01*
X9296392Y3276625D01*
X9245608D01*
X9220217Y3302017D01*
X9372567Y3403583D02*
X9397959Y3428975D01*
X9448743D01*
X9474134Y3403583D01*
Y3302017D01*
X9448743Y3276625D01*
X9397959D01*
X9372567Y3302017D01*
Y3403583D01*
X8928166Y3962425D02*
Y4114775D01*
X9004341D01*
X9029733Y4089383D01*
Y4038600D01*
X9004341Y4013208D01*
X8928166D01*
X8978949D02*
X9029733Y3962425D01*
X9080517Y4089383D02*
X9105908Y4114775D01*
X9156692D01*
X9182084Y4089383D01*
Y4063992D01*
X9156692Y4038600D01*
X9131300D01*
X9156692D01*
X9182084Y4013208D01*
Y3987817D01*
X9156692Y3962425D01*
X9105908D01*
X9080517Y3987817D01*
X9334434Y3962425D02*
X9232867D01*
X9334434Y4063992D01*
Y4089383D01*
X9309043Y4114775D01*
X9258259D01*
X9232867Y4089383D01*
X5689308Y4076683D02*
X5663917Y4102075D01*
X5613133D01*
X5587741Y4076683D01*
Y3975117D01*
X5613133Y3949725D01*
X5663917D01*
X5689308Y3975117D01*
X5740092D02*
X5765484Y3949725D01*
X5816267D01*
X5841659Y3975117D01*
Y4076683D01*
X5816267Y4102075D01*
X5765484D01*
X5740092Y4076683D01*
Y4051292D01*
X5765484Y4025900D01*
X5841659D01*
X9601200Y4152900D02*
Y4305251D01*
X9677375D01*
X9702767Y4279859D01*
Y4229075D01*
X9677375Y4203683D01*
X9601200D01*
X9829726Y4305251D02*
X9778943D01*
X9753551Y4279859D01*
Y4178292D01*
X9778943Y4152900D01*
X9829726D01*
X9855118Y4178292D01*
Y4279859D01*
X9829726Y4305251D01*
X10007469Y4279859D02*
X9982077Y4305251D01*
X9931293D01*
X9905901Y4279859D01*
Y4254467D01*
X9931293Y4229075D01*
X9982077D01*
X10007469Y4203683D01*
Y4178292D01*
X9982077Y4152900D01*
X9931293D01*
X9905901Y4178292D01*
X9575800Y5765800D02*
Y5918151D01*
X9677367Y5765800D01*
Y5918151D01*
X9829718D02*
X9728151D01*
Y5765800D01*
X9829718D01*
X9728151Y5841975D02*
X9778934D01*
X9982069Y5892759D02*
X9956677Y5918151D01*
X9905893D01*
X9880501Y5892759D01*
Y5791192D01*
X9905893Y5765800D01*
X9956677D01*
X9982069Y5791192D01*
Y5841975D01*
X9931285D01*
X4546600Y2768600D02*
Y2920951D01*
X4648167Y2768600D01*
Y2920951D01*
X4775126Y2768600D02*
X4724343D01*
X4698951Y2793992D01*
Y2844775D01*
X4724343Y2870167D01*
X4775126D01*
X4800518Y2844775D01*
Y2819383D01*
X4698951D01*
X4851301Y2870167D02*
Y2793992D01*
X4876693Y2768600D01*
X4952869D01*
Y2870167D01*
X5003652D02*
Y2768600D01*
Y2819383D01*
X5029044Y2844775D01*
X5054436Y2870167D01*
X5079828D01*
X5181395Y2768600D02*
X5232178D01*
X5257570Y2793992D01*
Y2844775D01*
X5232178Y2870167D01*
X5181395D01*
X5156003Y2844775D01*
Y2793992D01*
X5181395Y2768600D01*
X5308354Y2920951D02*
Y2768600D01*
X5384529D01*
X5409921Y2793992D01*
Y2819383D01*
X5384529Y2844775D01*
X5308354D01*
X5384529D01*
X5409921Y2870167D01*
Y2895559D01*
X5384529Y2920951D01*
X5308354D01*
X5460704D02*
Y2768600D01*
X5536880D01*
X5562272Y2793992D01*
Y2819383D01*
X5536880Y2844775D01*
X5460704D01*
X5536880D01*
X5562272Y2870167D01*
Y2895559D01*
X5536880Y2920951D01*
X5460704D01*
X5765406D02*
Y2819383D01*
X5816189Y2768600D01*
X5866973Y2819383D01*
Y2920951D01*
X5993932Y2768600D02*
X5943148D01*
X5917757Y2793992D01*
Y2844775D01*
X5943148Y2870167D01*
X5993932D01*
X6019324Y2844775D01*
Y2819383D01*
X5917757D01*
X6070107Y2870167D02*
Y2768600D01*
Y2819383D01*
X6095499Y2844775D01*
X6120891Y2870167D01*
X6146283D01*
X6222458Y2768600D02*
Y2793992D01*
X6247850D01*
Y2768600D01*
X6222458D01*
X6349417Y2920951D02*
Y2768600D01*
X6425592D01*
X6450984Y2793992D01*
Y2819383D01*
X6425592Y2844775D01*
X6349417D01*
X6425592D01*
X6450984Y2870167D01*
Y2895559D01*
X6425592Y2920951D01*
X6349417D01*
X4635541Y6146767D02*
X4610149Y6121375D01*
Y6070592D01*
X4635541Y6045200D01*
X4737108D01*
X4762500Y6070592D01*
Y6121375D01*
X4737108Y6146767D01*
X4686325D01*
Y6095983D01*
X4762500Y6197551D02*
X4610149D01*
X4762500Y6299118D01*
X4610149D01*
Y6349901D02*
X4762500D01*
Y6426077D01*
X4737108Y6451469D01*
X4635541D01*
X4610149Y6426077D01*
Y6349901D01*
X3721149Y6032500D02*
X3822717D01*
X3873500Y6083283D01*
X3822717Y6134067D01*
X3721149D01*
X3746541Y6286418D02*
X3721149Y6261026D01*
Y6210243D01*
X3746541Y6184851D01*
X3848108D01*
X3873500Y6210243D01*
Y6261026D01*
X3848108Y6286418D01*
X3746541Y6438769D02*
X3721149Y6413377D01*
Y6362593D01*
X3746541Y6337201D01*
X3848108D01*
X3873500Y6362593D01*
Y6413377D01*
X3848108Y6438769D01*
X5245141Y4356075D02*
Y4229117D01*
X5270533Y4203725D01*
X5321317D01*
X5346708Y4229117D01*
Y4356075D01*
X5397492Y4330683D02*
X5422884Y4356075D01*
X5473667D01*
X5499059Y4330683D01*
Y4305292D01*
X5473667Y4279900D01*
X5448275D01*
X5473667D01*
X5499059Y4254508D01*
Y4229117D01*
X5473667Y4203725D01*
X5422884D01*
X5397492Y4229117D01*
X3836701Y4959085D02*
Y4832126D01*
X3862093Y4806734D01*
X3912876D01*
X3938268Y4832126D01*
Y4959085D01*
X4090619Y4806734D02*
X3989051D01*
X4090619Y4908302D01*
Y4933693D01*
X4065227Y4959085D01*
X4014443D01*
X3989051Y4933693D01*
X5260340Y5697171D02*
Y5570212D01*
X5285732Y5544820D01*
X5336515D01*
X5361907Y5570212D01*
Y5697171D01*
X5412691Y5544820D02*
X5463474D01*
X5438083D01*
Y5697171D01*
X5412691Y5671779D01*
X8991575Y4546666D02*
X8839225D01*
Y4622841D01*
X8864617Y4648233D01*
X8915400D01*
X8940792Y4622841D01*
Y4546666D01*
Y4597449D02*
X8991575Y4648233D01*
Y4800584D02*
Y4699017D01*
X8890008Y4800584D01*
X8864617D01*
X8839225Y4775192D01*
Y4724408D01*
X8864617Y4699017D01*
X8966183Y4851367D02*
X8991575Y4876759D01*
Y4927543D01*
X8966183Y4952934D01*
X8864617D01*
X8839225Y4927543D01*
Y4876759D01*
X8864617Y4851367D01*
X8890008D01*
X8915400Y4876759D01*
Y4952934D01*
X6680266Y4895725D02*
Y5048076D01*
X6756441D01*
X6781833Y5022684D01*
Y4971900D01*
X6756441Y4946508D01*
X6680266D01*
X6731049D02*
X6781833Y4895725D01*
X6934183D02*
X6832616D01*
X6934183Y4997292D01*
Y5022684D01*
X6908792Y5048076D01*
X6858008D01*
X6832616Y5022684D01*
X6984967D02*
X7010359Y5048076D01*
X7061142D01*
X7086534Y5022684D01*
Y4997292D01*
X7061142Y4971900D01*
X7086534Y4946508D01*
Y4921117D01*
X7061142Y4895725D01*
X7010359D01*
X6984967Y4921117D01*
Y4946508D01*
X7010359Y4971900D01*
X6984967Y4997292D01*
Y5022684D01*
X7010359Y4971900D02*
X7061142D01*
X8750366Y5880125D02*
Y6032475D01*
X8826541D01*
X8851933Y6007083D01*
Y5956300D01*
X8826541Y5930908D01*
X8750366D01*
X8801149D02*
X8851933Y5880125D01*
X9004284D02*
X8902717D01*
X9004284Y5981692D01*
Y6007083D01*
X8978892Y6032475D01*
X8928108D01*
X8902717Y6007083D01*
X9055067Y6032475D02*
X9156634D01*
Y6007083D01*
X9055067Y5905517D01*
Y5880125D01*
X7708875Y4432366D02*
X7556524D01*
Y4508541D01*
X7581916Y4533933D01*
X7632700D01*
X7658092Y4508541D01*
Y4432366D01*
Y4483149D02*
X7708875Y4533933D01*
Y4686283D02*
Y4584716D01*
X7607308Y4686283D01*
X7581916D01*
X7556524Y4660892D01*
Y4610108D01*
X7581916Y4584716D01*
X7556524Y4838634D02*
X7581916Y4787850D01*
X7632700Y4737067D01*
X7683483D01*
X7708875Y4762459D01*
Y4813242D01*
X7683483Y4838634D01*
X7658092D01*
X7632700Y4813242D01*
Y4737067D01*
X6527358Y5754571D02*
X6375007D01*
Y5830747D01*
X6400399Y5856138D01*
X6451183D01*
X6476575Y5830747D01*
Y5754571D01*
Y5805355D02*
X6527358Y5856138D01*
Y6008489D02*
Y5906922D01*
X6425791Y6008489D01*
X6400399D01*
X6375007Y5983097D01*
Y5932314D01*
X6400399Y5906922D01*
X6375007Y6160840D02*
Y6059273D01*
X6451183D01*
X6425791Y6110056D01*
Y6135448D01*
X6451183Y6160840D01*
X6501966D01*
X6527358Y6135448D01*
Y6084664D01*
X6501966Y6059273D01*
X8331266Y6286525D02*
Y6438875D01*
X8407441D01*
X8432833Y6413483D01*
Y6362700D01*
X8407441Y6337308D01*
X8331266D01*
X8382049D02*
X8432833Y6286525D01*
X8585184D02*
X8483617D01*
X8585184Y6388092D01*
Y6413483D01*
X8559792Y6438875D01*
X8509008D01*
X8483617Y6413483D01*
X8712143Y6286525D02*
Y6438875D01*
X8635967Y6362700D01*
X8737534D01*
X6851775Y5753166D02*
X6699424D01*
Y5829341D01*
X6724816Y5854733D01*
X6775600D01*
X6800992Y5829341D01*
Y5753166D01*
Y5803949D02*
X6851775Y5854733D01*
Y6007084D02*
Y5905517D01*
X6750208Y6007084D01*
X6724816D01*
X6699424Y5981692D01*
Y5930908D01*
X6724816Y5905517D01*
Y6057867D02*
X6699424Y6083259D01*
Y6134043D01*
X6724816Y6159434D01*
X6750208D01*
X6775600Y6134043D01*
Y6108651D01*
Y6134043D01*
X6800992Y6159434D01*
X6826383D01*
X6851775Y6134043D01*
Y6083259D01*
X6826383Y6057867D01*
X3988166Y3162325D02*
Y3314675D01*
X4064341D01*
X4089733Y3289283D01*
Y3238500D01*
X4064341Y3213108D01*
X3988166D01*
X4038949D02*
X4089733Y3162325D01*
X4242084D02*
X4140516D01*
X4242084Y3263892D01*
Y3289283D01*
X4216692Y3314675D01*
X4165908D01*
X4140516Y3289283D01*
X4394434Y3162325D02*
X4292867D01*
X4394434Y3263892D01*
Y3289283D01*
X4369043Y3314675D01*
X4318259D01*
X4292867Y3289283D01*
X5575358Y3530625D02*
Y3682975D01*
X5651533D01*
X5676925Y3657583D01*
Y3606800D01*
X5651533Y3581408D01*
X5575358D01*
X5626141D02*
X5676925Y3530625D01*
X5829276D02*
X5727708D01*
X5829276Y3632192D01*
Y3657583D01*
X5803884Y3682975D01*
X5753100D01*
X5727708Y3657583D01*
X5880059Y3530625D02*
X5930843D01*
X5905451D01*
Y3682975D01*
X5880059Y3657583D01*
X4546666Y3632225D02*
Y3784575D01*
X4622841D01*
X4648233Y3759183D01*
Y3708400D01*
X4622841Y3683008D01*
X4546666D01*
X4597449D02*
X4648233Y3632225D01*
X4800584D02*
X4699017D01*
X4800584Y3733792D01*
Y3759183D01*
X4775192Y3784575D01*
X4724408D01*
X4699017Y3759183D01*
X4851367D02*
X4876759Y3784575D01*
X4927543D01*
X4952934Y3759183D01*
Y3657617D01*
X4927543Y3632225D01*
X4876759D01*
X4851367Y3657617D01*
Y3759183D01*
X3505562Y3162325D02*
Y3314675D01*
X3581737D01*
X3607129Y3289283D01*
Y3238500D01*
X3581737Y3213108D01*
X3505562D01*
X3556345D02*
X3607129Y3162325D01*
X3657912D02*
X3708696D01*
X3683304D01*
Y3314675D01*
X3657912Y3289283D01*
X3784871Y3187717D02*
X3810263Y3162325D01*
X3861047D01*
X3886439Y3187717D01*
Y3289283D01*
X3861047Y3314675D01*
X3810263D01*
X3784871Y3289283D01*
Y3263892D01*
X3810263Y3238500D01*
X3886439D01*
X4756062Y4140225D02*
Y4292576D01*
X4832237D01*
X4857629Y4267184D01*
Y4216400D01*
X4832237Y4191008D01*
X4756062D01*
X4806845D02*
X4857629Y4140225D01*
X4908413D02*
X4959196D01*
X4933804D01*
Y4292576D01*
X4908413Y4267184D01*
X5035371D02*
X5060763Y4292576D01*
X5111547D01*
X5136939Y4267184D01*
Y4241792D01*
X5111547Y4216400D01*
X5136939Y4191008D01*
Y4165617D01*
X5111547Y4140225D01*
X5060763D01*
X5035371Y4165617D01*
Y4191008D01*
X5060763Y4216400D01*
X5035371Y4241792D01*
Y4267184D01*
X5060763Y4216400D02*
X5111547D01*
X8944535Y2925750D02*
X8792184D01*
Y3001926D01*
X8817576Y3027318D01*
X8868359D01*
X8893751Y3001926D01*
Y2925750D01*
Y2976534D02*
X8944535Y3027318D01*
Y3078101D02*
Y3128885D01*
Y3103493D01*
X8792184D01*
X8817576Y3078101D01*
X8792184Y3205060D02*
Y3306627D01*
X8817576D01*
X8919143Y3205060D01*
X8944535D01*
X6680262Y3162325D02*
Y3314675D01*
X6756437D01*
X6781829Y3289283D01*
Y3238500D01*
X6756437Y3213108D01*
X6680262D01*
X6731045D02*
X6781829Y3162325D01*
X6832612D02*
X6883396D01*
X6858004D01*
Y3314675D01*
X6832612Y3289283D01*
X7061139Y3314675D02*
X7010355Y3289283D01*
X6959571Y3238500D01*
Y3187717D01*
X6984963Y3162325D01*
X7035747D01*
X7061139Y3187717D01*
Y3213108D01*
X7035747Y3238500D01*
X6959571D01*
X8699562Y4254525D02*
Y4406875D01*
X8775737D01*
X8801129Y4381483D01*
Y4330700D01*
X8775737Y4305308D01*
X8699562D01*
X8750345D02*
X8801129Y4254525D01*
X8851912D02*
X8902696D01*
X8877304D01*
Y4406875D01*
X8851912Y4381483D01*
X9080439Y4406875D02*
X8978871D01*
Y4330700D01*
X9029655Y4356092D01*
X9055047D01*
X9080439Y4330700D01*
Y4279917D01*
X9055047Y4254525D01*
X9004263D01*
X8978871Y4279917D01*
X7429475Y2787562D02*
X7277124D01*
Y2863737D01*
X7302516Y2889129D01*
X7353300D01*
X7378692Y2863737D01*
Y2787562D01*
Y2838345D02*
X7429475Y2889129D01*
Y2939913D02*
Y2990696D01*
Y2965304D01*
X7277124D01*
X7302516Y2939913D01*
X7429475Y3143047D02*
X7277124D01*
X7353300Y3066871D01*
Y3168439D01*
X6502375Y4063762D02*
X6350025D01*
Y4139937D01*
X6375417Y4165329D01*
X6426200D01*
X6451592Y4139937D01*
Y4063762D01*
Y4114545D02*
X6502375Y4165329D01*
Y4216112D02*
Y4266896D01*
Y4241504D01*
X6350025D01*
X6375417Y4216112D01*
Y4343071D02*
X6350025Y4368463D01*
Y4419247D01*
X6375417Y4444639D01*
X6400808D01*
X6426200Y4419247D01*
Y4393855D01*
Y4419247D01*
X6451592Y4444639D01*
X6476983D01*
X6502375Y4419247D01*
Y4368463D01*
X6476983Y4343071D01*
X8191562Y4610125D02*
Y4762475D01*
X8267737D01*
X8293129Y4737083D01*
Y4686300D01*
X8267737Y4660908D01*
X8191562D01*
X8242345D02*
X8293129Y4610125D01*
X8343912D02*
X8394696D01*
X8369304D01*
Y4762475D01*
X8343912Y4737083D01*
X8572439Y4610125D02*
X8470871D01*
X8572439Y4711692D01*
Y4737083D01*
X8547047Y4762475D01*
X8496263D01*
X8470871Y4737083D01*
X6604054Y4076725D02*
Y4229075D01*
X6680229D01*
X6705621Y4203683D01*
Y4152900D01*
X6680229Y4127508D01*
X6604054D01*
X6654837D02*
X6705621Y4076725D01*
X6756404D02*
X6807188D01*
X6781796D01*
Y4229075D01*
X6756404Y4203683D01*
X6883363Y4076725D02*
X6934147D01*
X6908755D01*
Y4229075D01*
X6883363Y4203683D01*
X3136962Y5245125D02*
Y5397475D01*
X3213137D01*
X3238529Y5372083D01*
Y5321300D01*
X3213137Y5295908D01*
X3136962D01*
X3187745D02*
X3238529Y5245125D01*
X3289312D02*
X3340096D01*
X3314704D01*
Y5397475D01*
X3289312Y5372083D01*
X3416271D02*
X3441663Y5397475D01*
X3492447D01*
X3517839Y5372083D01*
Y5270517D01*
X3492447Y5245125D01*
X3441663D01*
X3416271Y5270517D01*
Y5372083D01*
X4165941Y4140225D02*
Y4292575D01*
X4242116D01*
X4267508Y4267183D01*
Y4216400D01*
X4242116Y4191008D01*
X4165941D01*
X4216725D02*
X4267508Y4140225D01*
X4318292Y4165617D02*
X4343684Y4140225D01*
X4394467D01*
X4419859Y4165617D01*
Y4267183D01*
X4394467Y4292575D01*
X4343684D01*
X4318292Y4267183D01*
Y4241792D01*
X4343684Y4216400D01*
X4419859D01*
X3559383Y4246113D02*
X3407032D01*
Y4322289D01*
X3432424Y4347681D01*
X3483207D01*
X3508599Y4322289D01*
Y4246113D01*
Y4296897D02*
X3559383Y4347681D01*
X3432424Y4398464D02*
X3407032Y4423856D01*
Y4474640D01*
X3432424Y4500031D01*
X3457816D01*
X3483207Y4474640D01*
X3508599Y4500031D01*
X3533991D01*
X3559383Y4474640D01*
Y4423856D01*
X3533991Y4398464D01*
X3508599D01*
X3483207Y4423856D01*
X3457816Y4398464D01*
X3432424D01*
X3483207Y4423856D02*
Y4474640D01*
X3644941Y5245125D02*
Y5397475D01*
X3721117D01*
X3746508Y5372083D01*
Y5321300D01*
X3721117Y5295908D01*
X3644941D01*
X3695725D02*
X3746508Y5245125D01*
X3797292Y5397475D02*
X3898859D01*
Y5372083D01*
X3797292Y5270517D01*
Y5245125D01*
X3479841Y4749825D02*
Y4902175D01*
X3556017D01*
X3581408Y4876783D01*
Y4826000D01*
X3556017Y4800608D01*
X3479841D01*
X3530625D02*
X3581408Y4749825D01*
X3733759Y4902175D02*
X3682975Y4876783D01*
X3632192Y4826000D01*
Y4775217D01*
X3657584Y4749825D01*
X3708367D01*
X3733759Y4775217D01*
Y4800608D01*
X3708367Y4826000D01*
X3632192D01*
X4267541Y5194325D02*
Y5346675D01*
X4343716D01*
X4369108Y5321283D01*
Y5270500D01*
X4343716Y5245108D01*
X4267541D01*
X4318325D02*
X4369108Y5194325D01*
X4521459Y5346675D02*
X4419892D01*
Y5270500D01*
X4470675Y5295892D01*
X4496067D01*
X4521459Y5270500D01*
Y5219717D01*
X4496067Y5194325D01*
X4445284D01*
X4419892Y5219717D01*
X5586841Y4858525D02*
Y5010875D01*
X5663016D01*
X5688408Y4985484D01*
Y4934700D01*
X5663016Y4909308D01*
X5586841D01*
X5637624D02*
X5688408Y4858525D01*
X5815367D02*
Y5010875D01*
X5739192Y4934700D01*
X5840759D01*
X4266041Y5518925D02*
Y5671275D01*
X4342216D01*
X4367608Y5645884D01*
Y5595100D01*
X4342216Y5569708D01*
X4266041D01*
X4316824D02*
X4367608Y5518925D01*
X4418392Y5645884D02*
X4443784Y5671275D01*
X4494567D01*
X4519959Y5645884D01*
Y5620492D01*
X4494567Y5595100D01*
X4469175D01*
X4494567D01*
X4519959Y5569708D01*
Y5544317D01*
X4494567Y5518925D01*
X4443784D01*
X4418392Y5544317D01*
X4902541Y4851425D02*
Y5003775D01*
X4978716D01*
X5004108Y4978383D01*
Y4927600D01*
X4978716Y4902208D01*
X4902541D01*
X4953325D02*
X5004108Y4851425D01*
X5156459D02*
X5054892D01*
X5156459Y4952992D01*
Y4978383D01*
X5131067Y5003775D01*
X5080284D01*
X5054892Y4978383D01*
X4919980Y5488940D02*
Y5641291D01*
X4996155D01*
X5021547Y5615899D01*
Y5565115D01*
X4996155Y5539723D01*
X4919980D01*
X4970763D02*
X5021547Y5488940D01*
X5072331D02*
X5123114D01*
X5097723D01*
Y5641291D01*
X5072331Y5615899D01*
X8374534Y4927617D02*
Y5029183D01*
X8349142Y5054575D01*
X8298359D01*
X8272967Y5029183D01*
Y4927617D01*
X8298359Y4902225D01*
X8349142D01*
X8323750Y4953008D02*
X8374534Y4902225D01*
X8349142D02*
X8374534Y4927617D01*
X8526885Y5054575D02*
X8476101Y5029183D01*
X8425318Y4978400D01*
Y4927617D01*
X8450710Y4902225D01*
X8501493D01*
X8526885Y4927617D01*
Y4953008D01*
X8501493Y4978400D01*
X8425318D01*
X7853647Y5908032D02*
Y6009599D01*
X7828255Y6034991D01*
X7777472D01*
X7752080Y6009599D01*
Y5908032D01*
X7777472Y5882640D01*
X7828255D01*
X7802863Y5933423D02*
X7853647Y5882640D01*
X7828255D02*
X7853647Y5908032D01*
X8005998Y6034991D02*
X7904431D01*
Y5958815D01*
X7955214Y5984207D01*
X7980606D01*
X8005998Y5958815D01*
Y5908032D01*
X7980606Y5882640D01*
X7929823D01*
X7904431Y5908032D01*
X7084027Y5986772D02*
Y6088339D01*
X7058635Y6113731D01*
X7007852D01*
X6982460Y6088339D01*
Y5986772D01*
X7007852Y5961380D01*
X7058635D01*
X7033243Y6012163D02*
X7084027Y5961380D01*
X7058635D02*
X7084027Y5986772D01*
X7210986Y5961380D02*
Y6113731D01*
X7134811Y6037555D01*
X7236378D01*
X8458208Y3225817D02*
Y3327383D01*
X8432817Y3352775D01*
X8382033D01*
X8356641Y3327383D01*
Y3225817D01*
X8382033Y3200425D01*
X8432817D01*
X8407425Y3251208D02*
X8458208Y3200425D01*
X8432817D02*
X8458208Y3225817D01*
X8508992Y3327383D02*
X8534384Y3352775D01*
X8585167D01*
X8610559Y3327383D01*
Y3301992D01*
X8585167Y3276600D01*
X8559775D01*
X8585167D01*
X8610559Y3251208D01*
Y3225817D01*
X8585167Y3200425D01*
X8534384D01*
X8508992Y3225817D01*
X7853647Y4218932D02*
Y4320499D01*
X7828255Y4345891D01*
X7777472D01*
X7752080Y4320499D01*
Y4218932D01*
X7777472Y4193540D01*
X7828255D01*
X7802863Y4244323D02*
X7853647Y4193540D01*
X7828255D02*
X7853647Y4218932D01*
X8005998Y4193540D02*
X7904431D01*
X8005998Y4295107D01*
Y4320499D01*
X7980606Y4345891D01*
X7929823D01*
X7904431Y4320499D01*
X7086600Y4292617D02*
Y4394183D01*
X7061208Y4419575D01*
X7010425D01*
X6985033Y4394183D01*
Y4292617D01*
X7010425Y4267225D01*
X7061208D01*
X7035817Y4318008D02*
X7086600Y4267225D01*
X7061208D02*
X7086600Y4292617D01*
X7137384Y4267225D02*
X7188167D01*
X7162776D01*
Y4419575D01*
X7137384Y4394183D01*
X2768600Y5270475D02*
X2717817D01*
X2743208D01*
Y5143517D01*
X2717817Y5118125D01*
X2692425D01*
X2667033Y5143517D01*
X2819384Y5118125D02*
X2870167D01*
X2844776D01*
Y5270475D01*
X2819384Y5245083D01*
X7340617Y4559329D02*
X7315225Y4533937D01*
Y4483154D01*
X7340617Y4457762D01*
X7442183D01*
X7467575Y4483154D01*
Y4533937D01*
X7442183Y4559329D01*
X7467575Y4610112D02*
Y4660896D01*
Y4635504D01*
X7315225D01*
X7340617Y4610112D01*
Y4737071D02*
X7315225Y4762463D01*
Y4813247D01*
X7340617Y4838639D01*
X7366008D01*
X7391400Y4813247D01*
Y4787855D01*
Y4813247D01*
X7416792Y4838639D01*
X7442183D01*
X7467575Y4813247D01*
Y4762463D01*
X7442183Y4737071D01*
X5983066Y5754259D02*
X5957674Y5779651D01*
X5906891D01*
X5881499Y5754259D01*
Y5652692D01*
X5906891Y5627300D01*
X5957674D01*
X5983066Y5652692D01*
X6033850Y5627300D02*
X6084633D01*
X6059241D01*
Y5779651D01*
X6033850Y5754259D01*
X6262376Y5627300D02*
X6160808D01*
X6262376Y5728867D01*
Y5754259D01*
X6236984Y5779651D01*
X6186200D01*
X6160808Y5754259D01*
X5676921Y3428983D02*
X5651529Y3454375D01*
X5600745D01*
X5575354Y3428983D01*
Y3327417D01*
X5600745Y3302025D01*
X5651529D01*
X5676921Y3327417D01*
X5727704Y3302025D02*
X5778488D01*
X5753096D01*
Y3454375D01*
X5727704Y3428983D01*
X5854663Y3302025D02*
X5905447D01*
X5880055D01*
Y3454375D01*
X5854663Y3428983D01*
X4673629Y3479783D02*
X4648237Y3505175D01*
X4597454D01*
X4572062Y3479783D01*
Y3378217D01*
X4597454Y3352825D01*
X4648237D01*
X4673629Y3378217D01*
X4724412Y3352825D02*
X4775196D01*
X4749804D01*
Y3505175D01*
X4724412Y3479783D01*
X4851371D02*
X4876763Y3505175D01*
X4927547D01*
X4952939Y3479783D01*
Y3378217D01*
X4927547Y3352825D01*
X4876763D01*
X4851371Y3378217D01*
Y3479783D01*
X3213108Y4876783D02*
X3187717Y4902175D01*
X3136933D01*
X3111541Y4876783D01*
Y4775217D01*
X3136933Y4749825D01*
X3187717D01*
X3213108Y4775217D01*
X3263892Y4876783D02*
X3289284Y4902175D01*
X3340067D01*
X3365459Y4876783D01*
Y4851392D01*
X3340067Y4826000D01*
X3365459Y4800608D01*
Y4775217D01*
X3340067Y4749825D01*
X3289284D01*
X3263892Y4775217D01*
Y4800608D01*
X3289284Y4826000D01*
X3263892Y4851392D01*
Y4876783D01*
X3289284Y4826000D02*
X3340067D01*
X7556517Y2984508D02*
X7531125Y2959117D01*
Y2908333D01*
X7556517Y2882941D01*
X7658083D01*
X7683475Y2908333D01*
Y2959117D01*
X7658083Y2984508D01*
X7531125Y3035292D02*
Y3136859D01*
X7556517D01*
X7658083Y3035292D01*
X7683475D01*
X6083308Y4063983D02*
X6057917Y4089375D01*
X6007133D01*
X5981741Y4063983D01*
Y3962417D01*
X6007133Y3937025D01*
X6057917D01*
X6083308Y3962417D01*
X6235659Y4089375D02*
X6184875Y4063983D01*
X6134092Y4013200D01*
Y3962417D01*
X6159484Y3937025D01*
X6210267D01*
X6235659Y3962417D01*
Y3987808D01*
X6210267Y4013200D01*
X6134092D01*
X4254808Y4025883D02*
X4229416Y4051275D01*
X4178633D01*
X4153241Y4025883D01*
Y3924317D01*
X4178633Y3898925D01*
X4229416D01*
X4254808Y3924317D01*
X4407159Y4051275D02*
X4305592D01*
Y3975100D01*
X4356375Y4000492D01*
X4381767D01*
X4407159Y3975100D01*
Y3924317D01*
X4381767Y3898925D01*
X4330984D01*
X4305592Y3924317D01*
X3457824Y3954138D02*
X3432432Y3928746D01*
Y3877963D01*
X3457824Y3852571D01*
X3559391D01*
X3584783Y3877963D01*
Y3928746D01*
X3559391Y3954138D01*
X3584783Y4081097D02*
X3432432D01*
X3508607Y4004921D01*
Y4106489D01*
X4292908Y4698983D02*
X4267516Y4724375D01*
X4216733D01*
X4191341Y4698983D01*
Y4597417D01*
X4216733Y4572025D01*
X4267516D01*
X4292908Y4597417D01*
X4343692Y4698983D02*
X4369084Y4724375D01*
X4419867D01*
X4445259Y4698983D01*
Y4673592D01*
X4419867Y4648200D01*
X4394475D01*
X4419867D01*
X4445259Y4622808D01*
Y4597417D01*
X4419867Y4572025D01*
X4369084D01*
X4343692Y4597417D01*
X5675708Y4769584D02*
X5650316Y4794975D01*
X5599533D01*
X5574141Y4769584D01*
Y4668017D01*
X5599533Y4642625D01*
X5650316D01*
X5675708Y4668017D01*
X5828059Y4642625D02*
X5726492D01*
X5828059Y4744192D01*
Y4769584D01*
X5802667Y4794975D01*
X5751884D01*
X5726492Y4769584D01*
X5728000Y5397483D02*
X5702608Y5422875D01*
X5651825D01*
X5626433Y5397483D01*
Y5295917D01*
X5651825Y5270525D01*
X5702608D01*
X5728000Y5295917D01*
X5778784Y5270525D02*
X5829567D01*
X5804176D01*
Y5422875D01*
X5778784Y5397483D01*
%TF.MD5,95e2ddde295024da8b34f5e89bb002b7*%
M02*
