%TF.GenerationSoftware,Altium Limited,Altium Designer,22.6.1 (34)*%
G04 Layer_Color=2752767*
%FSLAX26Y26*%
%MOIN*%
%TF.SameCoordinates,8B827DF8-CB59-4627-A0E1-72AFC477AE17*%
%TF.FilePolarity,Positive*%
%TF.FileFunction,Drawing*%
%TF.Part,Single*%
G01*
G75*
%TA.AperFunction,NonConductor*%
%ADD28C,0.005000*%
%ADD47C,0.006667*%
D28*
X2880000Y1880000D02*
Y1920000D01*
X2920000D01*
Y1880000D01*
X2880000D01*
Y1080000D02*
Y1120000D01*
X2920000D01*
Y1080000D01*
X2880000D01*
X1080000D02*
Y1120000D01*
X1120000D01*
Y1080000D01*
X1080000D01*
Y1880000D02*
Y1920000D01*
X1120000D01*
Y1880000D01*
X1080000D01*
D47*
X2195000Y1440000D02*
G03*
X2195000Y1440000I-20000J0D01*
G01*
X1881935Y1158250D02*
G03*
X1881935Y1158250I-20000J0D01*
G01*
X1841935D02*
G03*
X1841935Y1158250I-20000J0D01*
G01*
X2413282Y1158870D02*
G03*
X2413282Y1158870I-20000J0D01*
G01*
X2453282D02*
G03*
X2453282Y1158870I-20000J0D01*
G01*
X2308282D02*
G03*
X2308282Y1158870I-20000J0D01*
G01*
X2348282D02*
G03*
X2348282Y1158870I-20000J0D01*
G01*
X2055000Y1155000D02*
G03*
X2055000Y1155000I-20000J0D01*
G01*
X2095000D02*
G03*
X2095000Y1155000I-20000J0D01*
G01*
X2265000Y1650000D02*
G03*
X2265000Y1650000I-20000J0D01*
G01*
X2165000D02*
G03*
X2165000Y1650000I-20000J0D01*
G01*
X2315000D02*
G03*
X2315000Y1650000I-20000J0D01*
G01*
X2971853Y1545392D02*
G03*
X2971853Y1545392I-20000J0D01*
G01*
X2931853D02*
G03*
X2931853Y1545392I-20000J0D01*
G01*
X2891853D02*
G03*
X2891853Y1545392I-20000J0D01*
G01*
X2850000Y1550000D02*
G03*
X2850000Y1550000I-20000J0D01*
G01*
X2812366Y1537725D02*
G03*
X2812366Y1537725I-20000J0D01*
G01*
X2772366D02*
G03*
X2772366Y1537725I-20000J0D01*
G01*
X2735027Y1523378D02*
G03*
X2735027Y1523378I-20000J0D01*
G01*
X2706743Y1495094D02*
G03*
X2706743Y1495094I-20000J0D01*
G01*
X2590000Y1495000D02*
G03*
X2590000Y1495000I-20000J0D01*
G01*
X2565000Y1400000D02*
G03*
X2565000Y1400000I-20000J0D01*
G01*
X2596468Y1416559D02*
G03*
X2596468Y1416559I-20000J0D01*
G01*
X2636468D02*
G03*
X2636468Y1416559I-20000J0D01*
G01*
X2676461Y1417275D02*
G03*
X2676461Y1417275I-20000J0D01*
G01*
X2716461D02*
G03*
X2716461Y1417275I-20000J0D01*
G01*
X2752655Y1434304D02*
G03*
X2752655Y1434304I-20000J0D01*
G01*
X2781250Y1462275D02*
G03*
X2781250Y1462275I-20000J0D01*
G01*
X2815000Y1450000D02*
G03*
X2815000Y1450000I-20000J0D01*
G01*
X2860000D02*
G03*
X2860000Y1450000I-20000J0D01*
G01*
X2900508Y1454608D02*
G03*
X2900508Y1454608I-20000J0D01*
G01*
X2940508D02*
G03*
X2940508Y1454608I-20000J0D01*
G01*
X2980508D02*
G03*
X2980508Y1454608I-20000J0D01*
G01*
X2487001Y1486727D02*
G03*
X2487001Y1486727I-20000J0D01*
G01*
X2463162Y1454607D02*
G03*
X2463162Y1454607I-20000J0D01*
G01*
X2442667Y1420256D02*
G03*
X2442667Y1420256I-20000J0D01*
G01*
X2442275Y1380258D02*
G03*
X2442275Y1380258I-20000J0D01*
G01*
Y1340258D02*
G03*
X2442275Y1340258I-20000J0D01*
G01*
X2423846Y1304756D02*
G03*
X2423846Y1304756I-20000J0D01*
G01*
X2384097Y1300284D02*
G03*
X2384097Y1300284I-20000J0D01*
G01*
X2344097D02*
G03*
X2344097Y1300284I-20000J0D01*
G01*
X2304103Y1301001D02*
G03*
X2304103Y1301001I-20000J0D01*
G01*
X2260000Y1310000D02*
G03*
X2260000Y1310000I-20000J0D01*
G01*
X2272548Y1229987D02*
G03*
X2272548Y1229987I-20000J0D01*
G01*
X2392294Y1224834D02*
G03*
X2392294Y1224834I-20000J0D01*
G01*
X2470339Y1237187D02*
G03*
X2470339Y1237187I-20000J0D01*
G01*
X2494703Y1268911D02*
G03*
X2494703Y1268911I-20000J0D01*
G01*
X2517037Y1302095D02*
G03*
X2517037Y1302095I-20000J0D01*
G01*
X2517725Y1342089D02*
G03*
X2517725Y1342089I-20000J0D01*
G01*
Y1382089D02*
G03*
X2517725Y1382089I-20000J0D01*
G01*
X2536305Y1417512D02*
G03*
X2536305Y1417512I-20000J0D01*
G01*
X2545000Y1495000D02*
G03*
X2545000Y1495000I-20000J0D01*
G01*
X2144793Y1302725D02*
G03*
X2144793Y1302725I-20000J0D01*
G01*
X2104793D02*
G03*
X2104793Y1302725I-20000J0D01*
G01*
X2064855Y1300504D02*
G03*
X2064855Y1300504I-20000J0D01*
G01*
X2024855D02*
G03*
X2024855Y1300504I-20000J0D01*
G01*
X2008289Y1224892D02*
G03*
X2008289Y1224892I-20000J0D01*
G01*
X2128256Y1227275D02*
G03*
X2128256Y1227275I-20000J0D01*
G01*
X2167448Y1219278D02*
G03*
X2167448Y1219278I-20000J0D01*
G01*
X2206450Y1228159D02*
G03*
X2206450Y1228159I-20000J0D01*
G01*
X2201970Y1302333D02*
G03*
X2201970Y1302333I-20000J0D01*
G01*
X1635841Y1355166D02*
G03*
X1635841Y1355166I-20000J0D01*
G01*
X1535000Y1315000D02*
G03*
X1535000Y1315000I-20000J0D01*
G01*
X1573761Y1281301D02*
G03*
X1573761Y1281301I-20000J0D01*
G01*
X1613730Y1279716D02*
G03*
X1613730Y1279716I-20000J0D01*
G01*
X1653730D02*
G03*
X1653730Y1279716I-20000J0D01*
G01*
X1693730D02*
G03*
X1693730Y1279716I-20000J0D01*
G01*
X1727834Y1258815D02*
G03*
X1727834Y1258815I-20000J0D01*
G01*
X1758371Y1232978D02*
G03*
X1758371Y1232978I-20000J0D01*
G01*
X1797612Y1225226D02*
G03*
X1797612Y1225226I-20000J0D01*
G01*
X1917610Y1225055D02*
G03*
X1917610Y1225055I-20000J0D01*
G01*
X1957610Y1224892D02*
G03*
X1957610Y1224892I-20000J0D01*
G01*
X1969748Y1297047D02*
G03*
X1969748Y1297047I-20000J0D01*
G01*
X1929954Y1301108D02*
G03*
X1929954Y1301108I-20000J0D01*
G01*
X1889959Y1300504D02*
G03*
X1889959Y1300504I-20000J0D01*
G01*
X1856225Y1321999D02*
G03*
X1856225Y1321999I-20000J0D01*
G01*
X1873108Y1358261D02*
G03*
X1873108Y1358261I-20000J0D01*
G01*
X1787553Y1362810D02*
G03*
X1787553Y1362810I-20000J0D01*
G01*
X1651645Y1500725D02*
G03*
X1651645Y1500725I-20000J0D01*
G01*
X1611645D02*
G03*
X1611645Y1500725I-20000J0D01*
G01*
X1571645D02*
G03*
X1571645Y1500725I-20000J0D01*
G01*
X1488986Y1432608D02*
G03*
X1488986Y1432608I-20000J0D01*
G01*
X1520304Y1407725D02*
G03*
X1520304Y1407725I-20000J0D01*
G01*
X1480305Y1408108D02*
G03*
X1480305Y1408108I-20000J0D01*
G01*
X1502929Y1331892D02*
G03*
X1502929Y1331892I-20000J0D01*
G01*
X1623108Y1386800D02*
G03*
X1623108Y1386800I-20000J0D01*
G01*
X1634047Y1425275D02*
G03*
X1634047Y1425275I-20000J0D01*
G01*
X1672620Y1414684D02*
G03*
X1672620Y1414684I-20000J0D01*
G01*
X1700804Y1503840D02*
G03*
X1700804Y1503840I-20000J0D01*
G01*
X1975050Y1572725D02*
G03*
X1975050Y1572725I-20000J0D01*
G01*
X1935125Y1570284D02*
G03*
X1935125Y1570284I-20000J0D01*
G01*
X1895125D02*
G03*
X1895125Y1570284I-20000J0D01*
G01*
X1855125D02*
G03*
X1855125Y1570284I-20000J0D01*
G01*
X1816555Y1559683D02*
G03*
X1816555Y1559683I-20000J0D01*
G01*
X1788160Y1531511D02*
G03*
X1788160Y1531511I-20000J0D01*
G01*
X1757864Y1505392D02*
G03*
X1757864Y1505392I-20000J0D01*
G01*
X1757156Y1414608D02*
G03*
X1757156Y1414608I-20000J0D01*
G01*
X1796892Y1410014D02*
G03*
X1796892Y1410014I-20000J0D01*
G01*
X1873108Y1414858D02*
G03*
X1873108Y1414858I-20000J0D01*
G01*
X1872008Y1454842D02*
G03*
X1872008Y1454842I-20000J0D01*
G01*
X1872813Y1494834D02*
G03*
X1872813Y1494834I-20000J0D01*
G01*
X1992768Y1497275D02*
G03*
X1992768Y1497275I-20000J0D01*
G01*
X2032764Y1497802D02*
G03*
X2032764Y1497802I-20000J0D01*
G01*
X2035993Y1571556D02*
G03*
X2035993Y1571556I-20000J0D01*
G01*
X2067071Y1496892D02*
G03*
X2067071Y1496892I-20000J0D01*
G01*
X2107069Y1497275D02*
G03*
X2107069Y1497275I-20000J0D01*
G01*
X2147069D02*
G03*
X2147069Y1497275I-20000J0D01*
G01*
X2125235Y1572725D02*
G03*
X2125235Y1572725I-20000J0D01*
G01*
X2085235D02*
G03*
X2085235Y1572725I-20000J0D01*
G01*
X2335000Y1810000D02*
G03*
X2335000Y1810000I-20000J0D01*
G01*
X2240000Y1770000D02*
G03*
X2240000Y1770000I-20000J0D01*
G01*
X2328204Y1732275D02*
G03*
X2328204Y1732275I-20000J0D01*
G01*
X2366365Y1720284D02*
G03*
X2366365Y1720284I-20000J0D01*
G01*
X2382275Y1683584D02*
G03*
X2382275Y1683584I-20000J0D01*
G01*
Y1643584D02*
G03*
X2382275Y1643584I-20000J0D01*
G01*
X2380283Y1603634D02*
G03*
X2380283Y1603634I-20000J0D01*
G01*
X2351999Y1575350D02*
G03*
X2351999Y1575350I-20000J0D01*
G01*
X2312085Y1572725D02*
G03*
X2312085Y1572725I-20000J0D01*
G01*
X2235000Y1540000D02*
G03*
X2235000Y1540000I-20000J0D01*
G01*
X2314869Y1497275D02*
G03*
X2314869Y1497275I-20000J0D01*
G01*
X2354869D02*
G03*
X2354869Y1497275I-20000J0D01*
G01*
X2392930Y1509579D02*
G03*
X2392930Y1509579I-20000J0D01*
G01*
X2421214Y1537863D02*
G03*
X2421214Y1537863I-20000J0D01*
G01*
X2449218Y1566424D02*
G03*
X2449218Y1566424I-20000J0D01*
G01*
X2457725Y1605509D02*
G03*
X2457725Y1605509I-20000J0D01*
G01*
Y1645509D02*
G03*
X2457725Y1645509I-20000J0D01*
G01*
Y1685509D02*
G03*
X2457725Y1685509I-20000J0D01*
G01*
X2457030Y1725503D02*
G03*
X2457030Y1725503I-20000J0D01*
G01*
X2434676Y1758675D02*
G03*
X2434676Y1758675I-20000J0D01*
G01*
X2406392Y1786959D02*
G03*
X2406392Y1786959I-20000J0D01*
G01*
X2371970Y1807333D02*
G03*
X2371970Y1807333I-20000J0D01*
G01*
X2143532Y1807725D02*
G03*
X2143532Y1807725I-20000J0D01*
G01*
X2103532D02*
G03*
X2103532Y1807725I-20000J0D01*
G01*
X1995000Y1770000D02*
G03*
X1995000Y1770000I-20000J0D01*
G01*
X2084279Y1732275D02*
G03*
X2084279Y1732275I-20000J0D01*
G01*
X2124279D02*
G03*
X2124279Y1732275I-20000J0D01*
G01*
X2155000Y1735000D02*
G03*
X2155000Y1735000I-20000J0D01*
G01*
X1888188Y1807725D02*
G03*
X1888188Y1807725I-20000J0D01*
G01*
X1848188D02*
G03*
X1848188Y1807725I-20000J0D01*
G01*
X1839279Y1732275D02*
G03*
X1839279Y1732275I-20000J0D01*
G01*
X1879279D02*
G03*
X1879279Y1732275I-20000J0D01*
G01*
X1919279D02*
G03*
X1919279Y1732275I-20000J0D01*
G01*
X1658293Y1807725D02*
G03*
X1658293Y1807725I-20000J0D01*
G01*
X1618293D02*
G03*
X1618293Y1807725I-20000J0D01*
G01*
X1578315Y1806397D02*
G03*
X1578315Y1806397I-20000J0D01*
G01*
X1546200Y1782551D02*
G03*
X1546200Y1782551I-20000J0D01*
G01*
X1517916Y1754267D02*
G03*
X1517916Y1754267I-20000J0D01*
G01*
X1489631Y1725982D02*
G03*
X1489631Y1725982I-20000J0D01*
G01*
X1472275Y1689944D02*
G03*
X1472275Y1689944I-20000J0D01*
G01*
X1442613Y1663108D02*
G03*
X1442613Y1663108I-20000J0D01*
G01*
X1432290Y1586892D02*
G03*
X1432290Y1586892I-20000J0D01*
G01*
X1472275Y1585811D02*
G03*
X1472275Y1585811I-20000J0D01*
G01*
X1464608Y1546553D02*
G03*
X1464608Y1546553I-20000J0D01*
G01*
X1554147Y1520741D02*
G03*
X1554147Y1520741I-20000J0D01*
G01*
X1550015Y1560527D02*
G03*
X1550015Y1560527I-20000J0D01*
G01*
X1547725Y1600461D02*
G03*
X1547725Y1600461I-20000J0D01*
G01*
Y1640461D02*
G03*
X1547725Y1640461I-20000J0D01*
G01*
X1550701Y1680350D02*
G03*
X1550701Y1680350I-20000J0D01*
G01*
X1578985Y1708634D02*
G03*
X1578985Y1708634I-20000J0D01*
G01*
X1611252Y1732275D02*
G03*
X1611252Y1732275I-20000J0D01*
G01*
X1651252D02*
G03*
X1651252Y1732275I-20000J0D01*
G01*
X1743738Y1773229D02*
G03*
X1743738Y1773229I-20000J0D01*
G01*
X1343939Y1639849D02*
G03*
X1343939Y1639849I-20000J0D01*
G01*
X1316950Y1610326D02*
G03*
X1316950Y1610326I-20000J0D01*
G01*
X1312275Y1570600D02*
G03*
X1312275Y1570600I-20000J0D01*
G01*
X1289489Y1537725D02*
G03*
X1289489Y1537725I-20000J0D01*
G01*
X1249489D02*
G03*
X1249489Y1537725I-20000J0D01*
G01*
X1209489D02*
G03*
X1209489Y1537725I-20000J0D01*
G01*
X1170231Y1545392D02*
G03*
X1170231Y1545392I-20000J0D01*
G01*
X1130231D02*
G03*
X1130231Y1545392I-20000J0D01*
G01*
X1090231D02*
G03*
X1090231Y1545392I-20000J0D01*
G01*
X1050231D02*
G03*
X1050231Y1545392I-20000J0D01*
G01*
X1076041Y1454608D02*
G03*
X1076041Y1454608I-20000J0D01*
G01*
X1116041D02*
G03*
X1116041Y1454608I-20000J0D01*
G01*
X1156041D02*
G03*
X1156041Y1454608I-20000J0D01*
G01*
X1195300Y1462275D02*
G03*
X1195300Y1462275I-20000J0D01*
G01*
X1235300D02*
G03*
X1235300Y1462275I-20000J0D01*
G01*
X1275300D02*
G03*
X1275300Y1462275I-20000J0D01*
G01*
X1312275Y1447017D02*
G03*
X1312275Y1447017I-20000J0D01*
G01*
X1312667Y1407019D02*
G03*
X1312667Y1407019I-20000J0D01*
G01*
X1333671Y1372977D02*
G03*
X1333671Y1372977I-20000J0D01*
G01*
X1361956Y1344693D02*
G03*
X1361956Y1344693I-20000J0D01*
G01*
X1400206Y1332992D02*
G03*
X1400206Y1332992I-20000J0D01*
G01*
X1440191Y1331892D02*
G03*
X1440191Y1331892I-20000J0D01*
G01*
X1435089Y1408441D02*
G03*
X1435089Y1408441I-20000J0D01*
G01*
X1396076Y1417275D02*
G03*
X1396076Y1417275I-20000J0D01*
G01*
X1465000Y1460000D02*
G03*
X1465000Y1460000I-20000J0D01*
G01*
X1402765Y1587802D02*
G03*
X1402765Y1587802I-20000J0D01*
G01*
X1405993Y1661556D02*
G03*
X1405993Y1661556I-20000J0D01*
G01*
X1225000Y1385000D02*
G03*
X1225000Y1385000I-20000J0D01*
G01*
X1985000Y1455000D02*
G03*
X1985000Y1455000I-20000J0D01*
G01*
X2560000Y1315000D02*
G03*
X2560000Y1315000I-20000J0D01*
G01*
X1775000Y1675000D02*
G03*
X1775000Y1675000I-20000J0D01*
G01*
X2075000D02*
G03*
X2075000Y1675000I-20000J0D01*
G01*
X1670000D02*
G03*
X1670000Y1675000I-20000J0D01*
G01*
X1825000D02*
G03*
X1825000Y1675000I-20000J0D01*
G01*
X2025000Y1680000D02*
G03*
X2025000Y1680000I-20000J0D01*
G01*
X1735000Y1865000D02*
G03*
X1735000Y1865000I-20000J0D01*
G01*
X1790000D02*
G03*
X1790000Y1865000I-20000J0D01*
G01*
X1685000D02*
G03*
X1685000Y1865000I-20000J0D01*
G01*
X1975000Y1680000D02*
G03*
X1975000Y1680000I-20000J0D01*
G01*
X2035000Y1870000D02*
G03*
X2035000Y1870000I-20000J0D01*
G01*
X1970000D02*
G03*
X1970000Y1870000I-20000J0D01*
G01*
X2215000Y1650000D02*
G03*
X2215000Y1650000I-20000J0D01*
G01*
X2145000Y1870000D02*
G03*
X2145000Y1870000I-20000J0D01*
G01*
X1125000Y1670000D02*
G03*
X1125000Y1670000I-20000J0D01*
G01*
Y1330000D02*
G03*
X1125000Y1330000I-20000J0D01*
G01*
X2970000Y1335000D02*
G03*
X2970000Y1335000I-20000J0D01*
G01*
X2965000Y1670000D02*
G03*
X2965000Y1670000I-20000J0D01*
G01*
X2215000Y1870000D02*
G03*
X2215000Y1870000I-20000J0D01*
G01*
X2925000Y1335000D02*
G03*
X2925000Y1335000I-20000J0D01*
G01*
X2920000Y1670000D02*
G03*
X2920000Y1670000I-20000J0D01*
G01*
X2290000Y1440000D02*
G03*
X2290000Y1440000I-20000J0D01*
G01*
X2625000Y1555000D02*
G03*
X2625000Y1555000I-20000J0D01*
G01*
X2280000Y1870000D02*
G03*
X2280000Y1870000I-20000J0D01*
G01*
X2180000Y1155000D02*
G03*
X2180000Y1155000I-20000J0D01*
G01*
X1070000Y1330000D02*
G03*
X1070000Y1330000I-20000J0D01*
G01*
X1075000Y1670000D02*
G03*
X1075000Y1670000I-20000J0D01*
G01*
X2705000Y1550000D02*
G03*
X2705000Y1550000I-20000J0D01*
G01*
X2805000Y1415000D02*
G03*
X2805000Y1415000I-20000J0D01*
G01*
X2880000Y1335000D02*
G03*
X2880000Y1335000I-20000J0D01*
G01*
X2805000Y1380000D02*
G03*
X2805000Y1380000I-20000J0D01*
G01*
X2875000Y1670000D02*
G03*
X2875000Y1670000I-20000J0D01*
G01*
X2810000Y1615000D02*
G03*
X2810000Y1615000I-20000J0D01*
G01*
X1180000Y1330000D02*
G03*
X1180000Y1330000I-20000J0D01*
G01*
X1225000Y1600000D02*
G03*
X1225000Y1600000I-20000J0D01*
G01*
X1175000Y1670000D02*
G03*
X1175000Y1670000I-20000J0D01*
G01*
X2240000Y1440000D02*
G03*
X2240000Y1440000I-20000J0D01*
G01*
X2560000Y1360000D02*
G03*
X2560000Y1360000I-20000J0D01*
G01*
X2140000Y1155000D02*
G03*
X2140000Y1155000I-20000J0D01*
G01*
X2665000Y1555000D02*
G03*
X2665000Y1555000I-20000J0D01*
G01*
X1720000Y1675000D02*
G03*
X1720000Y1675000I-20000J0D01*
G01*
X1930000Y1680000D02*
G03*
X1930000Y1680000I-20000J0D01*
G01*
%TF.MD5,9006baba86b8a965430a60be2263855a*%
M02*
