%TF.GenerationSoftware,Altium Limited,Altium Designer,22.6.1 (34)*%
G04 Layer_Color=128*
%FSLAX26Y26*%
%MOIN*%
%TF.SameCoordinates,8B827DF8-CB59-4627-A0E1-72AFC477AE17*%
%TF.FilePolarity,Positive*%
%TF.FileFunction,Drillmap*%
%TF.Part,Single*%
G01*
G75*
%TA.AperFunction,NonConductor*%
%ADD28C,0.005000*%
D28*
X2840000Y1900000D02*
X2960000D01*
X2900000Y1840000D02*
Y1960000D01*
X2840000Y1100000D02*
X2960000D01*
X2900000Y1040000D02*
Y1160000D01*
X1040000Y1100000D02*
X1160000D01*
X1100000Y1040000D02*
Y1160000D01*
X1040000Y1900000D02*
X1160000D01*
X1100000Y1840000D02*
Y1960000D01*
X2170000Y1440000D02*
X2180000D01*
X2175000Y1435000D02*
Y1445000D01*
X1856935Y1158250D02*
X1866935D01*
X1861935Y1153250D02*
Y1163250D01*
X1816935Y1158250D02*
X1826935D01*
X1821935Y1153250D02*
Y1163250D01*
X2388282Y1158870D02*
X2398282D01*
X2393282Y1153870D02*
Y1163870D01*
X2428282Y1158870D02*
X2438282D01*
X2433282Y1153870D02*
Y1163870D01*
X2283282Y1158870D02*
X2293282D01*
X2288282Y1153870D02*
Y1163870D01*
X2323282Y1158870D02*
X2333282D01*
X2328282Y1153870D02*
Y1163870D01*
X2030000Y1155000D02*
X2040000D01*
X2035000Y1150000D02*
Y1160000D01*
X2070000Y1155000D02*
X2080000D01*
X2075000Y1150000D02*
Y1160000D01*
X2240000Y1650000D02*
X2250000D01*
X2245000Y1645000D02*
Y1655000D01*
X2140000Y1650000D02*
X2150000D01*
X2145000Y1645000D02*
Y1655000D01*
X2290000Y1650000D02*
X2300000D01*
X2295000Y1645000D02*
Y1655000D01*
X2946853Y1545392D02*
X2956853D01*
X2951853Y1540392D02*
Y1550392D01*
X2906853Y1545392D02*
X2916853D01*
X2911853Y1540392D02*
Y1550392D01*
X2866853Y1545392D02*
X2876853D01*
X2871853Y1540392D02*
Y1550392D01*
X2825000Y1550000D02*
X2835000D01*
X2830000Y1545000D02*
Y1555000D01*
X2787366Y1537725D02*
X2797366D01*
X2792366Y1532725D02*
Y1542725D01*
X2747366Y1537725D02*
X2757366D01*
X2752366Y1532725D02*
Y1542725D01*
X2710027Y1523378D02*
X2720027D01*
X2715027Y1518378D02*
Y1528378D01*
X2681743Y1495094D02*
X2691743D01*
X2686743Y1490094D02*
Y1500094D01*
X2565000Y1495000D02*
X2575000D01*
X2570000Y1490000D02*
Y1500000D01*
X2540000Y1400000D02*
X2550000D01*
X2545000Y1395000D02*
Y1405000D01*
X2571468Y1416559D02*
X2581468D01*
X2576468Y1411559D02*
Y1421559D01*
X2611468Y1416559D02*
X2621468D01*
X2616468Y1411559D02*
Y1421559D01*
X2651461Y1417275D02*
X2661461D01*
X2656461Y1412275D02*
Y1422275D01*
X2691461Y1417275D02*
X2701461D01*
X2696461Y1412275D02*
Y1422275D01*
X2727655Y1434304D02*
X2737655D01*
X2732655Y1429304D02*
Y1439304D01*
X2756250Y1462275D02*
X2766250D01*
X2761250Y1457275D02*
Y1467275D01*
X2790000Y1450000D02*
X2800000D01*
X2795000Y1445000D02*
Y1455000D01*
X2835000Y1450000D02*
X2845000D01*
X2840000Y1445000D02*
Y1455000D01*
X2875508Y1454608D02*
X2885508D01*
X2880508Y1449608D02*
Y1459608D01*
X2915508Y1454608D02*
X2925508D01*
X2920508Y1449608D02*
Y1459608D01*
X2955508Y1454608D02*
X2965508D01*
X2960508Y1449608D02*
Y1459608D01*
X2462001Y1486727D02*
X2472001D01*
X2467001Y1481727D02*
Y1491727D01*
X2438162Y1454607D02*
X2448162D01*
X2443162Y1449607D02*
Y1459607D01*
X2417667Y1420256D02*
X2427667D01*
X2422667Y1415256D02*
Y1425256D01*
X2417275Y1380258D02*
X2427275D01*
X2422275Y1375258D02*
Y1385258D01*
X2417275Y1340258D02*
X2427275D01*
X2422275Y1335258D02*
Y1345258D01*
X2398846Y1304756D02*
X2408846D01*
X2403846Y1299756D02*
Y1309756D01*
X2359097Y1300284D02*
X2369097D01*
X2364097Y1295284D02*
Y1305284D01*
X2319097Y1300284D02*
X2329097D01*
X2324097Y1295284D02*
Y1305284D01*
X2279103Y1301001D02*
X2289103D01*
X2284103Y1296001D02*
Y1306001D01*
X2235000Y1310000D02*
X2245000D01*
X2240000Y1305000D02*
Y1315000D01*
X2247548Y1229987D02*
X2257548D01*
X2252548Y1224987D02*
Y1234987D01*
X2367294Y1224834D02*
X2377294D01*
X2372294Y1219834D02*
Y1229834D01*
X2445339Y1237187D02*
X2455339D01*
X2450339Y1232187D02*
Y1242187D01*
X2469703Y1268911D02*
X2479703D01*
X2474703Y1263911D02*
Y1273911D01*
X2492037Y1302095D02*
X2502037D01*
X2497037Y1297095D02*
Y1307095D01*
X2492725Y1342089D02*
X2502725D01*
X2497725Y1337089D02*
Y1347089D01*
X2492725Y1382089D02*
X2502725D01*
X2497725Y1377089D02*
Y1387089D01*
X2511305Y1417512D02*
X2521305D01*
X2516305Y1412512D02*
Y1422512D01*
X2520000Y1495000D02*
X2530000D01*
X2525000Y1490000D02*
Y1500000D01*
X2119793Y1302725D02*
X2129793D01*
X2124793Y1297725D02*
Y1307725D01*
X2079793Y1302725D02*
X2089793D01*
X2084793Y1297725D02*
Y1307725D01*
X2039855Y1300504D02*
X2049855D01*
X2044855Y1295504D02*
Y1305504D01*
X1999855Y1300504D02*
X2009855D01*
X2004855Y1295504D02*
Y1305504D01*
X1983289Y1224892D02*
X1993289D01*
X1988289Y1219892D02*
Y1229892D01*
X2103256Y1227275D02*
X2113256D01*
X2108256Y1222275D02*
Y1232275D01*
X2142448Y1219278D02*
X2152448D01*
X2147448Y1214278D02*
Y1224278D01*
X2181450Y1228159D02*
X2191450D01*
X2186450Y1223159D02*
Y1233159D01*
X2176970Y1302333D02*
X2186970D01*
X2181970Y1297333D02*
Y1307333D01*
X1610841Y1355166D02*
X1620841D01*
X1615841Y1350166D02*
Y1360166D01*
X1510000Y1315000D02*
X1520000D01*
X1515000Y1310000D02*
Y1320000D01*
X1548761Y1281301D02*
X1558761D01*
X1553761Y1276301D02*
Y1286301D01*
X1588730Y1279716D02*
X1598730D01*
X1593730Y1274716D02*
Y1284716D01*
X1628730Y1279716D02*
X1638730D01*
X1633730Y1274716D02*
Y1284716D01*
X1668730Y1279716D02*
X1678730D01*
X1673730Y1274716D02*
Y1284716D01*
X1702834Y1258815D02*
X1712834D01*
X1707834Y1253815D02*
Y1263815D01*
X1733371Y1232978D02*
X1743371D01*
X1738371Y1227978D02*
Y1237978D01*
X1772612Y1225226D02*
X1782612D01*
X1777612Y1220226D02*
Y1230226D01*
X1892610Y1225055D02*
X1902610D01*
X1897610Y1220055D02*
Y1230055D01*
X1932610Y1224892D02*
X1942610D01*
X1937610Y1219892D02*
Y1229892D01*
X1944748Y1297047D02*
X1954748D01*
X1949748Y1292047D02*
Y1302047D01*
X1904954Y1301108D02*
X1914954D01*
X1909954Y1296108D02*
Y1306108D01*
X1864959Y1300504D02*
X1874959D01*
X1869959Y1295504D02*
Y1305504D01*
X1831225Y1321999D02*
X1841225D01*
X1836225Y1316999D02*
Y1326999D01*
X1848108Y1358261D02*
X1858108D01*
X1853108Y1353261D02*
Y1363261D01*
X1762553Y1362810D02*
X1772553D01*
X1767553Y1357810D02*
Y1367810D01*
X1626645Y1500725D02*
X1636645D01*
X1631645Y1495725D02*
Y1505725D01*
X1586645Y1500725D02*
X1596645D01*
X1591645Y1495725D02*
Y1505725D01*
X1546645Y1500725D02*
X1556645D01*
X1551645Y1495725D02*
Y1505725D01*
X1463986Y1432608D02*
X1473986D01*
X1468986Y1427608D02*
Y1437608D01*
X1495304Y1407725D02*
X1505304D01*
X1500304Y1402725D02*
Y1412725D01*
X1455305Y1408108D02*
X1465305D01*
X1460305Y1403108D02*
Y1413108D01*
X1477929Y1331892D02*
X1487929D01*
X1482929Y1326892D02*
Y1336892D01*
X1598108Y1386800D02*
X1608108D01*
X1603108Y1381800D02*
Y1391800D01*
X1609047Y1425275D02*
X1619047D01*
X1614047Y1420275D02*
Y1430275D01*
X1647620Y1414684D02*
X1657620D01*
X1652620Y1409684D02*
Y1419684D01*
X1675804Y1503840D02*
X1685804D01*
X1680804Y1498840D02*
Y1508840D01*
X1950050Y1572725D02*
X1960050D01*
X1955050Y1567725D02*
Y1577725D01*
X1910125Y1570284D02*
X1920125D01*
X1915125Y1565284D02*
Y1575284D01*
X1870125Y1570284D02*
X1880125D01*
X1875125Y1565284D02*
Y1575284D01*
X1830125Y1570284D02*
X1840125D01*
X1835125Y1565284D02*
Y1575284D01*
X1791555Y1559683D02*
X1801555D01*
X1796555Y1554683D02*
Y1564683D01*
X1763160Y1531511D02*
X1773160D01*
X1768160Y1526511D02*
Y1536511D01*
X1732864Y1505392D02*
X1742864D01*
X1737864Y1500392D02*
Y1510392D01*
X1732156Y1414608D02*
X1742156D01*
X1737156Y1409608D02*
Y1419608D01*
X1771892Y1410014D02*
X1781892D01*
X1776892Y1405014D02*
Y1415014D01*
X1848108Y1414858D02*
X1858108D01*
X1853108Y1409858D02*
Y1419858D01*
X1847008Y1454842D02*
X1857008D01*
X1852008Y1449842D02*
Y1459842D01*
X1847813Y1494834D02*
X1857813D01*
X1852813Y1489834D02*
Y1499834D01*
X1967768Y1497275D02*
X1977768D01*
X1972768Y1492275D02*
Y1502275D01*
X2007764Y1497802D02*
X2017764D01*
X2012764Y1492802D02*
Y1502802D01*
X2010993Y1571556D02*
X2020993D01*
X2015993Y1566556D02*
Y1576556D01*
X2042071Y1496892D02*
X2052071D01*
X2047071Y1491892D02*
Y1501892D01*
X2082069Y1497275D02*
X2092069D01*
X2087069Y1492275D02*
Y1502275D01*
X2122069Y1497275D02*
X2132069D01*
X2127069Y1492275D02*
Y1502275D01*
X2100235Y1572725D02*
X2110235D01*
X2105235Y1567725D02*
Y1577725D01*
X2060235Y1572725D02*
X2070235D01*
X2065235Y1567725D02*
Y1577725D01*
X2310000Y1810000D02*
X2320000D01*
X2315000Y1805000D02*
Y1815000D01*
X2215000Y1770000D02*
X2225000D01*
X2220000Y1765000D02*
Y1775000D01*
X2303204Y1732275D02*
X2313204D01*
X2308204Y1727275D02*
Y1737275D01*
X2341365Y1720284D02*
X2351365D01*
X2346365Y1715284D02*
Y1725284D01*
X2357275Y1683584D02*
X2367275D01*
X2362275Y1678584D02*
Y1688584D01*
X2357275Y1643584D02*
X2367275D01*
X2362275Y1638584D02*
Y1648584D01*
X2355283Y1603634D02*
X2365283D01*
X2360283Y1598634D02*
Y1608634D01*
X2326999Y1575350D02*
X2336999D01*
X2331999Y1570350D02*
Y1580350D01*
X2287085Y1572725D02*
X2297085D01*
X2292085Y1567725D02*
Y1577725D01*
X2210000Y1540000D02*
X2220000D01*
X2215000Y1535000D02*
Y1545000D01*
X2289869Y1497275D02*
X2299869D01*
X2294869Y1492275D02*
Y1502275D01*
X2329869Y1497275D02*
X2339869D01*
X2334869Y1492275D02*
Y1502275D01*
X2367930Y1509579D02*
X2377930D01*
X2372930Y1504579D02*
Y1514579D01*
X2396214Y1537863D02*
X2406214D01*
X2401214Y1532863D02*
Y1542863D01*
X2424218Y1566424D02*
X2434218D01*
X2429218Y1561424D02*
Y1571424D01*
X2432725Y1605509D02*
X2442725D01*
X2437725Y1600509D02*
Y1610509D01*
X2432725Y1645509D02*
X2442725D01*
X2437725Y1640509D02*
Y1650509D01*
X2432725Y1685509D02*
X2442725D01*
X2437725Y1680509D02*
Y1690509D01*
X2432030Y1725503D02*
X2442030D01*
X2437030Y1720503D02*
Y1730503D01*
X2409676Y1758675D02*
X2419676D01*
X2414676Y1753675D02*
Y1763675D01*
X2381392Y1786959D02*
X2391392D01*
X2386392Y1781959D02*
Y1791959D01*
X2346970Y1807333D02*
X2356970D01*
X2351970Y1802333D02*
Y1812333D01*
X2118532Y1807725D02*
X2128532D01*
X2123532Y1802725D02*
Y1812725D01*
X2078532Y1807725D02*
X2088532D01*
X2083532Y1802725D02*
Y1812725D01*
X1970000Y1770000D02*
X1980000D01*
X1975000Y1765000D02*
Y1775000D01*
X2059279Y1732275D02*
X2069279D01*
X2064279Y1727275D02*
Y1737275D01*
X2099279Y1732275D02*
X2109279D01*
X2104279Y1727275D02*
Y1737275D01*
X2130000Y1735000D02*
X2140000D01*
X2135000Y1730000D02*
Y1740000D01*
X1863188Y1807725D02*
X1873188D01*
X1868188Y1802725D02*
Y1812725D01*
X1823188Y1807725D02*
X1833188D01*
X1828188Y1802725D02*
Y1812725D01*
X1814279Y1732275D02*
X1824279D01*
X1819279Y1727275D02*
Y1737275D01*
X1854279Y1732275D02*
X1864279D01*
X1859279Y1727275D02*
Y1737275D01*
X1894279Y1732275D02*
X1904279D01*
X1899279Y1727275D02*
Y1737275D01*
X1633293Y1807725D02*
X1643293D01*
X1638293Y1802725D02*
Y1812725D01*
X1593293Y1807725D02*
X1603293D01*
X1598293Y1802725D02*
Y1812725D01*
X1553315Y1806397D02*
X1563315D01*
X1558315Y1801397D02*
Y1811397D01*
X1521200Y1782551D02*
X1531200D01*
X1526200Y1777551D02*
Y1787551D01*
X1492916Y1754267D02*
X1502916D01*
X1497916Y1749267D02*
Y1759267D01*
X1464631Y1725982D02*
X1474631D01*
X1469631Y1720982D02*
Y1730982D01*
X1447275Y1689944D02*
X1457275D01*
X1452275Y1684944D02*
Y1694944D01*
X1417613Y1663108D02*
X1427613D01*
X1422613Y1658108D02*
Y1668108D01*
X1407290Y1586892D02*
X1417290D01*
X1412290Y1581892D02*
Y1591892D01*
X1447275Y1585811D02*
X1457275D01*
X1452275Y1580811D02*
Y1590811D01*
X1439608Y1546553D02*
X1449608D01*
X1444608Y1541553D02*
Y1551553D01*
X1529147Y1520741D02*
X1539147D01*
X1534147Y1515741D02*
Y1525741D01*
X1525015Y1560527D02*
X1535015D01*
X1530015Y1555527D02*
Y1565527D01*
X1522725Y1600461D02*
X1532725D01*
X1527725Y1595461D02*
Y1605461D01*
X1522725Y1640461D02*
X1532725D01*
X1527725Y1635461D02*
Y1645461D01*
X1525701Y1680350D02*
X1535701D01*
X1530701Y1675350D02*
Y1685350D01*
X1553985Y1708634D02*
X1563985D01*
X1558985Y1703634D02*
Y1713634D01*
X1586252Y1732275D02*
X1596252D01*
X1591252Y1727275D02*
Y1737275D01*
X1626252Y1732275D02*
X1636252D01*
X1631252Y1727275D02*
Y1737275D01*
X1718738Y1773229D02*
X1728738D01*
X1723738Y1768229D02*
Y1778229D01*
X1318939Y1639849D02*
X1328939D01*
X1323939Y1634849D02*
Y1644849D01*
X1291950Y1610326D02*
X1301950D01*
X1296950Y1605326D02*
Y1615326D01*
X1287275Y1570600D02*
X1297275D01*
X1292275Y1565600D02*
Y1575600D01*
X1264489Y1537725D02*
X1274489D01*
X1269489Y1532725D02*
Y1542725D01*
X1224489Y1537725D02*
X1234489D01*
X1229489Y1532725D02*
Y1542725D01*
X1184489Y1537725D02*
X1194489D01*
X1189489Y1532725D02*
Y1542725D01*
X1145231Y1545392D02*
X1155231D01*
X1150231Y1540392D02*
Y1550392D01*
X1105231Y1545392D02*
X1115231D01*
X1110231Y1540392D02*
Y1550392D01*
X1065231Y1545392D02*
X1075231D01*
X1070231Y1540392D02*
Y1550392D01*
X1025231Y1545392D02*
X1035231D01*
X1030231Y1540392D02*
Y1550392D01*
X1051041Y1454608D02*
X1061041D01*
X1056041Y1449608D02*
Y1459608D01*
X1091041Y1454608D02*
X1101041D01*
X1096041Y1449608D02*
Y1459608D01*
X1131041Y1454608D02*
X1141041D01*
X1136041Y1449608D02*
Y1459608D01*
X1170300Y1462275D02*
X1180300D01*
X1175300Y1457275D02*
Y1467275D01*
X1210300Y1462275D02*
X1220300D01*
X1215300Y1457275D02*
Y1467275D01*
X1250300Y1462275D02*
X1260300D01*
X1255300Y1457275D02*
Y1467275D01*
X1287275Y1447017D02*
X1297275D01*
X1292275Y1442017D02*
Y1452017D01*
X1287667Y1407019D02*
X1297667D01*
X1292667Y1402019D02*
Y1412019D01*
X1308671Y1372977D02*
X1318671D01*
X1313671Y1367977D02*
Y1377977D01*
X1336956Y1344693D02*
X1346956D01*
X1341956Y1339693D02*
Y1349693D01*
X1375206Y1332992D02*
X1385206D01*
X1380206Y1327992D02*
Y1337992D01*
X1415191Y1331892D02*
X1425191D01*
X1420191Y1326892D02*
Y1336892D01*
X1410089Y1408441D02*
X1420089D01*
X1415089Y1403441D02*
Y1413441D01*
X1371076Y1417275D02*
X1381076D01*
X1376076Y1412275D02*
Y1422275D01*
X1440000Y1460000D02*
X1450000D01*
X1445000Y1455000D02*
Y1465000D01*
X1377765Y1587802D02*
X1387765D01*
X1382765Y1582802D02*
Y1592802D01*
X1380993Y1661556D02*
X1390993D01*
X1385993Y1656556D02*
Y1666556D01*
X1200000Y1385000D02*
X1210000D01*
X1205000Y1380000D02*
Y1390000D01*
X1960000Y1455000D02*
X1970000D01*
X1965000Y1450000D02*
Y1460000D01*
X2535000Y1315000D02*
X2545000D01*
X2540000Y1310000D02*
Y1320000D01*
X1750000Y1675000D02*
X1760000D01*
X1755000Y1670000D02*
Y1680000D01*
X2050000Y1675000D02*
X2060000D01*
X2055000Y1670000D02*
Y1680000D01*
X1645000Y1675000D02*
X1655000D01*
X1650000Y1670000D02*
Y1680000D01*
X1800000Y1675000D02*
X1810000D01*
X1805000Y1670000D02*
Y1680000D01*
X2000000D02*
X2010000D01*
X2005000Y1675000D02*
Y1685000D01*
X1710000Y1865000D02*
X1720000D01*
X1715000Y1860000D02*
Y1870000D01*
X1765000Y1865000D02*
X1775000D01*
X1770000Y1860000D02*
Y1870000D01*
X1660000Y1865000D02*
X1670000D01*
X1665000Y1860000D02*
Y1870000D01*
X1950000Y1680000D02*
X1960000D01*
X1955000Y1675000D02*
Y1685000D01*
X2010000Y1870000D02*
X2020000D01*
X2015000Y1865000D02*
Y1875000D01*
X1945000Y1870000D02*
X1955000D01*
X1950000Y1865000D02*
Y1875000D01*
X2190000Y1650000D02*
X2200000D01*
X2195000Y1645000D02*
Y1655000D01*
X2120000Y1870000D02*
X2130000D01*
X2125000Y1865000D02*
Y1875000D01*
X1100000Y1670000D02*
X1110000D01*
X1105000Y1665000D02*
Y1675000D01*
X1100000Y1330000D02*
X1110000D01*
X1105000Y1325000D02*
Y1335000D01*
X2945000D02*
X2955000D01*
X2950000Y1330000D02*
Y1340000D01*
X2940000Y1670000D02*
X2950000D01*
X2945000Y1665000D02*
Y1675000D01*
X2190000Y1870000D02*
X2200000D01*
X2195000Y1865000D02*
Y1875000D01*
X2900000Y1335000D02*
X2910000D01*
X2905000Y1330000D02*
Y1340000D01*
X2895000Y1670000D02*
X2905000D01*
X2900000Y1665000D02*
Y1675000D01*
X2265000Y1440000D02*
X2275000D01*
X2270000Y1435000D02*
Y1445000D01*
X2600000Y1555000D02*
X2610000D01*
X2605000Y1550000D02*
Y1560000D01*
X2255000Y1870000D02*
X2265000D01*
X2260000Y1865000D02*
Y1875000D01*
X2155000Y1155000D02*
X2165000D01*
X2160000Y1150000D02*
Y1160000D01*
X1045000Y1330000D02*
X1055000D01*
X1050000Y1325000D02*
Y1335000D01*
Y1670000D02*
X1060000D01*
X1055000Y1665000D02*
Y1675000D01*
X2680000Y1550000D02*
X2690000D01*
X2685000Y1545000D02*
Y1555000D01*
X2780000Y1415000D02*
X2790000D01*
X2785000Y1410000D02*
Y1420000D01*
X2855000Y1335000D02*
X2865000D01*
X2860000Y1330000D02*
Y1340000D01*
X2780000Y1380000D02*
X2790000D01*
X2785000Y1375000D02*
Y1385000D01*
X2850000Y1670000D02*
X2860000D01*
X2855000Y1665000D02*
Y1675000D01*
X2785000Y1615000D02*
X2795000D01*
X2790000Y1610000D02*
Y1620000D01*
X1155000Y1330000D02*
X1165000D01*
X1160000Y1325000D02*
Y1335000D01*
X1200000Y1600000D02*
X1210000D01*
X1205000Y1595000D02*
Y1605000D01*
X1150000Y1670000D02*
X1160000D01*
X1155000Y1665000D02*
Y1675000D01*
X2215000Y1440000D02*
X2225000D01*
X2220000Y1435000D02*
Y1445000D01*
X2535000Y1360000D02*
X2545000D01*
X2540000Y1355000D02*
Y1365000D01*
X2115000Y1155000D02*
X2125000D01*
X2120000Y1150000D02*
Y1160000D01*
X2640000Y1555000D02*
X2650000D01*
X2645000Y1550000D02*
Y1560000D01*
X1695000Y1675000D02*
X1705000D01*
X1700000Y1670000D02*
Y1680000D01*
X1905000D02*
X1915000D01*
X1910000Y1675000D02*
Y1685000D01*
%TF.MD5,ff96200e2aa74864bc176c9695e06e8c*%
M02*
