%TF.GenerationSoftware,Altium Limited,Altium Designer,22.6.1 (34)*%
G04 Layer_Color=32768*
%FSLAX26Y26*%
%MOIN*%
%TF.SameCoordinates,8B827DF8-CB59-4627-A0E1-72AFC477AE17*%
%TF.FilePolarity,Positive*%
%TF.FileFunction,Other,Mechanical_15*%
%TF.Part,Single*%
G01*
G75*
%TA.AperFunction,NonConductor*%
%ADD27C,0.003937*%
%ADD39C,0.001968*%
D27*
X1539000Y1396000D02*
X1591000D01*
X1539000Y1294000D02*
X1591000D01*
Y1396000D01*
X1539000Y1294000D02*
Y1396000D01*
X1565000Y1326299D02*
Y1363701D01*
X1546299Y1345000D02*
X1583701D01*
X1339000Y1599000D02*
Y1651000D01*
X1441000Y1599000D02*
Y1651000D01*
X1339000D02*
X1441000D01*
X1339000Y1599000D02*
X1441000D01*
X1371299Y1625000D02*
X1408701D01*
X1390000Y1606299D02*
Y1643701D01*
X1789000Y1334000D02*
X1841000D01*
X1789000Y1436000D02*
X1841000D01*
X1789000Y1334000D02*
Y1436000D01*
X1841000Y1334000D02*
Y1436000D01*
X1815000Y1366299D02*
Y1403701D01*
X1796299Y1385000D02*
X1833701D01*
X1394000Y1344000D02*
Y1396000D01*
X1496000Y1344000D02*
Y1396000D01*
X1394000D02*
X1496000D01*
X1394000Y1344000D02*
X1496000D01*
X1426299Y1370000D02*
X1463701D01*
X1445000Y1351299D02*
Y1388701D01*
X2029000Y1184000D02*
X2081000D01*
X2029000Y1286000D02*
X2081000D01*
X2029000Y1184000D02*
Y1286000D01*
X2081000Y1184000D02*
Y1286000D01*
X2055000Y1216299D02*
Y1253701D01*
X2036299Y1235000D02*
X2073701D01*
X1819000Y1184000D02*
X1871000D01*
X1819000Y1286000D02*
X1871000D01*
X1819000Y1184000D02*
Y1286000D01*
X1871000Y1184000D02*
Y1286000D01*
X1845000Y1216299D02*
Y1253701D01*
X1826299Y1235000D02*
X1863701D01*
X1899000Y1237000D02*
Y1289000D01*
X2001000Y1237000D02*
Y1289000D01*
X1899000D02*
X2001000D01*
X1899000Y1237000D02*
X2001000D01*
X1931299Y1263000D02*
X1968701D01*
X1950000Y1244299D02*
Y1281701D01*
X2389000Y1184000D02*
X2441000D01*
X2389000Y1286000D02*
X2441000D01*
X2389000Y1184000D02*
Y1286000D01*
X2441000Y1184000D02*
Y1286000D01*
X2415000Y1216299D02*
Y1253701D01*
X2396299Y1235000D02*
X2433701D01*
X2071000Y1509000D02*
Y1561000D01*
X1969000Y1509000D02*
Y1561000D01*
Y1509000D02*
X2071000D01*
X1969000Y1561000D02*
X2071000D01*
X2001299Y1535000D02*
X2038701D01*
X2020000Y1516299D02*
Y1553701D01*
X2474000Y1429000D02*
Y1481000D01*
X2576000Y1429000D02*
Y1481000D01*
X2474000D02*
X2576000D01*
X2474000Y1429000D02*
X2576000D01*
X2506299Y1455000D02*
X2543701D01*
X2525000Y1436299D02*
Y1473701D01*
X2599000Y1536000D02*
X2651000D01*
X2599000Y1434000D02*
X2651000D01*
Y1536000D01*
X2599000Y1434000D02*
Y1536000D01*
X2625000Y1466299D02*
Y1503701D01*
X2606299Y1485000D02*
X2643701D01*
X2284000Y1184000D02*
X2336000D01*
X2284000Y1286000D02*
X2336000D01*
X2284000Y1184000D02*
Y1286000D01*
X2336000Y1184000D02*
Y1286000D01*
X2310000Y1216299D02*
Y1253701D01*
X2291299Y1235000D02*
X2328701D01*
X1879000Y1454000D02*
X1931000D01*
X1879000Y1556000D02*
X1931000D01*
X1879000Y1454000D02*
Y1556000D01*
X1931000Y1454000D02*
Y1556000D01*
X1905000Y1486299D02*
Y1523701D01*
X1886299Y1505000D02*
X1923701D01*
X2224874Y1257126D02*
Y1272874D01*
X2217000Y1265000D02*
X2232748D01*
X2132126Y1219874D02*
X2147874D01*
X2140000Y1212000D02*
Y1227748D01*
D39*
X2147165Y1697165D02*
Y1842835D01*
Y1697165D02*
X2292835D01*
Y1842835D01*
X2147165D02*
X2292835D01*
X2287835Y1462165D02*
Y1607835D01*
X2142165D02*
X2287835D01*
X2142165Y1462165D02*
Y1607835D01*
Y1462165D02*
X2287835D01*
X2809606Y1352362D02*
Y1647638D01*
X2994646D01*
Y1634842D02*
Y1647638D01*
Y1634842D02*
X3369449D01*
Y1365158D02*
Y1634842D01*
X2994646Y1365158D02*
X3369449D01*
X2994646Y1352362D02*
Y1365158D01*
X2809606Y1352362D02*
X2994646D01*
X1902165Y1697165D02*
Y1842835D01*
Y1697165D02*
X2047835D01*
Y1842835D01*
X1902165D02*
X2047835D01*
X1652165Y1697165D02*
Y1842835D01*
Y1697165D02*
X1797835D01*
Y1842835D01*
X1652165D02*
X1797835D01*
X2186480Y1244331D02*
X2210000D01*
X2186480D02*
Y1251732D01*
Y1278268D02*
Y1285669D01*
X2210000D01*
X2255000D01*
X2210000Y1244331D02*
X2255000D01*
X2186480Y1251732D02*
Y1275000D01*
Y1255000D02*
Y1278268D01*
X2263268D02*
Y1285669D01*
X2255000D02*
X2263268D01*
Y1255000D02*
Y1278268D01*
Y1251732D02*
Y1275000D01*
X2255000Y1244331D02*
X2263268D01*
Y1251732D01*
X2160669Y1181480D02*
Y1205000D01*
X2153268Y1181480D02*
X2160669D01*
X2119331D02*
X2126732D01*
X2119331D02*
Y1205000D01*
Y1250000D01*
X2160669Y1205000D02*
Y1250000D01*
X2130000Y1181480D02*
X2153268D01*
X2126732D02*
X2150000D01*
X2119331Y1258268D02*
X2126732D01*
X2119331Y1250000D02*
Y1258268D01*
X2126732D02*
X2150000D01*
X2130000D02*
X2153268D01*
X2160669Y1250000D02*
Y1258268D01*
X2153268D02*
X2160669D01*
X1000354Y1647638D02*
X1185394D01*
X1000354Y1634842D02*
Y1647638D01*
X625551Y1634842D02*
X1000354D01*
X625551Y1365158D02*
Y1634842D01*
Y1365158D02*
X1000354D01*
Y1352362D02*
Y1365158D01*
Y1352362D02*
X1185394D01*
Y1647638D01*
%TF.MD5,ccbc9fa4e8fabbcc369a9a70cb9095f9*%
M02*
