%TF.GenerationSoftware,Altium Limited,Altium Designer,22.6.1 (34)*%
G04 Layer_Color=8388736*
%FSLAX26Y26*%
%MOIN*%
%TF.SameCoordinates,8B827DF8-CB59-4627-A0E1-72AFC477AE17*%
%TF.FilePolarity,Negative*%
%TF.FileFunction,Soldermask,Top*%
%TF.Part,Single*%
G01*
G75*
%TA.AperFunction,ConnectorPad*%
%ADD23R,0.173354X0.061150*%
%TA.AperFunction,WasherPad*%
%ADD24C,0.128000*%
%TA.AperFunction,SMDPad,CuDef*%
%ADD30R,0.043433X0.039496*%
%ADD31R,0.039496X0.043433*%
%ADD32R,0.054000X0.024000*%
%ADD33R,0.045339X0.035890*%
%ADD34R,0.070929X0.035890*%
%TA.AperFunction,ConnectorPad*%
%ADD35R,0.149732X0.058000*%
%TA.AperFunction,SMDPad,CuDef*%
%ADD36R,0.024000X0.054000*%
%ADD37R,0.021779X0.021779*%
%ADD38R,0.021779X0.021779*%
D23*
X2902126Y1388780D02*
D03*
Y1611220D02*
D03*
X1092874Y1388780D02*
D03*
Y1611220D02*
D03*
D24*
X2900000Y1900000D02*
D03*
Y1100000D02*
D03*
X1100000D02*
D03*
Y1900000D02*
D03*
D30*
X1565000Y1372559D02*
D03*
Y1317441D02*
D03*
X1815000Y1357441D02*
D03*
Y1412559D02*
D03*
X2055000Y1207441D02*
D03*
Y1262559D02*
D03*
X1845000Y1207441D02*
D03*
Y1262559D02*
D03*
X2415000Y1207441D02*
D03*
Y1262559D02*
D03*
X2625000Y1512559D02*
D03*
Y1457441D02*
D03*
X2310000Y1207441D02*
D03*
Y1262559D02*
D03*
X1905000Y1477441D02*
D03*
Y1532559D02*
D03*
D31*
X1362441Y1625000D02*
D03*
X1417559D02*
D03*
X1417441Y1370000D02*
D03*
X1472559D02*
D03*
X1922441Y1263000D02*
D03*
X1977559D02*
D03*
X2047559Y1535000D02*
D03*
X1992441D02*
D03*
X2497441Y1455000D02*
D03*
X2552559D02*
D03*
D32*
X1400000Y1537000D02*
D03*
Y1463000D02*
D03*
X1490000D02*
D03*
Y1500000D02*
D03*
Y1537000D02*
D03*
X1400000Y1500000D02*
D03*
D33*
X2262323Y1817047D02*
D03*
Y1770000D02*
D03*
Y1722953D02*
D03*
X2177677D02*
D03*
Y1770000D02*
D03*
X2172677Y1487953D02*
D03*
Y1535000D02*
D03*
Y1582047D02*
D03*
X2257323D02*
D03*
Y1535000D02*
D03*
X2017323Y1817047D02*
D03*
Y1770000D02*
D03*
Y1722953D02*
D03*
X1932677D02*
D03*
Y1770000D02*
D03*
X1767323Y1817047D02*
D03*
Y1770000D02*
D03*
Y1722953D02*
D03*
X1682677D02*
D03*
Y1770000D02*
D03*
D34*
X2190472Y1817047D02*
D03*
X2244528Y1487953D02*
D03*
X1945472Y1817047D02*
D03*
X1695472D02*
D03*
D35*
X2910000Y1500000D02*
D03*
X1085000D02*
D03*
D36*
X1663000Y1370000D02*
D03*
X1737000D02*
D03*
Y1460000D02*
D03*
X1700000D02*
D03*
X1663000D02*
D03*
X1700000Y1370000D02*
D03*
D37*
X2251449Y1265000D02*
D03*
X2198299D02*
D03*
D38*
X2140000Y1246449D02*
D03*
Y1193299D02*
D03*
%TF.MD5,b07f696053bae39b1ae0bcedb1073b74*%
M02*
