%TF.GenerationSoftware,Altium Limited,Altium Designer,22.6.1 (34)*%
G04 Layer_Physical_Order=2*
G04 Layer_Color=16711680*
%FSLAX26Y26*%
%MOIN*%
%TF.SameCoordinates,8B827DF8-CB59-4627-A0E1-72AFC477AE17*%
%TF.FilePolarity,Positive*%
%TF.FileFunction,Copper,L2,Bot,Signal*%
%TF.Part,Single*%
G01*
G75*
%TA.AperFunction,ConnectorPad*%
%ADD16R,0.165354X0.053150*%
%TA.AperFunction,WasherPad*%
%ADD21C,0.120000*%
%TA.AperFunction,ViaPad*%
%ADD22C,0.020000*%
G36*
X2989805Y1647795D02*
X2907126D01*
Y1611220D01*
Y1574646D01*
X2989805D01*
Y1425354D01*
X2907126D01*
Y1388780D01*
Y1352205D01*
X2989805D01*
Y1010195D01*
X1010195D01*
Y1352205D01*
X1087874D01*
Y1388780D01*
Y1425354D01*
X1010195D01*
Y1574646D01*
X1087874D01*
Y1611220D01*
Y1647795D01*
X1010195D01*
Y1994805D01*
X2989805D01*
Y1647795D01*
D02*
G37*
%LPC*%
G36*
X2906500Y1966000D02*
X2893500D01*
X2880749Y1963464D01*
X2868737Y1958488D01*
X2857927Y1951265D01*
X2848735Y1942072D01*
X2841512Y1931263D01*
X2836536Y1919252D01*
X2834000Y1906500D01*
Y1893500D01*
X2836536Y1880748D01*
X2841512Y1868737D01*
X2848735Y1857928D01*
X2857927Y1848735D01*
X2868737Y1841512D01*
X2880749Y1836536D01*
X2893500Y1834000D01*
X2906500D01*
X2919251Y1836536D01*
X2931263Y1841512D01*
X2942073Y1848735D01*
X2951265Y1857928D01*
X2958488Y1868737D01*
X2963464Y1880748D01*
X2966000Y1893500D01*
Y1906500D01*
X2963464Y1919252D01*
X2958488Y1931263D01*
X2951265Y1942072D01*
X2942073Y1951265D01*
X2931263Y1958488D01*
X2919251Y1963464D01*
X2906500Y1966000D01*
D02*
G37*
G36*
X1106500D02*
X1093500D01*
X1080748Y1963464D01*
X1068737Y1958488D01*
X1057928Y1951265D01*
X1048735Y1942072D01*
X1041512Y1931263D01*
X1036536Y1919252D01*
X1034000Y1906500D01*
Y1893500D01*
X1036536Y1880748D01*
X1041512Y1868737D01*
X1048735Y1857928D01*
X1057928Y1848735D01*
X1068737Y1841512D01*
X1080748Y1836536D01*
X1093500Y1834000D01*
X1106500D01*
X1119252Y1836536D01*
X1131263Y1841512D01*
X1142072Y1848735D01*
X1151265Y1857928D01*
X1158488Y1868737D01*
X1163464Y1880748D01*
X1166000Y1893500D01*
Y1906500D01*
X1163464Y1919252D01*
X1158488Y1931263D01*
X1151265Y1942072D01*
X1142072Y1951265D01*
X1131263Y1958488D01*
X1119252Y1963464D01*
X1106500Y1966000D01*
D02*
G37*
G36*
X1185551Y1647795D02*
X1097874D01*
Y1616220D01*
X1185551D01*
Y1647795D01*
D02*
G37*
G36*
X2897126D02*
X2809449D01*
Y1616220D01*
X2897126D01*
Y1647795D01*
D02*
G37*
G36*
Y1606220D02*
X2809449D01*
Y1574646D01*
X2897126D01*
Y1606220D01*
D02*
G37*
G36*
X1185551D02*
X1097874D01*
Y1574646D01*
X1185551D01*
Y1606220D01*
D02*
G37*
G36*
Y1425354D02*
X1097874D01*
Y1393780D01*
X1185551D01*
Y1425354D01*
D02*
G37*
G36*
X2897126D02*
X2809449D01*
Y1393780D01*
X2897126D01*
Y1425354D01*
D02*
G37*
G36*
Y1383780D02*
X2809449D01*
Y1352205D01*
X2897126D01*
Y1383780D01*
D02*
G37*
G36*
X1185551D02*
X1097874D01*
Y1352205D01*
X1185551D01*
Y1383780D01*
D02*
G37*
G36*
X2906500Y1166000D02*
X2893500D01*
X2880749Y1163464D01*
X2868737Y1158488D01*
X2857927Y1151265D01*
X2848735Y1142072D01*
X2841512Y1131263D01*
X2836536Y1119252D01*
X2834000Y1106500D01*
Y1093500D01*
X2836536Y1080748D01*
X2841512Y1068737D01*
X2848735Y1057928D01*
X2857927Y1048735D01*
X2868737Y1041512D01*
X2880749Y1036536D01*
X2893500Y1034000D01*
X2906500D01*
X2919251Y1036536D01*
X2931263Y1041512D01*
X2942073Y1048735D01*
X2951265Y1057928D01*
X2958488Y1068737D01*
X2963464Y1080748D01*
X2966000Y1093500D01*
Y1106500D01*
X2963464Y1119252D01*
X2958488Y1131263D01*
X2951265Y1142072D01*
X2942073Y1151265D01*
X2931263Y1158488D01*
X2919251Y1163464D01*
X2906500Y1166000D01*
D02*
G37*
G36*
X1106500D02*
X1093500D01*
X1080748Y1163464D01*
X1068737Y1158488D01*
X1057928Y1151265D01*
X1048735Y1142072D01*
X1041512Y1131263D01*
X1036536Y1119252D01*
X1034000Y1106500D01*
Y1093500D01*
X1036536Y1080748D01*
X1041512Y1068737D01*
X1048735Y1057928D01*
X1057928Y1048735D01*
X1068737Y1041512D01*
X1080748Y1036536D01*
X1093500Y1034000D01*
X1106500D01*
X1119252Y1036536D01*
X1131263Y1041512D01*
X1142072Y1048735D01*
X1151265Y1057928D01*
X1158488Y1068737D01*
X1163464Y1080748D01*
X1166000Y1093500D01*
Y1106500D01*
X1163464Y1119252D01*
X1158488Y1131263D01*
X1151265Y1142072D01*
X1142072Y1151265D01*
X1131263Y1158488D01*
X1119252Y1163464D01*
X1106500Y1166000D01*
D02*
G37*
%LPD*%
D16*
X2902126Y1388780D02*
D03*
Y1611220D02*
D03*
X1092874Y1388780D02*
D03*
Y1611220D02*
D03*
D21*
X2900000Y1900000D02*
D03*
Y1100000D02*
D03*
X1100000D02*
D03*
Y1900000D02*
D03*
D22*
X2175000Y1440000D02*
D03*
X1861935Y1158250D02*
D03*
X1821935D02*
D03*
X2393282Y1158870D02*
D03*
X2433282D02*
D03*
X2288282D02*
D03*
X2328282D02*
D03*
X2035000Y1155000D02*
D03*
X2075000D02*
D03*
X2245000Y1650000D02*
D03*
X2145000D02*
D03*
X2295000D02*
D03*
X2951853Y1545392D02*
D03*
X2911853D02*
D03*
X2871853D02*
D03*
X2830000Y1550000D02*
D03*
X2792366Y1537725D02*
D03*
X2752366D02*
D03*
X2715027Y1523378D02*
D03*
X2686743Y1495094D02*
D03*
X2570000Y1495000D02*
D03*
X2545000Y1400000D02*
D03*
X2576468Y1416559D02*
D03*
X2616468D02*
D03*
X2656461Y1417275D02*
D03*
X2696461D02*
D03*
X2732655Y1434304D02*
D03*
X2761250Y1462275D02*
D03*
X2795000Y1450000D02*
D03*
X2840000D02*
D03*
X2880508Y1454608D02*
D03*
X2920508D02*
D03*
X2960508D02*
D03*
X2467001Y1486727D02*
D03*
X2443162Y1454607D02*
D03*
X2422667Y1420256D02*
D03*
X2422275Y1380258D02*
D03*
Y1340258D02*
D03*
X2403846Y1304756D02*
D03*
X2364097Y1300284D02*
D03*
X2324097D02*
D03*
X2284103Y1301001D02*
D03*
X2240000Y1310000D02*
D03*
X2252548Y1229987D02*
D03*
X2372294Y1224834D02*
D03*
X2450339Y1237187D02*
D03*
X2474703Y1268911D02*
D03*
X2497037Y1302095D02*
D03*
X2497725Y1342089D02*
D03*
Y1382089D02*
D03*
X2516305Y1417512D02*
D03*
X2525000Y1495000D02*
D03*
X2124793Y1302725D02*
D03*
X2084793D02*
D03*
X2044855Y1300504D02*
D03*
X2004855D02*
D03*
X1988289Y1224892D02*
D03*
X2108256Y1227275D02*
D03*
X2147448Y1219278D02*
D03*
X2186450Y1228159D02*
D03*
X2181970Y1302333D02*
D03*
X1615841Y1355166D02*
D03*
X1515000Y1315000D02*
D03*
X1553761Y1281301D02*
D03*
X1593730Y1279716D02*
D03*
X1633730D02*
D03*
X1673730D02*
D03*
X1707834Y1258815D02*
D03*
X1738371Y1232978D02*
D03*
X1777612Y1225226D02*
D03*
X1897610Y1225055D02*
D03*
X1937610Y1224892D02*
D03*
X1949748Y1297047D02*
D03*
X1909954Y1301108D02*
D03*
X1869959Y1300504D02*
D03*
X1836225Y1321999D02*
D03*
X1853108Y1358261D02*
D03*
X1767553Y1362810D02*
D03*
X1631645Y1500725D02*
D03*
X1591645D02*
D03*
X1551645D02*
D03*
X1468986Y1432608D02*
D03*
X1500304Y1407725D02*
D03*
X1460305Y1408108D02*
D03*
X1482929Y1331892D02*
D03*
X1603108Y1386800D02*
D03*
X1614047Y1425275D02*
D03*
X1652620Y1414684D02*
D03*
X1680804Y1503840D02*
D03*
X1955050Y1572725D02*
D03*
X1915125Y1570284D02*
D03*
X1875125D02*
D03*
X1835125D02*
D03*
X1796555Y1559683D02*
D03*
X1768160Y1531511D02*
D03*
X1737864Y1505392D02*
D03*
X1737156Y1414608D02*
D03*
X1776892Y1410014D02*
D03*
X1853108Y1414858D02*
D03*
X1852008Y1454842D02*
D03*
X1852813Y1494834D02*
D03*
X1972768Y1497275D02*
D03*
X2012764Y1497802D02*
D03*
X2015993Y1571556D02*
D03*
X2047071Y1496892D02*
D03*
X2087069Y1497275D02*
D03*
X2127069D02*
D03*
X2105235Y1572725D02*
D03*
X2065235D02*
D03*
X2315000Y1810000D02*
D03*
X2220000Y1770000D02*
D03*
X2308204Y1732275D02*
D03*
X2346365Y1720284D02*
D03*
X2362275Y1683584D02*
D03*
Y1643584D02*
D03*
X2360283Y1603634D02*
D03*
X2331999Y1575350D02*
D03*
X2292085Y1572725D02*
D03*
X2215000Y1540000D02*
D03*
X2294869Y1497275D02*
D03*
X2334869D02*
D03*
X2372930Y1509579D02*
D03*
X2401214Y1537863D02*
D03*
X2429218Y1566424D02*
D03*
X2437725Y1605509D02*
D03*
Y1645509D02*
D03*
Y1685509D02*
D03*
X2437030Y1725503D02*
D03*
X2414676Y1758675D02*
D03*
X2386392Y1786959D02*
D03*
X2351970Y1807333D02*
D03*
X2123532Y1807725D02*
D03*
X2083532D02*
D03*
X1975000Y1770000D02*
D03*
X2064279Y1732275D02*
D03*
X2104279D02*
D03*
X2135000Y1735000D02*
D03*
X1868188Y1807725D02*
D03*
X1828188D02*
D03*
X1819279Y1732275D02*
D03*
X1859279D02*
D03*
X1899279D02*
D03*
X1638293Y1807725D02*
D03*
X1598293D02*
D03*
X1558315Y1806397D02*
D03*
X1526200Y1782551D02*
D03*
X1497916Y1754267D02*
D03*
X1469631Y1725982D02*
D03*
X1452275Y1689944D02*
D03*
X1422613Y1663108D02*
D03*
X1412290Y1586892D02*
D03*
X1452275Y1585811D02*
D03*
X1444608Y1546553D02*
D03*
X1534147Y1520741D02*
D03*
X1530015Y1560527D02*
D03*
X1527725Y1600461D02*
D03*
Y1640461D02*
D03*
X1530701Y1680350D02*
D03*
X1558985Y1708634D02*
D03*
X1591252Y1732275D02*
D03*
X1631252D02*
D03*
X1723738Y1773229D02*
D03*
X1323939Y1639849D02*
D03*
X1296950Y1610326D02*
D03*
X1292275Y1570600D02*
D03*
X1269489Y1537725D02*
D03*
X1229489D02*
D03*
X1189489D02*
D03*
X1150231Y1545392D02*
D03*
X1110231D02*
D03*
X1070231D02*
D03*
X1030231D02*
D03*
X1056041Y1454608D02*
D03*
X1096041D02*
D03*
X1136041D02*
D03*
X1175300Y1462275D02*
D03*
X1215300D02*
D03*
X1255300D02*
D03*
X1292275Y1447017D02*
D03*
X1292667Y1407019D02*
D03*
X1313671Y1372977D02*
D03*
X1341956Y1344693D02*
D03*
X1380206Y1332992D02*
D03*
X1420191Y1331892D02*
D03*
X1415089Y1408441D02*
D03*
X1376076Y1417275D02*
D03*
X1445000Y1460000D02*
D03*
X1382765Y1587802D02*
D03*
X1385993Y1661556D02*
D03*
X1205000Y1385000D02*
D03*
X1965000Y1455000D02*
D03*
X2540000Y1315000D02*
D03*
X1755000Y1675000D02*
D03*
X2055000D02*
D03*
X1650000D02*
D03*
X1805000D02*
D03*
X2005000Y1680000D02*
D03*
X1715000Y1865000D02*
D03*
X1770000D02*
D03*
X1665000D02*
D03*
X1955000Y1680000D02*
D03*
X2015000Y1870000D02*
D03*
X1950000D02*
D03*
X2195000Y1650000D02*
D03*
X2125000Y1870000D02*
D03*
X1105000Y1670000D02*
D03*
Y1330000D02*
D03*
X2950000Y1335000D02*
D03*
X2945000Y1670000D02*
D03*
X2195000Y1870000D02*
D03*
X2905000Y1335000D02*
D03*
X2900000Y1670000D02*
D03*
X2270000Y1440000D02*
D03*
X2605000Y1555000D02*
D03*
X2260000Y1870000D02*
D03*
X2160000Y1155000D02*
D03*
X1050000Y1330000D02*
D03*
X1055000Y1670000D02*
D03*
X2685000Y1550000D02*
D03*
X2785000Y1415000D02*
D03*
X2860000Y1335000D02*
D03*
X2785000Y1380000D02*
D03*
X2855000Y1670000D02*
D03*
X2790000Y1615000D02*
D03*
X1160000Y1330000D02*
D03*
X1205000Y1600000D02*
D03*
X1155000Y1670000D02*
D03*
X2220000Y1440000D02*
D03*
X2540000Y1360000D02*
D03*
X2120000Y1155000D02*
D03*
X2645000Y1555000D02*
D03*
X1700000Y1675000D02*
D03*
X1910000Y1680000D02*
D03*
%TF.MD5,64b15481c0554ae748ad3e7c745f031e*%
M02*
