%TF.GenerationSoftware,Altium Limited,Altium Designer,22.6.1 (34)*%
G04 Layer_Color=255*
%FSLAX26Y26*%
%MOIN*%
%TF.SameCoordinates,8B827DF8-CB59-4627-A0E1-72AFC477AE17*%
%TF.FilePolarity,Positive*%
%TF.FileFunction,Pads,Top*%
%TF.Part,Single*%
G01*
G75*
%TA.AperFunction,SMDPad,CuDef*%
%ADD10R,0.035433X0.031496*%
%ADD11R,0.031496X0.035433*%
%ADD12R,0.050000X0.020000*%
%ADD13R,0.041339X0.031890*%
%ADD14R,0.066929X0.031890*%
%TA.AperFunction,ConnectorPad*%
%ADD15R,0.141732X0.050000*%
%ADD16R,0.165354X0.053150*%
%TA.AperFunction,SMDPad,CuDef*%
%ADD17R,0.020000X0.050000*%
%ADD18R,0.013780X0.013780*%
%ADD19R,0.013780X0.013780*%
%TA.AperFunction,WasherPad*%
%ADD21C,0.120000*%
D10*
X1565000Y1372559D02*
D03*
Y1317441D02*
D03*
X1815000Y1357441D02*
D03*
Y1412559D02*
D03*
X2055000Y1207441D02*
D03*
Y1262559D02*
D03*
X1845000Y1207441D02*
D03*
Y1262559D02*
D03*
X2415000Y1207441D02*
D03*
Y1262559D02*
D03*
X2625000Y1512559D02*
D03*
Y1457441D02*
D03*
X2310000Y1207441D02*
D03*
Y1262559D02*
D03*
X1905000Y1477441D02*
D03*
Y1532559D02*
D03*
D11*
X1362441Y1625000D02*
D03*
X1417559D02*
D03*
X1417441Y1370000D02*
D03*
X1472559D02*
D03*
X1922441Y1263000D02*
D03*
X1977559D02*
D03*
X2047559Y1535000D02*
D03*
X1992441D02*
D03*
X2497441Y1455000D02*
D03*
X2552559D02*
D03*
D12*
X1400000Y1537000D02*
D03*
Y1463000D02*
D03*
X1490000D02*
D03*
Y1500000D02*
D03*
Y1537000D02*
D03*
X1400000Y1500000D02*
D03*
D13*
X2262323Y1817047D02*
D03*
Y1770000D02*
D03*
Y1722953D02*
D03*
X2177677D02*
D03*
Y1770000D02*
D03*
X2172677Y1487953D02*
D03*
Y1535000D02*
D03*
Y1582047D02*
D03*
X2257323D02*
D03*
Y1535000D02*
D03*
X2017323Y1817047D02*
D03*
Y1770000D02*
D03*
Y1722953D02*
D03*
X1932677D02*
D03*
Y1770000D02*
D03*
X1767323Y1817047D02*
D03*
Y1770000D02*
D03*
Y1722953D02*
D03*
X1682677D02*
D03*
Y1770000D02*
D03*
D14*
X2190472Y1817047D02*
D03*
X2244528Y1487953D02*
D03*
X1945472Y1817047D02*
D03*
X1695472D02*
D03*
D15*
X2910000Y1500000D02*
D03*
X1085000D02*
D03*
D16*
X2902126Y1388780D02*
D03*
Y1611220D02*
D03*
X1092874Y1388780D02*
D03*
Y1611220D02*
D03*
D17*
X1663000Y1370000D02*
D03*
X1737000D02*
D03*
Y1460000D02*
D03*
X1700000D02*
D03*
X1663000D02*
D03*
X1700000Y1370000D02*
D03*
D18*
X2251449Y1265000D02*
D03*
X2198299D02*
D03*
D19*
X2140000Y1246449D02*
D03*
Y1193299D02*
D03*
D21*
X2900000Y1900000D02*
D03*
Y1100000D02*
D03*
X1100000D02*
D03*
Y1900000D02*
D03*
%TF.MD5,454bdad2a5fe0d7ccdc79d1a96c4702d*%
M02*
